<svg xmlns="http://www.w3.org/2000/svg" xmlns:xlink="http://www.w3.org/1999/xlink" width="1042" height="632" viewBox="0 0 1042 632">
  <defs>
    <clipPath id="clip-path">
      <rect id="Rectangle_291" data-name="Rectangle 291" width="1042" height="632" transform="translate(0 4356)" fill="#fff" stroke="#707070" stroke-width="1"/>
    </clipPath>
  </defs>
  <g id="Mask_Group_26" data-name="Mask Group 26" transform="translate(0 -4356)" clip-path="url(#clip-path)">
    <g id="Group_14132" data-name="Group 14132" transform="translate(113.173 4105.444)" opacity="0.328" style="mix-blend-mode: luminosity;isolation: isolate">
      <path id="Path_9123" data-name="Path 9123" d="M364.477,182.914c-20.007-29.543-40.584-58.638-67.115-82.868A385.035,385.035,0,0,0,188.605,29.634,385.648,385.648,0,0,0,103.671,4.559,271.709,271.709,0,0,0,47.771.112c-6.421.2-5.821,3.5-5.831,7.643q-.046,43.749-.224,87.488c.183.692.366,1.374.56,2.066a20.193,20.193,0,0,1,4.559.641c46.965,18.043,87.9,44.553,121.153,83a285.862,285.862,0,0,1,54.038,92.4c13.708,38.763,20.028,78.6,16.11,120.125-2.341,24.78-6.31,49.021-14.318,72.406a288.167,288.167,0,0,1-53.58,93.706c-21.9,25.818-47.606,46.558-76.518,63.909-16.334,9.8-34.153,15.977-51.27,23.854l-.814-.01c.112,28.851.458,57.7.163,86.542-.071,6.859,1.527,8.711,8.6,8.752,49.458.336,96.362-10.93,141.557-30.214,49.947-21.32,92.282-53.346,128.755-93.187,17.6-19.224,32.128-40.849,45.632-63.126.051-.661.092-1.323.132-1.984,1.343-122.465-2.422-244.9-1.862-367.365-.041-1.282-.092-2.564-.132-3.847" transform="translate(887.76 0)" fill="#1156fc"/>
      <path id="Path_9124" data-name="Path 9124" d="M416.8,96.869c-.1-29.482-.387-58.973-.163-88.455.051-6.309-1.343-8.487-8.1-8.4a361.524,361.524,0,0,0-139.593,29.97C230.967,46.332,197.12,68.69,166.3,96.249a351.163,351.163,0,0,0-70.788,87.244c-.712,1.231-2.158,2.045-3.257,3.053-.132,1.3-.265,2.615-.407,3.918,1.526,44.543.376,89.106,1.506,133.68,1.954,77.149.427,154.389.366,231.589l.4,3.918c9.739,11.316,16.466,24.7,25.513,36.565a370.714,370.714,0,0,0,101.6,92.108,365.411,365.411,0,0,0,111.047,45.428c25.492,5.791,51.2,9.312,77.454,8.742,6.309-.142,6.869-2.656,6.859-7.765-.081-29.176.112-58.353.214-87.529-.2-.621-.407-1.231-.621-1.852a55.194,55.194,0,0,1-7.1-1.73c-45.662-17.555-85.311-43.5-117.57-80.914a299.954,299.954,0,0,1-55.961-96.037c-15.448-43.281-18.125-87.916-12.955-133.181,4.834-42.284,19.4-81.179,41.907-117.245a285.4,285.4,0,0,1,67.308-74.208c25.381-19.773,53.061-35.791,84.374-44.645Z" transform="translate(326.764 0.144)" fill="#ffc324"/>
      <path id="Path_9125" data-name="Path 9125" d="M388.746,519.856l-.4-3.928c-6.655-9.7-11.51-20.323-16.435-30.978-17.941-38.783-28.82-79.642-31.405-122.038-2.076-33.858-1.811-67.98,5.058-101.654,7.968-39.017,20.5-76.233,40.91-110.589.132-1.3.265-2.615.407-3.918-.071-44.726-.214-89.452-.122-134.179.01-6.269.315-9.393-8.457-7.816a323.949,323.949,0,0,0-68.9,20.608,280.5,280.5,0,0,0-92.068,62.586c-41.276,42.233-67.807,92.841-82.38,149.881A366.059,366.059,0,0,0,124.052,351.1c2.483,40.35,11.479,79.439,28.5,116.512A337.918,337.918,0,0,0,212.8,557.876,331.3,331.3,0,0,0,381.266,655.2c6.747,1.6,9.688.55,9.22-7.123-2.605-42.711-2.178-85.473-1.74-128.225" transform="translate(32.132 39.939)" fill="#fe6e4b"/>
      <path id="Path_9126" data-name="Path 9126" d="M15.812,140.415c.041,1.282.092,2.564.132,3.847,8.732,10.675,13.209,23.549,18.817,35.873,20.292,44.645,29.512,91.854,31.263,140.478,1.191,33.033-2.89,65.741-10.96,97.889-8.213,32.738-19.875,64.072-37.257,93.126-.041.661-.081,1.323-.132,1.984.03,31.374.458,62.749-.092,94.113-.265,14.888,2.412,29.543,2.035,44.37-.1,3.888.672,5.129,5.373,4.315,45.428-7.9,87.214-24.515,124.684-51.494,35.079-25.279,62.963-56.948,84.934-94.276,21.656-36.768,34.56-76.589,41.775-118.089,5.648-32.474,5.892-65.487,2.656-98.55a321.29,321.29,0,0,0-35.527-119.107c-13.392-25.543-30.245-48.593-49.591-70.1-30.591-34.02-67.145-59.411-108.4-78.431C64.762,16.8,43.025,10.012,20.738,4.913c-6.32-1.445-4.783,2.992-4.793,5.974-.092,25.777-.041,51.565-.051,77.342q-.015,26.1-.081,52.186" transform="translate(1236.421 42.5)" fill="#5856fc"/>
      <path id="Path_9127" data-name="Path 9127" d="M73.5,571.4c.2.611.417,1.231.621,1.842,13.84,2.707,27.11,7.7,41.154,9.729,24.047,3.47,47.861,6.055,72.457,3.867a400.1,400.1,0,0,0,72.2-13.6l.824.02c-.163-3.084-.458-6.177-.468-9.271q-.031-266.2,0-532.42c0-2.778.183-5.567.285-8.355-.183-.692-.366-1.384-.55-2.066-15.428-2.412-30.143-7.846-45.7-10.024-27.68-3.877-55.249-3.776-82.98-1.282-19.7,1.771-38.651,6.544-57.223,13.077l-.621.509c.1,2.483.3,4.956.3,7.439q.03,266.541,0,533.092c0,2.483-.193,4.956-.3,7.439" transform="translate(669.451 74.093)" fill="#91bcff"/>
      <path id="Path_9128" data-name="Path 9128" d="M293.338,566.115V8.661c-75.521,51.28-119.3,121.834-135.166,208.346C132.12,359.082,175.981,475.869,293.338,566.115" transform="translate(-150.914 79.479)" fill="#ff4672"/>
      <path id="Path_9129" data-name="Path 9129" d="M.418,9.821V564.212C86.543,504.343,128.4,421.17,139.6,320.788,147.49,250.03,134.464,182.8,100.22,120.37,76.051,76.295,42.926,39.75.418,9.821" transform="translate(1532.131 90.123)" fill="#7f46c9"/>
      <path id="Path_9162" data-name="Path 9162" d="M54.461,9.562c-.1,2.788-.285,5.577-.285,8.365q-.031,266.2,0,532.42c0,3.083.305,6.177.458,9.261,17.117-7.877,34.947-14.054,51.27-23.854,28.912-17.351,54.628-38.091,76.528-63.919a288.278,288.278,0,0,0,53.57-93.7c8.019-23.386,11.978-47.627,14.319-72.407,3.928-41.531-2.4-81.362-16.11-120.125a285.836,285.836,0,0,0-54.028-92.4C146.916,54.756,106,28.246,59.02,10.2a20.193,20.193,0,0,0-4.559-.641" transform="translate(875.572 87.747)" fill="#0a3ffc"/>
      <path id="Path_9163" data-name="Path 9163" d="M38.825,385.708c17.382-29.054,29.044-60.388,37.257-93.126,8.07-32.148,12.151-64.856,10.96-97.879-1.75-48.634-10.97-95.833-31.273-140.478C50.171,41.9,45.684,29.018,36.962,18.353c-.56,122.455,3.206,244.89,1.862,367.355" transform="translate(1215.407 168.418)" fill="#061df9"/>
      <path id="Path_9164" data-name="Path 9164" d="M287.87,557.553c.1-2.483.3-4.956.3-7.439q.03-266.541,0-533.092c0-2.483-.193-4.956-.3-7.439-31.314,8.864-58.994,24.882-84.374,44.655a285.02,285.02,0,0,0-67.308,74.2C113.667,164.5,99.114,203.4,94.281,245.68c-5.18,45.276-2.5,89.91,12.945,133.181a299.894,299.894,0,0,0,55.961,96.047c32.27,37.4,71.918,63.36,117.581,80.9a55.242,55.242,0,0,0,7.1,1.74" transform="translate(455.085 87.939)" fill="#919024"/>
      <path id="Path_9165" data-name="Path 9165" d="M170.635,18.73c-20.414,34.356-32.952,71.562-40.91,110.579-6.869,33.685-7.134,67.807-5.058,101.654,2.585,42.406,13.464,83.255,31.405,122.048,4.925,10.655,9.78,21.279,16.425,30.978.071-77.2,1.6-154.44-.366-231.589-1.13-44.574.02-89.127-1.5-133.67" transform="translate(247.98 171.878)" fill="#fe540b"/>
    </g>
  </g>
</svg>
