<svg xmlns="http://www.w3.org/2000/svg" width="20.266" height="19.932" viewBox="0 0 20.266 19.932">
  <path id="Path_7690" data-name="Path 7690" d="M3.8,18.389h2v2.343H17.165V18.389h2a2.2,2.2,0,0,0,2.2-2.2V9.16a2.2,2.2,0,0,0-2.2-2.2H17.235V4.288L14.251,1.3H5.377V6.961H3.8a2.2,2.2,0,0,0-2.2,2.2v7.029a2.2,2.2,0,0,0,2.2,2.2Zm12.511,1.488H6.659V14.923h9.656v4.954ZM6.232,2.155H13.9l2.487,2.487v2.32H6.232ZM2.455,9.16A1.345,1.345,0,0,1,3.8,7.816H5.373v.027h.855V7.816H19.166A1.345,1.345,0,0,1,20.511,9.16v7.029a1.345,1.345,0,0,1-1.344,1.344h-2V14.068H5.8v3.466h-2a1.345,1.345,0,0,1-1.344-1.344Z" transform="translate(-1.35 -1.05)" fill="#173055" stroke="#01023a" stroke-width="0.5"/>
</svg>
