<svg width="75" height="75" viewBox="0 0 75 75" fill="none" xmlns="http://www.w3.org/2000/svg">
<g filter="url(#filter0_d_1309_12)">
<path d="M37.9961 64.9956C52.9078 64.9956 64.9961 52.9073 64.9961 37.9956C64.9961 23.0839 52.9078 10.9956 37.9961 10.9956C23.0844 10.9956 10.9961 23.0839 10.9961 37.9956C10.9961 52.9073 23.0844 64.9956 37.9961 64.9956Z" fill="white"/>
</g>
<path d="M38.2691 27.271L30.7371 34.803C30.535 35.0048 30.4213 35.2786 30.4211 35.5642C30.421 35.8499 30.5342 36.1239 30.7361 36.326C30.9379 36.528 31.2117 36.6417 31.4974 36.6419C31.783 36.6421 32.057 36.5288 32.2591 36.327L37.9591 30.627V49.551C37.9591 49.8363 38.0724 50.11 38.2742 50.3118C38.476 50.5136 38.7497 50.627 39.0351 50.627C39.3204 50.627 39.5941 50.5136 39.7959 50.3118C39.9977 50.11 40.1111 49.8363 40.1111 49.551V30.627L45.8111 36.327C45.9082 36.4387 46.0273 36.5291 46.1609 36.5927C46.2946 36.6563 46.44 36.6916 46.5879 36.6965C46.7358 36.7013 46.8832 36.6756 47.0207 36.6209C47.1583 36.5662 47.283 36.4838 47.3873 36.3786C47.4915 36.2735 47.5729 36.1481 47.6264 36.01C47.6799 35.872 47.7044 35.7245 47.6982 35.5766C47.6921 35.4287 47.6556 35.2837 47.5908 35.1505C47.5261 35.0174 47.4346 34.8991 47.3221 34.803L39.7901 27.271C39.5883 27.0694 39.3148 26.9561 39.0296 26.9561C38.7444 26.9561 38.4708 27.0694 38.2691 27.271Z" fill="#173055"/>
<defs>
<filter id="filter0_d_1309_12" x="0.996094" y="0.995605" width="74" height="74" filterUnits="userSpaceOnUse" color-interpolation-filters="sRGB">
<feFlood flood-opacity="0" result="BackgroundImageFix"/>
<feColorMatrix in="SourceAlpha" type="matrix" values="0 0 0 0 0 0 0 0 0 0 0 0 0 0 0 0 0 0 127 0" result="hardAlpha"/>
<feOffset/>
<feGaussianBlur stdDeviation="5"/>
<feColorMatrix type="matrix" values="0 0 0 0 0 0 0 0 0 0 0 0 0 0 0 0 0 0 0.102 0"/>
<feBlend mode="normal" in2="BackgroundImageFix" result="effect1_dropShadow_1309_12"/>
<feBlend mode="normal" in="SourceGraphic" in2="effect1_dropShadow_1309_12" result="shape"/>
</filter>
</defs>
</svg>
