<svg id="Group_12617" data-name="Group 12617" xmlns="http://www.w3.org/2000/svg" width="18.11" height="18.188" viewBox="0 0 18.11 18.188">
  <path id="Path_7477" data-name="Path 7477" d="M15.224,37.99a1.854,1.854,0,0,0-1.344-.616,1.917,1.917,0,0,0-1.36.613l-1.257,1.253c-.1-.056-.207-.107-.306-.159-.143-.072-.278-.139-.394-.211a13.66,13.66,0,0,1-3.273-2.983,8.059,8.059,0,0,1-1.074-1.694c.326-.3.628-.609.923-.907.111-.111.223-.227.334-.338a1.825,1.825,0,0,0,0-2.752L6.387,29.108c-.123-.123-.251-.251-.37-.378-.239-.247-.489-.5-.748-.74a1.883,1.883,0,0,0-1.332-.585,1.948,1.948,0,0,0-1.352.585L2.576,28,1.224,29.363a2.91,2.91,0,0,0-.863,1.849A6.972,6.972,0,0,0,.87,34.164a17.125,17.125,0,0,0,3.043,5.075,18.717,18.717,0,0,0,6.233,4.88,9.711,9.711,0,0,0,3.5,1.034c.084,0,.171.008.251.008a3,3,0,0,0,2.295-.986c0-.008.012-.012.016-.02a9.042,9.042,0,0,1,.7-.72c.171-.163.346-.334.517-.513a1.984,1.984,0,0,0,.6-1.376,1.912,1.912,0,0,0-.613-1.364Zm1.424,4.188s0,0,0,0c-.155.167-.314.318-.485.485a10.457,10.457,0,0,0-.768.8,1.917,1.917,0,0,1-1.5.632c-.06,0-.123,0-.183,0a8.627,8.627,0,0,1-3.1-.931,17.668,17.668,0,0,1-5.871-4.6A16.147,16.147,0,0,1,1.88,33.79a5.679,5.679,0,0,1-.445-2.49,1.826,1.826,0,0,1,.549-1.181L3.34,28.762a.9.9,0,0,1,.6-.282.851.851,0,0,1,.581.278l.012.012c.243.227.473.461.716.712.123.127.251.255.378.386l1.086,1.086a.759.759,0,0,1,0,1.233c-.115.115-.227.231-.342.342-.334.342-.652.66-1,.97-.008.008-.016.012-.02.02a.811.811,0,0,0-.207.9l.012.036a8.717,8.717,0,0,0,1.285,2.1l0,0a14.6,14.6,0,0,0,3.532,3.214,5.428,5.428,0,0,0,.489.266c.143.072.278.139.394.211.016.008.032.02.048.028a.862.862,0,0,0,.394.1.85.85,0,0,0,.6-.274l1.36-1.36a.9.9,0,0,1,.6-.3.81.81,0,0,1,.573.29l.008.008,2.192,2.192A.786.786,0,0,1,16.648,42.178Z" transform="translate(-0.128 -27.189)" fill="#173055"/>
  <path id="Path_7477_-_Outline" data-name="Path 7477 - Outline" d="M13.863,45.345c-.082,0-.17,0-.261-.008a9.961,9.961,0,0,1-3.583-1.055,18.935,18.935,0,0,1-6.306-4.937,17.349,17.349,0,0,1-3.08-5.139,7.18,7.18,0,0,1-.522-3.044,3.126,3.126,0,0,1,.926-1.985L2.4,27.8A2.16,2.16,0,0,1,3.9,27.156a2.092,2.092,0,0,1,1.482.645c.265.245.519.5.754.746.119.127.245.253.367.375l1.086,1.086a2.048,2.048,0,0,1,0,3.059l-.166.168-.168.17-.084.086c-.233.237-.473.48-.728.719a8.109,8.109,0,0,0,.98,1.508,13.449,13.449,0,0,0,3.22,2.935c.1.065.236.131.374.2l.1.054.065.033,1.144-1.14a2.131,2.131,0,0,1,1.513-.676,2.063,2.063,0,0,1,1.5.683L17.528,40a2.12,2.12,0,0,1,.676,1.517,2.194,2.194,0,0,1-.661,1.526c-.149.156-.316.321-.524.52l-.055.053a8.229,8.229,0,0,0-.617.639l-.008.01,0,0-.021.023A3.208,3.208,0,0,1,13.863,45.345ZM3.9,27.59a1.733,1.733,0,0,0-1.2.524l0,0L1.345,29.482a2.7,2.7,0,0,0-.8,1.716,6.77,6.77,0,0,0,.5,2.857,16.929,16.929,0,0,0,3.006,5.012,18.5,18.5,0,0,0,6.16,4.824,9.554,9.554,0,0,0,3.42,1.013c.085,0,.164.008.237.008A2.79,2.79,0,0,0,15.988,44L16,43.99l.005-.006a8.425,8.425,0,0,1,.657-.684l.056-.054c.2-.195.366-.356.511-.507a1.771,1.771,0,0,0,.541-1.226,1.7,1.7,0,0,0-.548-1.21L15.037,38.11a1.644,1.644,0,0,0-1.191-.553,1.708,1.708,0,0,0-1.207.549l-1.371,1.367-.142-.076c-.067-.036-.134-.071-.2-.1l-.1-.053c-.145-.072-.284-.142-.408-.219a13.881,13.881,0,0,1-3.327-3.03,8.228,8.228,0,0,1-1.1-1.742L5.92,34.1,6.036,34c.29-.266.564-.544.829-.812l.086-.087.167-.169.168-.17a1.6,1.6,0,0,0,0-2.446L6.2,29.229c-.124-.124-.253-.253-.375-.383-.229-.236-.478-.49-.737-.729l-.005-.005A1.669,1.669,0,0,0,3.9,27.59Zm9.963,16.685c-.061,0-.131,0-.2,0a8.818,8.818,0,0,1-3.182-.951,17.879,17.879,0,0,1-5.943-4.654,16.378,16.378,0,0,1-2.9-4.833,5.865,5.865,0,0,1-.458-2.583A2.037,2.037,0,0,1,1.8,29.932l1.361-1.361a1.118,1.118,0,0,1,.753-.341,1.046,1.046,0,0,1,.734.342l.009.009c.234.219.457.445.721.717l.188.192.19.194,1.083,1.083a.973.973,0,0,1,0,1.54l-.114.115c-.074.075-.151.153-.229.228-.356.365-.663.67-1,.974l-.016.016a.594.594,0,0,0-.153.684l.008.025a8.516,8.516,0,0,0,1.244,2.028l.01.012a14.371,14.371,0,0,0,3.479,3.167,5.251,5.251,0,0,0,.47.256c.145.073.282.141.4.216l.031.018.008.005a.644.644,0,0,0,.294.075.636.636,0,0,0,.451-.211l1.36-1.36a1.108,1.108,0,0,1,.754-.362,1.026,1.026,0,0,1,.729.357l2.2,2.2a.971.971,0,0,1,.272,1.181h.1l-.367.368c-.128.138-.26.266-.4.4l-.09.088a10.334,10.334,0,0,0-.754.781l-.007.008A2.123,2.123,0,0,1,13.867,44.275ZM3.458,28.885,2.1,30.239a1.619,1.619,0,0,0-.486,1.046,5.463,5.463,0,0,0,.433,2.4,15.959,15.959,0,0,0,2.827,4.706,17.446,17.446,0,0,0,5.8,4.541,8.416,8.416,0,0,0,3.022.909c.053,0,.112,0,.169,0a1.693,1.693,0,0,0,1.334-.56,10.73,10.73,0,0,1,.78-.808l.089-.087c.113-.11.221-.215.326-.324v-.132h.123a.559.559,0,0,0-.06-.875l-2.207-2.207a.605.605,0,0,0-.412-.22.7.7,0,0,0-.447.235l-1.36,1.36a1.053,1.053,0,0,1-.758.338,1.079,1.079,0,0,1-.491-.122c-.014-.007-.028-.015-.042-.024l-.023-.014c-.107-.066-.238-.132-.376-.2a5.588,5.588,0,0,1-.508-.277A14.788,14.788,0,0,1,6.256,36.67l-.013-.015a8.934,8.934,0,0,1-1.315-2.148l-.017-.05a1.034,1.034,0,0,1,.247-1.112.262.262,0,0,1,.037-.037l0,0c.332-.3.635-.6.988-.961l0,0c.075-.072.147-.145.224-.223L6.53,32a.551.551,0,0,0,0-.926L5.444,29.988l-.19-.194-.19-.194c-.26-.269-.48-.491-.708-.7l-.017-.017a.645.645,0,0,0-.427-.215A.7.7,0,0,0,3.458,28.885Z" transform="translate(-0.094 -27.156)" fill="#173055"/>
</svg>
