<svg id="waze" xmlns="http://www.w3.org/2000/svg" width="44.71" height="40.285" viewBox="0 0 44.71 40.285">
  <path id="path4931_3_" d="M22.232,1.984a20.14,20.14,0,0,0-9.69,4.132,15.221,15.221,0,0,0-5.7,9.006,30.445,30.445,0,0,0-.379,3.394c-.353,4.712-.842,7.574-4.663,7.574a1.177,1.177,0,0,0-1.051.655,1.191,1.191,0,0,0,.114,1.241c5.2,6.954,13.6,7.7,22.255,7.7a24.863,24.863,0,0,0,8.7-1.169A17.684,17.684,0,0,0,42.24,24.071,15.915,15.915,0,0,0,40.063,9.522,18.952,18.952,0,0,0,22.232,1.984Z" transform="translate(0.479 -0.707)" fill="#cfd8dc"/>
  <path id="path4943_3_" d="M25.225,1.182C16.693,1.182,7.863,6.9,6.217,15.389c-.5,2.579-.316,6.514-1.264,8.54-1.173,2.508-3.53.354-4.708,2.733A2.373,2.373,0,0,0,.47,29.134c5.468,7.3,14.147,8.141,23.12,8.141,6.173,0,10.945-.857,15.731-5.483,11.868-11.466,2.772-30.61-14.1-30.61Zm0,2.358c10.556,0,19.95,9.489,16.316,20.616a16.492,16.492,0,0,1-9.685,9.669,24.093,24.093,0,0,1-8.264,1.089c-7.817,0-16.161-.4-21.251-7.2,6.626,0,5.317-7.455,6.175-11.875C9.937,8.513,17.777,3.54,25.225,3.54Z" transform="translate(0.001 -1.182)" fill="#424242"/>
  <path id="path4955_6_" d="M13.766,21.828a4.44,4.44,0,1,1-4.8-4.044A4.439,4.439,0,0,1,13.766,21.828Z" transform="translate(4.361 13.632)" fill="#424242"/>
  <path id="path4955_1_" d="M9.937,20.9a1.759,1.759,0,1,1-1.9-1.6A1.758,1.758,0,0,1,9.937,20.9Z" transform="translate(5.6 14.788)" fill="#cfd8dc"/>
  <path id="path4979_6_" d="M22.413,21.828a4.438,4.438,0,0,1-4.044,4.8c-5.848.5-6.62-8.345-.76-8.848A4.44,4.44,0,0,1,22.413,21.828Z" transform="translate(12.076 13.632)" fill="#424242"/>
  <path id="path4979_1_" d="M18.6,20.9a1.759,1.759,0,1,1-1.9-1.6,1.758,1.758,0,0,1,1.9,1.6Z" transform="translate(13.144 14.788)" fill="#cfd8dc"/>
  <g id="Group_14070" data-name="Group 14070" transform="translate(17.008 11.773)">
    <path id="path5003_3_" d="M13.261,9.624A2.125,2.125,0,1,1,11.135,7.5,2.123,2.123,0,0,1,13.261,9.624Z" transform="translate(-8.738 -7.168)" fill="#424242"/>
    <path id="path5015_3_" d="M19.03,9.435a2.124,2.124,0,1,1-2.124-2.124A2.123,2.123,0,0,1,19.03,9.435Z" transform="translate(-4.362 -7.311)" fill="#424242"/>
    <path id="path5027_3_" d="M16.357,18.229c-4.021,0-7.149-2.836-7.492-5.829a1.106,1.106,0,0,1,2.2-.253c.271,2.356,3.088,3.93,5.456,3.867,3.019-.079,5.015-1.885,5.425-3.627a1.106,1.106,0,0,1,2.154.506C23.438,15.7,20.426,18.229,16.357,18.229Z" transform="translate(-8.856 -4.38)" fill="#424242"/>
  </g>
</svg>
