<svg width="74" height="74" viewBox="0 0 74 74" fill="none" xmlns="http://www.w3.org/2000/svg">
<g filter="url(#filter0_d_1309_17)">
<path d="M36.8364 61.6665H36.834C32.2086 61.6661 27.678 60.3668 23.732 57.9092L22.912 57.3985L22.0022 57.7233L12.6325 61.0682L16.1158 52.0307L16.4802 51.0852L15.9333 50.2321C13.3657 46.2264 12.0079 41.5944 12.007 36.8367C12.0062 33.4836 12.6618 30.2317 13.9555 27.1713C15.2054 24.2144 16.9956 21.5582 19.2762 19.2766C21.5568 16.995 24.2122 15.2037 27.1687 13.9525C30.2284 12.6575 33.4801 12.0006 36.8332 11.9999L36.8591 11.9999C41.5044 11.9999 46.0438 13.2979 49.9866 15.7536C52.8329 17.5263 55.2462 19.8024 57.1594 22.5187C59.008 25.1433 60.3157 28.0673 61.046 31.2095C61.7764 34.3518 61.8924 37.5528 61.3908 40.7236C60.8717 44.0053 59.7097 47.1125 57.9371 49.9587C55.6658 53.6056 52.4831 56.6096 48.7329 58.6461C45.0943 60.622 40.9802 61.6665 36.8364 61.6665Z" fill="#4CAF50"/>
<path d="M36.859 13.9999L36.8335 13.9999C33.7495 14.0005 30.7601 14.6043 27.9481 15.7943C25.2301 16.9447 22.7883 18.592 20.6907 20.6905C18.593 22.7891 16.9467 25.2315 15.7976 27.9501C14.6087 30.7625 14.0063 33.7523 14.0069 36.8363C14.0078 41.2107 15.2562 45.4697 17.6171 49.1528L18.7107 50.8589L16.0669 57.7185L23.1493 55.1901L24.7893 56.2115C28.4184 58.4718 32.5833 59.6665 36.8338 59.6665C40.6466 59.6665 44.4312 58.7058 47.7785 56.8882C51.2251 55.0166 54.1509 52.2549 56.2394 48.9014C57.8697 46.2836 58.9383 43.4271 59.4153 40.4112C59.8764 37.496 59.7696 34.5524 59.0979 31.6623C58.4261 28.7722 57.2238 26.0834 55.5242 23.6704C53.766 21.1741 51.5471 19.0817 48.9292 17.4512C45.3041 15.1934 41.1303 13.9999 36.859 13.9999ZM36.8591 9.99988C41.8733 9.99994 46.7876 11.405 51.0439 14.0559C63.6225 21.8899 67.4686 38.4375 59.6347 51.0161C54.5492 59.1817 45.794 63.6665 36.8338 63.6665C31.9915 63.6665 27.0875 62.3553 22.6746 59.6068L11.4948 63.598C11.3744 63.6416 11.2473 63.6635 11.1192 63.6629C10.9828 63.6631 10.8443 63.6376 10.7155 63.5879C10.1395 63.3657 9.85272 62.7184 10.075 62.1424L14.2495 51.3114C11.4804 46.9916 10.008 41.9683 10.0069 36.8371C10.0038 22.0185 22.0141 10.003 36.8327 9.99989C36.8416 9.99989 36.8502 9.99988 36.8591 9.99988Z" fill="white"/>
</g>
<path d="M47.3149 40.589C47.3149 40.589 45.0709 39.489 43.6649 38.757C42.0749 37.938 40.2059 39.472 39.3259 40.344C37.9435 39.8459 36.6881 39.0489 35.6491 38.0099C34.6101 36.9709 33.8131 35.7154 33.3149 34.333C34.1869 33.452 35.7149 31.585 34.9019 29.994C34.1779 28.587 33.0699 26.344 33.0699 26.342C32.9931 26.1914 32.8762 26.065 32.732 25.9767C32.5878 25.8885 32.422 25.8419 32.2529 25.842H30.4209C29.1286 26.0653 27.9579 26.7414 27.1187 27.7492C26.2795 28.757 25.8265 30.0306 25.8409 31.342C25.8409 34.219 29.2839 39.742 31.6049 42.068C33.9259 44.394 39.4519 47.832 42.3309 47.832C43.6423 47.8464 44.916 47.3934 45.9238 46.5542C46.9316 45.715 47.6077 44.5444 47.8309 43.252V41.42C47.8322 41.2469 47.7844 41.077 47.6931 40.9299C47.6018 40.7828 47.4707 40.6646 47.3149 40.589Z" fill="#FAFAFA"/>
<defs>
<filter id="filter0_d_1309_17" x="-0.000244141" y="-0.00012207" width="73.6946" height="73.6666" filterUnits="userSpaceOnUse" color-interpolation-filters="sRGB">
<feFlood flood-opacity="0" result="BackgroundImageFix"/>
<feColorMatrix in="SourceAlpha" type="matrix" values="0 0 0 0 0 0 0 0 0 0 0 0 0 0 0 0 0 0 127 0" result="hardAlpha"/>
<feOffset/>
<feGaussianBlur stdDeviation="5"/>
<feColorMatrix type="matrix" values="0 0 0 0 0 0 0 0 0 0 0 0 0 0 0 0 0 0 0.161 0"/>
<feBlend mode="normal" in2="BackgroundImageFix" result="effect1_dropShadow_1309_17"/>
<feBlend mode="normal" in="SourceGraphic" in2="effect1_dropShadow_1309_17" result="shape"/>
</filter>
</defs>
</svg>
