<svg xmlns="http://www.w3.org/2000/svg" width="18.29" height="18.29" viewBox="0 0 18.29 18.29">
  <g id="Group_14264" data-name="Group 14264" transform="translate(-1205 -6162.355)">
    <path id="Path_7775" data-name="Path 7775" d="M18.459,16a.831.831,0,0,0-.831.831v3.325H2.663V16.831a.831.831,0,1,0-1.663,0v4.157a.831.831,0,0,0,.831.831H18.459a.831.831,0,0,0,.831-.831V16.831A.831.831,0,0,0,18.459,16Z" transform="translate(1204 6158.826)" fill="#fff"/>
    <path id="Path_7776" data-name="Path 7776" d="M10.232,14.89a.831.831,0,0,0,1.176,0L16.4,9.9A.831.831,0,1,0,15.22,8.726l-3.569,3.569V1.831a.831.831,0,1,0-1.663,0V12.295L6.419,8.726A.831.831,0,1,0,5.244,9.9Z" transform="translate(1203.325 6161.355)" fill="#fff"/>
  </g>
</svg>
