<svg width="75" height="75" viewBox="0 0 75 75" fill="none" xmlns="http://www.w3.org/2000/svg">
<g filter="url(#filter0_d_1309_3)">
<path d="M37.9961 64.9956C52.9078 64.9956 64.9961 52.9073 64.9961 37.9956C64.9961 23.0839 52.9078 10.9956 37.9961 10.9956C23.0844 10.9956 10.9961 23.0839 10.9961 37.9956C10.9961 52.9073 23.0844 64.9956 37.9961 64.9956Z" fill="#2C6AEC"/>
</g>
<path d="M45.984 45.0876C45.8241 45.0175 45.6519 44.9798 45.4773 44.9766C45.3027 44.9733 45.1292 45.0047 44.9668 45.0688C44.8044 45.133 44.6563 45.2286 44.5311 45.3503C44.4058 45.4719 44.3059 45.6172 44.237 45.7776C43.6905 47.0311 42.8542 48.1369 41.797 49.0041C40.7399 49.8714 39.4919 50.4753 38.1558 50.7663C36.8198 51.0573 35.4337 51.027 34.1116 50.678C32.7895 50.3289 31.5691 49.671 30.5508 48.7584C29.5325 47.8458 28.7454 46.7045 28.2541 45.4284C27.7628 44.1523 27.5814 42.7778 27.7249 41.418C27.8683 40.0581 28.3324 38.7517 29.0791 37.6062C29.8258 36.4607 30.8338 35.5087 32.02 34.8286C32.1737 34.7432 32.309 34.6282 32.4179 34.4901C32.5268 34.3521 32.6073 34.1938 32.6546 34.0245C32.7019 33.8551 32.7151 33.6781 32.6935 33.5035C32.6719 33.329 32.6159 33.1605 32.5287 33.0078C32.4415 32.8551 32.3248 32.7213 32.1855 32.614C32.0462 32.5067 31.887 32.4281 31.7171 32.3828C31.5472 32.3375 31.37 32.3263 31.1957 32.35C31.0215 32.3736 30.8537 32.4317 30.702 32.5206C29.1489 33.4091 27.829 34.6536 26.8509 36.1519C25.8728 37.6501 25.2644 39.3592 25.0759 41.1385C24.8873 42.9178 25.124 44.7164 25.7664 46.3864C26.4088 48.0563 27.4386 49.5498 28.771 50.744C30.1035 51.9382 31.7004 52.799 33.4305 53.2554C35.1605 53.7118 36.9742 53.7508 38.7224 53.3693C40.4705 52.9878 42.103 52.1967 43.4856 51.0609C44.8682 49.9252 45.9613 48.4774 46.675 46.8366C46.7447 46.6765 46.7822 46.5041 46.7851 46.3294C46.7881 46.1548 46.7566 45.9812 46.6924 45.8188C46.6283 45.6563 46.5326 45.5081 46.4111 45.3826C46.2895 45.2572 46.1444 45.1569 45.984 45.0876Z" fill="#F2F7FE"/>
<path d="M55.505 46.4787C55.4406 46.3161 55.3447 46.1679 55.2228 46.0426C55.1009 45.9172 54.9554 45.8172 54.7948 45.7483C54.6341 45.6793 54.4614 45.6428 54.2866 45.6408C54.1117 45.6388 53.9382 45.6714 53.776 45.7367L51.787 46.5367L48.893 37.2687C48.8081 36.9981 48.639 36.7617 48.4104 36.5939C48.1818 36.4261 47.9056 36.3356 47.622 36.3357H38.122L37.708 33.6767H42.964C43.1417 33.6815 43.3185 33.6508 43.4841 33.5861C43.6496 33.5215 43.8006 33.4244 43.928 33.3004C44.0553 33.1765 44.1566 33.0283 44.2257 32.8646C44.2949 32.7008 44.3305 32.5249 44.3305 32.3472C44.3305 32.1694 44.2949 31.9935 44.2257 31.8298C44.1566 31.6661 44.0553 31.5178 43.928 31.3939C43.8006 31.27 43.6496 31.1728 43.4841 31.1082C43.3185 31.0436 43.1417 31.0128 42.964 31.0177H37.296L36.609 26.5887C37.275 26.2158 37.7923 25.6251 38.074 24.9157C38.3557 24.2064 38.3846 23.4217 38.1559 22.6936C37.9273 21.9654 37.4549 21.3382 36.8182 20.9173C36.1816 20.4963 35.4194 20.3074 34.6599 20.3822C33.9003 20.457 33.1897 20.791 32.6474 21.328C32.1051 21.8651 31.7642 22.5724 31.6819 23.3312C31.5997 24.09 31.7812 24.8539 32.1959 25.4947C32.6105 26.1354 33.2331 26.6139 33.959 26.8497L35.668 37.8707C35.7167 38.1843 35.8759 38.4701 36.1169 38.6766C36.3578 38.8831 36.6647 38.9966 36.982 38.9967H46.642L49.674 48.6967C49.7297 48.8708 49.8205 49.0317 49.941 49.1693C50.0614 49.307 50.2088 49.4184 50.374 49.4967C50.5396 49.5754 50.7196 49.6191 50.9029 49.6251C51.0861 49.6311 51.2686 49.5993 51.439 49.5317L54.763 48.2017C55.0893 48.0708 55.3505 47.8161 55.4896 47.4933C55.6286 47.1704 55.6342 46.8056 55.505 46.4787Z" fill="#F2F7FE"/>
<defs>
<filter id="filter0_d_1309_3" x="0.996094" y="0.995605" width="74" height="74" filterUnits="userSpaceOnUse" color-interpolation-filters="sRGB">
<feFlood flood-opacity="0" result="BackgroundImageFix"/>
<feColorMatrix in="SourceAlpha" type="matrix" values="0 0 0 0 0 0 0 0 0 0 0 0 0 0 0 0 0 0 127 0" result="hardAlpha"/>
<feOffset/>
<feGaussianBlur stdDeviation="5"/>
<feColorMatrix type="matrix" values="0 0 0 0 0 0 0 0 0 0 0 0 0 0 0 0 0 0 0.161 0"/>
<feBlend mode="normal" in2="BackgroundImageFix" result="effect1_dropShadow_1309_3"/>
<feBlend mode="normal" in="SourceGraphic" in2="effect1_dropShadow_1309_3" result="shape"/>
</filter>
</defs>
</svg>
