<svg xmlns="http://www.w3.org/2000/svg" xmlns:xlink="http://www.w3.org/1999/xlink" width="203.276" height="56.596" viewBox="0 0 203.276 56.596">
  <defs>
    <clipPath id="clip-path">
      <rect id="Rectangle_147" data-name="Rectangle 147" width="125.798" height="17.821" fill="none"/>
    </clipPath>
    <clipPath id="clip-path-2">
      <rect id="Rectangle_150" data-name="Rectangle 150" width="56.596" height="56.596" fill="none"/>
    </clipPath>
  </defs>
  <g id="Group_14245" data-name="Group 14245" transform="translate(-1368.32 -13)">
    <g id="Group_13740" data-name="Group 13740" transform="translate(1368.32 30.309)">
      <g id="Group_13739" data-name="Group 13739" transform="translate(0 0)" clip-path="url(#clip-path)">
        <path id="Path_7722" data-name="Path 7722" d="M13.132,3.518a9.073,9.073,0,0,1,.1,1.347,4.246,4.246,0,0,1-.169,1.313H11.886Q10.842,7.693,10.371,8.5A11.412,11.412,0,0,0,9.6,10.084a27.468,27.468,0,0,1,2.711,2.626,3.534,3.534,0,0,1,.825,2.357,4.073,4.073,0,0,1-.067.606,3.22,3.22,0,0,1-.539,1.094A7.367,7.367,0,0,1,11.55,17.8L4.343,8.948A3.074,3.074,0,0,0,3.165,10.8a3.847,3.847,0,0,0,.421,1.33q.319.59,1.128,1.8a6.861,6.861,0,0,0,.741.808l-.707,2.795H0L.269,15.85H1.583q-.371-.942-.64-1.768a5.215,5.215,0,0,1-.269-1.633,4.269,4.269,0,0,1,.909-2.795q.4-.4.893-.841A3.1,3.1,0,0,1,3.4,8.207L1.178,5.648A3.186,3.186,0,0,1,.5,3.8,4.01,4.01,0,0,1,.572,3.19a5.545,5.545,0,0,1,.774-1.229,3.438,3.438,0,0,1,1.009-.893l6.3,7.842q.571-1.179.907-1.735a6.232,6.232,0,0,1,.74-.995c-.337-.089-.623-.168-.859-.235a2.493,2.493,0,0,1-.909-.64A2.932,2.932,0,0,1,7.98,3.217,4.714,4.714,0,0,1,8.1,2.206a1.877,1.877,0,0,1,.522-.943A1.331,1.331,0,0,1,9.6.858a.763.763,0,0,0,.05.522c.079.168.163.332.253.488a3.317,3.317,0,0,0,1.684.522q1.347.186,1.549,1.128" transform="translate(0 -0.454)" fill="#0f1b2f"/>
        <path id="Path_7723" data-name="Path 7723" d="M42.14,2.921a6.783,6.783,0,0,1,.505,2.5A7.559,7.559,0,0,1,41.8,8.822a11.77,11.77,0,0,1-2.223,3.068L38.6,11.25q.707-1.045,1.162-1.8a4.494,4.494,0,0,0,.589-1.5,6.088,6.088,0,0,0,.1-.91q0-.54-.252-.641a10.717,10.717,0,0,0-1.852-.219,2.438,2.438,0,0,1-2.138-1.1,4.018,4.018,0,0,1-.538-1.956,2.012,2.012,0,0,1,.033-.438,3.055,3.055,0,0,1,.185-1.028A2.239,2.239,0,0,1,36.5.746a1.375,1.375,0,0,1,.959-.388,4.486,4.486,0,0,0,.067.944A.709.709,0,0,0,38,1.74a16.36,16.36,0,0,0,1.9.118A2.543,2.543,0,0,1,42.14,2.921" transform="translate(-18.873 -0.19)" fill="#0f1b2f"/>
        <path id="Path_7724" data-name="Path 7724" d="M74.434,3a3.3,3.3,0,0,1,.033.457v.423a7.811,7.811,0,0,1-.37,2.655q-.371,1-2.963,6l-2.727,4.871H59.753q-.64-1.886-1.061-3.621t-.758-3.824a6.074,6.074,0,0,1,.219-1.718q.218-.741.758-2.191a2.463,2.463,0,0,0-.758-.185,1.635,1.635,0,0,1-1.061-.707,3.428,3.428,0,0,1-.471-2.039,3.466,3.466,0,0,1,.235-1.38,1.793,1.793,0,0,1,.572-.775A2.192,2.192,0,0,1,58.2.631a2.488,2.488,0,0,0,.235,1.12,1.731,1.731,0,0,0,1.246.408,2.207,2.207,0,0,1,1.246.305,2.043,2.043,0,0,1,.438,1.323q0,.306-.067.916a8.974,8.974,0,0,0-.068.916v.543h-.791a4.056,4.056,0,0,0-.544,1.19,5.042,5.042,0,0,0-.181,1.357,6.722,6.722,0,0,0,.354,2.111A11.384,11.384,0,0,0,61,12.9h1.515L64.972,6.06q-.661-.37-1.323-.774a1.884,1.884,0,0,1-.414-.875A5.752,5.752,0,0,1,63.12,3.2V2.155a5.673,5.673,0,0,1,.421-.943.914.914,0,0,1,.59-.4h.539a4.29,4.29,0,0,0,.135.707.8.8,0,0,0,.505.539,5.529,5.529,0,0,1,1.485.17,1.465,1.465,0,0,1,.9.714v.848a7.57,7.57,0,0,1-.1,1.171q-.1.628-.2,1.205h-.788q-.459,0-.459.494l-2.008,6.38q.773,0,2.05-.07t1.513-.07a3.96,3.96,0,0,0,2.336-1.58A20.45,20.45,0,0,0,72.076,6.2a3.326,3.326,0,0,0-.64-.22,1.57,1.57,0,0,1-.774-.424A.928.928,0,0,1,70.039,5a3.681,3.681,0,0,1-.32-.781,4.71,4.71,0,0,1-.1-.629q-.034-.34-.034-.816a3.354,3.354,0,0,1,.186-1.154A1.6,1.6,0,0,1,70.427.8l.337-.136a.679.679,0,0,1,.37-.034,1.1,1.1,0,0,0,.4,1.117,7.315,7.315,0,0,0,1.431.219A1.5,1.5,0,0,1,74.434,3" transform="translate(-29.953 -0.328)" fill="#0f1b2f"/>
        <path id="Path_7725" data-name="Path 7725" d="M108.952,13.847l-.775,3.839H100.8l.914-4.411h4.743v-3.14q0-1.25-.1-2.364-.308-.709-1.59-.793a3.233,3.233,0,0,1-1.778-.49,2.506,2.506,0,0,1-.752-1.1,4.6,4.6,0,0,1-.256-1.6,5.512,5.512,0,0,1,.135-1.316,1.945,1.945,0,0,1,.555-.945,1.863,1.863,0,0,1,.96-.507q.134.473.2.827a.7.7,0,0,0,.455.524,6.9,6.9,0,0,0,2.02.169q1.633,0,1.869,1.283V7.8a28.248,28.248,0,0,0,.169,3.68,12.183,12.183,0,0,0,.606,2.363" transform="translate(-53.326 -0.539)" fill="#0f1b2f"/>
        <path id="Path_7726" data-name="Path 7726" d="M139.483,15.024a1.935,1.935,0,0,1-.286.622q-.151.186-1.331,1.195l-1.212,1.01V9.237a3.58,3.58,0,0,1,.326-1.447q.455-.875.651-1.312h-8.823a2.471,2.471,0,0,1-1.3-.354,2.716,2.716,0,0,1-.959-.993,5.119,5.119,0,0,1-.371-1.953,3.6,3.6,0,0,1,.674-2.256,2.127,2.127,0,0,1,1.044-.4,2.533,2.533,0,0,0,.118.846.877.877,0,0,0,.488.5H137.7c.336.134.684.258,1.043.37a1.575,1.575,0,0,1,.623.757,3.079,3.079,0,0,1,.287,1.364,4.494,4.494,0,0,1-.287,1.665,17.559,17.559,0,0,1-.959,1.935,18.849,18.849,0,0,0,.4,3.786q.4,1.97.674,3.282m-10.338.666a1.274,1.274,0,0,1-.572.828q-.539.422-1.01.794l-.775.54a16.864,16.864,0,0,1-.1-1.858q0-.877.056-1.7t.113-1.672V11.265a1.312,1.312,0,0,1,.366-1.013l1.694-1.283q.432.136.432.338-.236.54-.438,1.08,0,2.837.235,5.3" transform="translate(-66.752 -0.274)" fill="#0f1b2f"/>
        <path id="Path_7727" data-name="Path 7727" d="M197.258,16.133a10.521,10.521,0,0,0-1.279,1.026q-.809.728-1.078.926h-.169L195,11.874V9.86a10.258,10.258,0,0,0-.117-1.645,3.069,3.069,0,0,0-.486-1.242l-.6-.335h-2.581q-.94,0-1.341-.039a9.659,9.659,0,0,1-1.106-.2,9.665,9.665,0,0,0-.99,1.4,4.526,4.526,0,0,0-.552,1.465,14.652,14.652,0,0,0,.454,1.852q.285.909,1.027,2.761l-.606,3.536h-4.58l.707-4.243h2.425q-.606-1.5-.825-2.189a5.148,5.148,0,0,1-.219-1.574,3.838,3.838,0,0,1,.2-1.2,5.866,5.866,0,0,1,.825-1.162,7.307,7.307,0,0,0,.657-.821,2.8,2.8,0,0,1-1.229-.252,2.1,2.1,0,0,1-.892-.926,3.456,3.456,0,0,1-.371-1.684,3.455,3.455,0,0,1,.8-2.323q.209-.134.506-.32A1.419,1.419,0,0,1,186.652.5a8.234,8.234,0,0,0,.118.867.713.713,0,0,0,.455.589h6.589a2.861,2.861,0,0,1,1.538.758,4.474,4.474,0,0,1,1.071,1.6q.367,3.805.6,6.633t.234,5.186" transform="translate(-97.085 -0.265)" fill="#0f1b2f"/>
        <path id="Path_7728" data-name="Path 7728" d="M225.8,2.921a6.772,6.772,0,0,1,.5,2.5,7.564,7.564,0,0,1-.841,3.406,11.781,11.781,0,0,1-2.223,3.068l-.977-.641q.707-1.045,1.161-1.8a4.485,4.485,0,0,0,.59-1.5,6.17,6.17,0,0,0,.1-.91q0-.54-.253-.641a10.717,10.717,0,0,0-1.852-.219,2.436,2.436,0,0,1-2.138-1.1,4.014,4.014,0,0,1-.539-1.956,2.013,2.013,0,0,1,.033-.438,3.067,3.067,0,0,1,.186-1.028,2.244,2.244,0,0,1,.606-.911,1.376,1.376,0,0,1,.959-.388,4.412,4.412,0,0,0,.068.944.708.708,0,0,0,.471.438,16.338,16.338,0,0,0,1.9.118A2.543,2.543,0,0,1,225.8,2.921" transform="translate(-116.032 -0.19)" fill="#0f1b2f"/>
        <path id="Path_7729" data-name="Path 7729" d="M253.1,12.332l-.876,4.613H240.642l1.01-4.613H250.1a5.724,5.724,0,0,0,.236-1q.1-.626.236-1.4V8.812a5.784,5.784,0,0,0-.2-1.693,1.725,1.725,0,0,0-.942-1.015,8.931,8.931,0,0,0-1.145-.135q-.606-.034-1.414-.034h-2.963a4.742,4.742,0,0,1-1.6-.185,2.506,2.506,0,0,1-.959-.86,3.5,3.5,0,0,1-.5-2.091,3.562,3.562,0,0,1,.5-1.922,1.166,1.166,0,0,1,.522-.522A4.42,4.42,0,0,1,242.663,0q.066.508.168.982a.737.737,0,0,0,.4.373h6.331a3.979,3.979,0,0,1,1.363.674,2.652,2.652,0,0,1,.893,1.162,8.039,8.039,0,0,1,.421,1.633,12.269,12.269,0,0,1,.152,1.953,18.25,18.25,0,0,1-.135,2.407q-.134.994-.572,3.149Z" transform="translate(-127.303 0)" fill="#0f1b2f"/>
      </g>
    </g>
    <g id="Group_13747" data-name="Group 13747" transform="translate(1515 13)">
      <rect id="Rectangle_148" data-name="Rectangle 148" width="56.596" height="56.596" fill="#bcbcbc"/>
      <rect id="Rectangle_149" data-name="Rectangle 149" width="45.277" height="45.277" transform="translate(5.66 5.66)" fill="#0f1b2f"/>
      <g id="Group_13746" data-name="Group 13746">
        <g id="Group_13745" data-name="Group 13745" clip-path="url(#clip-path-2)">
          <path id="Path_7730" data-name="Path 7730" d="M158.961,170.673l-.479-.145c.133.151.291.121.479.145" transform="translate(-126.84 -136.481)" fill="#bcbcbc"/>
          <path id="Path_7731" data-name="Path 7731" d="M154.991,166.4c.127-.012.163-.139.273-.2.139-.03.23.152.351.085l-.164-.158c-.206-.121-.328.158-.46.273" transform="translate(-124.046 -132.932)" fill="#bcbcbc"/>
          <path id="Path_7732" data-name="Path 7732" d="M161.316,167.033a.281.281,0,0,1,.013-.127c.066-.109.193-.261.346-.261a.317.317,0,0,0-.359.388" transform="translate(-129.105 -133.368)" fill="#bcbcbc"/>
          <path id="Path_7733" data-name="Path 7733" d="M163.995,168.377c-.03-.085.006-.23-.091-.248a.62.62,0,0,1-.261.612c.145-.067.206-.291.406-.249.133-.067-.048-.048-.054-.115" transform="translate(-130.97 -134.561)" fill="#bcbcbc"/>
          <path id="Path_7734" data-name="Path 7734" d="M155.366,164.053c.055.012.158-.084.218.012l.055,1.455c.042-.533-.006-1.043-.012-1.54-.952-.037-1.934-.048-2.953-.072l-.018,1c.043.23-.091.43.061.6a12.351,12.351,0,0,1,.055-1.545c.867-.013,1.74.085,2.594.09" transform="translate(-122.165 -131.182)" fill="#bcbcbc"/>
          <path id="Path_7735" data-name="Path 7735" d="M144.123,184.492c-.279.012-.037.285-.237.376-.084.043-.169-.006-.346.072a.578.578,0,0,0,.51.018c.121-.084.285-.17.26-.351-.036-.061-.09-.152-.187-.115" transform="translate(-114.881 -147.649)" fill="#bcbcbc"/>
          <path id="Path_7736" data-name="Path 7736" d="M119.136,212.551a1.271,1.271,0,0,1-.128.406c-.97-.667-1.824-1.328-2.752-1.873-.019.5-.061,1.061-.03,1.51.291.073.528.006.758.091.018.521-.6.152-.861.261-.073.024-.182.018-.218-.061a5.106,5.106,0,0,0-.084-2.079c.115-.1.169-.406.376-.279l.424.382a17.5,17.5,0,0,0,2.079,1.437,1.32,1.32,0,0,1,.437.206m-.467-2.328a2.334,2.334,0,0,0,.539.043c.067.188-.06.364-.03.57a.567.567,0,0,1-.333.564c-.006-.218.012-.436-.012-.667-.109-.061-.279-.006-.382-.042a.852.852,0,0,1,.218-.467m.776.976.012-1.31c-.407-.055-.915.134-1.225-.164l-.376.934v.158c.14.127.358.061.522.121.1.219,0,.437,0,.71-.843-.5-1.613-1.182-2.444-1.727-.158.3-.376.563-.521.873a2.569,2.569,0,0,1,.188,1,4.6,4.6,0,0,1-.206,1.473l1.631-.048c.036-.268.243-.473.249-.752-.213-.1-.467.012-.7-.049-.327-.1-.1-.528-.091-.843.819.576,1.643,1.121,2.577,1.746a3.427,3.427,0,0,0,.479-.915,5.29,5.29,0,0,1-.728-.539c.224-.194.527-.376.631-.667" transform="translate(-92.355 -167.852)" fill="#bcbcbc"/>
          <path id="Path_7737" data-name="Path 7737" d="M144.963,147.322l-.115-.024.042.158c.073-.012.049-.085.073-.134" transform="translate(-115.928 -117.889)" fill="#bcbcbc"/>
          <path id="Path_7738" data-name="Path 7738" d="M160.629,209.919l-.133,1.358a2.372,2.372,0,0,1-.624.842c-.952.243-1.988.285-2.965.467.146-.715-.164-1.553.231-2.1-.079-.279-.479-.073-.376-.352l.243-.376a2.088,2.088,0,0,1,.527.158,3.539,3.539,0,0,1-.261.746,8.12,8.12,0,0,0-.018,1.485c.327-.006.77.067.861-.309a4.5,4.5,0,0,0,.564-1.267.253.253,0,0,0,.091-.17c-.1-.1-.3.006-.382-.121.012-.145.145-.248.206-.376.17.006.424-.091.522.085a11.379,11.379,0,0,1-.71,2.067,3.16,3.16,0,0,0,1.509-.291,1.567,1.567,0,0,0,.322-1.34c-.073-.1-.219-.031-.3-.116a1.728,1.728,0,0,1,.334-.466c.115.048.279-.037.364.072m-.976.539c.079.11.242.024.321.134a1.932,1.932,0,0,1-.1.7c-.218.346-.661.315-1.049.364a.584.584,0,0,1,.061-.279,18.416,18.416,0,0,0,.57-1.946,4.139,4.139,0,0,0-1.139.042L158,210.4c.037.206.352,0,.365.231l-.382.77c-.128.127-.207.424-.437.364a2.949,2.949,0,0,1,.352-2.109.187.187,0,0,0-.042-.249,1.836,1.836,0,0,1-1.152-.261l-.467,1.019-.031.206a.964.964,0,0,0,.249.146c.127.03.254-.067.352.03-.03.176-.212.291-.321.437.012.618-.018,1.279-.03,1.892a3.013,3.013,0,0,0,.612-.06.627.627,0,0,1,.3,0c.825-.128,1.661-.213,2.473-.352l.219-.17c.285-.491.764-.922.715-1.558.007-.436.1-.885.085-1.328l-.9.049c-.091.339-.236.655-.309,1" transform="translate(-125.016 -167.391)" fill="#bcbcbc"/>
          <path id="Path_7739" data-name="Path 7739" d="M155.111,181.087l4.292-.146c-1.3.006-2.619.036-3.971.091a.252.252,0,0,1-.176-.146,10.052,10.052,0,0,1-.012-1.764c.691-.079,1.5-.066,2.183-.085.618.013,1.364-.085,2.037-.03l.013-.1c-1.468-.005-2.844.067-4.347.1-.006.7.018,1.412-.019,2.079" transform="translate(-124.142 -143.185)" fill="#bcbcbc"/>
          <path id="Path_7740" data-name="Path 7740" d="M140.64,212.642c0-.746,0-1.346-.042-2.006-.71-.031-1.231-.109-1.88-.1a.691.691,0,0,1,.187-.466,6.806,6.806,0,0,0,1.892.133c.1.012.1.121.121.188.012.679.025,1.388.043,2.079-.115.036-.188.224-.321.175m.57-1.643-.061-1.006c-.072-.11-.078-.249-.23-.273-.5-.049-1.1.031-1.648-.018a1.02,1.02,0,0,1-.752-.188,6.624,6.624,0,0,0-.382,1.121c.037.133.182.133.28.188l1.7.1c.066.745.048,1.491.073,2.243a6.887,6.887,0,0,0,1.03-.394c-.006-.576-.054-1.061-.012-1.777" transform="translate(-110.556 -167.683)" fill="#bcbcbc"/>
          <path id="Path_7741" data-name="Path 7741" d="M154.875,169.071l-.176.164c-.06.1-.248.036-.23.158a.485.485,0,0,0,.406-.321" transform="translate(-123.627 -135.314)" fill="#bcbcbc"/>
          <path id="Path_7742" data-name="Path 7742" d="M111.651,88.584l-.012,2.461-5.269.115c-.085-.042-.249.03-.279-.091-.072-.891.024-1.782-.024-2.7.037-.072-.036-.205.073-.261l.158-.018,3.116.073,2.183.06a.682.682,0,0,1,.055.364M105.8,85.5a1.028,1.028,0,0,0,.34-.346c1.121.055,2.243.072,3.346.085.146.024.073.182.116.279v2.006c-.043.055-.018.165-.116.176-1.212-.031-2.388.024-3.613-.018A13.951,13.951,0,0,1,105.8,85.5m-4.407,2.837c-.109.067-.024.213-.073.31.025.861-.054,1.661-.03,2.546a.643.643,0,0,1-.219.012l-.024-.133.012-2.965.133-.042c1.3-.018,2.564-.109,3.837,0l.552.012c.067.042.036.121.049.187-1.425.128-2.879-.017-4.238.073m2.661,1.528c-.006-.085.127-.091.145-.013-.09.1-.145.061-.145.013m1.37.478c-.054.007-.115-.067-.158,0,.03.085.176.012.188.122-.145.1-.315-.049-.467-.018a.928.928,0,0,1-.612-.115.8.8,0,0,1-.77.218c.019-.121.2-.066.279-.1.17-.121.491-.309.461-.582.025-.1-.085-.176-.157-.218-.121-.055-.207.079-.231.163s.079.249-.061.273c-.085-.194-.394-.019-.424-.261,0-.072.018-.164-.073-.188a.356.356,0,0,0-.291.085c.036.115.175.031.248.073.061.085.182.164.134.279a1.038,1.038,0,0,0-.437-.206.827.827,0,0,0-.788-.364c-.115.133-.23.279-.158.466.055.043.018.116.03.176-.073.043-.133-.042-.145-.1.006-.2-.031-.37.085-.521a.618.618,0,0,1,.612-.091c.133.067.309.182.467.073.133-.043.333-.109.448.03.1.072.037.224.116.3.115-.145.224-.424.478-.376.164-.012.273.115.364.23.073.1-.031.321.145.321.055-.127.055-.3.206-.364a.738.738,0,0,1,.363-.031.415.415,0,0,1,.206.437c-.194.127.2.218-.061.291m-2.9-.242a.19.19,0,0,1-.146-.146.216.216,0,0,1,.091-.218c.3,0,.449.375.74.406-.224.194-.412-.236-.685-.042m-.345.606c-.055-.024-.175.012-.164-.085.218-.049.224-.322.455-.333a4.282,4.282,0,0,1,.552.218,1.7,1.7,0,0,0-.843.2m-.394-1.1a8.007,8.007,0,0,1-.061,1.267l-.169-.091.012-2.164c1.3-.1,2.51-.115,3.71-.091.085.036.1.121.085.206-1.31.073-2.267.024-3.516.1-.133.212,0,.515-.06.769m-.9-2.618c.061.06.219.078.176.187a.76.76,0,0,1-.334-.1c-.03-.067-.078-.187-.018-.273.049-.139.212-.054.292-.018-.013.067-.146.1-.116.207m-1.018-.249.091.091c.006.078-.006.169-.091.2-.1-.182-.1-.3,0-.291m-.085.673c-.128-.007-.261.018-.352-.073.255-.079.51-.109.654-.351a.425.425,0,0,0-.054-.334.282.282,0,0,0-.267-.043.465.465,0,0,0-.128.3c0,.079.085.1.1.176a.249.249,0,0,1-.248.055c.121-.085.024-.187.012-.26a.531.531,0,0,1,.133-.334.379.379,0,0,1,.376-.084.461.461,0,0,1,.309.26c.272-.1.376-.625.74-.321l.175.231c-.164.121-.139.006-.206-.043a.34.34,0,0,0-.23-.1c-.134.267-.534.267-.551.612a3.878,3.878,0,0,1,.709.145c-.4.1-.782-.06-1.176.164M97.1,88.718c.012.843-.084,1.643-.072,2.425-.067.024-.231.043-.2-.085l.024-2.546c1.248-.073,2.582-.1,3.759-.158l.024.127a20.845,20.845,0,0,1-3.534.236m3.365,1.309c-.14.309-.467.134-.7.2-.139-.176.23-.515-.145-.564-.134-.024-.237.1-.346.055a.6.6,0,0,1,.363-.218c.134-.025.218.054.322.1.194.14-.158.388.127.437.212.061.188-.236.382-.218a.183.183,0,0,1,0,.206m-.57.709c-.231-.018-.576.025-.667-.26-.012-.2.194-.321.128-.522.345.139-.255.7.363.667.249-.158.6.158.746-.218.079.4-.328.261-.57.333m-1.413-1.121c.043-.17.255-.036.382-.054.048.048.145.012.169.085a1.63,1.63,0,0,1-.551-.031m.467.921c-.182.388-.691.14-1.007.231.286-.17.625-.006.789-.261.06-.225-.3-.546.085-.612.036.218.26.394.133.642m-1.249-.6c-.006-.067-.073-.164.012-.219.212.067.273.315.479.382a.179.179,0,0,1-.073.146.555.555,0,0,1-.418-.309m-.236,1.182c-.055,0-.079.067-.146.042-.09-.794-.055-1.418-.085-2.128a9.491,9.491,0,0,1,1.582-.128c.515-.055,1.115-.018,1.649-.03l.024.042c.024.1-.079.134-.146.176-.939.012-1.861.091-2.807.1-.03.679-.06,1.31-.072,1.922m3.522-5.432c.024.108-.1.157-.176.175A13.569,13.569,0,0,1,99.4,85.9l-.073,1.7c-.024.055-.091.121-.157.073a11.417,11.417,0,0,1-.061-1.946,14.86,14.86,0,0,1,1.849-.091ZM98.72,85.31c.679-.1,1.322,0,1.946-.073.134.018.328-.054.383.1a.148.148,0,0,1-.121.146l-1.9.03c-.1.837-.061,1.74-.073,2.5a.249.249,0,0,1-.218.018c-.006-.891-.055-1.794-.013-2.722m3.807,1.54a.6.6,0,0,1,.382-.054,1.034,1.034,0,0,1,.273.291c-.049.067-.115,0-.17,0a.282.282,0,0,0-.309-.1c-.1.055-.17.218-.291.175a.8.8,0,0,1,.115-.309m1.952-.46c-.151.315-.582.267-.884.127-.11-.146-.1-.164-.061-.176a1.193,1.193,0,0,0,.946.049m-2.327-.582c0,.436-.031.831,0,1.164l.175-.436c.194-.09.467-.067.564-.321-.006-.079.085-.1.133-.134a.44.44,0,0,1,.394.236c-.152.043-.249-.163-.407-.09-.139.2-.23.454-.539.393-.128.14-.134.334-.249.479-.151.078-.066.273-.218.321l-.134-1.758a30.619,30.619,0,0,1,3.449-.133.147.147,0,0,1,.031.206c-1.139.006-2.17-.031-3.2.073m2.315,1.1a.847.847,0,0,1-.83-.012c-.152-.049-.237-.194-.352-.292.024.261.358.261.188.461a.868.868,0,0,1-.436-.333.4.4,0,0,1,.122-.345c.212-.067.284.212.448.273a.771.771,0,0,0,.643.115l.406-.2a.449.449,0,0,1-.206.509c-.036-.06.079-.127.018-.176m.855.061c-.133.079-.219-.067-.334.055a.22.22,0,0,1-.205.1c.06-.121.054-.291.193-.321.134.012.286.012.346.163m-.261-.424c-.024-.09.061-.236-.073-.279-.115.024-.23.218-.351.061a.338.338,0,0,1,.557-.1c.03.084.036.2.127.248a.19.19,0,0,1,.188.084c-.248.085-.357.055-.449-.012m-3.649-1.34.2-.055c1.316-.054,2.528-.085,3.855-.091l.073.043a.228.228,0,0,1,.031.206c-1.334.036-2.613.067-3.886.116-.054.782-.036,1.558-.043,2.285-.042.079-.133.031-.188.012.012-.915-.139-1.692-.042-2.516m1.582-5.82c.516-.14,1.1.031,1.631-.085.048-.206.236-.285.394-.394.127.006.272.018.321.158.018.127.085.291,0,.413-.261.115-.285.375-.321.606-.164.109-.34.043-.54.061-.1.036-.206-.012-.3-.012.048-.109-.133-.006-.073-.146a.543.543,0,0,0,.273-.194.209.209,0,0,0-.248-.115c-.146.073-.073.3-.115.424-.085.055-.231.018-.321.03-.067-.024-.079-.1-.073-.164.079-.012.17.006.194-.1.055-.133-.115-.17-.175-.23-.067-.006-.085.109-.164.073-.061-.061-.121-.146-.218-.134-.067.055-.031.248-.171.164-.048-.109-.133-.219-.09-.352M99.927,77.5c-.2-.261.1-.5.23-.709.158-.025.115.164.207.23.842,1.061,2.219.879,3.328,1.321a6.232,6.232,0,0,1-3.765-.843m-.322-.321c-.072.146-.211.03-.32.048a.774.774,0,0,1-.291-.133c.109-.218.06-.539.291-.666.194.006.32-.14.509-.146.073-.115.249-.048.279.055-.1.309-.461.5-.468.843m-.727-.533c-.1.152-.273.018-.394,0-.121-.079-.254-.146-.261-.309.133-.181.121-.521.406-.551.085-.006.182-.006.218.073.012.1-.06.157-.054.248.152,0,.3-.176.388-.309.049-.012.128-.03.164.018a6.23,6.23,0,0,1-.467.831m-1.412-.994c-.091-.218.236-.134.261-.333.012-.073.03-.17.121-.188.224-.061.2.291.406.23.1.291-.146.4-.218.582a.855.855,0,0,1-.569-.291m-.23-.533c-.164.048-.3-.073-.406-.176-.049-.152.139-.139.188-.188a1.332,1.332,0,0,0,.582-.28c.066-.005.14.006.158.073-.067.261-.4.346-.521.57m-.746-.643c-.025-.1.03-.212.133-.206a.667.667,0,0,0,.521-.17.1.1,0,0,1,.134.1c-.048.212-.279.279-.406.437a.447.447,0,0,1-.382-.158m-.436-.933c-.073-.236.224-.17.339-.273a3.894,3.894,0,0,1,.594-.218l.031.043c-.049.351-.467.381-.716.539-.073-.006-.212.03-.248-.091M96.01,72.2a.283.283,0,0,0,.1-.309c.145-.212.3-.048.321.1.037.17-.1.388.1.509-.188.151-.315.376-.51.333-.139-.175-.054-.473-.018-.637m-.376-1.412c.091-.145.285-.218.333-.406a.384.384,0,0,1,.1-.31.22.22,0,0,1,.219.207c-.079.218.248.521-.116.564-.181-.018-.43.115-.539-.055m-.218-1.279c.006-.3.164-.576.146-.9.139-.122-.006-.418.26-.436a.248.248,0,0,0,.043-.249c-.067-.218-.279-.3-.437-.467a.366.366,0,0,1,.133-.3c.285.115.376-.188.564-.28l.048.073c-.006.286-.163.521-.1.819a2.811,2.811,0,0,1,.055,1.643c-.17.188-.473.139-.71.1m7.9,4.462c.315-.121.752.048,1.006-.17-.2-.109-.528.042-.643-.194a4.4,4.4,0,0,0,2.389-.843c.182.024.291.23.346.382-.049.212-.279.236-.436.315a7.058,7.058,0,0,0-1.049.394l-.084.146a3.352,3.352,0,0,1,.061.843,1.2,1.2,0,0,1-.788.03.676.676,0,0,1-.085-.406,1.127,1.127,0,0,0-.715-.5m.042,1.982a5.176,5.176,0,0,1-2.14-.552.405.405,0,0,1-.188-.29c.012-.073.024-.158.091-.194.158.019.255.188.406.237a4.819,4.819,0,0,0,1.789.612c.042.049.1.128.042.188m.043-8.687c-.024-.049-.079-.085-.073-.145.4-.158.819.115.994-.291.03-.109-.024-.3.115-.321.267.042.418.339.509.552.03.321-.267.533-.363.818-.249.625.5,1.237-.031,1.788-.285-.079-.637.109-.861-.1.018-.067.018-.157.1-.188.1.031.17-.048.219-.1a1.2,1.2,0,0,1,.176-.292c.218-.485-.231-.934-.03-1.394-.194-.218-.546-.1-.758-.321m.267,2.922c.024-.224.3-.163.46-.218.213.049.521-.061.6.206-.073.43-.485.036-.758.115-.109.025-.285.037-.3-.1m.479,1.225a.578.578,0,0,1,.509.03l.055.115v.885c-.006.079-.1.091-.158.1a2.721,2.721,0,0,1-.861-.043c-.1-.073-.049-.207-.043-.321.345-.128.375-.491.5-.77m.539-.249-.831.018a.093.093,0,0,1-.03-.133.554.554,0,0,1,.394-.188c.1-.084.182-.224.291-.29a.274.274,0,0,1,.249.26.33.33,0,0,1-.073.333m2.08,1.255a.872.872,0,0,0,.291-.268c.17.067.249.268.376.395-.024.224-.291.224-.406.406-.115.024-.212.139-.352.073a1.314,1.314,0,0,1-.363-.552c.133-.085.3-.018.455-.054m.521-.425c.279.133.358-.473.582-.134-.078.2-.109.515-.376.527-.073-.115-.273-.224-.206-.394m-.218-4.6c-.116-.225.127-.194.248-.237a6.8,6.8,0,0,0,.988-.012l.091.115c-.019.291-.231.588-.049.873.182.249.012.588.146.861-.049.158.006.412-.188.461-.224-.078-.509-.054-.7-.2a.669.669,0,0,0,.03-.218c.127-.073.363.043.406-.176.012-.121.061-.345-.133-.351-.079-.012-.17-.006-.231-.073.007-.1.158-.1.231-.146-.055-.146-.188-.1-.291-.146-.394-.109-.224-.558-.551-.752m1.485,2.382a.345.345,0,0,1-.043.279c-.243.163-.406-.188-.655-.164.145-.212.382-.042.51-.242.1-.012.133.061.188.127m-.3.789a2.806,2.806,0,0,1-.583-.261c.134-.255.322-.237.407-.194.1.067.225.115.273.237a.158.158,0,0,1-.1.218m-.237.915c-.218-.067-.515-.133-.582-.394.163-.085.43-.158.424-.394.151-.085.327.067.437.176-.049.224-.055.5-.279.612m-1.394,3.783.509-.406c.224-.036.237.224.334.346.084.267-.225.139-.321.248a7.549,7.549,0,0,1-2.037.77,2.338,2.338,0,0,0-.073.873c-.127.158-.388.048-.582.061-.066-.031-.151-.049-.188-.134-.072-.176.049-.461-.206-.533-.181-.1-.491-.055-.552-.291.327-.078.728.109.946-.164-.188-.085-.557.025-.552-.273a7.042,7.042,0,0,0,2.723-.5m.915-.521c.084-.03.164.024.249.042.151-.091-.018-.486.2-.382.163.121.157.31.248.455a.162.162,0,0,1-.085.188c-.194-.061-.291.231-.467.085-.048-.127-.206-.23-.145-.388m.654-.746a.173.173,0,0,1,.043-.2c.334.037.425.4.54.637.054.151-.127.17-.206.236-.139.043-.194-.127-.243-.206-.067-.17-.345-.248-.309-.436.067-.03.133.067.176-.03m1.031-.782c.055-.019.146-.036.194.012a1.578,1.578,0,0,1,.315.249c0,.14-.133.236-.23.321-.218-.012-.231.309-.425.3-.127-.188-.273-.333-.406-.521.182-.134.51-.067.552-.364m.218-.6c.079-.042.188.018.267.06a.873.873,0,0,1,.243.23.265.265,0,0,1-.127.279c-.176-.006-.285-.158-.455-.176-.1-.152.139-.224.073-.394m.612-.249.073.121c-.049.091-.1.225-.23.158-.164-.109-.3-.309-.5-.334.188-.224.448-.06.655.055m-.146-1.249c.207.066.461.121.551.333a1.582,1.582,0,0,1-.26.57c-.176-.067-.406-.043-.54-.188,0-.194.285-.1.352-.279.031-.085-.048-.14-.1-.176-.1-.043-.261.036-.333-.085.006-.164.218-.134.333-.176m-.364-3.813a.154.154,0,0,1,.146-.2,3.324,3.324,0,0,0,.655-.031c.146-.067.025-.224.115-.291a.356.356,0,0,1,.34.115c.248.278-.1.522-.176.77a1.087,1.087,0,0,1-.1.655c.109.346.3.77.1,1.134-.212.17-.479-.012-.715.049a.12.12,0,0,1-.073-.176c.376-.158.145-.539.134-.8-.018-.067-.109-.122-.073-.188.14-.061.315-.151.346-.34a.5.5,0,0,0-.334-.522c-.109-.078-.309-.006-.364-.176m1.079,3.274c-.079.145-.243.236-.321.351-.109-.066-.364-.03-.321-.206.194-.254.116-.637.394-.843a.27.27,0,0,1,.261.158c.024.175.091.382-.012.54m-4.553,7.275c.485.036.806-.321,1.237-.418.206-.272.606-.109.782-.424.175-.013.213.188.291.291a6.063,6.063,0,0,1-1.412.74,8.613,8.613,0,0,1-2.619.321,10.236,10.236,0,0,0,1.722-.509m2.34-1.279c.134.049.261.273.394.146.006-.067-.036-.122.013-.176a.836.836,0,0,1,.436.395c-.006.236-.273.278-.418.394-.321-.06-.448-.424-.557-.685-.013-.073.079-.109.133-.073m.625-.51c.151-.054.224.188.394.206l.158-.06c.048-.073.164-.049.218-.012.188.109.134.328.1.51-.061.133-.176.17-.291.242-.206.018-.23-.218-.345-.334a.673.673,0,0,1-.236-.552m1.036-.364c.054-.128-.146-.243-.018-.364.2.006.309.182.394.334.03.145.127.3.061.455a.978.978,0,0,1-.412.145c-.1-.193-.346-.333-.334-.57.1-.066.194.067.309,0m.825-.612c-.018-.134-.194-.249-.116-.394a.652.652,0,0,1,.5.424.846.846,0,0,1,.031.218c-.079.1-.164-.079-.237.042a.376.376,0,0,1-.2.333c-.061.042-.109.055-.163.018-.061-.182-.249-.358-.261-.551.133-.152.358.164.449-.091m.163-.843c.218.181.764-.206.655.278-.212.085-.1.528-.394.364a2.134,2.134,0,0,0-.437-.437c-.012-.109.116-.139.176-.206m.158-.727c.14-.061.3-.055.437-.116-.037-.121-.212-.1-.188-.249.206-.146.418.067.594.158l.121.194c-.055.127-.079.291-.206.363-.249.194-.437-.109-.654-.163-.055-.055-.133-.115-.1-.188m1.152-1.134.2.249a.273.273,0,0,1,0,.272c-.121.109-.254.388-.448.218-.1-.109-.285-.133-.322-.291.061-.121.267-.042.28-.218,0-.218-.213-.182-.31-.334a.742.742,0,0,1,.6.1m-.57-.624a2.392,2.392,0,0,0,.685-.176c.121-.091.091-.443.333-.279l.1.115a.751.751,0,0,1-.407.716c-.242-.012-.424-.164-.654-.188-.085-.024-.085-.127-.061-.187m.145-4.759c.34-.249.862.079,1.153-.279l.127.091c-.018.473-.3.843-.315,1.322a3.871,3.871,0,0,1,.218.976l-.728.03c-.036-.036-.03-.085-.03-.133.1-.085.267-.109.3-.261.151-.3-.285-.436-.085-.715a.292.292,0,0,0,.055-.218c-.219.049-.267-.175-.364-.3,0-.291-.46-.182-.334-.509m.7,2.328c.139-.073.382-.128.467.043.012.1-.084.127-.145.134-.109-.055-.327.006-.321-.176m.436,1c-.127.17-.315-.006-.479-.013-.109-.073-.26-.031-.346-.145-.012-.2.237-.212.364-.3s.127-.352.364-.237l.1.115c.024.206.158.4,0,.582m-.115.654c-.164.079-.279-.066-.419-.1a.692.692,0,0,1-.485-.146c-.025-.109.072-.133.134-.194.181.085.309-.1.5-.012l.2.116a.235.235,0,0,1,.073.333M105.383,81.03a.306.306,0,0,1,.334.176c.012.115.1.218.042.334-.334.036-.764.091-1-.158-.176-.158-.486.012-.655-.146,0-.121.11-.188.2-.249.364-.073.74.206,1.079.043m-.843,2.17c.109-.061.249-.054.364-.115.279.121.157.522.291.758l.054.782c-.078.182-.194-.037-.3-.03-.1-.2-.418-.115-.424-.346Zm-1.213-3.316c.1,0,.212.036.218.146-.2.151-.255.1-.273.042s-.031-.164.054-.188m.455,3.5L103.71,84c-.128-.042-.328-.018-.352-.188.049-.188-.061-.418.188-.5.079-.018.218-.037.236.073m.552-.728c-.061-.037-.139-.11-.085-.188a.187.187,0,0,0,.17-.134c-.34-.127-.133.255-.315.352-.139,0-.3.024-.352-.133.012-.121.2-.042.23-.188.049-.079-.073-.145-.127-.176-.315.012-.03.552-.394.485a.212.212,0,0,1-.26-.091.147.147,0,0,1,.03-.175c.066,0,.14.066.2,0,.091-.1.012-.249.018-.346a.143.143,0,0,0-.146-.06c-.048.042-.054.145-.145.1a1.147,1.147,0,0,1-.122-.437c.9.012,1.764-.073,2.577.012a.19.19,0,0,1,.042.164c-.2.206-.139.539-.127.813a.829.829,0,0,1-.364.09c-.158-.024-.352,0-.437-.133-.115.1-.255.049-.394.043m-.231.539c.091.012.248-.042.242.1a4.127,4.127,0,0,1,.018,1.061c-.042.055-.115.024-.164,0-.018-.2-.3-.3-.26-.522.012-.218-.043-.5.164-.643m1.655-.333a1.489,1.489,0,0,1,.436.7c.109.388.23.77.364,1.151l-.988.073c-.158-.079-.17-.3-.218-.454-.1-.425-.1-.88-.219-1.292.11-.237.418-.163.625-.175m-5.468-8.312a.394.394,0,0,1-.134.206.423.423,0,0,1-.333-.206c-.073-.212.182-.194.279-.291a.61.61,0,0,1,.292-.188c.073.024.17.006.2.1a1.321,1.321,0,0,0-.3.376m-.686-.479c-.114.018-.193-.079-.26-.146-.042-.1.067-.1.073-.175.109-.091.23-.291.418-.242l.049.054a.66.66,0,0,1-.279.51m-.812-.855c-.078-.031-.188,0-.218-.091.03-.146.212-.182.315-.273a.185.185,0,0,1,.176.1c-.036.127-.17.206-.273.267m-.485-.6c-.012-.285.333-.237.5-.218a.384.384,0,0,1-.219.278.181.181,0,0,1-.279-.06M97.774,69.9a.235.235,0,0,1-.049-.17,2.8,2.8,0,0,1,.788-.073l.146.146c-.2.248-.6.133-.885.1m-.061-2.57c-.049-.091-.2-.115-.158-.218.158-.116.394-.031.582-.073.152-.012.376-.127.479.043a2.925,2.925,0,0,0-.133,1.049,2.749,2.749,0,0,1-.012,1.237.515.515,0,0,1-.394.073A.375.375,0,0,1,98.12,69c-.042-.218.11-.436-.03-.63-.2-.212-.448-.43-.345-.752a.28.28,0,0,0-.031-.291m.976,4.656c-.043.061.03.212-.1.2-.03-.091-.127-.225-.03-.3.042.03.133.024.133.1m.03-1.37c-.018.17.067.485-.218.424-.1.012-.152-.079-.194-.145.006-.17.127-.285.194-.425.109-.042.194.061.218.146m3.462,2.868c-.267-.182-.691-.255-.758-.643-.018-.14.127-.206.218-.272.134.048.146.23.261.333a2.567,2.567,0,0,0,1.237.582c-.26.3-.618.067-.957,0m-1.037-1.006c-.084-.176.14-.3.237-.437a.438.438,0,0,1,.539-.031c-.091.249-.394.231-.557.436-.067.025-.14.073-.219.031m-.345-.419c-.073-.182.121-.315.127-.5a.409.409,0,0,1,.643-.031c.061.237-.218.2-.334.291-.169.055-.248.309-.436.236m-.861-2.4a1.364,1.364,0,0,1,1.018-.091c.03.042.066.1.03.146a1.888,1.888,0,0,1-.915.06.307.307,0,0,1-.134-.115M99.678,67.3c-.006-.072-.006-.151.073-.176a4.787,4.787,0,0,1,1.1,0l.133-.043c.127,0,.291-.024.333.115-.042.334-.363.552-.406.885-.037.358.1.818-.176,1.091a.739.739,0,0,1-.521.061.191.191,0,0,1-.061-.23c.109-.121.309-.115.395-.291a.537.537,0,0,0-.061-.412c-.151-.146-.407-.17-.479-.388-.03-.127.006-.279-.084-.382-.091-.061-.243-.1-.249-.231m.77,3.347c-.012-.206.164-.2.291-.236.061.012.133.03.145.1-.042.2-.3.109-.436.134m11.525,17.49c-.025-.06-.006-.151-.073-.175-.631.012-1.225-.018-1.861-.031-.134.024-.085-.133-.176-.158a24.339,24.339,0,0,0-.012-2.813l-1.091-.013c-.5-.054-1.1-.067-1.619-.1-.389-.187-.418-.631-.594-.958-.073-.133-.031-.363-.164-.581a.961.961,0,0,0-.582-.716,1.271,1.271,0,0,1-.115-.758c.018-.194.248-.109.363-.188a1,1,0,0,0-.157-.709c-.188-.152-.455-.315-.407-.612-.242-.133-.158-.485-.133-.685.079-.2.351-.133.406-.351v-.77A11.016,11.016,0,0,0,108.3,77.7c.152-.079.328.036.479-.042a4.092,4.092,0,0,1,.728-.539c.224-.145.612-.134.643-.479a.38.38,0,0,1,.333-.206c.091-.067.224-.139.261-.218.024-.06-.006-.128.03-.188.225-.188.291-.5.612-.509.134-.109.091-.291.158-.424a3.968,3.968,0,0,0,.436-.686c.206-.285.1-.715.485-.916a.607.607,0,0,1,.315-.624c.054-.175-.091-.273-.043-.448.382-.28.194-.734.309-1.122.073-.188.236-.394.085-.582-.1-.224.14-.346.158-.539.1-.224-.055-.406-.085-.612.272-.4-.085-.788-.031-1.219-.03-.164-.176-.3-.1-.485a2.37,2.37,0,0,0,.321-1.279,1.463,1.463,0,0,0-.685-.466c-.437-.085-.783.279-1.031.569a1.315,1.315,0,0,0,.1.873,1.849,1.849,0,0,1,.084,1.176c-.115.449.3.867-.012,1.267.066.3-.194.546-.061.861a1.163,1.163,0,0,0-.248.625.855.855,0,0,1-.17.685c-.024.364-.358.606-.339.988-.34.34-.285.885-.752,1.134-.339.109-.121.533-.412.685-.418.122-.631.54-.989.812-.466.043-.721.594-1.176.655a8.289,8.289,0,0,1-2.346.685c-.3-.108-.158-.467-.17-.7a.29.29,0,0,1,.17-.188,3.956,3.956,0,0,0,1.837-.685c.3.085.5-.175.727-.321.176-.1.394-.091.552-.23.06-.352.478-.363.666-.625.079-.327.455-.4.582-.685.243-.194.267-.5.412-.746a.5.5,0,0,1,.2-.491,2.431,2.431,0,0,1,.309-1.122c-.115-.418.188-.7.188-1.091.03-.151-.115-.273-.042-.406a2.11,2.11,0,0,1,.1-.758,8.262,8.262,0,0,1-.146-1.455,1.773,1.773,0,0,0,.352-1.049.856.856,0,0,0-.727-.466,1.927,1.927,0,0,0-1.176.642c-.292.539.175,1.018.436,1.455.066.509-.261.94-.061,1.412a6.858,6.858,0,0,0-.133,1.134c-.037.139-.158.26-.1.424.049.285-.145.5-.267.74l-.024.158c.067.236-.224.315-.339.412-.218.176-.218.449-.376.655a2.433,2.433,0,0,0-1.018.873c-.643.206-1.225.576-1.88.77-.091.024-.266.079-.334-.042.013-.249-.151-.564.03-.788l1.177-.5c.164-.1.418.036.466-.2.085-.242.388-.175.509-.394.115-.036.26.018.333-.1.1-.394.376-.716.5-1.1.055-.145.206-.255.218-.424a5.188,5.188,0,0,0,.176-.988c.085-.127.194-.267.127-.436-.212-.279-.031-.594.018-.885a1.362,1.362,0,0,1-.073-.527c-.231-.3-.067-.734.03-1.049-.066-.266.188-.612-.121-.812a1.561,1.561,0,0,0-1.176-.364,5.1,5.1,0,0,0-.8.685c0,.231-.073.413.061.613.3.26.758.527.751.97a1.054,1.054,0,0,0,.061.933c-.122.333.072.7-.261.946-.115.17.091.279.031.467-.243.358-.321.9-.819,1.031-.242.528-.831.539-1.291.7a.288.288,0,0,1-.091-.316c-.1-.254.1-.612-.115-.83-.115-.146.079-.236.115-.352.067-.285-.181-.491-.127-.77.218-.255-.109-.479,0-.758.212-.346-.025-.721-.121-1.049-.212-.685.679-1.043.582-1.716a1.306,1.306,0,0,0-.8-.564,1.977,1.977,0,0,0-1.625.418c-.133.133-.06.37-.06.54-.019.339.333.5.521.74.436.4-.072.849-.012,1.309-.024.2.17.364.061.54a.677.677,0,0,0,.024.758.814.814,0,0,0-.085.54c.036.1.17.157.158.273-.249.273-.128.7-.218,1.122-.328.036-.564-.164-.843-.249-.127-.1-.388-.072-.394-.291a.246.246,0,0,0-.219-.188c-.151-.03-.133-.212-.169-.334-.007-.2-.255-.236-.322-.394-.255.188-.618.116-.9.236-.1-.018-.122-.139-.085-.218a.792.792,0,0,1,.418-.267.865.865,0,0,1,.57.146.251.251,0,0,0-.061-.315c-.23-.1-.254-.364-.321-.57a.342.342,0,0,1,.164-.278c.061-.146-.1-.237-.146-.364a7.136,7.136,0,0,1,.321-1.582c.121-.285.46-.327.533-.624a.667.667,0,0,0-.043-.509,2.288,2.288,0,0,0-2.5-.031,1.711,1.711,0,0,0,.364,1.352,3.693,3.693,0,0,1,.091,1.425c-.121.194.085.321.127.479a3.841,3.841,0,0,1,.134,1.019c.3.315.176.806.394,1.152.1.188.418.285.363.552.037.127.182.115.274.175a2.383,2.383,0,0,0,1.5,1.1c.267.157.752-.043.825.393a.5.5,0,0,1-.085.509,3.028,3.028,0,0,1-1.424-.448.967.967,0,0,1-.57-.309,1.051,1.051,0,0,1-.612-.449c-.418.036-.46-.449-.625-.7-.26-.055-.291-.382-.521-.5-.049-.375-.473-.6-.5-.988.2-.2-.055-.394-.116-.581a4.4,4.4,0,0,0-.1-.934c-.036-.182-.17-.333-.158-.533a3.453,3.453,0,0,0,.03-1.413l.17-.77c.049-.14.157-.249.133-.412-.03-.315-.412-.394-.667-.479a1.6,1.6,0,0,0-1.358.436c-.054.17.036.315.073.467.049.358.346.612.424.958a1.558,1.558,0,0,0,.012,1.036c.291.461-.121.922.018,1.413.267.273.128.715.291,1.03.254.146.23.461.321.7-.085.382.412.515.376.873.279.121.382.419.5.655.115.267.394.315.582.509.1.557.721.485,1,.915a.766.766,0,0,1-.012-.406c.043-.273.346-.339.521-.509l.134.115a2.885,2.885,0,0,0-.261.7c-.036.163-.255.145-.321.145a7.89,7.89,0,0,0,2.661.97c.273.17.079.515.115.746-.1.175-.376.09-.539.073a7.8,7.8,0,0,1-2.455-.915c-.091-.067-.243.012-.322-.091-.134-.224-.382-.285-.582-.406-.031-.327-.395-.285-.594-.406a2.788,2.788,0,0,0-.309-.552c-.255-.073-.358-.321-.479-.527-.418-.061-.218-.588-.612-.709-.1-.1-.049-.273-.043-.394.024-.212-.254-.224-.291-.406a3.133,3.133,0,0,0-.521-1.37c-.073-.1-.007-.212.084-.279.115-.175-.073-.333-.158-.479-.146-.225.018-.473.024-.709a2.826,2.826,0,0,1-.17-1.31,1.716,1.716,0,0,1-.091-1.14c.067-.26.334-.491.188-.782a1.07,1.07,0,0,0-1.061-.291,1.4,1.4,0,0,0-.637.363.65.65,0,0,0,.146.564,1.467,1.467,0,0,1,.054,1.382,8.3,8.3,0,0,0,.073,1.225c.007.115-.127.194-.054.321a1.619,1.619,0,0,1,.17,1.018.363.363,0,0,1,.164.273c-.14.389.067.776.1,1.164a2.407,2.407,0,0,1,.273.394,1.032,1.032,0,0,0,.455.873c.206.418.182.958.7,1.225a3.379,3.379,0,0,0,.564.758,2.412,2.412,0,0,1,.873.854,1.644,1.644,0,0,1,.746.582c.224.127.533.078.685.363a3.928,3.928,0,0,0,1.115.54c.5.218,1.1.2,1.588.467l.012.7.164.03a.931.931,0,0,1,.394.74c-.285.2-.024.643-.412.77-.2.164-.158.443-.146.673a.36.36,0,0,1,.321.1c.176.206.091.5.073.752-.521.272-.685.818-.928,1.266-.249.352-.188.928-.673,1.079-.7.139-1.436.085-2.165.157-.188.055-.424-.006-.6.073-.006,1.012-.054,2.031-.054,3.086-.649.03-1.226.06-1.892.085.061,1.054.006,2.085,0,3.073.03.084-.024.249.1.26l6.111.012,5.632.018,3.511-.03a.156.156,0,0,0,.127-.157Z" transform="translate(-75.85 -52.906)" fill="#bcbcbc"/>
          <path id="Path_7743" data-name="Path 7743" d="M169.975,184.257a.934.934,0,0,1-.685-.158c-.1-.181.133-.285.061-.454a.675.675,0,0,0-.146.236.365.365,0,0,0,.061.333.6.6,0,0,0,.71.043" transform="translate(-135.41 -146.979)" fill="#bcbcbc"/>
          <path id="Path_7744" data-name="Path 7744" d="M68.172,81.991c-.267-.3-.685-.492-.831-.861H67.4a3.486,3.486,0,0,0,.988.6.762.762,0,0,1,.1.388.454.454,0,0,1-.321-.127m-1-1.425a1.464,1.464,0,0,1-.1-1.31c.067-.23.364-.085.479-.291a.5.5,0,0,0,.061-.394.415.415,0,0,0-.279-.261.517.517,0,0,0-.467.158.555.555,0,0,0,.06.57l-.279.533a3.7,3.7,0,0,1-.406-1.6c.655-1.049,1.212-2.146,1.891-3.213a4.6,4.6,0,0,1-1.309,3.128,3.8,3.8,0,0,0,1.734-3.316,7.893,7.893,0,0,0-.091-1.267l-.145.291a9.371,9.371,0,0,0-1.728,2.661,3.323,3.323,0,0,1-.218.643c-.073-.036-.049-.109-.073-.164.1-.6-.011-1.3.376-1.788.066-.345.485-.079.569-.406a.519.519,0,0,0,0-.334.34.34,0,0,0-.394-.188c-.1.006-.188.121-.237.2-.1.17.073.357-.024.509-.134.055-.23.285-.382.206a7.952,7.952,0,0,1,.061-1.5,30.647,30.647,0,0,0,1.655-2.8c.121-.006.073.134.1.2a4.176,4.176,0,0,1-1.249,2.764A2.451,2.451,0,0,0,68,72.3a8.169,8.169,0,0,0,.467-3.274c-.03.073-.127.115-.127.194a9.04,9.04,0,0,0-2.1,3.2,4,4,0,0,1,.3-1.91c.072-.339.46-.1.63-.321a.554.554,0,0,0,.085-.376c-.043-.176-.236-.249-.394-.279a.439.439,0,0,0-.321.206,1.2,1.2,0,0,0,0,.467l-.346.249A2.741,2.741,0,0,1,66.268,69c.643-.885,1.115-1.837,1.758-2.741a5.51,5.51,0,0,1-.145,1.225l-.321.716a5.23,5.23,0,0,1-.8,1.061.729.729,0,0,1,.164-.06,4.8,4.8,0,0,0,1.092-1.237,5.935,5.935,0,0,0,.406-3.376l-.133.278a9.658,9.658,0,0,0-1.528,2.122A4.315,4.315,0,0,1,66.28,68a3.2,3.2,0,0,1,.236-1.582c.037-.406.546-.2.594-.6.055-.139-.037-.26-.133-.364a.4.4,0,0,0-.436,0,.489.489,0,0,0-.1.509c.036.151-.1.285-.249.339l-.043-.873c-.018-.448.321-.746.461-1.121.516-.715.849-1.509,1.3-2.255a4.375,4.375,0,0,1-1.122,3.013,4.1,4.1,0,0,0,1.631-3.346,6.085,6.085,0,0,1,.031-.758c-.067-.17.006-.4-.061-.552a.6.6,0,0,0-.128.273,6.566,6.566,0,0,0-1.994,3.231,4.755,4.755,0,0,1,0-1.279c.17-.285.164-.831.612-.819.169-.072.146-.26.188-.406a.465.465,0,0,0-.218-.273c-.157,0-.382-.03-.467.158a.359.359,0,0,0,.061.437c.048.146-.139.23-.322.321a7.231,7.231,0,0,1,.055-1.207c.673-1.006,1.2-2.073,1.88-3.1a4.592,4.592,0,0,1-1.122,2.958,3.915,3.915,0,0,0,1.516-2.546,8.245,8.245,0,0,0,.054-1.964c-.1.163-.224.321-.315.491-.654.794-1.522,1.449-1.7,2.443a1.854,1.854,0,0,1-.248.655,2.524,2.524,0,0,1,.437-1.917c.115-.042.254-.024.333-.145.025-.121.146-.236.06-.364a.366.366,0,0,0-.321-.218.328.328,0,0,0-.261.158.448.448,0,0,0,.043.466c-.061.091-.079.2-.188.273-.061.049-.133-.006-.146-.073a3.941,3.941,0,0,1,.012-1c.679-1.018,1.291-2.061,1.909-3.128a6.182,6.182,0,0,1-.218,1.382,4.615,4.615,0,0,1-.776,1.382,4.009,4.009,0,0,0,1.037-1.164,6.322,6.322,0,0,0,.346-2.929,1.915,1.915,0,0,1-.419.528A4.928,4.928,0,0,0,66.153,56.4a16.022,16.022,0,0,1-.133-1.612,36.392,36.392,0,0,1,.085-4.365,7.094,7.094,0,0,1,.5,3.492,12.284,12.284,0,0,0,.3-1.643c.1-1.152-.618-1.97-.855-2.982-.188.715-.6,1.346-.831,2.049a3.128,3.128,0,0,0,.134,2.049,7.37,7.37,0,0,1,.521,3.419c-.322-.146-.418-.491-.655-.727-.042-.049-.042-.14-.1-.158a5.325,5.325,0,0,1-1.061-2.255,5.834,5.834,0,0,1,1.588,1.934c.012-.243-.133-.424-.164-.655a3.887,3.887,0,0,0-.685-1.073c-.291-.522-.97-.7-1.219-1.285a11.01,11.01,0,0,0,.115,2.1,3.449,3.449,0,0,0,1.685,2.182,1.324,1.324,0,0,1,.528.321,3.233,3.233,0,0,1-.03.958c-.146-.037-.176-.2-.291-.291-.012-.146.091-.358-.03-.491a.471.471,0,0,0-.3-.121c-.1.048-.243.079-.261.206a.424.424,0,0,0,.072.406c.11.091.213.073.364.073.661.722.473,1.855.436,2.91a3.838,3.838,0,0,1-.6-.685,8.474,8.474,0,0,1-1.249-2.456,3.69,3.69,0,0,1,1.613,2.068,3.259,3.259,0,0,0-.321-1.049c-.315-.9-1.273-1.388-1.746-2.2l.031,1.139a3.915,3.915,0,0,0,1.57,3.025c.224.194.576.2.716.479-.049.267.036.57-.012.861-.1.043-.194-.1-.279-.176a.563.563,0,0,1,.043-.261.332.332,0,0,0-.1-.364c-.115-.042-.249-.14-.376-.048a.405.405,0,0,0-.206.455c.109.345.582.188.673.582a6.391,6.391,0,0,1,.176,2.765,8.849,8.849,0,0,1-1.795-3.043c.013-.1-.151-.218-.012-.272a4.117,4.117,0,0,1,1.57,2.164,2.738,2.738,0,0,0-.188-.916c-.212-.964-1.267-1.57-1.776-2.388a10.362,10.362,0,0,0-.012,1.837A3.544,3.544,0,0,0,65.3,65.009c.2.128.442.164.6.352a9.843,9.843,0,0,1,.012,1.134c-.176-.079-.224-.285-.334-.425a.477.477,0,0,0,.06-.406.325.325,0,0,0-.321-.218.332.332,0,0,0-.309.158.54.54,0,0,0-.013.352.381.381,0,0,0,.376.218c.7.752.473,1.813.455,2.9a6.834,6.834,0,0,1-1.819-3.249A4.989,4.989,0,0,1,65.655,68.2a1.176,1.176,0,0,0-.1-.485,5.073,5.073,0,0,0-1.673-2.692c-.115-.109-.115-.3-.261-.376a3.736,3.736,0,0,0-.012.74,3.985,3.985,0,0,0,2.134,4.074,3.8,3.8,0,0,1,.091.873c.006.061.006.17-.091.134a.512.512,0,0,1-.2-.582.445.445,0,0,0-.279-.291.363.363,0,0,0-.376.1.473.473,0,0,0-.06.376.493.493,0,0,0,.455.261,1.279,1.279,0,0,1,.448.673c.115.77.072,1.437.146,2.225-.012.067-.067.158-.146.116a5.11,5.11,0,0,1-1.352-1.874,5.462,5.462,0,0,1-.394-1.255A5.2,5.2,0,0,1,65.6,72.563l-.085-.642a5.343,5.343,0,0,0-1.734-2.589c-.066-.079-.091-.194-.158-.249a7.749,7.749,0,0,0,.206,2.691A3.364,3.364,0,0,0,65.771,73.8a.636.636,0,0,1,.072.449,1.593,1.593,0,0,1-.043.57c-.139.025-.254-.1-.363-.176-.012-.145.085-.291.03-.454a.457.457,0,0,0-.279-.218c-.152-.067-.273.06-.376.121a.42.42,0,0,0-.018.388c.067.187.279.206.437.248.261.237.588.522.582.9l-.012,2.1a.676.676,0,0,1-.278-.206,8.819,8.819,0,0,1-1.552-2.631v-.146a5.671,5.671,0,0,1,.915.843,5.22,5.22,0,0,1,.667,1.291,7.819,7.819,0,0,0-.127-.8c-.158-.921-1.019-1.467-1.589-2.194-.121-.079-.133-.267-.248-.322a7.647,7.647,0,0,0-.055,1.122,3.613,3.613,0,0,0,1.291,2.825,5.134,5.134,0,0,0,1.049.654l.187,1.365c-.2-.007-.321-.2-.479-.3-.072-.127.079-.224.085-.351a.566.566,0,0,0-.158-.364.519.519,0,0,0-.364-.085.336.336,0,0,0-.249.218.47.47,0,0,0,.061.419.383.383,0,0,0,.333.145,13.063,13.063,0,0,1,1.049,1.109,4.952,4.952,0,0,0,1.994,2.092c.218.1.394.316.637.352a11.749,11.749,0,0,0-.419-1.279,2.534,2.534,0,0,1-1.382-.915" transform="translate(-50.849 -39.444)" fill="#bcbcbc"/>
          <path id="Path_7745" data-name="Path 7745" d="M192.8,81.589a2.366,2.366,0,0,1-.539.333c-.043-.442.5-.491.741-.74a4.97,4.97,0,0,1,.539-.436c-.122.37-.473.545-.74.843m3.62-28.53a4.66,4.66,0,0,0-1.394,2.807c-.03.055.006.157-.085.157a4.243,4.243,0,0,1-.121-.945c.049-1.594-.139-3.1-.012-4.668a5.072,5.072,0,0,1,.521,3.213,3.628,3.628,0,0,0,.218-2.007,9.165,9.165,0,0,0-.886-2.486l-.085.158A11.567,11.567,0,0,1,194.039,51a3.489,3.489,0,0,0,.333,2.764,8.147,8.147,0,0,1,.249,2.649c-.036.055.018.194-.1.164a12.855,12.855,0,0,1-1.952-3.043.156.156,0,0,1,0-.188,6.03,6.03,0,0,1,1.819,2.037c-.17-1.224-1.182-2.037-2.079-2.867-.067-.091-.085-.218-.188-.249a4.72,4.72,0,0,0,1.673,4.177c.237.182.516.279.728.479a2.89,2.89,0,0,1-.03,1.134c-.255-.109-.146-.364-.177-.564-.042-.1-.1-.248-.23-.261a.353.353,0,0,0-.3.043.371.371,0,0,0,.315.655c.667.606.37,1.66.352,2.588a8.43,8.43,0,0,1-1.9-3.189A5.931,5.931,0,0,1,194.3,59.4c-.248-1.255-1.462-2.091-2.111-3.159A6.218,6.218,0,0,0,192.2,57.5a4.106,4.106,0,0,0,1.3,2.764c.3.316.7.382,1.007.667l-.073,1.091c-.072-.163-.413-.273-.219-.491a.382.382,0,0,0-.1-.364.368.368,0,0,0-.364-.091.424.424,0,0,0-.218.406c.036.267.357.267.539.339.606.722.346,1.862.387,2.765l-.157.073a7.279,7.279,0,0,1-1.079-1.516c-.073-.091-.024-.231-.146-.3a7.583,7.583,0,0,1-.552-1.443,6.534,6.534,0,0,1,1.255,1.425c.151.176.188.449.376.57a2.682,2.682,0,0,0-.333-.915c-.3-.9-1.328-1.461-1.661-2.346a10.1,10.1,0,0,0-.043,1.121,3.863,3.863,0,0,0,1.7,3.45c.194.151.557.085.613.394a6.03,6.03,0,0,1-.018,1.279.364.364,0,0,1-.188-.134c-.3-.236-.017-.569-.187-.842a.468.468,0,0,0-.394-.158c-.121.031-.2.176-.248.291a.406.406,0,0,0,.115.406c.357-.06.5.3.655.522a4.153,4.153,0,0,1,.176,2.443,9.229,9.229,0,0,1-1.018-1.425c-.267-.516-.576-1.006-.8-1.54-.03-.06-.055-.176.018-.218.358.339.679.648,1,1.018a6.6,6.6,0,0,1,.624,1.164,3.537,3.537,0,0,0-.315-.964c-.328-.9-1.3-1.54-1.692-2.4a3.273,3.273,0,0,0-.03.642,4.022,4.022,0,0,0,2.213,4.062,3.856,3.856,0,0,1,.06,1.321c-.158-.037-.218-.212-.351-.3-.128-.128-.067-.3,0-.436a.411.411,0,0,0-.146-.321.373.373,0,0,0-.346-.073c-.091.048-.224.115-.236.23a.451.451,0,0,0,.145.455c.364-.043.461.351.655.563a4.121,4.121,0,0,1,.249,2.516,9.372,9.372,0,0,1-1.9-2.777c-.024-.066-.091-.164,0-.218a6.253,6.253,0,0,1,1.673,1.716,1.791,1.791,0,0,0-.218-.51c-.431-.848-1.316-1.5-1.819-2.3a5.047,5.047,0,0,0,1.061,3.638c.358.37.812.552,1.176.873a4.717,4.717,0,0,1,0,1.236c-.11.012-.121-.115-.2-.157-.3-.212.121-.539-.164-.758a.564.564,0,0,0-.492-.1c-.121.013-.206.146-.236.249a.428.428,0,0,0,.1.394.491.491,0,0,0,.424.115,1.468,1.468,0,0,1,.491.74,9.236,9.236,0,0,1-.031,2.347,13.308,13.308,0,0,1-1.818-2.868c-.006-.09-.1-.175-.025-.261.3.243.588.551.9.8a5.768,5.768,0,0,1,.788,1.189,5.84,5.84,0,0,0-.158-.564c-.285-.958-1.412-1.582-1.879-2.492a5.9,5.9,0,0,0,.449,2.826,5.585,5.585,0,0,0,1.733,1.819,2.487,2.487,0,0,1-.248,1.37c-.1-.018-.1-.152-.158-.219-.024-.218-.285-.406-.115-.631.061-.139-.037-.255-.121-.363a.5.5,0,0,0-.346-.085c-.115.06-.243.1-.291.23a.451.451,0,0,0,.1.437.555.555,0,0,0,.363.091,1.054,1.054,0,0,1,.231.927,2.974,2.974,0,0,1-1.734,1.6,10.291,10.291,0,0,0-.272,1.109,5.359,5.359,0,0,0,2.079-1.6,10.815,10.815,0,0,1,1.455-1.934l.364-.03a.632.632,0,0,0,.23-.292.458.458,0,0,0-.085-.363.505.505,0,0,0-.521-.061c-.158.061-.188.224-.206.364.182.3-.194.485-.364.7-.043.018-.115.036-.146-.013a8.71,8.71,0,0,0,.261-1.558,7.506,7.506,0,0,1,.818-1.382c.358-.515.57-1.1.958-1.57a4.99,4.99,0,0,1-1.176,3.068,3.763,3.763,0,0,0,1.528-2.382,12.5,12.5,0,0,0,.128-2.286c-.291.673-.97,1.134-1.412,1.759a5.274,5.274,0,0,0-.534,1.109c-.091.2-.1.449-.268.563a4.022,4.022,0,0,1,.341-1.988c.078-.2.248-.133.418-.146.091-.055.206-.127.218-.236a.544.544,0,0,0-.1-.418.448.448,0,0,0-.364-.1.338.338,0,0,0-.243.273.565.565,0,0,1-.34.715l.072-1.515c.419-.782.971-1.5,1.371-2.3.175-.267.3-.588.594-.74a5.1,5.1,0,0,1-1.28,3,4.632,4.632,0,0,0,1.152-1.206,6.746,6.746,0,0,0,.509-3.159c-.534.988-1.7,1.715-2.024,2.794-.1.219-.079.479-.261.655a2.85,2.85,0,0,1,.478-2.11c.145-.06.346.012.437-.176a.447.447,0,0,0-.1-.491.482.482,0,0,0-.407-.061c-.284.157-.139.485-.115.715a.588.588,0,0,1-.424.315,9.077,9.077,0,0,1,.049-1.352c.624-1.061,1.2-2.146,1.861-3.2a4.579,4.579,0,0,1-.964,2.856,3.447,3.447,0,0,0,1.3-2.285,10,10,0,0,0,.133-1.692.6.6,0,0,0,0-.376c-.588.934-1.582,1.728-1.909,2.777-.109.255-.121.564-.346.715a2.409,2.409,0,0,1,.491-1.964c.109-.018.231-.012.309-.115a.418.418,0,0,0,.085-.321c-.012-.133-.158-.188-.249-.26a.365.365,0,0,0-.406.127.754.754,0,0,0,.061.539l-.341.394a7.312,7.312,0,0,1-.011-1.5c.788-1.03,1.322-2.182,2.025-3.274a4.634,4.634,0,0,1-1.237,3.213c.145-.043.255-.206.376-.273a4.138,4.138,0,0,0,1.207-2.94,7.327,7.327,0,0,0,.042-1.412,1.466,1.466,0,0,0-.127.23c-.479.636-1.049,1.273-1.558,1.891a3.523,3.523,0,0,0-.406.964,1.65,1.65,0,0,1-.279.709,2.74,2.74,0,0,1,.455-2.164.438.438,0,0,0,.363-.115c.115-.061.067-.213.1-.321a.392.392,0,0,0-.2-.249c-.164-.1-.3.037-.424.116a.479.479,0,0,0,0,.479.349.349,0,0,1-.322.206,10.14,10.14,0,0,1,.062-1.37c.685-.922,1.212-1.916,1.848-2.849a6.8,6.8,0,0,1-.309,1.485,7.7,7.7,0,0,1-.8,1.364,5.07,5.07,0,0,0,1.558-4.219,3.139,3.139,0,0,1-.364.485,7.941,7.941,0,0,0-1.922,2.765c-.006-.558-.109-1.292.394-1.7.122-.037.267.012.352-.1a.545.545,0,0,0,.085-.424c-.024-.091-.127-.127-.2-.17a.344.344,0,0,0-.412.158.42.42,0,0,0,0,.321c.109.152-.055.225-.243.292a2.981,2.981,0,0,1,.128-1.255c.66-1.049,1.255-2.122,1.934-3.152a4.348,4.348,0,0,1-.242,1.309,5.036,5.036,0,0,1-.891,1.655,4.735,4.735,0,0,0,1.546-3.564,1.724,1.724,0,0,0-.049-.758,5.573,5.573,0,0,1-.8.891" transform="translate(-153.376 -39.322)" fill="#bcbcbc"/>
          <path id="Path_7746" data-name="Path 7746" d="M96.371,201.216a2.447,2.447,0,0,1-1.164.479c-.145-.582.551-.327.8-.552.116-.067.285-.1.322-.249a7.2,7.2,0,0,0,.072-1.4c-.849-.043-1.661.018-2.486.018L94,198.451a7.158,7.158,0,0,0-.115-1.182c.006-.255.455-.5.1-.727-.121-.025-.406.018-.321-.188a1,1,0,0,1,.207-.333c.2.061.455-.078.582.116-.382.818-.037,1.855-.206,2.764,0,.091-.133.212,0,.279.813-.066,1.685-.06,2.486-.06-.1.764.231,1.588-.363,2.1m.582-2.595-2.425-.055a3.98,3.98,0,0,0-.048-.7c.078-.6-.182-1.3.236-1.734-.024-.043.037-.085.055-.134a.161.161,0,0,0-.025-.218c-.4-.1-.855.1-1.224-.115a4.889,4.889,0,0,0-.352.933c.127.164.37.1.655.218-.14.134-.321.218-.449.364a14.541,14.541,0,0,1,.073,2.588,18.642,18.642,0,0,1,2.534.013,2.593,2.593,0,0,1-.018.921c-.23.364-.679.315-1.1.418l-.164.915a.958.958,0,0,0,.237-.024,14.875,14.875,0,0,0,1.558-.612c.679-.479.448-1.322.479-2.037-.006-.248.14-.533-.018-.745" transform="translate(-74.568 -156.602)" fill="#bcbcbc"/>
          <path id="Path_7747" data-name="Path 7747" d="M182.37,211.029c-.079.012-.146.091-.23.042-.037-.212.1-.412.03-.643-.115-.116-.339.006-.424-.158a.963.963,0,0,1,.188-.448l.552.1.072.121a8.845,8.845,0,0,0-.187.989m-.491-1.692c-.1-.03-.163-.163-.249-.188a6.388,6.388,0,0,0-.5,1.164c.067.3.473.079.655.249.017.346-.079.667-.085.989.3-.073.588-.194.885-.291a7.123,7.123,0,0,1,.188-1.1c.061-.206.243-.448.134-.685-.3-.152-.728,0-1.031-.134" transform="translate(-144.969 -167.391)" fill="#bcbcbc"/>
          <path id="Path_7748" data-name="Path 7748" d="M169.178,181.3a.21.21,0,0,0-.055-.157l-.073-.043c-.255-.09-.443.121-.583.273.17.012.255-.194.419-.2a.312.312,0,0,1,.291.127" transform="translate(-134.832 -144.921)" fill="#bcbcbc"/>
          <path id="Path_7749" data-name="Path 7749" d="M159.487,181.417c-.352.049-.079.5-.418.552-.17.054-.388.03-.528.121a.986.986,0,0,0,.643-.072c.279-.043.055-.37.249-.485.182-.085.357.03.522.03-.146-.079-.273-.188-.467-.146" transform="translate(-126.887 -145.188)" fill="#bcbcbc"/>
          <path id="Path_7750" data-name="Path 7750" d="M163.28,184.778l.133-.018c.134-.018.2-.164.231-.273a.218.218,0,0,0-.085-.267c-.1.121.061.206.031.339-.067.122-.2.158-.309.219" transform="translate(-130.68 -147.439)" fill="#bcbcbc"/>
        </g>
      </g>
    </g>
  </g>
</svg>
