<svg xmlns="http://www.w3.org/2000/svg" xmlns:xlink="http://www.w3.org/1999/xlink" width="309.081" height="374.542" viewBox="0 0 309.081 374.542">
  <defs>
    <clipPath id="clip-path">
      <rect id="Rectangle_76" data-name="Rectangle 76" width="309.081" height="374.542" fill="#e4e4e4"/>
    </clipPath>
  </defs>
  <g id="Group_38" data-name="Group 38" opacity="0.18" clip-path="url(#clip-path)">
    <path id="Path_19" data-name="Path 19" d="M174.613,233.758c-.241-.639-.057-1.589-.724-1.845-6.244.128-12.119-.184-18.419-.312-1.32.241-.837-1.4-1.745-1.66.241-9.167.724-17.7-.114-29.53l-10.813-.128c-4.967-.568-10.856-.7-16.021-1.078-3.831-1.972-4.129-6.613-5.875-10.061-.724-1.391-.3-3.817-1.618-6.1-.837-2.994-2.526-6.613-5.761-7.507a14.214,14.214,0,0,1-1.149-7.961c.184-2.029,2.469-1.149,3.6-1.972.128-2.739.057-5.279-1.561-7.45-1.859-1.589-4.5-3.306-4.016-6.414-2.4-1.4-1.561-5.094-1.32-7.195.78-2.1,3.477-1.4,4.016-3.69v-8.089c8.585-2.356,17.468-4.073,25.2-8.528,1.5-.823,3.25.383,4.74-.44,2.228-2.412,4.683-3.888,7.209-5.662,2.214-1.533,6.059-1.4,6.357-5.023a3.741,3.741,0,0,1,3.306-2.171c.894-.7,2.214-1.462,2.568-2.285.255-.639-.057-1.348.312-1.972,2.214-1.972,2.881-5.293,6.059-5.35,1.32-1.149.894-3.051,1.561-4.456a41.645,41.645,0,0,0,4.314-7.195c2.043-2.994,1.022-7.507,4.811-9.607a6.482,6.482,0,0,1,3.122-6.556c.525-1.845-.908-2.852-.426-4.711,3.775-2.923,1.916-7.691,3.051-11.764.724-1.972,2.341-4.144.851-6.116-.965-2.356,1.376-3.619,1.561-5.662,1.022-2.356-.539-4.257-.837-6.428,2.7-4.2-.851-8.273-.312-12.786-.3-1.717-1.731-3.122-1.022-5.094,1.816-4.129,3.732-8.4,3.193-13.424-1.745-2.866-4.271-3.505-6.783-4.9-4.328-.894-7.748,2.923-10.2,5.974-1.206,3.122.241,6.3,1.022,9.167,2.029,3.69,1.32,8.145.837,12.346-1.135,4.711,2.937,9.1-.128,13.3.667,3.179-1.916,5.733-.6,9.039-1.731,1.774-1.916,4.2-2.455,6.556.837,2.611-.539,5.023-1.689,7.195-.241,3.817-3.533,6.357-3.349,10.373-3.363,3.562-2.824,9.281-7.45,11.892-3.363,1.149-1.192,5.605-4.073,7.195-4.144,1.277-6.244,5.662-9.791,8.528-4.612.44-7.138,6.23-11.636,6.868-7.507,3.122-14.829,6.428-23.23,7.195-2.937-1.149-1.561-4.91-1.674-7.322a2.99,2.99,0,0,1,1.674-1.972c6.613-1.022,12.842-2.994,18.192-7.195,2.994.894,4.924-1.845,7.195-3.377,1.745-1.007,3.9-.951,5.463-2.412.6-3.69,4.74-3.817,6.6-6.556.78-3.434,4.5-4.2,5.761-7.18,2.4-2.043,2.639-5.222,4.087-7.833,0-1.972.17-4.073,1.973-5.151.78-4.016.539-8.528,3.065-11.778-1.135-4.385,1.859-7.379,1.859-11.452.3-1.589-1.135-2.866-.426-4.257-.355-2.739.426-5.421.965-7.961-1.078-4.839-1.192-10.245-1.447-15.269a19.344,19.344,0,0,0,3.491-11.012c-1.149-3.25-4.385-4.385-7.209-4.9-4.257,1.263-8.94,2.54-11.636,6.74-2.881,5.662,1.731,10.685,4.314,15.269.667,5.35-2.583,9.862-.6,14.829-1.078,3.69-.837,7.961-1.32,11.906-.355,1.462-1.561,2.739-.951,4.442.468,2.994-1.447,5.293-2.639,7.776l-.255,1.646c.667,2.483-2.214,3.306-3.349,4.328-2.171,1.845-2.171,4.711-3.732,6.882a24.5,24.5,0,0,0-10.075,9.153c-6.357,2.171-12.119,6.045-18.6,8.089-.894.255-2.639.823-3.306-.454.128-2.6-1.49-5.917.312-8.259l11.636-5.222c1.618-1.022,4.144.383,4.626-2.1.837-2.554,3.831-1.845,5.038-4.144,1.135-.383,2.583.184,3.292-1.078,1.022-4.144,3.732-7.507,4.924-11.579.539-1.533,2.043-2.668,2.157-4.456.61-3.434,1.8-7,1.745-10.373.837-1.334,1.916-2.8,1.263-4.583-2.1-2.923-.3-6.23.184-9.295a15.035,15.035,0,0,1-.724-5.534c-2.285-3.179-.667-7.691.3-11-.653-2.81,1.859-6.428-1.206-8.543-3.42-2.412-7.379-4.825-11.636-3.817a52.046,52.046,0,0,0-7.918,7.195c0,2.427-.724,4.328.6,6.428,2.937,2.739,7.507,5.534,7.45,10.189-1.561,3.108-.724,6.868.6,9.791-1.206,3.505.724,7.322-2.583,9.933-1.135,1.774.908,2.923.3,4.9-2.4,3.76-3.179,9.422-8.1,10.827-2.4,5.534-8.216,5.662-12.771,7.308a3.11,3.11,0,0,1-.908-3.306c-1.022-2.668.951-6.428-1.135-8.713-1.149-1.533.78-2.483,1.135-3.69.653-2.994-1.8-5.165-1.263-8.089,2.171-2.668-1.078-5.023,0-7.947,2.1-3.633-.241-7.578-1.192-11.012-2.1-7.195,6.712-10.941,5.761-18.008a12.947,12.947,0,0,0-7.932-5.917A18.732,18.732,0,0,0,84.475,7.535c-1.32,1.4-.6,3.874-.6,5.662-.184,3.562,3.292,5.279,5.165,7.762,4.314,4.2-.724,8.912-.128,13.751-.241,2.1,1.674,3.817.6,5.662-1.859,2.54-.951,5.407.241,7.947a9.11,9.11,0,0,0-.837,5.676c.355,1.008,1.674,1.646,1.561,2.852-2.455,2.866-1.263,7.393-2.157,11.778-3.25.383-5.591-1.717-8.344-2.611-1.263-1.022-3.846-.766-3.9-3.051a2.469,2.469,0,0,0-2.157-1.972c-1.5-.326-1.32-2.228-1.689-3.505-.057-2.1-2.512-2.483-3.179-4.129-2.512,1.972-6.116,1.206-8.94,2.469-1.022-.184-1.192-1.447-.837-2.285a7.766,7.766,0,0,1,4.144-2.8c2.214-.383,3.959.568,5.634,1.518.426-1.008.482-2.6-.6-3.306-2.285-1.078-2.526-3.817-3.179-5.974a3.638,3.638,0,0,1,1.618-2.937c.6-1.518-1.022-2.469-1.433-3.8,1.249-5.421.78-11.65,3.179-16.617,1.192-2.994,4.555-3.434,5.279-6.556a7.441,7.441,0,0,0-.426-5.35c-7.024-5.846-17.454-4.9-24.776-.312-.426,5.279.3,10.373,3.59,14.19,1.745,4.073.908,9.295.908,14.957-1.206,2.029.837,3.363,1.263,5.023.241,3.69,1.972,6.868,1.32,10.685,2.994,3.321,1.731,8.472,3.9,12.1,1.008,1.972,4.129,2.98,3.59,5.775.369,1.348,1.8,1.22,2.71,1.859,3.051,6.173,9.053,9.862,14.872,11.579,2.639,1.646,7.45-.454,8.174,4.129.539,1.788.468,4.016-.851,5.35-5.222.255-9.664-2.483-14.091-4.711-2.1-.568-4.215-1.277-5.648-3.25-2.526-.5-4.5-2.483-6.059-4.7-4.144.369-4.555-4.711-6.187-7.322-2.583-.568-2.881-4.016-5.151-5.222-.482-3.945-4.683-6.3-4.924-10.373,1.987-2.1-.539-4.129-1.149-6.1.539-3.633-.894-6.244-1.008-9.806-.369-1.9-1.689-3.491-1.561-5.605,1.618-4.513.6-10.1.3-14.815l1.674-8.089c.482-1.462,1.561-2.611,1.32-4.328-.3-3.306-4.073-4.129-6.6-5.023-5.038-.312-10.2.568-13.438,4.584-.539,1.774.355,3.306.724,4.9.468,3.76,3.42,6.428,4.186,10.061-1.008,3.179-1.192,7.819.128,10.87,2.881,4.839-1.206,9.678.184,14.829,2.639,2.866,1.263,7.507,2.881,10.827,2.512,1.518,2.285,4.825,3.179,7.308-.837,4.016,4.073,5.421,3.718,9.167,2.767,1.277,3.789,4.4,4.924,6.868,1.135,2.81,3.9,3.306,5.761,5.35,1.022,5.861,7.138,5.094,9.9,9.607a8.286,8.286,0,0,1-.128-4.257c.426-2.866,3.42-3.562,5.165-5.35l1.32,1.206a31.844,31.844,0,0,0-2.583,7.379c-.355,1.731-2.526,1.533-3.179,1.533C69.831,104,78.9,106.683,88.193,108.783c2.71,1.774.78,5.407,1.149,7.819-1.022,1.845-3.732.951-5.35.766C75.422,115.4,67.135,112.6,59.7,107.762c-.908-.7-2.412.128-3.193-.951-1.32-2.356-3.775-2.994-5.761-4.271-.3-3.434-3.9-2.994-5.875-4.257a28.569,28.569,0,0,0-3.065-5.79c-2.512-.766-3.533-3.377-4.74-5.548-4.129-.624-2.157-6.173-6.059-7.436-1.022-1.022-.482-2.866-.426-4.144.255-2.228-2.512-2.356-2.866-4.257-1.32-5.038-1.745-10.373-5.165-14.389-.724-1.008-.071-2.228.837-2.923,1.135-1.845-.724-3.505-1.561-5.023-1.433-2.356.184-4.967.241-7.45-1.859-4-1.8-8.912-1.674-13.751-.965-3.874-2.526-7.876-.908-11.948.667-2.739,3.306-5.165,1.859-8.216-2.81-2.412-6.471-4.711-10.5-3.051-2.27.823-4.74,1.845-6.3,3.817a7.1,7.1,0,0,0,1.447,5.917c2.937,3.945,2.157,10.245.539,14.5.482,4.2-.369,8.784.724,12.857.057,1.206-1.263,2.043-.539,3.377A17.9,17.9,0,0,1,8.386,55.513,3.868,3.868,0,0,1,10,58.379c-1.376,4.073.667,8.145,1.022,12.218a24.088,24.088,0,0,1,2.7,4.144c-.241,3.8,1.745,6.8,4.5,9.153,2.043,4.4,1.8,10.061,6.911,12.857,1.192,3.051,3.59,5.35,5.577,7.961,3.718,1.518,6.357,5.846,8.642,8.968,2.767,1.4,5.761,3.179,7.379,6.1,2.228,1.334,5.279.837,6.783,3.817,3.179,3.193,7.379,3.76,11.04,5.662,4.981,2.3,10.927,2.114,15.723,4.91l.113,7.322,1.632.312c2.824,1.533,3.42,4.967,3.9,7.762-2.824,2.1-.241,6.74-4.087,8.089-1.987,1.717-1.561,4.64-1.447,7.053a3.507,3.507,0,0,1,3.193,1.093c1.731,2.157.894,5.279.71,7.89-5.151,2.852-6.783,8.585-9.181,13.3-2.455,3.69-1.859,9.735-6.655,11.324-6.967,1.462-14.219.894-21.428,1.66-1.859.568-4.2-.071-5.932.752-.071,10.643-.539,21.328-.539,32.4-6.428.312-12.133.639-18.731.894.6,11.069.071,21.882,0,32.255.3.894-.241,2.611.965,2.739l60.48.128,55.754.2,34.738-.326a1.609,1.609,0,0,0,1.263-1.646ZM60.536,50.163c-.128-2.157,1.618-2.086,2.881-2.469.6.128,1.32.312,1.433,1.078-.412,2.1-2.937,1.149-4.314,1.391m-7.62-35.121c-.057-.766-.057-1.589.71-1.845,3.9.255,7.209-1.149,10.927,0l1.32-.44c1.263,0,2.881-.255,3.306,1.206-.426,3.505-3.6,5.79-4.03,9.295C64.793,27,66.17,31.843,63.417,34.709c-1.618.511-3.42,1.462-5.165.639a2.086,2.086,0,0,1-.6-2.427c1.078-1.277,3.051-1.206,3.9-3.051a5.865,5.865,0,0,0-.61-4.328c-1.49-1.533-4.016-1.774-4.74-4.073-.3-1.334.057-2.923-.837-4-.894-.639-2.4-1.022-2.455-2.427M55.484,39.8c3.973-1.4,7.152-2.427,10.089-.965.3.454.667,1.022.3,1.533-2.639,1.149-6.485,1.078-9.053.639A3.317,3.317,0,0,1,55.484,39.8m8.528,25.188c-.724-1.9,1.206-3.306,1.263-5.208,1.5-2.228,5.151-2.483,6.357-.326.6,2.483-2.157,2.1-3.292,3.065-1.689.568-2.469,3.235-4.328,2.469m3.42,4.4c-.837-1.845,1.376-3.122,2.341-4.584a4.139,4.139,0,0,1,5.336-.326c-.894,2.611-3.888,2.427-5.52,4.584-.653.255-1.376.766-2.157.326m10.26,10.558c-2.639-1.9-6.84-2.668-7.493-6.74-.184-1.462,1.249-2.171,2.157-2.866,1.32.511,1.433,2.412,2.583,3.505,3.533,3.491,7.791,5.023,12.232,6.1-2.583,3.179-6.116.71-9.479,0M41.266,54.306c-1.008.128-1.49-.823-1.916-1.518.057-1.788,1.263-2.994,1.916-4.47,1.078-.44,1.93.639,2.171,1.533-.184,1.788.653,5.094-2.171,4.456m1.859,9.933c-.412.624.312,2.228-1.008,2.1-.312-.965-1.263-2.37-.312-3.193.426.326,1.32.255,1.32,1.093M31.914,13.069c1.561-1.206,3.9-.312,5.761-.766,1.49-.128,3.718-1.334,4.74.454-.426,3.619-2.157,7.124-1.32,11.012.6,4.186,1.135,8.841-.128,12.97a4.833,4.833,0,0,1-3.9.766c-.894-2.356-.355-3.69.426-4.583-.426-2.285,1.078-4.584-.3-6.613-1.987-2.228-4.442-4.527-3.42-7.89a3.118,3.118,0,0,0-.3-3.065c-.482-.951-1.987-1.206-1.561-2.285m2.157,29.275a2.627,2.627,0,0,1-.482-1.788,26.217,26.217,0,0,1,7.8-.752l1.433,1.518c-1.972,2.611-5.932,1.4-8.755,1.022M39.35,70.909c-.114-2.98,3.306-2.469,4.924-2.285a4.019,4.019,0,0,1-2.157,2.923c-.965.837-2.1.454-2.767-.639m4.8,6.3c-.78-.312-1.859,0-2.157-.951.3-1.518,2.1-1.916,3.122-2.866a1.783,1.783,0,0,1,1.731,1.022c-.355,1.334-1.674,2.171-2.7,2.8m8.046,8.983c-1.135.184-1.916-.837-2.583-1.533-.412-1.022.667-1.022.724-1.845,1.078-.951,2.27-3.051,4.144-2.554l.468.582c-.412,2.043-.78,4.2-2.753,5.35m6.783,5.023a4.184,4.184,0,0,1-1.32,2.157,4.184,4.184,0,0,1-3.306-2.157c-.724-2.228,1.8-2.043,2.767-3.051A5.876,5.876,0,0,1,60,86.192c.71.241,1.674.057,1.972,1.078-.951,1.078-2.455,2.412-2.994,3.945M113.1,178.458a15.767,15.767,0,0,1,4.328,7.322c1.079,4.073,2.285,8.074,3.59,12.09l-9.777.766c-1.561-.837-1.674-3.122-2.157-4.782-.965-4.456-1.022-9.224-2.157-13.552,1.078-2.483,4.129-1.717,6.173-1.845M99.006,176.3c-.61-.383-1.391-1.149-.851-1.972a1.9,1.9,0,0,0,1.689-1.4c-3.363-1.334-1.32,2.668-3.122,3.69-1.391,0-3.008.255-3.477-1.4.114-1.263,1.972-.44,2.27-1.972.482-.823-.724-1.518-1.249-1.845-3.122.128-.312,5.79-3.9,5.094a2.027,2.027,0,0,1-2.583-.951,1.616,1.616,0,0,1,.3-1.845c.653,0,1.376.7,1.972,0,.908-1.022.128-2.611.184-3.633a1.391,1.391,0,0,0-1.433-.639c-.482.454-.553,1.533-1.447,1.078a12.5,12.5,0,0,1-1.192-4.569c8.869.128,17.454-.766,25.5.128a2.046,2.046,0,0,1,.412,1.717c-1.972,2.157-1.376,5.662-1.263,8.528-1.008.823-2.4.7-3.59.951-1.561-.255-3.477,0-4.328-1.4-1.135,1.093-2.512.511-3.888.454m.3,17.88c-.426.568-1.149.255-1.632,0-.17-2.1-2.994-3.122-2.568-5.477.114-2.285-.426-5.222,1.618-6.74.894.128,2.455-.454,2.4,1.078.3,3.633.78,7.507.184,11.139m-5.761-10.245-.724,6.414c-1.263-.44-3.235-.184-3.477-1.972.482-1.958-.61-4.385,1.859-5.208.78-.2,2.157-.383,2.341.766m-4.5-36.8c.951,0,2.1.383,2.157,1.533-1.987,1.6-2.526,1.078-2.71.454-.241-.71-.3-1.717.553-1.987m11.991,34.823c1.078-.639,2.469-.582,3.6-1.206,2.767,1.263,1.561,5.463,2.881,7.947l.539,8.2c-.78,1.916-1.93-.383-2.994-.312-1.022-2.1-4.144-1.206-4.2-3.633Zm8.344-22.79a3.014,3.014,0,0,1,3.306,1.845c.114,1.206.951,2.3.412,3.505-3.292.383-7.549.951-9.891-1.66-1.745-1.646-4.811.128-6.485-1.518,0-1.277,1.078-1.972,1.972-2.611,3.6-.766,7.322,2.157,10.685.44M184.39,53.8c-1.618.823-2.753-.7-4.144-1.008-1.731-.142-3.661-.2-4.8-1.533-.241-1.149.724-1.4,1.32-2.043,1.8.894,3.065-1.022,4.924-.128l1.972,1.206c1.022.837,1.618,2.427.724,3.505m1.135-6.868c-1.249,1.774-3.108-.071-4.74-.128-1.078-.766-2.568-.326-3.42-1.533-.113-2.1,2.341-2.228,3.6-3.179,1.32-1.078,1.263-3.69,3.6-2.483l.951,1.206c.241,2.171,1.561,4.2,0,6.116m-4.314-10.5c1.376-.766,3.775-1.334,4.626.44.114,1.078-.851,1.334-1.447,1.4-1.078-.582-3.235.057-3.179-1.845m-6.9-24.436c3.349-2.611,8.514.823,11.395-2.923l1.263.951c-.184,4.967-2.937,8.841-3.122,13.878.539,3.491,2.455,6.542,2.157,10.231l-7.195.326c-.369-.383-.3-.894-.3-1.4,1.022-.894,2.639-1.149,2.994-2.739,1.5-3.108-2.824-4.584-.837-7.507a3.206,3.206,0,0,0,.539-2.285c-2.157.511-2.639-1.845-3.6-3.179,0-3.065-4.555-1.916-3.292-5.35m-1.447,49.95c2.71-.639,4.981-.7,6.783-1.845,1.206-.951.894-4.64,3.306-2.923l1.022,1.206c-.071,2.923-1.206,6.357-4.03,7.507-2.4-.128-4.2-1.717-6.485-1.972-.837-.255-.837-1.334-.6-1.972m5.648,6.556,1.972,2.611a3.019,3.019,0,0,1,0,2.866c-1.192,1.135-2.512,4.073-4.442,2.285-1.022-1.149-2.81-1.4-3.179-3.051.6-1.277,2.639-.454,2.767-2.3,0-2.285-2.1-1.9-3.065-3.491,1.8-.766,4.2,0,5.946,1.078m-7.081,10.685c-.369-1.263-2.1-1.078-1.859-2.6,2.029-1.533,4.129.7,5.875,1.646l1.206,2.029c-.539,1.348-.78,3.065-2.043,3.831-2.469,2.029-4.328-1.149-6.485-1.717-.539-.582-1.32-1.22-1.022-1.972,1.376-.639,3.008-.582,4.328-1.22m-5.889,8.841c2.171,1.916,7.563-2.157,6.485,2.937-2.1.894-.965,5.534-3.9,3.817a21.709,21.709,0,0,0-4.314-4.584c-.128-1.149,1.135-1.462,1.731-2.171m-1.618,8.855c-.184-1.4-1.916-2.611-1.135-4.129,2.341.184,4.016,2.341,4.924,4.442a10.2,10.2,0,0,1,.3,2.3c-.78,1.078-1.632-.823-2.341.44-.184,1.4-.61,2.937-1.987,3.505-.6.44-1.078.568-1.618.184-.6-1.9-2.455-3.746-2.583-5.79,1.32-1.589,3.548,1.717,4.442-.951m-8.159,6.428c.539-1.334-1.433-2.54-.184-3.817,1.987.057,3.065,1.9,3.9,3.491.3,1.533,1.263,3.193.61,4.782a9.41,9.41,0,0,1-4.087,1.518c-1.022-2.029-3.42-3.491-3.306-5.974.965-.7,1.93.7,3.065,0m-6.357,5.974,1.561-.624c.468-.766,1.618-.511,2.157-.128,1.859,1.135,1.32,3.434,1.022,5.336-.6,1.4-1.745,1.788-2.881,2.554-2.043.184-2.285-2.3-3.42-3.505a7.272,7.272,0,0,1-2.341-5.79c1.49-.568,2.214,1.972,3.9,2.157m-10.089,3.193c1.32.511,2.583,2.852,3.9,1.518.057-.7-.355-1.277.114-1.845,1.873.454,3.363,2.554,4.328,4.144-.057,2.483-2.7,2.923-4.144,4.129-3.179-.639-4.442-4.456-5.52-7.18a.835.835,0,0,1,1.32-.766M116.163,125.9c4.8.383,7.975-3.377,12.246-4.4,2.029-2.852,5.988-1.135,7.734-4.456,1.745-.114,2.1,1.987,2.881,3.065-4.314,4-9.422,5.279-13.978,7.762-8.458,1.589-16.929,4.583-25.926,3.377,6.059-1.731,11.821-2.739,17.043-5.35m45.069-76.359c-.78,1.518-2.4,2.469-3.179,3.69-1.093-.71-3.6-.326-3.179-2.171,1.916-2.668,1.135-6.684,3.888-8.841a2.651,2.651,0,0,1,2.583,1.646c.241,1.859.908,4.016-.113,5.676M150.546,15.169a1.6,1.6,0,0,1,1.447-2.1c2.341-.128,4.314.255,6.471-.312,1.447-.71.241-2.356,1.149-3.065a3.386,3.386,0,0,1,3.349,1.22c2.469,2.923-1.007,5.463-1.731,8.074a12.028,12.028,0,0,1-1.022,6.882c1.078,3.619,2.994,8.074,1.022,11.892-2.1,1.788-4.74-.128-7.081.511-.837-.128-1.022-1.206-.724-1.845,3.718-1.66,1.447-5.662,1.32-8.4-.185-.7-1.078-1.277-.724-1.972,1.391-.639,3.122-1.589,3.42-3.562a5.221,5.221,0,0,0-3.292-5.477c-1.078-.823-3.065-.057-3.6-1.845m3.6,40.031c2.043.7,4.555,1.263,5.463,3.505-.724,2.029-1.149,4.385-2.583,5.974-1.745-.71-4.016-.44-5.35-1.972,0-2.043,2.824-1.078,3.491-2.923.3-.894-.482-1.476-1.022-1.859-1.022-.44-2.583.383-3.306-.88.057-1.717,2.171-1.4,3.306-1.845m1.433,13.1.724,1.277c-.483.951-.965,2.356-2.285,1.66-1.618-1.149-2.937-3.25-4.91-3.505,1.859-2.356,4.442-.639,6.471.568m-6.059,2.611c.78-.44,1.859.2,2.639.639a8.683,8.683,0,0,1,2.4,2.427c.071,1.206-.227,2.483-1.249,2.923-1.745-.057-2.824-1.646-4.5-1.845-1.022-1.589,1.376-2.356.71-4.144m-2.157,6.3c.539-.184,1.447-.369,1.916.128a15.889,15.889,0,0,1,3.122,2.611c0,1.462-1.32,2.483-2.27,3.377-2.171-.128-2.285,3.25-4.2,3.179-1.263-1.972-2.71-3.505-4.03-5.477,1.8-1.391,5.038-.7,5.463-3.817m-10.2,8.216a1.9,1.9,0,0,1,.426-2.1c3.292.383,4.2,4.2,5.336,6.684.539,1.589-1.263,1.774-2.043,2.483-1.376.44-1.916-1.334-2.4-2.171-.653-1.774-3.42-2.611-3.065-4.583.667-.312,1.32.7,1.745-.312m-6.485,7.819c.837-.312,1.632.255,2.469.454,1.49-.951-.184-5.094,1.973-4.016,1.618,1.277,1.561,3.25,2.469,4.782a1.772,1.772,0,0,1-.851,1.972c-1.916-.639-2.881,2.412-4.612.88-.482-1.334-2.043-2.412-1.447-4.073m-9.053,5.477,5.038-4.257c2.214-.383,2.341,2.341,3.306,3.619.837,2.81-2.228,1.462-3.193,2.611a72.008,72.008,0,0,1-20.165,8.089c-1.32,2.6-.482,6.3-.71,9.153-1.263,1.66-3.846.511-5.761.639-.667-.312-1.5-.511-1.859-1.391-.724-1.859.482-4.839-2.043-5.605-1.8-1.022-4.867-.568-5.463-3.051,3.235-.837,7.209,1.135,9.366-1.717-1.859-.894-5.52.255-5.463-2.866,9.238-1.078,19.143-.511,26.948-5.222m13.793-39.7c-2.157-.71-5.094-1.4-5.761-4.144,1.632-.88,4.271-1.646,4.2-4.129,1.5-.894,3.25.7,4.328,1.845-.482,2.356-.539,5.279-2.767,6.428m2.341-9.607A27.175,27.175,0,0,1,132,46.672c1.32-2.668,3.193-2.483,4.03-2.029.951.7,2.214,1.192,2.7,2.469a1.689,1.689,0,0,1-.965,2.3m3.008-8.273a3.852,3.852,0,0,1-.426,2.923c-2.4,1.717-4.016-1.972-6.485-1.717,1.447-2.228,3.789-.454,5.052-2.54.951-.128,1.32.624,1.859,1.334m-14.7-25c-1.149-2.37,1.249-2.043,2.455-2.5,2.881.454,6.542-.057,9.777-.128l.908,1.22c-.184,3.051-2.285,6.173-.482,9.167,1.8,2.6.114,6.159,1.433,9.025-.468,1.66.071,4.328-1.859,4.839-2.214-.823-5.038-.568-6.9-2.1a7.223,7.223,0,0,0,.3-2.285c1.263-.766,3.6.44,4.016-1.845.128-1.277.61-3.633-1.32-3.7-.766-.128-1.674-.057-2.271-.752.057-1.022,1.561-1.022,2.271-1.533-.539-1.533-1.859-1.022-2.881-1.533-3.888-1.135-2.214-5.846-5.449-7.876m2.157,48.233c2.767,1.391,3.533-4.967,5.761-1.4-.781,2.1-1.078,5.407-3.718,5.534-.724-1.206-2.7-2.356-2.043-4.129m-5.165,4.442c1.149-.44,2.043-1.774,2.881-2.8,1.689.7,2.469,2.8,3.718,4.129-.227,2.37-2.881,2.37-4.016,4.271-1.135.255-2.1,1.462-3.477.766a13.843,13.843,0,0,1-3.6-5.79c1.32-.894,2.937-.2,4.5-.582M102.483,55.64l-8.216.184a1,1,0,0,1-.312-1.391,5.357,5.357,0,0,1,3.9-1.972c1.022-.894,1.8-2.356,2.881-3.051a2.818,2.818,0,0,1,2.469,2.739c.227,1.206.227,2.668-.724,3.491m-5.35,2.611a5.5,5.5,0,0,1,5.052.312l.539,1.22v9.281c-.057.837-.965.965-1.561,1.078a25.236,25.236,0,0,1-8.528-.44c-1.022-.766-.482-2.157-.412-3.363,3.42-1.348,3.718-5.165,4.91-8.089m-4.74-12.857c.241-2.356,2.937-1.717,4.569-2.285,2.1.511,5.151-.639,5.932,2.157-.71,4.527-4.8.383-7.493,1.206-1.078.255-2.824.383-3.008-1.078M89.754,14.729c-.241-.511-.78-.894-.71-1.533C93,11.551,97.133,14.4,98.879,10.146c.3-1.149-.241-3.122,1.135-3.377,2.654.454,4.144,3.562,5.052,5.79.3,3.377-2.654,5.605-3.6,8.6-2.455,6.542,4.981,12.97-.3,18.76-2.824-.823-6.3,1.149-8.528-1.078.184-.7.184-1.646,1.022-1.972,1.022.326,1.674-.511,2.157-1.078.241-1.149,1.206-2.029,1.745-3.051,2.157-5.094-2.285-9.806-.3-14.645-1.93-2.285-5.407-1.078-7.507-3.363m-.412,91.188c-7.379.255-14.531-2.8-21.186-5.79A4.236,4.236,0,0,1,66.3,97.062c.114-.752.241-1.646.894-2.029,1.561.184,2.526,1.972,4.03,2.483,5.52,3.122,11.21,5.719,17.7,6.428.426.511,1.022,1.334.426,1.972M88.917,85.1c3.122-1.263,7.436.511,9.962-1.774-1.972-1.149-5.222.44-6.357-2.043,8.216-1.646,17.454-2.412,23.641-8.841,1.8.255,2.881,2.412,3.42,4.016-.482,2.214-2.767,2.469-4.328,3.306a68.086,68.086,0,0,0-10.373,4.129l-.837,1.533c.17,2.98,1.135,5.974.6,8.841-2.228,1.277-5.279.894-7.8.312A7.458,7.458,0,0,1,96,90.322c-1.618-2.994-4.257-4.328-7.081-5.222M10.728,38.271c.057-3.179,1.618-6.045,1.433-9.479,1.391-1.277-.057-4.4,2.583-4.584a2.693,2.693,0,0,0,.426-2.611c-.667-2.285-2.767-3.122-4.328-4.9a4,4,0,0,1,1.32-3.193c2.824,1.22,3.718-1.958,5.591-2.923l.468.766c-.057,2.994-1.618,5.477-1.008,8.6,1.192,5.279,2.568,11.821.539,17.241-1.689,1.972-4.683,1.462-7.024,1.078M12.885,51.7c.908-1.533,2.824-2.285,3.306-4.257a4.108,4.108,0,0,1,1.022-3.25A2.225,2.225,0,0,1,19.37,46.36c-.78,2.285,2.455,5.463-1.149,5.9-1.788-.184-4.257,1.22-5.336-.568M16.6,66.524a3.048,3.048,0,0,0,1.022-3.25c1.447-2.228,3.008-.511,3.179,1.093.369,1.774-.951,4.073,1.022,5.336-1.859,1.589-3.122,3.945-5.038,3.505-1.376-1.845-.539-4.967-.184-6.684m.426,13.992c-.724-2.469,2.214-1.774,3.363-2.852a37.125,37.125,0,0,1,5.875-2.3l.3.454c-.468,3.69-4.612,4-7.081,5.662-.724-.071-2.1.312-2.455-.965m4.314,9.806c-.241-1.022.3-2.228,1.32-2.157,1.93,0,3.846-.255,5.165-1.788a.967.967,0,0,1,1.32,1.022c-.482,2.228-2.753,2.923-4.016,4.584a4.312,4.312,0,0,1-3.789-1.66m7.379,6.74c-1.6.511-2.994-.752-4.016-1.845-.482-1.589,1.391-1.462,1.859-1.972a12.74,12.74,0,0,0,5.761-2.923c.667-.057,1.391.071,1.561.766-.653,2.739-3.959,3.633-5.165,5.974m2.285,5.605c-.894-2.285,2.341-1.391,2.583-3.505.128-.766.3-1.774,1.206-1.972,2.214-.624,1.972,3.065,4.016,2.427.965,3.051-1.447,4.2-2.157,6.1a8.311,8.311,0,0,1-5.648-3.051M41.1,113.111c-1.206-.837-2.526-1.533-2.583-3.25,1.32-1.916,1.192-5.478,4.016-5.79.837-.071,1.8-.071,2.157.766.128,1.008-.6,1.646-.539,2.611,1.5,0,2.952-1.859,3.846-3.25.482-.128,1.263-.326,1.618.184-1.433,3.76-3.235,6.116-4.626,8.727-1.008,1.589-2.7.184-3.888,0m11.1,5.591c-.724,1.533-2.1.326-3.179.511a7.634,7.634,0,0,1-2.881-1.391c1.078-2.3.6-5.676,2.881-7.01,1.916.057,3.179-1.462,5.038-1.533.724-1.206,2.455-.5,2.767.582-.965,3.25-4.569,5.279-4.626,8.841m3.179,3.377c-1.972-2.739.965-5.222,2.285-7.45,1.561-.255,1.135,1.717,2.043,2.412,8.33,11.139,21.953,9.238,32.936,13.878-13.14.7-26.522-1.334-37.264-8.841m30.368,19.852c5.094-1.462,10.927.312,16.134-.894.482-2.157,2.341-2.994,3.9-4.129,1.263.057,2.71.184,3.179,1.646.184,1.334.851,3.051,0,4.328-2.568,1.22-2.824,3.945-3.179,6.371-1.618,1.135-3.363.44-5.336.624-1.022.4-2.043-.128-2.994-.128.468-1.135-1.32-.057-.724-1.518.951-.511,2.1-.894,2.7-2.043a2.037,2.037,0,0,0-2.455-1.206c-1.447.766-.724,3.179-1.149,4.456-.837.582-2.27.2-3.179.312-.653-.241-.78-1.008-.71-1.717.766-.114,1.674.071,1.916-1.079.539-1.4-1.149-1.774-1.745-2.412-.653-.071-.837,1.149-1.618.766-.6-.639-1.206-1.533-2.157-1.4-.667.568-.3,2.611-1.689,1.717-.468-1.149-1.32-2.285-.894-3.689m-15.666,61.09,1.987-.568c13.013-.582,25.018-.894,38.158-.965l.724.454a2.489,2.489,0,0,1,.3,2.157c-13.2.383-25.855.71-38.47,1.206-.539,8.216-.355,16.362-.412,24-.426.823-1.32.312-1.859.128.114-9.607-1.376-17.752-.426-26.408M106.2,217.085c-.241-.951.6-2.483-.724-2.923-1.135.241-2.27,2.285-3.477.624a4.983,4.983,0,0,1,2.753-2.157,4.987,4.987,0,0,1,2.767,1.078c.3.894.355,2.1,1.263,2.611a1.862,1.862,0,0,1,1.859.894c-2.469.894-3.548.568-4.442-.128m2.583,4.456c-1.32.823-2.171-.7-3.306.568a2.1,2.1,0,0,1-2.043,1.079c.61-1.263.553-3.051,1.93-3.363,1.32.128,2.81.128,3.42,1.717M92.1,220.774c-1.5-.511-2.341-2.043-3.477-3.051.241,2.739,3.533,2.739,1.859,4.825-1.745-.312-3.179-2.086-4.314-3.491a4.319,4.319,0,0,1,1.192-3.633c2.1-.7,2.824,2.228,4.442,2.866a7.276,7.276,0,0,0,6.357,1.22l4.03-2.114c.482,2.739-.61,4.456-2.043,5.35-.355-.639.78-1.334.184-1.845-2.285,1.916-5.946,1.022-8.23-.128m-14.7-11.452c0,4.584-.3,8.713,0,12.218l1.745-4.583c1.916-.951,4.612-.7,5.577-3.377-.057-.823.837-1.078,1.32-1.391a4.293,4.293,0,0,1,3.9,2.483c-1.5.44-2.455-1.717-4.016-.965-1.391,2.1-2.285,4.782-5.35,4.144-1.263,1.462-1.32,3.491-2.455,5.023-1.5.823-.667,2.866-2.157,3.377L74.627,207.79a285.145,285.145,0,0,1,34.156-1.391,1.6,1.6,0,0,1,.3,2.157c-11.281.071-21.484-.312-31.687.766m23.045,6.1c-1.5,3.306-5.761,2.81-8.755,1.348-1.093-1.533-.965-1.731-.61-1.845a11.2,11.2,0,0,0,9.366.5m-19.327,4.839c1.206-.383,2.469-1.078,3.789-.568a10.607,10.607,0,0,1,2.7,3.051c-.482.7-1.135,0-1.674,0-.851-.894-1.873-1.589-3.065-1.078-.965.568-1.674,2.285-2.881,1.845a8.622,8.622,0,0,1,1.135-3.25M43.437,204.1c6.712-1.022,13.069,0,19.256-.766,1.32.2,3.235-.568,3.775,1.093a1.523,1.523,0,0,1-1.192,1.518l-18.845.312c-.965,8.784-.6,18.277-.724,26.224a2.352,2.352,0,0,1-2.157.2c-.057-9.351-.539-18.845-.114-28.58m22.435,3.945c.241,1.149-.951,1.66-1.731,1.845a128.061,128.061,0,0,1-13.992.454l-.724,17.88c-.227.568-.894,1.277-1.561.766a128.581,128.581,0,0,1-.6-20.434c7.45-1.079,12.431-.766,18.306-.951ZM31.006,265.062c-.539,0-.78.7-1.433.454-.908-8.344-.539-14.9-.851-22.336,5.222-1.845,10.629-.454,15.666-1.348,5.109-.568,11.04-.184,16.319-.312l.241.454c.241,1.078-.78,1.391-1.433,1.831-9.309.128-18.419.965-27.785,1.093-.3,7.124-.6,13.736-.724,20.165m2.341-12.4c-.057-.71-.724-1.717.128-2.3,2.1.71,2.7,3.321,4.74,4.016a1.951,1.951,0,0,1-.724,1.518c-1.674-.5-3.477-1.263-4.144-3.235m12.36,6.3c-1.8,4.073-6.84,1.462-9.962,2.412,2.824-1.774,6.187-.057,7.8-2.739.6-2.356-2.994-5.719.837-6.428.369,2.3,2.583,4.144,1.32,6.755M41.1,249.283c.412-1.774,2.512-.383,3.775-.568.482.511,1.447.128,1.674.894-2.214.568-3.647-.255-5.449-.326m13.978,11.778c-2.285-.2-5.7.255-6.6-2.739-.128-2.1,1.916-3.377,1.263-5.478,3.42,1.462-2.526,7.322,3.59,7,2.469-1.646,5.946,1.66,7.379-2.285.78,4.2-3.235,2.739-5.634,3.505m5.634-7.45c-1.376,3.25-4.612,1.4-6.953,2.1-1.376-1.845,2.285-5.407-1.447-5.917-1.306-.255-2.327,1.078-3.42.568a5.914,5.914,0,0,1,3.6-2.285c1.32-.255,2.157.568,3.179,1.078,1.93,1.462-1.561,4.073,1.263,4.584,2.1.639,1.859-2.483,3.775-2.3a2,2,0,0,1,0,2.171M27.4,239.874c.128,8.841-.837,17.241-.71,25.443-.667.255-2.285.44-1.987-.894l.241-26.721c12.36-.766,25.571-1.022,37.207-1.66l.241,1.348c-12.544,2.341-23.1,2.285-34.994,2.483m26.536-13.75c-1.263-.071-2.583.185-3.491-.766,2.526-.823,5.038-1.149,6.485-3.69a4.649,4.649,0,0,0-.539-3.505,2.652,2.652,0,0,0-2.639-.44c-.6.951-1.376,1.845-1.263,3.179,0,.823.837,1.078,1.022,1.845a2.381,2.381,0,0,1-2.455.582c1.192-.894.227-1.987.114-2.739a5.689,5.689,0,0,1,1.32-3.505,3.571,3.571,0,0,1,3.718-.894,4.667,4.667,0,0,1,3.065,2.739c2.7-1.007,3.718-6.556,7.322-3.377l1.745,2.427c-1.632,1.277-1.391.057-2.043-.44a3.3,3.3,0,0,0-2.285-1.093c-1.32,2.81-5.279,2.81-5.463,6.428,2.526.071,4.683,1.022,7.024,1.533-3.959,1.022-7.734-.638-11.636,1.717m.837-7.067.894.951c.071.837-.057,1.788-.894,2.1-1.022-1.9-.965-3.108,0-3.051M66.6,223.641a7.19,7.19,0,0,1-3.306-1.093c-.3-.7-.78-1.958-.17-2.852.468-1.462,2.1-.568,2.881-.185-.128.7-1.447,1.008-1.149,2.157.61.639,2.171.823,1.745,1.972m7.195,25.514a88.33,88.33,0,0,1-.6,13.3L71.52,261.5l.114-22.719a359.9,359.9,0,0,1,36.725-.951c.837.383.965,1.263.837,2.157-12.956.766-22.435.255-34.795,1.093-1.32,2.228,0,5.406-.61,8.074m3.9,11.579c-.539-.241-1.731.128-1.618-.894,2.157-.5,2.228-3.363,4.5-3.491,1.745.951,3.846,1.079,5.463,2.285-3.363-.312-5.818,1.022-8.344,2.1m3.42-6.357a1.922,1.922,0,0,1-1.433-1.533,2.3,2.3,0,0,1,.894-2.285c3.008,0,4.442,3.945,7.322,4.257-2.214,2.043-4.073-2.469-6.783-.44m28.991,3.817c-1.447,1.078-3.122-.511-4.626-.2-2.27.71-4.144-.44-6.059-1.206-1.916,2.356-4.924,2.81-7.62,2.3.184-1.277,1.987-.71,2.767-1.093,1.674-1.263,4.853-3.235,4.555-6.1.241-1.078-.837-1.845-1.561-2.285-1.206-.582-2.043.823-2.285,1.717-.355,1.022.78,2.611-.6,2.866-.837-2.043-3.9-.2-4.2-2.753,0-.752.184-1.717-.724-1.972a3.44,3.44,0,0,0-2.881.894c.369,1.206,1.745.326,2.469.766.6.894,1.8,1.717,1.32,2.923-1.561-1.589-3.065-1.589-4.328-2.157-1.972-2.866-4.853-4.257-7.8-3.817-1.135,1.391-2.27,2.923-1.561,4.9.539.454.184,1.22.312,1.845-.724.454-1.32-.44-1.447-1.078.057-2.1-.3-3.874.837-5.463a5.831,5.831,0,0,1,6.059-.965c1.32.71,3.065,1.916,4.626.766,1.32-.44,3.306-1.149,4.442.312,1.022.766.355,2.356,1.135,3.179,1.149-1.518,2.228-4.442,4.74-3.931,1.632-.128,2.71,1.206,3.6,2.412.724,1.079-.3,3.377,1.447,3.377.539-1.348.539-3.193,2.029-3.817a6.943,6.943,0,0,1,3.6-.326,4.458,4.458,0,0,1,2.043,4.583c-1.916,1.334,1.972,2.3-.6,3.051-.539.071-1.149-.7-1.561,0,.3.894,1.731.128,1.859,1.277m-13.864-6.3c-.057-.894,1.263-.951,1.433-.128-.894,1.078-1.433.639-1.433.128M69.888,235.859c-1.078.7-.227,2.228-.71,3.235.241,9.039-.539,17.44-.3,26.735a6.386,6.386,0,0,1-2.171.128l-.241-1.4.128-31.12,1.32-.44c12.9-.185,25.387-1.149,37.988,0l5.463.128c.653.44.355,1.277.468,1.973-14.091,1.334-28.494-.184-41.947.766m43.636-29.786a10.646,10.646,0,0,0,3.363-3.619c11.1.568,22.194.766,33.12.88,1.433.255.724,1.916,1.135,2.923V227.33c-.412.568-.17,1.717-1.135,1.845-12.005-.312-23.641.255-35.76-.184-.369-7.961-1.5-15.212-.724-22.918M171.307,264.3l-52.15,1.22c-.837-.454-2.455.312-2.753-.965-.724-9.351.241-18.7-.241-28.381.355-.752-.355-2.157.724-2.739l1.561-.184,30.836.766,21.612.639a7.56,7.56,0,0,1,.539,3.817Z" transform="translate(57.386 33.065)" fill="#e4e4e4"/>
    <path id="Path_20" data-name="Path 20" d="M23.771,25.605c-.965-.326-1.632-1.731-2.469-1.972a69.919,69.919,0,0,0-4.924,12.2c.667,3.122,4.683.837,6.485,2.611.184,3.633-.78,7.01-.837,10.373,2.994-.752,5.818-2.029,8.756-3.051A79.523,79.523,0,0,1,32.64,34.191c.61-2.171,2.4-4.711,1.32-7.195-2.937-1.589-7.195,0-10.189-1.391m4.853,17.752c-.78.128-1.433.951-2.285.44-.355-2.228.965-4.328.3-6.74-1.135-1.22-3.349.057-4.186-1.66.412-1.646.71-3.491,1.859-4.711l5.449,1.022.724,1.277a96.408,96.408,0,0,0-1.859,10.373" transform="translate(216.033 311.73)" fill="#e4e4e4"/>
    <path id="Path_21" data-name="Path 21" d="M47.049,37.369c.78,1.149,2.4.255,3.179,1.4.3,2.54-.482,4.967-1.022,7.322-2.157,3.619-6.542,3.306-10.387,3.817a6.626,6.626,0,0,1,.61-2.937c1.32-6.811,4.981-13.225,5.634-20.42-4.144.057-7.563-.71-11.281.44L30.659,36.8c.369,2.157,3.477,0,3.6,2.412L30.475,47.3c-1.249,1.334-2.029,4.456-4.314,3.817a32.658,32.658,0,0,1,3.477-22.151,2.038,2.038,0,0,0-.412-2.611c-4.2,0-8.23-.184-11.409-2.725L13.2,34.318l-.3,2.157a8.931,8.931,0,0,0,2.455,1.533c1.263.326,2.512-.7,3.477.326-.3,1.831-2.1,3.051-3.179,4.569.128,6.5-.184,13.438-.3,19.852,2.043.255,4.016-.44,6.059-.624a5.934,5.934,0,0,1,2.994,0C32.589,60.8,40.862,59.9,48.908,58.442l2.157-1.788c2.824-5.151,7.564-9.678,7.081-16.347.057-4.583,1.022-9.295.837-13.949l-8.883.511c-.894,3.562-2.341,6.882-3.051,10.5m9.664-5.662L55.379,45.969a24.743,24.743,0,0,1-6.173,8.841c-9.422,2.54-19.682,2.994-29.346,4.9C21.308,52.2,18.243,43.414,22.145,37.7c-.78-2.937-4.74-.766-3.718-3.689l2.4-3.945c1.731.568,3.775.624,5.222,1.646-.184,2.923-1.859,5.151-2.583,7.833-.3,5.08-.78,10.813-.184,15.581,3.25-.057,7.62.71,8.528-3.235a49.039,49.039,0,0,0,5.577-13.311,2.625,2.625,0,0,0,.894-1.774c-1.008-1.022-2.994.057-3.775-1.277.114-1.518,1.447-2.611,2.043-3.945,1.674.071,4.2-.951,5.151.894-2.1,7.379-3.661,14.957-7.01,21.7,5.038-.312,10.671-.184,14.928-3.051,3.732-3.505,3.548-9.479,3.193-14.063-.724-1.078-2.171-.312-3.008-1.22a18.127,18.127,0,0,1,3.306-4.9c1.135.511,2.753-.369,3.6.766" transform="translate(170.249 311.73)" fill="#e4e4e4"/>
    <path id="Path_22" data-name="Path 22" d="M40.828,39.268l-.61-10.558c-.724-1.149-.78-2.611-2.285-2.866-4.91-.511-10.856.312-16.319-.2a9.657,9.657,0,0,1-7.436-1.958A72.453,72.453,0,0,0,10.39,35.451c.369,1.4,1.8,1.4,2.767,1.972L30.015,38.5c.667,7.833.482,15.652.724,23.542,3.42-1.391,7.024-2.157,10.2-4.129-.057-6.045-.539-11.14-.114-18.646M35.181,56.509c0-7.819,0-14.119-.426-21.059-7.01-.326-12.175-1.149-18.6-1.078-.241-1.845.908-3.434,1.859-4.91,5.648,2.1,12.786,1.149,18.731,1.4,1.022.128.951,1.277,1.192,1.972.128,7.124.241,14.574.426,21.825-1.135.383-1.859,2.356-3.179,1.845" transform="translate(137.048 312.443)" fill="#e4e4e4"/>
    <path id="Path_23" data-name="Path 23" d="M47.311,39.186l.114-13.751c-4.016-.568-9.053,1.4-12.119-1.717l-3.718,9.791v1.66c1.376,1.334,3.533.639,5.151,1.277.965,2.285,0,4.583,0,7.436-8.33-5.208-15.95-12.4-24.18-18.135C11,28.869,8.841,31.679,7.407,34.914c1.674,2.994,1.433,6.939,1.859,10.5A51.446,51.446,0,0,1,7.223,60.883l16.149-.511c.355-2.8,2.4-4.967,2.455-7.89-2.1-1.093-4.626.128-6.9-.511-3.25-1.022-1.022-5.534-.908-8.855,8.1,6.059,16.262,11.778,25.5,18.334,2.285-2.483,3.008-5.861,4.754-9.607a53.715,53.715,0,0,1-7.209-5.662c2.228-2.043,5.222-3.945,6.244-7M39.62,28.94a22.279,22.279,0,0,0,5.35.44c.653,1.972-.6,3.817-.3,5.974a6.008,6.008,0,0,1-3.306,5.917c-.057-2.285.128-4.569-.114-7-1.078-.639-2.767-.057-3.789-.44,0-1.788,1.135-3.434,2.157-4.9m4.626,24.436a13.755,13.755,0,0,1-1.263,4.257c-9.593-7-18.064-13.935-27.246-19.668-.17,5.279-.6,11.139-.3,15.851,2.881.766,5.222.057,7.507.951.184,5.477-5.946,1.6-8.528,2.739a1.688,1.688,0,0,1-2.157-.639c1.447-7.436.539-14.63-.837-21.825,1.135-1.022,1.689-4.257,3.718-2.923l4.2,4c6.3,5.79,13.623,10.373,20.59,15.084a12.486,12.486,0,0,1,4.314,2.171" transform="translate(95.274 312.852)" fill="#e4e4e4"/>
    <path id="Path_24" data-name="Path 24" d="M36,328.388c-3.179-3.817-1.916-9.351-1.008-13.751.653-2.412,3.59-.894,4.74-3.051a5.536,5.536,0,0,0,.6-4.144,4.2,4.2,0,0,0-2.767-2.739,4.95,4.95,0,0,0-4.612,1.66c-1.206,2.043-.3,4.073.6,5.988l-2.753,5.605a40.83,40.83,0,0,1-4.03-16.816c6.485-11,12.005-22.52,18.731-33.716-.667,12.53-4.442,23.854-12.97,32.837,12.062-7.195,16.56-21.13,17.17-34.809-.312-4.456.057-9.11-.908-13.311l-1.433,3.065c-6.6,8.9-13.864,17.554-17.114,27.927a36.05,36.05,0,0,1-2.157,6.755c-.724-.383-.468-1.149-.724-1.717,1.022-6.3-.114-13.623,3.732-18.774.653-3.633,4.8-.823,5.634-4.271a5.748,5.748,0,0,0,0-3.491,3.314,3.314,0,0,0-3.9-1.973c-1.008.057-1.859,1.263-2.341,2.1-.951,1.774.724,3.746-.241,5.336-1.306.582-2.27,2.994-3.775,2.171.184-5.279-.482-11.267.6-15.723,6.244-9.479,11.225-19.412,16.39-29.332,1.192-.071.724,1.4,1.022,2.1C43.508,237.385,39.9,247.56,32.1,255.322c5.293-2.214,10.033-8.259,12.076-13.736a90.852,90.852,0,0,0,4.612-34.369c-.3.766-1.263,1.22-1.263,2.043-8.4,10.756-17.752,21.13-20.761,33.6a44.125,44.125,0,0,1,3.008-20.051c.71-3.562,4.555-1.079,6.23-3.363a6.159,6.159,0,0,0,.851-3.959c-.426-1.845-2.341-2.6-3.9-2.923a4.354,4.354,0,0,0-3.179,2.171c-.61,1.518,0,3.235,0,4.9l-3.42,2.611c-.184-4.9-1.689-10.941.71-15.269,6.371-9.295,11.04-19.285,17.412-28.764.17,4.385-.724,8.642-1.447,12.842l-3.179,7.521c-1.859,4-4.981,7.564-7.918,11.14a7.247,7.247,0,0,1,1.618-.639,49.719,49.719,0,0,0,10.8-12.984c5.761-10.189,4.626-23.031,4.016-35.448l-1.306,2.923c-5.7,7-11.594,14.19-15.127,22.279-1.32,3.619-2.455,7.322-4.74,10.685-.369-5.662.057-11.508,2.341-16.617.355-4.257,5.392-2.086,5.875-6.286.539-1.462-.355-2.739-1.32-3.817a3.8,3.8,0,0,0-4.314,0c-1.391,1.334-1.5,3.562-.965,5.336.355,1.589-1.022,2.994-2.455,3.562l-.426-9.153c-.184-4.711,3.179-7.833,4.555-11.778,5.109-7.507,8.4-15.837,12.842-23.67a47.583,47.583,0,0,1-11.1,31.63c10.8-8.273,15.964-21.385,16.135-35.135a68.007,68.007,0,0,1,.312-7.947c-.667-1.788.057-4.2-.61-5.79a6.36,6.36,0,0,0-1.249,2.852C38.1,129.4,29.587,139.642,27.061,153.633c-.894-4.257-.241-9.025,0-13.41,1.689-2.994,1.618-8.727,6.059-8.6,1.689-.766,1.447-2.739,1.873-4.271a4.83,4.83,0,0,0-2.171-2.852c-1.561,0-3.775-.326-4.612,1.646a3.928,3.928,0,0,0,.6,4.583c.482,1.533-1.376,2.427-3.179,3.377a80.686,80.686,0,0,1,.539-12.672c6.655-10.558,11.877-21.754,18.6-32.567.412,12.147-4.867,22.449-11.1,31.049,8.571-6.684,13.311-16.418,15-26.735.412-6.811,1.674-14.049.539-20.6-.965,1.717-2.228,3.363-3.122,5.151-6.485,8.33-15.07,15.2-16.872,25.642-.653,2.412-1.008,4.9-2.455,6.868-.71-7.251.057-14.758,4.328-20.108,1.135-.44,2.512-.255,3.292-1.533.241-1.263,1.447-2.469.61-3.817-.553-1.135-1.8-2.412-3.179-2.285a3.23,3.23,0,0,0-2.6,1.66,4.951,4.951,0,0,0,.426,4.9c-.6.951-.78,2.1-1.859,2.866-.6.511-1.32-.071-1.433-.766.057-3.69-.78-7,.114-10.5,6.726-10.685,12.786-21.64,18.9-32.837.128,5.023-1.263,9.735-2.157,14.5a49.437,49.437,0,0,1-7.677,14.517c4.016-3.562,7.975-7.507,10.26-12.218,4.5-8.912,3.363-20.108,3.42-30.736a20.2,20.2,0,0,1-4.144,5.534c-11.04,8.4-16.745,20.491-19.143,35.249-1.263-5.591-.61-11.2-1.32-16.915-.3-15.34-.6-29.53.837-45.821,4.924,10.756,5.648,23.726,4.924,36.654,1.674-5.477,2.043-11.523,2.994-17.241C34.327,19.25,27.246,10.651,24.9.022c-1.859,7.507-5.946,14.134-8.216,21.513-2.171,7.195-1.078,14.645,1.32,21.513,4.683,10.558,5.634,22.974,5.151,35.888-3.179-1.518-4.129-5.151-6.471-7.634-.426-.511-.426-1.462-1.022-1.66-5.038-7.251-9.181-15.084-10.5-23.67,6.783,5.407,12.005,12.857,15.723,20.306.114-2.554-1.32-4.456-1.632-6.882-2.157-3.817-3.477-8.273-6.769-11.267C9.607,42.664,2.881,40.763.426,34.647.369,42.026.3,49.532,1.561,56.67c1.745,9.281,8.642,18.121,16.688,22.9,1.972.44,3.718,2.029,5.222,3.363.653,3.122,0,6.428-.312,10.061-1.433-.383-1.731-2.1-2.881-3.051-.114-1.533.908-3.76-.3-5.165a4.544,4.544,0,0,0-2.994-1.263c-.965.511-2.4.823-2.583,2.157-.241,1.4-.426,3.25.724,4.271,1.078.951,2.1.752,3.59.752,6.556,7.578,4.683,19.483,4.328,30.552-2.341-1.972-4.144-4.711-5.946-7.195-4.74-8.273-10.316-16.163-12.36-25.77,7.8,4.64,13.325,13.112,15.964,21.7a35.671,35.671,0,0,0-3.179-11C14.4,89.493,4.924,84.412.241,75.884l.3,11.963A41.9,41.9,0,0,0,16.078,119.59c2.228,2.043,5.7,2.114,7.081,5.038-.468,2.8.369,5.974-.114,9.039-1.022.44-1.916-1.093-2.767-1.859a6.309,6.309,0,0,1,.426-2.725c.3-1.4.184-2.937-1.022-3.817-1.135-.454-2.455-1.476-3.718-.511-1.745.823-2.285,2.739-2.043,4.768,1.078,3.633,5.761,1.972,6.669,6.116,3.59,8.33,2.029,18.632,1.731,29.005C13.751,155.294,8.826,144.1,4.569,132.7c.114-1.022-1.5-2.285-.128-2.866,7.265,6.116,13.509,13.623,15.539,22.719.369-2.8-1.078-6.485-1.859-9.607C16.021,132.83,5.577,126.473.539,117.873a115.232,115.232,0,0,0-.114,19.285c.837,11.452,7.734,21.825,17.1,27.941,1.987,1.334,4.385,1.717,5.946,3.689.6,3.434-.071,7.705.114,11.906-1.731-.837-2.214-2.994-3.306-4.456.553-1.277,1.263-2.81.61-4.271a3.232,3.232,0,0,0-3.179-2.285,3.239,3.239,0,0,0-3.065,1.646c-.241,1.149-.667,2.554-.128,3.69a3.742,3.742,0,0,0,3.732,2.3c6.953,7.89,4.683,19.029,4.5,30.41-9.238-9.664-15-21.442-18.008-34.1C11.948,180.5,18.788,188.84,21,198.574a12.857,12.857,0,0,0-1.022-5.094c-1.8-11.14-8.514-19.923-16.56-28.253-1.135-1.149-1.135-3.122-2.583-3.945-.71,2.285.128,5.08-.114,7.762-1.5,17.809,5.7,34.738,21.13,42.756.951,2.81.6,6.116.894,9.167.057.639.057,1.788-.894,1.4-2.171-1.589-2.412-3.633-1.987-6.116-.539-1.334-1.32-2.668-2.767-3.051a3.446,3.446,0,0,0-3.718,1.078,5.214,5.214,0,0,0-.6,3.945,4.815,4.815,0,0,0,4.5,2.739c2.4,1.589,3.477,4.456,4.442,7.067,1.135,8.074.724,15.084,1.433,23.357-.114.7-.653,1.646-1.433,1.206A53.56,53.56,0,0,1,8.344,232.929c-1.561-4.257-3.363-8.656-3.9-13.169a54.724,54.724,0,0,1,15.964,24.62l-.837-6.74C17.71,226.757,9.9,218.611,2.4,210.466c-.653-.823-.894-2.029-1.561-2.611,0,9.493-1.008,19.852,2.043,28.253,2.341,9.422,10.983,17.7,19.271,21.257a7,7,0,0,1,.71,4.711c-.114,2.171.369,4.073-.412,5.974-1.376.255-2.526-1.008-3.6-1.845-.128-1.518.837-3.051.3-4.768a4.566,4.566,0,0,0-2.767-2.285c-1.49-.7-2.7.639-3.718,1.277a4.624,4.624,0,0,0-.17,4.073c.653,1.958,2.753,2.157,4.314,2.6,2.583,2.483,5.818,5.478,5.761,9.479L22.449,298.6c-1.078-.255-1.859-1.277-2.767-2.157A94.575,94.575,0,0,1,4.314,268.817V267.3a56.6,56.6,0,0,1,9.068,8.841c3.42,4.016,4.5,9.167,6.6,13.552-.057-2.725-.894-5.534-1.263-8.4-1.547-9.664-10.075-15.4-15.709-23.031-1.206-.823-1.32-2.8-2.469-3.377-.78,3.888-.3,7.89-.539,11.778C.482,277.984,3.846,289,12.786,296.318c3.065,3.235,6.9,4.569,10.373,6.868L25.032,317.5c-1.987-.071-3.179-2.1-4.754-3.179-.71-1.334.795-2.356.851-3.7-.3-1.334-.369-2.8-1.561-3.8a4.869,4.869,0,0,0-3.6-.894,3.374,3.374,0,0,0-2.455,2.285c-.667,1.462-.071,3.122.6,4.4a3.692,3.692,0,0,0,3.292,1.518,132.15,132.15,0,0,1,10.387,11.65A50.785,50.785,0,0,0,47.524,347.73c2.171,1.022,3.9,3.306,6.315,3.689A131.194,131.194,0,0,0,49.695,338c-5.109-1.916-10.274-4.2-13.694-9.607m9.9,14.957c-2.639-3.193-6.783-5.165-8.216-9.039h.6a34.325,34.325,0,0,0,9.777,6.3,8.221,8.221,0,0,1,1.022,4.073c-1.135.185-2.214-.582-3.179-1.334" transform="translate(0 0.292)" fill="#e4e4e4"/>
    <path id="Path_25" data-name="Path 25" d="M65.181,41.237C57.022,49.439,52.935,59.5,51.374,70.7c-.3.568.071,1.66-.837,1.66-1.192-3.25-.724-6.755-1.192-9.933.468-16.731-1.391-32.581-.128-49,4.569,9.99,7.564,22.279,5.165,33.731C56.6,40.783,58.043,33.347,56.539,26.1c-.894-9.55-5.52-17.568-8.755-26.1l-.837,1.66c-.539,6.357-3.9,11.892-5.35,18.008-3.42,9.607-.837,20.675,3.306,29.019,3.42,8.145,1.859,18.831,2.455,27.8-.355.582.184,2.029-1.022,1.717-7.734-9.99-14.7-20.491-19.313-31.943a1.683,1.683,0,0,1,0-1.972C34.161,50.333,41.54,57.4,45.017,65.673c-1.674-12.857-11.693-21.385-20.576-30.1-.667-.965-.837-2.3-1.859-2.611C21.191,50.589,26.725,65.6,39.142,76.813c2.341,1.9,5.094,2.923,7.195,5.023,1.263,3.491-.057,7.563-.3,11.892-2.512-1.135-1.433-3.817-1.731-5.917-.426-1.078-.965-2.6-2.285-2.739a3.306,3.306,0,0,0-2.994.454c-1.447,1.078-1.5,3.122-1.206,4.583a4.023,4.023,0,0,0,4.314,2.285c6.6,6.371,3.661,17.44,3.491,27.175A89.573,89.573,0,0,1,26.782,86.093C33.863,92.266,40.76,99.4,44.179,107.8c-2.455-13.183-14.46-21.953-20.888-33.163-.6,4.144-.114,9.039.128,13.169A44.206,44.206,0,0,0,36.261,116.83c2.937,3.306,6.9,4.016,9.962,7L45.5,135.291c-.724-1.717-4.087-2.866-2.157-5.165.482-1.462-.241-2.725-1.022-3.817a3.526,3.526,0,0,0-3.6-.951,4.545,4.545,0,0,0-2.157,4.271c.355,2.8,3.548,2.8,5.336,3.562,6,7.564,3.42,19.526,3.846,29.019l-1.561.752a76.754,76.754,0,0,1-10.685-15.907c-.71-.951-.241-2.412-1.433-3.179-1.561-5.151-4.924-9.735-5.463-15.141,4.144,4.328,9.664,9.352,12.431,14.957,1.49,1.845,1.859,4.7,3.718,5.974a29.344,29.344,0,0,0-3.306-9.607c-3.008-9.479-13.14-15.34-16.447-24.62a114.291,114.291,0,0,0-.412,11.764c.17,14.261,4.683,28.636,16.858,36.214,1.916,1.589,5.52.894,6.059,4.129.6,4.4.128,9.238-.184,13.438a3.794,3.794,0,0,1-1.859-1.4c-2.994-2.483-.17-5.988-1.859-8.841a4.461,4.461,0,0,0-3.9-1.66c-1.192.312-1.972,1.845-2.455,3.051a4.449,4.449,0,0,0,1.135,4.271c3.548-.639,4.981,3.108,6.485,5.463,4.2,7.067,2.285,16.617,1.745,25.642-4.271-4.569-6.783-9.791-10.089-14.942-2.639-5.421-5.7-10.572-7.918-16.163-.3-.639-.539-1.845.184-2.3,3.533,3.562,6.712,6.811,9.9,10.7A71,71,0,0,1,42.86,197.02,38.652,38.652,0,0,0,39.738,186.9C36.5,177.48,26.9,170.739,22.993,161.7c-.539,2.285-.17,4.513-.3,6.74a42.858,42.858,0,0,0,21.91,42.642c1.078,4.186,1.022,9.536.6,13.864-1.561-.383-2.157-2.228-3.477-3.179-1.263-1.334-.667-3.179,0-4.584a4.392,4.392,0,0,0-1.447-3.363,3.527,3.527,0,0,0-3.42-.781c-.894.525-2.214,1.22-2.341,2.427-.6,1.845.3,3.434,1.447,4.768,3.59-.44,4.555,3.689,6.471,5.917,4.385,7.195,3.065,16.418,2.469,26.423-8.16-8.472-14.29-18.717-18.845-29.161-.241-.7-.894-1.7,0-2.285,5.761,5.35,13.2,10.629,16.56,18.008-.241-1.973-1.376-3.562-2.157-5.35-4.257-8.9-13.027-15.78-18.008-24.11-.6,14.7,2.043,27.43,10.5,38.172,3.548,3.888,8.046,5.8,11.65,9.167.78,4.2.3,8.273,0,12.984-1.078.128-1.206-1.206-1.987-1.66-2.937-2.214,1.206-5.662-1.618-7.947a5.308,5.308,0,0,0-4.867-1.078c-1.192.128-2.029,1.518-2.327,2.611a4.7,4.7,0,0,0,1.008,4.129c1.022,1.277,2.583,1.277,4.215,1.206,2.455,1.788,3.888,4.9,4.853,7.776a103.37,103.37,0,0,1-.3,24.62c-7.691-9.167-12.97-19.668-18.008-30.1-.057-.965-1.022-1.845-.241-2.739,2.937,2.54,5.818,5.79,8.883,8.4,3.477,3.746,5.407,8.2,7.8,12.473-.3-2.043-1.078-3.945-1.561-5.917-2.824-10.061-13.992-16.617-18.6-26.167,0,9.876-.057,21.144,4.442,29.658,3.6,7.961,10.742,13.807,17.156,19.1.071,5.35,0,9.919-2.455,14.375-1.022-.184-1.022-1.589-1.561-2.285-.241-2.3-2.824-4.271-1.135-6.627.6-1.462-.369-2.668-1.206-3.817a4.746,4.746,0,0,0-3.42-.88c-1.135.624-2.4,1.008-2.881,2.412a4.956,4.956,0,0,0,1.022,4.583,5.252,5.252,0,0,0,3.6.951c2.27,2.427,2.81,6.116,2.27,9.735-2.214,8.088-10.5,13.679-17.156,16.8a111.571,111.571,0,0,0-2.7,11.65,53.632,53.632,0,0,0,20.576-16.8c3.363-7.578,9.422-13.623,14.4-20.306l3.6-.312A6.675,6.675,0,0,0,58.71,310.8c.057-1.22.114-2.866-.851-3.831-1.263-1.334-3.661-1.334-5.165-.624-1.547.624-1.859,2.356-2.029,3.817,1.8,3.179-1.93,5.094-3.6,7.308-.426.2-1.135.4-1.433-.114A95.972,95.972,0,0,0,48.2,300.993c1.5-5.35,5.52-9.607,8.1-14.5,3.548-5.406,5.648-11.594,9.479-16.489-.6,12.033-4.257,23.173-11.636,32.2,8.287-6.045,13.268-15.269,15.127-25a138.924,138.924,0,0,0,1.249-24c-2.866,7.067-9.593,11.906-13.978,18.462-1.987,3.817-4.2,7.507-5.279,11.636-.908,2.114-.965,4.711-2.639,5.932.057-7.265.057-14.9,3.363-20.888.78-2.086,2.455-1.391,4.144-1.518.894-.568,2.029-1.334,2.157-2.483a5.949,5.949,0,0,0-1.022-4.385,4.263,4.263,0,0,0-3.6-1.093,3.509,3.509,0,0,0-2.4,2.866c1.263,3.25-.837,6.371-3.363,7.507l.724-15.908c4.144-8.2,9.607-15.78,13.566-24.11,1.731-2.81,2.937-6.173,5.875-7.776-1.376,11.721-4.8,22.662-12.658,31.446A47.525,47.525,0,0,0,66.8,240.215c4.385-9.919,5.591-21.754,5.052-33.149C66.558,217.44,54.978,225.074,51.8,236.4c-.965,2.3-.78,5.038-2.583,6.882-.113-7.961-.482-16.163,4.74-22.151,1.447-.639,3.42.128,4.328-1.845.539-1.717.426-3.945-1.022-5.151a4.565,4.565,0,0,0-4.016-.639c-2.824,1.66-1.391,5.094-1.149,7.507-.894,1.462-2.214,3.179-4.2,3.306.184-4.9-.355-9.536.482-14.19,6.173-11.125,11.877-22.52,18.419-33.589-.355,11.012-2.881,21.5-9.536,29.97,7.563-5.79,11.338-14.772,12.842-24,.724-5.974,1.561-11.906,1.32-17.752a6.793,6.793,0,0,0,0-3.945c-5.818,9.791-15.666,18.135-18.9,29.147-1.078,2.668-1.206,5.917-3.42,7.507-.78-7.322,0-15.141,4.853-20.619,1.078-.184,2.285-.128,3.065-1.206a4.577,4.577,0,0,0,.837-3.377c-.114-1.4-1.561-1.972-2.455-2.739a3.527,3.527,0,0,0-4.03,1.334c-.71,1.916,0,3.945.61,5.676l-3.363,4.129a80.807,80.807,0,0,1-.128-15.723c7.8-10.813,13.1-22.9,20.051-34.355A50.261,50.261,0,0,1,56.3,164.311c1.447-.454,2.526-2.171,3.732-2.866,7.493-8.656,12.232-18.973,11.934-30.864a82.26,82.26,0,0,0,.426-14.829,15.147,15.147,0,0,0-1.263,2.412c-4.74,6.684-10.387,13.367-15.425,19.852a38.333,38.333,0,0,0-4.016,10.132c-.78,2.54-.908,5.407-2.767,7.436-.539-7.124-.965-17.057,4.5-22.719a4.16,4.16,0,0,0,3.6-1.206c1.135-.639.667-2.228.965-3.377a4.047,4.047,0,0,0-1.987-2.6c-1.618-1.022-2.937.369-4.2,1.206a5.337,5.337,0,0,0,0,5.023c-.653,1.078-1.5,2.285-3.179,2.171a115.637,115.637,0,0,1,.6-14.389C56,110.018,61.222,99.588,67.523,89.783c-.184,5.421-1.8,10.5-3.065,15.6A81.95,81.95,0,0,1,56.539,119.7c12.672-11.069,15.538-27.43,15.425-44.288-1.135,1.462-1.916,3.562-3.6,5.094-8.4,8.585-15,18.263-19.015,29.019-.071-5.861-1.078-13.566,3.9-17.894,1.192-.369,2.639.142,3.477-1.078.539-1.334,1.433-2.8.837-4.456-.241-.951-1.263-1.334-1.987-1.774A3.315,3.315,0,0,0,51.5,85.966a4.625,4.625,0,0,0,0,3.377c1.078,1.589-.539,2.356-2.4,3.051.17-4.328-.667-9.408,1.249-13.169C56.894,68.213,62.783,56.96,69.509,46.133c.3,4.839-1.391,9.224-2.412,13.751-1.49,6.428-5.279,12.147-8.812,17.369,10.26-10.175,15.184-22.719,15.3-37.42.057-2.739.539-5.79-.482-7.947a58.47,58.47,0,0,1-7.918,9.351M29.35,340.7a23.221,23.221,0,0,1-5.336,3.505c-.412-4.64,4.924-5.151,7.322-7.762,1.859-1.334,3.363-3.562,5.35-4.584-1.206,3.888-4.683,5.719-7.336,8.841" transform="translate(235.343 0.001)" fill="#e4e4e4"/>
    <path id="Path_26" data-name="Path 26" d="M41.562,52.62l-24-.568a45.3,45.3,0,0,0-.482-7.322c.78-6.286-1.8-13.68,2.341-18.192-.241-.454.355-.894.539-1.4a1.746,1.746,0,0,0-.241-2.285C15.764,21.77,11.266,23.856,7.6,21.642c-1.206,3.235-2.881,6.23-3.477,9.791,1.249,1.717,3.647,1.078,6.471,2.3-1.376,1.391-3.179,2.285-4.442,3.817a161.678,161.678,0,0,1,.724,27.16c8.1-.184,16.376-.88,25.089.128.355,3.065.539,6.939-.184,9.678C29.5,78.333,25.059,77.822,20.859,78.9l-1.618,9.621a9.4,9.4,0,0,0,2.341-.255c5.109-2.171,10.5-3.633,15.425-6.428,6.712-5.023,4.442-13.878,4.74-21.385-.057-2.611,1.376-5.591-.184-7.833M35.8,79.865c-3.533,2.285-7.195,4.9-11.523,5.023-1.433-6.116,5.463-3.434,7.932-5.79,1.135-.7,2.81-1.022,3.179-2.611.894-4.654.71-9.862.71-14.7-8.4-.44-16.433.2-24.592.2l.837-11.139c-.61-4.073.114-8.273-1.135-12.4.057-2.682,4.5-5.222,1.008-7.649-1.192-.255-4.016.2-3.179-1.972.61-1.206,1.022-2.6,2.043-3.491,1.987.639,4.5-.837,5.761,1.206-3.775,8.585-.355,19.469-2.043,29.019,0,.951-1.32,2.228,0,2.923,8.046-.7,16.688-.639,24.606-.639-.965,8.018,2.285,16.674-3.6,22.023" transform="translate(54.45 285.468)" fill="#e4e4e4"/>
    <path id="Path_27" data-name="Path 27" d="M13.63,19.155c-.043-.71.341-1.107.553-1.646-.142.213-.355.411-.468.61a2.8,2.8,0,0,0-.085,1.036" transform="translate(179.7 230.952)" fill="#e4e4e4"/>
    <path id="Path_28" data-name="Path 28" d="M13.663,19.551c.71-1.036,1.7-2.143,2.952-2.143-1.334-.3-2.384.7-2.952,2.143" transform="translate(180.221 228.925)" fill="#e4e4e4"/>
    <path id="Path_29" data-name="Path 29" d="M17.964,19.461l-4.74-1.533c1.32,1.6,2.881,1.277,4.74,1.533" transform="translate(174.43 236.479)" fill="#e4e4e4"/>
    <path id="Path_30" data-name="Path 30" d="M12.46,14.753,11.325,14.5l.426,1.66c.71-.128.468-.894.71-1.4" transform="translate(149.381 191.236)" fill="#e4e4e4"/>
    <path id="Path_31" data-name="Path 31" d="M22.6,19.638c-3.491.511-.78,5.279-4.144,5.79-1.674.568-3.846.312-5.222,1.277a9.381,9.381,0,0,0,6.357-.766c2.767-.454.539-3.888,2.469-5.094,1.8-.894,3.533.326,5.151.326-1.433-.837-2.7-1.987-4.612-1.533" transform="translate(174.536 257.686)" fill="#e4e4e4"/>
    <path id="Path_32" data-name="Path 32" d="M16.9,20.078c-2.753.128-.369,2.994-2.341,3.945-.837.44-1.674-.071-3.42.766a5.445,5.445,0,0,0,5.038.184c1.206-.894,2.824-1.788,2.583-3.69-.355-.639-.894-1.589-1.859-1.206" transform="translate(146.981 263.675)" fill="#e4e4e4"/>
    <path id="Path_33" data-name="Path 33" d="M12.678,21.09c1.916.057,3.235-1.717,4.016-3.377L14.948,19.43c-.6,1.022-2.455.383-2.27,1.66" transform="translate(167.058 233.643)" fill="#e4e4e4"/>
    <path id="Path_34" data-name="Path 34" d="M12.738,20.451c1.249-.128,1.6-1.462,2.7-2.1,1.376-.326,2.27,1.589,3.477.894l-1.618-1.66c-2.043-1.263-3.235,1.66-4.555,2.866" transform="translate(168.02 227.855)" fill="#e4e4e4"/>
    <path id="Path_35" data-name="Path 35" d="M17.42,20.185c-.3-.894.057-2.412-.908-2.611.78,2.682-1.007,4.839-2.568,6.428,1.433-.7,2.029-3.051,4.016-2.611,1.32-.7-.482-.511-.539-1.206" transform="translate(183.914 231.81)" fill="#e4e4e4"/>
    <path id="Path_36" data-name="Path 36" d="M13.892,25.8l1.32-.184c1.32-.184,1.972-1.717,2.27-2.866a2.345,2.345,0,0,0-.837-2.8c-1.022,1.277.61,2.157.3,3.562-.653,1.277-1.972,1.66-3.051,2.285" transform="translate(183.241 263.163)" fill="#e4e4e4"/>
    <path id="Path_37" data-name="Path 37" d="M22.475,26.294c-2.341.128-4.981.057-6.783-1.66-.965-1.9,1.32-2.994.61-4.768a6.865,6.865,0,0,0-1.447,2.483,3.986,3.986,0,0,0,.6,3.491c1.859,2.1,5.222,1.66,7.024.454" transform="translate(194.1 262.042)" fill="#e4e4e4"/>
    <path id="Path_38" data-name="Path 38" d="M21.639,21.821a2.327,2.327,0,0,0-.539-1.66l-.724-.44c-2.526-.965-4.385,1.263-5.761,2.852,1.674.128,2.526-2.029,4.144-2.1a3.036,3.036,0,0,1,2.881,1.348" transform="translate(192.778 257.036)" fill="#e4e4e4"/>
    <path id="Path_39" data-name="Path 39" d="M12.73,16.951l-.184,10.5c.426,2.412-.894,4.513.6,6.3.184-5.222-.3-10.316.553-16.234,8.571-.128,17.213.894,25.67.951.553.142,1.561-.88,2.171.142l.539,15.269c.426-5.605-.057-10.955-.128-16.163-9.422-.383-19.143-.511-29.218-.766" transform="translate(163.699 223.592)" fill="#e4e4e4"/>
    <path id="Path_40" data-name="Path 40" d="M12.754,42.086,55.24,40.554q-19.263.085-39.307.951A2.5,2.5,0,0,1,14.2,39.972c-.667-6.286-.482-11.253-.128-18.5,6.84-.837,14.886-.71,21.612-.894,6.116.128,13.5-.894,20.165-.326l.114-1.078c-14.517-.057-28.14.709-43.025,1.078-.057,7.322.17,14.829-.184,21.839" transform="translate(168.231 252.806)" fill="#e4e4e4"/>
  </g>
</svg>
