<svg xmlns="http://www.w3.org/2000/svg" xmlns:xlink="http://www.w3.org/1999/xlink" width="530.12" height="642.395" viewBox="0 0 530.12 642.395">
  <defs>
    <clipPath id="clip-path">
      <rect id="Rectangle_76" data-name="Rectangle 76" width="530.12" height="642.395" fill="#e4e4e4"/>
    </clipPath>
  </defs>
  <g id="Group_39" data-name="Group 39" opacity="0.386">
    <g id="Group_38" data-name="Group 38" transform="translate(0 0)" clip-path="url(#clip-path)">
      <path id="Path_19" data-name="Path 19" d="M296.376,399.138c-.414-1.1-.1-2.726-1.241-3.164-10.709.219-20.785-.316-31.592-.536-2.263.414-1.436-2.409-2.994-2.848.414-15.723,1.241-30.35-.195-50.649l-18.546-.219c-8.519-.974-18.619-1.193-27.478-1.85-6.571-3.383-7.083-11.342-10.076-17.256-1.241-2.385-.511-6.547-2.775-10.466-1.436-5.136-4.332-11.342-9.881-12.875a24.379,24.379,0,0,1-1.971-13.654c.316-3.48,4.235-1.971,6.182-3.383.219-4.7.1-9.054-2.677-12.778-3.188-2.726-7.715-5.671-6.888-11-4.113-2.41-2.677-8.738-2.263-12.34,1.339-3.6,5.963-2.41,6.888-6.328V225.919c14.725-4.04,29.961-6.985,43.225-14.628,2.58-1.412,5.574.657,8.129-.754,3.821-4.138,8.032-6.669,12.364-9.711,3.8-2.629,10.393-2.41,10.9-8.616.925-2.531,3.407-3.407,5.671-3.724,1.533-1.193,3.8-2.507,4.405-3.919.438-1.1-.1-2.312.535-3.383,3.8-3.383,4.941-9.078,10.393-9.176,2.263-1.971,1.533-5.233,2.677-7.642a71.425,71.425,0,0,0,7.4-12.34c3.5-5.135,1.752-12.875,8.251-16.477a11.118,11.118,0,0,1,5.355-11.244c.9-3.164-1.558-4.892-.73-8.08,6.474-5.014,3.286-13.192,5.233-20.177,1.241-3.383,4.016-7.107,1.46-10.49-1.655-4.04,2.361-6.206,2.677-9.711,1.752-4.04-.925-7.3-1.436-11.025,4.624-7.2-1.46-14.189-.535-21.929-.511-2.945-2.969-5.355-1.752-8.738,3.115-7.083,6.4-14.408,5.476-23.024-2.994-4.916-7.326-6.012-11.634-8.4-7.423-1.533-13.289,5.014-17.5,10.247-2.069,5.355.414,10.806,1.752,15.723,3.48,6.328,2.263,13.97,1.436,21.175-1.947,8.08,5.038,15.6-.219,22.805,1.144,5.452-3.286,9.833-1.022,15.5-2.969,3.042-3.286,7.2-4.211,11.244,1.436,4.478-.925,8.616-2.9,12.34-.414,6.547-6.06,10.9-5.744,17.792-5.768,6.109-4.843,15.917-12.778,20.4-5.768,1.971-2.044,9.614-6.985,12.34-7.107,2.19-10.709,9.711-16.794,14.628-7.91.754-12.242,10.685-19.958,11.78-12.875,5.355-25.434,11.025-39.842,12.34-5.038-1.971-2.677-8.421-2.872-12.559a5.128,5.128,0,0,1,2.872-3.383c11.342-1.752,22.026-5.135,31.2-12.34,5.135,1.533,8.446-3.164,12.34-5.793,2.994-1.728,6.693-1.631,9.37-4.138,1.022-6.328,8.129-6.547,11.318-11.244,1.339-5.89,7.715-7.2,9.882-12.315,4.113-3.5,4.527-8.957,7.009-13.435,0-3.383.292-6.985,3.383-8.835,1.339-6.888.925-14.628,5.257-20.2-1.947-7.521,3.188-12.656,3.188-19.641.511-2.726-1.947-4.916-.73-7.3-.608-4.7.73-9.3,1.655-13.654-1.85-8.3-2.044-17.573-2.482-26.188a33.177,33.177,0,0,0,5.987-18.887c-1.971-5.574-7.521-7.521-12.364-8.4-7.3,2.166-15.333,4.357-19.958,11.561-4.941,9.711,2.969,18.327,7.4,26.188,1.144,9.176-4.43,16.915-1.022,25.434-1.85,6.328-1.436,13.654-2.264,20.42-.608,2.507-2.677,4.7-1.631,7.618.8,5.135-2.483,9.078-4.527,13.338l-.438,2.823c1.144,4.259-3.8,5.671-5.744,7.423-3.724,3.164-3.724,8.08-6.4,11.8-6.474,3.261-13.265,8.713-17.28,15.7-10.9,3.724-20.785,10.368-31.908,13.873-1.533.438-4.527,1.412-5.671-.779.219-4.454-2.556-10.149.535-14.165l19.958-8.957c2.775-1.752,7.107.657,7.934-3.6,1.436-4.381,6.571-3.164,8.64-7.107,1.947-.657,4.43.316,5.647-1.85,1.752-7.107,6.4-12.875,8.446-19.86.925-2.629,3.5-4.576,3.7-7.642,1.047-5.89,3.091-12,2.994-17.792,1.436-2.288,3.286-4.795,2.166-7.861-3.6-5.014-.511-10.685.316-15.942a25.787,25.787,0,0,1-1.241-9.492C234.92,38.414,237.7,30.674,239.35,25c-1.12-4.819,3.188-11.025-2.069-14.652-5.866-4.138-12.656-8.275-19.958-6.547a89.268,89.268,0,0,0-13.581,12.34c0,4.162-1.241,7.423,1.022,11.025,5.038,4.7,12.875,9.492,12.778,17.475-2.677,5.33-1.241,11.78,1.022,16.794C216.5,67.45,219.806,74,214.135,78.476c-1.947,3.042,1.558,5.014.511,8.4-4.113,6.45-5.452,16.161-13.9,18.57-4.113,9.492-14.092,9.711-21.9,12.534a5.334,5.334,0,0,1-1.558-5.671c-1.752-4.576,1.631-11.025-1.947-14.944-1.971-2.629,1.339-4.259,1.947-6.328,1.12-5.135-3.091-8.859-2.166-13.873,3.724-4.576-1.85-8.616,0-13.63,3.6-6.231-.414-13-2.044-18.887-3.6-12.34,11.512-18.765,9.882-30.886-2.9-5.355-8.348-8.64-13.605-10.149a32.128,32.128,0,0,0-27.576,7.521c-2.263,2.41-1.022,6.644-1.022,9.711-.316,6.109,5.647,9.054,8.859,13.313,7.4,7.2-1.241,15.285-.219,23.584-.414,3.6,2.872,6.547,1.022,9.711-3.188,4.357-1.631,9.273.414,13.63-1.217,2.848-2.263,6.231-1.436,9.735.608,1.728,2.872,2.823,2.677,4.892-4.211,4.916-2.166,12.68-3.7,20.2-5.574.657-9.589-2.945-14.311-4.478-2.166-1.752-6.6-1.314-6.693-5.233-.414-1.655-1.85-3.383-3.7-3.383-2.58-.56-2.264-3.821-2.9-6.012-.1-3.6-4.308-4.259-5.452-7.083-4.308,3.383-10.49,2.069-15.333,4.235-1.752-.316-2.044-2.483-1.436-3.919,1.752-2.629,4.43-3.821,7.107-4.795,3.8-.657,6.79.974,9.662,2.6.73-1.728.828-4.454-1.022-5.671-3.919-1.85-4.332-6.547-5.452-10.247a6.24,6.24,0,0,1,2.775-5.038c1.022-2.6-1.752-4.235-2.458-6.523,2.142-9.3,1.339-19.982,5.452-28.5,2.044-5.135,7.813-5.89,9.054-11.244a12.762,12.762,0,0,0-.73-9.176C110.891,1.419,93,3.05,80.443,10.911c-.73,9.054.511,17.792,6.158,24.339,2.994,6.985,1.558,15.942,1.558,25.653-2.069,3.48,1.436,5.768,2.166,8.616.414,6.328,3.383,11.78,2.263,18.327,5.135,5.7,2.969,14.53,6.693,20.761,1.728,3.383,7.083,5.111,6.158,9.906.633,2.312,3.091,2.093,4.649,3.188,5.233,10.587,15.528,16.915,25.507,19.86,4.527,2.823,12.778-.779,14.019,7.083.925,3.067.8,6.888-1.46,9.176-8.957.438-16.575-4.259-24.168-8.08-3.6-.974-7.229-2.191-9.687-5.574-4.332-.852-7.715-4.259-10.393-8.056-7.107.633-7.813-8.08-10.612-12.559-4.43-.974-4.941-6.888-8.835-8.957-.828-6.766-8.032-10.806-8.446-17.792,3.407-3.6-.925-7.083-1.971-10.466.925-6.231-1.533-10.709-1.728-16.818-.633-3.261-2.9-5.987-2.677-9.614,2.775-7.74,1.022-17.329.511-25.41L73.02,20.623c.828-2.507,2.677-4.478,2.263-7.423C74.772,7.528,68.3,6.117,63.966,4.583c-8.64-.535-17.5.974-23.049,7.861-.925,3.042.608,5.671,1.241,8.4.8,6.45,5.866,11.025,7.18,17.256-1.728,5.452-2.044,13.411.219,18.643,4.941,8.3-2.069,16.6.316,25.434,4.527,4.916,2.166,12.875,4.941,18.57,4.308,2.6,3.919,8.275,5.452,12.534-1.436,6.888,6.985,9.3,6.377,15.723,4.746,2.191,6.5,7.545,8.446,11.78,1.947,4.819,6.693,5.671,9.882,9.176,1.752,10.052,12.242,8.738,16.988,16.477-.949-2.385-.535-4.673-.219-7.3.73-4.916,5.866-6.109,8.859-9.176l2.264,2.069c-1.752,4.162-3.7,8.08-4.43,12.656-.608,2.969-4.332,2.629-5.452,2.629,13.678,9.273,29.231,13.873,45.173,17.475,4.649,3.042,1.339,9.273,1.971,13.411-1.752,3.164-6.4,1.631-9.176,1.314-14.7-3.383-28.914-8.178-41.668-16.477-1.558-1.193-4.138.219-5.476-1.631-2.263-4.04-6.474-5.135-9.881-7.326-.511-5.89-6.693-5.135-10.076-7.3a49,49,0,0,0-5.257-9.93c-4.308-1.314-6.06-5.793-8.129-9.516-7.083-1.071-3.7-10.587-10.393-12.753-1.752-1.752-.827-4.916-.73-7.107.438-3.821-4.308-4.04-4.916-7.3-2.264-8.64-2.994-17.792-8.859-24.679-1.241-1.728-.122-3.821,1.436-5.014,1.947-3.164-1.241-6.012-2.677-8.616-2.458-4.04.316-8.519.414-12.778C31.547,62.217,31.644,53.8,31.863,45.5,30.208,38.852,27.531,31.989,30.305,25c1.144-4.7,5.671-8.859,3.188-14.092-4.819-4.138-11.1-8.08-18.011-5.233C11.589,7.09,7.354,8.843,4.677,12.226c-1.022,3.821.511,7.3,2.483,10.149,5.038,6.766,3.7,17.573.925,24.874.828,7.2-.633,15.066,1.241,22.051.1,2.069-2.166,3.5-.925,5.793A30.7,30.7,0,0,1,11.273,93.42c1.339,1.193,2.872,2.848,2.775,4.916-2.361,6.985,1.144,13.97,1.752,20.956a41.314,41.314,0,0,1,4.624,7.107c-.414,6.523,2.994,11.658,7.715,15.7,3.5,7.545,3.091,17.256,11.853,22.051,2.044,5.233,6.158,9.176,9.565,13.654,6.377,2.6,10.9,10.028,14.822,15.382,4.746,2.41,9.881,5.452,12.656,10.466,3.821,2.288,9.054,1.436,11.634,6.547,5.452,5.476,12.656,6.45,18.935,9.711,8.543,3.943,18.741,3.627,26.967,8.421l.195,12.559,2.8.535c4.843,2.629,5.866,8.519,6.693,13.313-4.843,3.6-.414,11.561-7.01,13.873-3.407,2.945-2.677,7.959-2.483,12.1a6.015,6.015,0,0,1,5.476,1.874c2.969,3.7,1.533,9.054,1.217,13.532-8.835,4.892-11.634,14.725-15.747,22.805-4.211,6.328-3.188,16.7-11.415,19.422-11.95,2.507-24.387,1.533-36.751,2.848-3.188.974-7.2-.122-10.174,1.29-.122,18.254-.925,36.581-.925,55.565-11.025.536-20.81,1.1-32.127,1.533,1.022,18.984.122,37.53,0,55.322.511,1.533-.414,4.478,1.655,4.7l103.731.219,95.627.341,59.581-.56a2.76,2.76,0,0,0,2.166-2.823ZM100.717,84.244c-.219-3.7,2.775-3.578,4.941-4.235,1.022.219,2.264.535,2.458,1.85-.706,3.6-5.038,1.971-7.4,2.385M87.647,24.006c-.1-1.314-.1-2.726,1.217-3.164,6.693.438,12.364-1.971,18.741,0l2.263-.754c2.166,0,4.941-.438,5.671,2.069-.73,6.012-6.182,9.93-6.912,15.942-.608,6.425,1.752,14.725-2.969,19.641-2.775.876-5.866,2.507-8.859,1.1-1.436-.876-1.436-2.848-1.022-4.162,1.85-2.19,5.233-2.069,6.693-5.233.414-2.507.414-5.452-1.047-7.423-2.556-2.629-6.888-3.042-8.129-6.985-.511-2.288.1-5.014-1.436-6.864-1.533-1.1-4.113-1.752-4.211-4.162m4.405,42.471c6.815-2.41,12.267-4.162,17.3-1.655.511.779,1.144,1.752.511,2.629-4.527,1.971-11.123,1.85-15.528,1.1a5.689,5.689,0,0,1-2.288-2.069m14.628,43.2c-1.241-3.261,2.069-5.671,2.166-8.932,2.58-3.821,8.835-4.259,10.9-.56,1.022,4.259-3.7,3.6-5.647,5.257-2.9.974-4.235,5.549-7.423,4.235m5.866,7.545c-1.436-3.164,2.361-5.355,4.016-7.861,2.361-2.629,6.693-2.41,9.151-.56-1.533,4.478-6.669,4.162-9.468,7.861-1.12.438-2.361,1.314-3.7.56m17.6,18.108c-4.527-3.261-11.731-4.576-12.851-11.561-.316-2.507,2.142-3.724,3.7-4.916,2.263.876,2.458,4.138,4.43,6.012,6.06,5.987,13.362,8.616,20.98,10.466-4.43,5.452-10.49,1.217-16.258,0M67.665,91.351c-1.728.219-2.556-1.412-3.286-2.6.1-3.067,2.166-5.135,3.286-7.667,1.85-.755,3.31,1.1,3.724,2.629-.316,3.067,1.12,8.738-3.724,7.642m3.188,17.037c-.706,1.071.535,3.821-1.728,3.6-.535-1.655-2.166-4.065-.535-5.476.73.56,2.264.438,2.264,1.874M51.626,20.623c2.677-2.069,6.693-.535,9.881-1.314,2.556-.219,6.377-2.288,8.129.779-.73,6.206-3.7,12.218-2.263,18.887,1.022,7.18,1.947,15.163-.219,22.246a8.29,8.29,0,0,1-6.693,1.314c-1.533-4.04-.608-6.328.73-7.861-.73-3.919,1.85-7.861-.511-11.342-3.407-3.821-7.618-7.764-5.866-13.532a5.349,5.349,0,0,0-.511-5.257c-.827-1.631-3.407-2.069-2.677-3.919m3.7,50.211a4.506,4.506,0,0,1-.828-3.067,44.965,44.965,0,0,1,13.386-1.29l2.458,2.6c-3.383,4.478-10.174,2.41-15.017,1.752m9.054,48.994c-.195-5.111,5.671-4.235,8.446-3.919,0,1.971-1.971,4.04-3.7,5.014-1.655,1.436-3.6.779-4.746-1.1m8.226,10.806c-1.339-.535-3.188,0-3.7-1.631.511-2.6,3.6-3.286,5.355-4.916a3.058,3.058,0,0,1,2.969,1.752c-.608,2.288-2.872,3.724-4.624,4.795m13.8,15.406c-1.947.316-3.286-1.436-4.43-2.629-.706-1.752,1.144-1.752,1.241-3.164,1.85-1.631,3.894-5.233,7.107-4.381l.8,1c-.706,3.5-1.339,7.2-4.722,9.176m11.634,8.616a7.177,7.177,0,0,1-2.263,3.7,7.176,7.176,0,0,1-5.671-3.7c-1.241-3.821,3.091-3.5,4.746-5.233,1.241-1.971,3.188-2.531,4.941-3.383,1.217.414,2.872.1,3.383,1.85-1.631,1.85-4.211,4.138-5.135,6.766M190.867,304.29c3.821,3.383,5.987,7.959,7.423,12.559,1.85,6.985,3.919,13.849,6.158,20.736L187.679,338.9c-2.677-1.436-2.872-5.355-3.7-8.2-1.655-7.642-1.752-15.82-3.7-23.243,1.85-4.259,7.082-2.945,10.587-3.164m-24.168-3.7c-1.047-.657-2.385-1.971-1.46-3.383a3.252,3.252,0,0,0,2.9-2.41c-5.768-2.288-2.263,4.576-5.355,6.328-2.385,0-5.16.438-5.963-2.41.195-2.166,3.383-.754,3.894-3.383.828-1.412-1.241-2.6-2.142-3.164-5.355.219-.535,9.93-6.693,8.738a3.476,3.476,0,0,1-4.43-1.631,2.772,2.772,0,0,1,.511-3.164c1.12,0,2.361,1.193,3.383,0,1.558-1.752.219-4.478.316-6.231a2.385,2.385,0,0,0-2.458-1.1c-.828.779-.949,2.629-2.483,1.85a21.437,21.437,0,0,1-2.044-7.837c15.212.219,29.937-1.314,43.737.219a3.509,3.509,0,0,1,.706,2.945c-3.383,3.7-2.361,9.711-2.166,14.628-1.728,1.412-4.113,1.193-6.158,1.631-2.677-.438-5.963,0-7.423-2.41-1.947,1.874-4.308.876-6.669.779m.511,30.667c-.73.974-1.971.438-2.8,0-.292-3.6-5.135-5.354-4.405-9.395.195-3.919-.73-8.957,2.775-11.561,1.533.219,4.211-.779,4.113,1.85.511,6.231,1.339,12.875.316,19.106m-9.881-17.572-1.241,11c-2.166-.754-5.549-.316-5.963-3.383.828-3.359-1.047-7.521,3.188-8.932,1.339-.341,3.7-.657,4.016,1.314m-7.715-63.11c1.631,0,3.6.657,3.7,2.629-3.407,2.75-4.332,1.85-4.649.779-.414-1.217-.511-2.945.949-3.407M170.18,310.3c1.85-1.1,4.235-1,6.182-2.069,4.746,2.166,2.677,9.37,4.941,13.63l.925,14.068c-1.339,3.286-3.31-.657-5.136-.535-1.752-3.6-7.107-2.069-7.2-6.231Zm14.311-39.088a5.169,5.169,0,0,1,5.671,3.164c.195,2.069,1.631,3.943.706,6.012-5.647.657-12.948,1.631-16.964-2.848-2.994-2.823-8.251.219-11.123-2.6,0-2.191,1.85-3.383,3.383-4.478,6.182-1.314,12.559,3.7,18.327.755M313.145,90.475c-2.775,1.412-4.722-1.193-7.107-1.728-2.969-.243-6.279-.341-8.226-2.629-.414-1.971,1.241-2.41,2.263-3.5,3.091,1.533,5.257-1.752,8.445-.219l3.383,2.069c1.752,1.436,2.775,4.162,1.241,6.012m1.947-11.78c-2.142,3.042-5.33-.122-8.129-.219-1.85-1.314-4.405-.56-5.866-2.629-.195-3.6,4.016-3.821,6.182-5.452,2.263-1.85,2.166-6.328,6.182-4.259l1.631,2.069c.414,3.724,2.677,7.2,0,10.49m-7.4-18.011c2.361-1.314,6.474-2.288,7.934.755.195,1.85-1.46,2.288-2.482,2.41-1.85-1-5.549.1-5.452-3.164M295.864,18.773c5.744-4.478,14.6,1.412,19.544-5.014l2.166,1.631c-.316,8.519-5.038,15.163-5.355,23.8.925,5.987,4.211,11.22,3.7,17.548l-12.34.56c-.633-.657-.511-1.533-.511-2.41,1.752-1.533,4.527-1.971,5.135-4.7,2.58-5.33-4.843-7.861-1.436-12.875a5.5,5.5,0,0,0,.925-3.919c-3.7.876-4.527-3.164-6.182-5.452,0-5.257-7.813-3.286-5.646-9.176m-2.483,85.672c4.649-1.1,8.543-1.193,11.634-3.164,2.069-1.631,1.533-7.959,5.671-5.014l1.752,2.069c-.122,5.014-2.069,10.9-6.912,12.875-4.113-.219-7.2-2.945-11.123-3.383-1.436-.438-1.436-2.288-1.022-3.383m9.687,11.244,3.383,4.478a5.179,5.179,0,0,1,0,4.916c-2.044,1.947-4.308,6.985-7.618,3.919-1.752-1.971-4.819-2.41-5.452-5.233,1.022-2.19,4.527-.779,4.746-3.943,0-3.919-3.6-3.261-5.257-5.987,3.091-1.314,7.2,0,10.2,1.85m-12.145,18.327c-.633-2.166-3.6-1.85-3.188-4.454,3.48-2.629,7.083,1.193,10.076,2.823l2.069,3.48c-.925,2.312-1.339,5.257-3.5,6.571-4.235,3.48-7.423-1.971-11.123-2.945-.925-1-2.263-2.093-1.752-3.383,2.361-1.1,5.16-1,7.423-2.093m-10.1,15.163c3.724,3.286,12.972-3.7,11.123,5.038-3.6,1.533-1.655,9.492-6.693,6.547a37.236,37.236,0,0,0-7.4-7.861c-.219-1.971,1.947-2.507,2.969-3.724m-2.775,15.187c-.316-2.41-3.286-4.478-1.947-7.083,4.016.316,6.888,4.016,8.446,7.618.1,1.314.706,2.531.511,3.943-1.339,1.85-2.8-1.412-4.016.755-.316,2.41-1.047,5.038-3.407,6.012-1.022.754-1.85.974-2.775.316-1.022-3.261-4.211-6.425-4.43-9.93,2.264-2.726,6.085,2.945,7.618-1.631m-13.995,11.025c.925-2.288-2.458-4.357-.316-6.547,3.407.1,5.257,3.261,6.693,5.987.511,2.629,2.166,5.476,1.047,8.2a16.14,16.14,0,0,1-7.01,2.6c-1.752-3.48-5.866-5.987-5.671-10.247,1.655-1.193,3.31,1.193,5.257,0m-10.9,10.247,2.677-1.071c.8-1.314,2.775-.876,3.7-.219,3.188,1.947,2.264,5.89,1.752,9.151-1.022,2.41-2.994,3.067-4.941,4.381-3.5.316-3.919-3.943-5.866-6.012-2.483-2.629-4.527-6.109-4.016-9.93,2.556-.974,3.8,3.383,6.693,3.7m-17.3,5.476c2.263.876,4.43,4.892,6.693,2.6.1-1.193-.608-2.191.195-3.164,3.213.779,5.768,4.381,7.423,7.107-.1,4.259-4.624,5.014-7.107,7.083-5.452-1.1-7.618-7.642-9.468-12.315a1.432,1.432,0,0,1,2.264-1.314m-39.721,23.024c8.226.657,13.678-5.793,21-7.545,3.48-4.892,10.271-1.947,13.265-7.642,2.994-.195,3.6,3.407,4.941,5.257-7.4,6.863-16.161,9.054-23.974,13.313-14.506,2.726-29.036,7.861-44.467,5.793,10.393-2.969,20.274-4.7,29.231-9.176m77.3-130.966c-1.339,2.6-4.113,4.235-5.452,6.328-1.874-1.217-6.182-.56-5.452-3.724,3.286-4.576,1.947-11.464,6.669-15.163,1.85.1,3.821.876,4.43,2.823.414,3.188,1.558,6.888-.195,9.735M255.1,24.225a2.736,2.736,0,0,1,2.483-3.6c4.016-.219,7.4.438,11.1-.535,2.483-1.217.414-4.04,1.971-5.257a5.808,5.808,0,0,1,5.744,2.093c4.235,5.014-1.728,9.37-2.969,13.849.828,4.259-.316,8.3-1.752,11.8,1.85,6.206,5.135,13.849,1.752,20.4-3.6,3.067-8.129-.219-12.145.876-1.436-.219-1.752-2.069-1.241-3.164,6.377-2.848,2.483-9.711,2.264-14.408-.316-1.193-1.85-2.19-1.241-3.383,2.385-1.1,5.355-2.726,5.866-6.109a8.955,8.955,0,0,0-5.647-9.395c-1.85-1.412-5.257-.1-6.182-3.164m6.182,68.659c3.5,1.193,7.813,2.166,9.37,6.012-1.241,3.48-1.971,7.521-4.43,10.247-2.994-1.217-6.888-.754-9.176-3.383,0-3.5,4.843-1.85,5.987-5.014.511-1.533-.828-2.531-1.752-3.188-1.752-.754-4.43.657-5.671-1.509.1-2.945,3.724-2.41,5.671-3.164m2.458,22.465,1.241,2.19c-.828,1.631-1.655,4.04-3.919,2.848-2.775-1.971-5.038-5.574-8.421-6.012,3.188-4.04,7.618-1.1,11.1.974m-10.393,4.478c1.339-.755,3.188.341,4.527,1.1a14.892,14.892,0,0,1,4.113,4.162c.122,2.069-.389,4.259-2.142,5.014-2.994-.1-4.843-2.823-7.715-3.164-1.752-2.726,2.361-4.04,1.217-7.107m-3.7,10.806c.925-.316,2.483-.633,3.286.219,1.972,1,3.821,3.067,5.355,4.478,0,2.507-2.264,4.259-3.894,5.793-3.724-.219-3.919,5.574-7.2,5.452-2.166-3.383-4.649-6.012-6.912-9.395,3.091-2.385,8.64-1.193,9.37-6.547m-17.5,14.092a3.253,3.253,0,0,1,.73-3.6c5.647.657,7.2,7.2,9.151,11.464.925,2.726-2.166,3.042-3.5,4.259-2.361.755-3.286-2.288-4.113-3.724-1.12-3.042-5.866-4.478-5.257-7.861,1.144-.535,2.264,1.193,2.994-.535m-11.123,13.411c1.436-.535,2.8.438,4.235.779,2.556-1.631-.316-8.738,3.383-6.888,2.775,2.19,2.677,5.574,4.235,8.2a3.039,3.039,0,0,1-1.46,3.383c-3.286-1.1-4.941,4.138-7.91,1.509-.828-2.288-3.5-4.138-2.483-6.985m-15.528,9.395,8.64-7.3c3.8-.657,4.016,4.016,5.671,6.206,1.436,4.819-3.821,2.507-5.476,4.478a123.5,123.5,0,0,1-34.585,13.873c-2.264,4.454-.828,10.806-1.217,15.7-2.166,2.848-6.6.876-9.882,1.1-1.144-.535-2.58-.876-3.188-2.385-1.241-3.188.827-8.3-3.5-9.614-3.091-1.752-8.348-.974-9.37-5.233,5.549-1.436,12.364,1.947,16.063-2.945-3.188-1.533-9.468.438-9.37-4.916,15.844-1.85,32.833-.876,46.219-8.957m23.657-68.1c-3.7-1.217-8.738-2.41-9.882-7.107,2.8-1.509,7.326-2.823,7.2-7.083,2.58-1.533,5.574,1.193,7.423,3.164-.827,4.04-.925,9.054-4.746,11.025m4.016-16.477a46.61,46.61,0,0,1-9.881-4.7c2.264-4.576,5.476-4.259,6.912-3.48,1.631,1.193,3.8,2.044,4.624,4.235a2.9,2.9,0,0,1-1.655,3.943m5.16-14.189a6.607,6.607,0,0,1-.73,5.014c-4.113,2.945-6.888-3.383-11.123-2.945,2.483-3.821,6.5-.779,8.665-4.357,1.631-.219,2.264,1.071,3.188,2.288M213.113,25.88c-1.971-4.065,2.142-3.5,4.211-4.284,4.941.779,11.22-.1,16.769-.219l1.558,2.093c-.316,5.233-3.918,10.587-.828,15.723,3.091,4.454.195,10.563,2.458,15.479-.8,2.848.122,7.423-3.188,8.3-3.8-1.412-8.64-.974-11.829-3.6.195-1.314.73-2.507.511-3.919,2.166-1.314,6.182.754,6.888-3.164.219-2.19,1.047-6.231-2.263-6.352-1.314-.219-2.872-.1-3.894-1.29.1-1.752,2.677-1.752,3.894-2.629-.925-2.629-3.188-1.752-4.941-2.629-6.669-1.947-3.8-10.028-9.346-13.508m3.7,82.727c4.746,2.385,6.06-8.519,9.882-2.41-1.339,3.6-1.85,9.273-6.377,9.492-1.241-2.069-4.624-4.04-3.5-7.083m-8.859,7.618c1.971-.754,3.5-3.042,4.941-4.795,2.9,1.193,4.235,4.795,6.377,7.083-.389,4.065-4.941,4.065-6.888,7.326-1.947.438-3.6,2.507-5.963,1.314-2.775-2.945-5.16-6.109-6.182-9.93,2.264-1.533,5.038-.341,7.715-1M172.662,93.639l-14.092.316a1.72,1.72,0,0,1-.535-2.385c1.752-2.288,4.113-3.067,6.693-3.383,1.752-1.533,3.091-4.04,4.941-5.233a4.833,4.833,0,0,1,4.235,4.7c.389,2.069.389,4.576-1.241,5.987m-9.176,4.478c2.58-1.412,6.182-.876,8.665.535l.925,2.093v15.918c-.1,1.436-1.655,1.655-2.677,1.85a43.283,43.283,0,0,1-14.628-.755c-1.752-1.314-.827-3.7-.706-5.768,5.866-2.312,6.377-8.859,8.421-13.873m-8.129-22.051c.414-4.04,5.038-2.945,7.837-3.919,3.6.876,8.835-1.1,10.174,3.7-1.217,7.764-8.226.657-12.851,2.069-1.85.438-4.843.657-5.16-1.85m-4.527-52.6c-.414-.876-1.339-1.533-1.217-2.629,6.79-2.823,13.873,2.069,16.867-5.233.511-1.971-.414-5.355,1.947-5.793,4.551.779,7.107,6.109,8.665,9.93.511,5.793-4.551,9.614-6.182,14.749-4.211,11.22,8.543,22.246-.511,32.176-4.843-1.412-10.806,1.971-14.628-1.85.316-1.193.316-2.823,1.752-3.383,1.752.56,2.872-.876,3.7-1.85.414-1.971,2.069-3.48,2.994-5.233,3.7-8.738-3.919-16.818-.511-25.118-3.31-3.919-9.273-1.85-12.875-5.768m-.706,156.4c-12.656.438-24.923-4.795-36.338-9.93a7.265,7.265,0,0,1-3.188-5.257c.195-1.29.414-2.823,1.533-3.48,2.677.316,4.332,3.383,6.912,4.259,9.468,5.354,19.228,9.808,30.35,11.025.73.876,1.752,2.288.73,3.383m-.73-35.7c5.354-2.166,12.753.876,17.086-3.042-3.383-1.971-8.957.754-10.9-3.5,14.092-2.823,29.936-4.138,40.548-15.163,3.091.438,4.941,4.138,5.866,6.888-.828,3.8-4.746,4.235-7.423,5.671a116.78,116.78,0,0,0-17.792,7.082l-1.436,2.629c.292,5.111,1.947,10.247,1.022,15.163-3.821,2.19-9.054,1.533-13.386.535a12.792,12.792,0,0,1-1.436-7.3c-2.775-5.135-7.3-7.423-12.145-8.957M15.288,63.848c.1-5.452,2.775-10.368,2.458-16.258,2.385-2.19-.1-7.545,4.43-7.861a4.618,4.618,0,0,0,.73-4.478c-1.144-3.919-4.746-5.355-7.423-8.4a6.869,6.869,0,0,1,2.263-5.476c4.843,2.093,6.377-3.359,9.589-5.014l.8,1.314c-.1,5.135-2.775,9.395-1.728,14.749C28.456,41.481,30.816,52.7,27.336,62c-2.9,3.383-8.032,2.507-12.048,1.85m3.7,23.024c1.558-2.629,4.843-3.919,5.671-7.3-.414-2.312.608-3.943,1.752-5.574a3.816,3.816,0,0,1,3.7,3.724c-1.339,3.919,4.211,9.37-1.971,10.125-3.067-.316-7.3,2.093-9.151-.974m6.377,25.434c1.46-1.533,2.58-3.383,1.752-5.574,2.483-3.821,5.16-.876,5.452,1.874.633,3.042-1.631,6.985,1.752,9.151-3.188,2.726-5.354,6.766-8.64,6.012-2.361-3.164-.925-8.519-.316-11.464m.73,24c-1.241-4.235,3.8-3.042,5.768-4.892,3.286-1.314,6.474-3.164,10.076-3.943l.511.779c-.8,6.328-7.91,6.864-12.145,9.711-1.241-.122-3.6.535-4.211-1.655m7.4,16.818c-.414-1.752.511-3.821,2.263-3.7,3.31,0,6.6-.438,8.859-3.067a1.658,1.658,0,0,1,2.264,1.752c-.828,3.821-4.722,5.014-6.888,7.861a7.4,7.4,0,0,1-6.5-2.848M46.15,164.683c-2.75.876-5.135-1.29-6.888-3.164-.828-2.726,2.385-2.507,3.188-3.383,3.7-.633,6.888-2.6,9.882-5.014,1.144-.1,2.385.122,2.677,1.314-1.12,4.7-6.791,6.231-8.859,10.247m3.919,9.614c-1.533-3.918,4.016-2.385,4.43-6.012.219-1.314.511-3.042,2.069-3.383,3.8-1.071,3.383,5.257,6.888,4.162,1.655,5.233-2.483,7.2-3.7,10.466-3.5-.1-7.107-2.288-9.687-5.233m17.3,17.913c-2.069-1.436-4.332-2.629-4.43-5.574,2.264-3.286,2.044-9.395,6.888-9.93,1.436-.122,3.091-.122,3.7,1.314.219,1.728-1.022,2.823-.925,4.478,2.58,0,5.062-3.188,6.6-5.574.828-.219,2.166-.56,2.775.316-2.458,6.45-5.549,10.49-7.934,14.968-1.728,2.726-4.624.316-6.669,0M86.406,201.8c-1.241,2.629-3.6.56-5.452.876a13.094,13.094,0,0,1-4.941-2.385c1.85-3.943,1.022-9.736,4.941-12.023,3.286.1,5.452-2.507,8.64-2.629,1.241-2.069,4.211-.852,4.746,1-1.655,5.574-7.837,9.054-7.934,15.163m5.452,5.793c-3.383-4.7,1.655-8.957,3.919-12.778,2.677-.438,1.947,2.945,3.5,4.138,14.287,19.106,37.652,15.844,56.49,23.8-22.538,1.193-45.489-2.288-63.913-15.163m52.085,34.05c8.738-2.507,18.741.535,27.673-1.533.827-3.7,4.016-5.135,6.693-7.083,2.166.1,4.649.316,5.452,2.823.316,2.288,1.46,5.233,0,7.423-4.405,2.093-4.843,6.766-5.452,10.928-2.775,1.947-5.768.755-9.151,1.071-1.752.681-3.5-.219-5.135-.219.8-1.947-2.264-.1-1.241-2.6,1.631-.876,3.6-1.533,4.624-3.5-.828-1.631-2.58-2.726-4.211-2.069-2.483,1.314-1.241,5.452-1.971,7.642-1.436,1-3.894.341-5.452.535-1.12-.414-1.339-1.728-1.217-2.945,1.314-.195,2.872.122,3.286-1.85.925-2.41-1.971-3.042-2.994-4.138-1.12-.122-1.436,1.971-2.775,1.314-1.022-1.1-2.069-2.629-3.7-2.41-1.144.974-.511,4.478-2.9,2.945-.8-1.971-2.264-3.919-1.533-6.328M117.073,346.42l3.407-.974c22.319-1,42.909-1.533,65.447-1.655l1.241.779c.511,1.1,1.144,2.507.511,3.7-22.635.657-44.345,1.217-65.982,2.069-.925,14.092-.608,28.062-.706,41.157-.73,1.412-2.263.535-3.188.219.195-16.477-2.361-30.448-.73-45.294m61.966,24.12c-.414-1.631,1.022-4.259-1.241-5.014-1.947.414-3.894,3.918-5.963,1.071a8.547,8.547,0,0,1,4.722-3.7,8.553,8.553,0,0,1,4.746,1.85c.511,1.533.608,3.6,2.166,4.478,1.436-.316,2.361.56,3.188,1.533-4.235,1.533-6.085.974-7.618-.219m4.43,7.642c-2.264,1.412-3.724-1.193-5.671.974-.925,1.217-1.947,2.093-3.5,1.85,1.047-2.166.949-5.233,3.31-5.768,2.264.219,4.819.219,5.866,2.945m-28.622-1.314c-2.58-.876-4.016-3.5-5.963-5.233.414,4.7,6.06,4.7,3.188,8.275-2.994-.536-5.452-3.578-7.4-5.987a7.408,7.408,0,0,1,2.044-6.231c3.6-1.193,4.843,3.821,7.618,4.916a12.479,12.479,0,0,0,10.9,2.093l6.912-3.626c.828,4.7-1.047,7.642-3.5,9.176-.608-1.1,1.339-2.288.316-3.164-3.919,3.286-10.2,1.752-14.116-.219m-25.215-19.641c0,7.861-.511,14.944,0,20.956l2.994-7.861c3.286-1.631,7.91-1.193,9.565-5.793-.1-1.412,1.436-1.85,2.264-2.385a7.363,7.363,0,0,1,6.693,4.259c-2.58.755-4.211-2.945-6.888-1.655-2.385,3.6-3.919,8.2-9.176,7.107-2.166,2.507-2.263,5.987-4.211,8.616-2.58,1.412-1.144,4.916-3.7,5.793L124.885,354.6c20.81-2.288,39.331-2.507,58.583-2.385a2.738,2.738,0,0,1,.511,3.7c-19.349.122-36.849-.535-54.348,1.314m39.526,10.466c-2.58,5.671-9.882,4.819-15.017,2.312-1.874-2.629-1.655-2.969-1.047-3.164a19.209,19.209,0,0,0,16.063.852m-33.149,8.3c2.069-.657,4.235-1.85,6.5-.973a18.193,18.193,0,0,1,4.624,5.233c-.828,1.193-1.947,0-2.872,0-1.46-1.533-3.213-2.726-5.257-1.85-1.655.974-2.872,3.919-4.941,3.164a14.787,14.787,0,0,1,1.947-5.574M71.389,348.27c11.512-1.752,22.416,0,33.028-1.314,2.264.341,5.549-.974,6.474,1.874a2.612,2.612,0,0,1-2.044,2.6l-32.322.535c-1.655,15.066-1.022,31.348-1.241,44.978-.925.876-2.556.657-3.7.341-.1-16.039-.925-32.322-.195-49.018m38.479,6.766c.414,1.971-1.631,2.848-2.969,3.164a219.641,219.641,0,0,1-24,.779L81.66,389.645c-.389.974-1.533,2.191-2.677,1.314-1.436-11.585-1.436-23.049-1.022-35.048,12.778-1.85,21.321-1.314,31.4-1.631Zm-59.8,97.793c-.925,0-1.339,1.193-2.458.779-1.558-14.311-.925-25.556-1.46-38.309,8.957-3.164,18.23-.779,26.87-2.312,8.762-.973,18.935-.316,27.989-.535l.414.779c.414,1.85-1.339,2.385-2.458,3.14-15.966.219-31.592,1.655-47.655,1.874-.511,12.218-1.022,23.56-1.241,34.585m4.016-21.272c-.1-1.217-1.241-2.945.219-3.943,3.6,1.217,4.624,5.7,8.129,6.888a3.346,3.346,0,0,1-1.241,2.6c-2.872-.852-5.963-2.166-7.107-5.549m21.2,10.806c-3.091,6.985-11.731,2.507-17.086,4.138,4.843-3.042,10.612-.1,13.386-4.7,1.022-4.04-5.135-9.809,1.436-11.025.633,3.943,4.43,7.107,2.263,11.585m-7.91-16.6c.706-3.042,4.308-.657,6.474-.974.828.876,2.483.219,2.872,1.533-3.8.973-6.255-.438-9.346-.56m23.974,20.2c-3.919-.341-9.784.438-11.317-4.7-.219-3.6,3.286-5.793,2.166-9.395,5.866,2.507-4.332,12.559,6.158,12,4.235-2.823,10.2,2.848,12.656-3.919,1.339,7.2-5.549,4.7-9.662,6.012m9.662-12.778c-2.361,5.574-7.91,2.41-11.926,3.6C86.722,433.625,93,427.516,86.6,426.64c-2.239-.438-3.992,1.85-5.866.974a10.143,10.143,0,0,1,6.182-3.919c2.264-.438,3.7.974,5.452,1.85,3.31,2.507-2.677,6.985,2.166,7.861,3.6,1.1,3.188-4.259,6.474-3.943a3.438,3.438,0,0,1,0,3.724m-57.123-23.56c.219,15.163-1.436,29.572-1.217,43.639-1.144.438-3.919.755-3.407-1.533l.414-45.83c21.2-1.314,43.858-1.752,63.816-2.848l.414,2.312c-21.515,4.016-39.623,3.918-60.019,4.259M89.4,386.043c-2.166-.122-4.43.316-5.987-1.314,4.332-1.412,8.64-1.971,11.123-6.328.73-2.19-.1-4.259-.925-6.012a4.549,4.549,0,0,0-4.527-.755c-1.022,1.631-2.361,3.164-2.166,5.452,0,1.412,1.436,1.85,1.752,3.164-1.241.876-2.677,1.752-4.211,1,2.044-1.533.389-3.408.195-4.7a9.758,9.758,0,0,1,2.263-6.012c1.436-1.752,4.113-2.19,6.377-1.533a8.005,8.005,0,0,1,5.257,4.7c4.624-1.728,6.377-11.244,12.559-5.792l2.994,4.162c-2.8,2.19-2.385.1-3.5-.755a5.655,5.655,0,0,0-3.918-1.874c-2.264,4.819-9.054,4.819-9.37,11.025,4.332.122,8.032,1.752,12.048,2.629-6.79,1.753-13.265-1.1-19.958,2.945m1.436-12.121,1.533,1.631c.122,1.436-.1,3.067-1.533,3.6-1.752-3.261-1.655-5.33,0-5.233m20.274,7.861a12.333,12.333,0,0,1-5.671-1.874c-.511-1.193-1.339-3.359-.292-4.892.8-2.507,3.6-.974,4.941-.316-.219,1.193-2.483,1.728-1.971,3.7,1.047,1.1,3.724,1.412,2.994,3.383m12.34,43.761c0,7.423.122,15.5-1.022,22.805l-2.872-1.631.195-38.966a617.275,617.275,0,0,1,62.988-1.631c1.436.657,1.655,2.166,1.436,3.7-22.221,1.314-38.479.438-59.678,1.874-2.263,3.821,0,9.273-1.047,13.849m6.693,19.86c-.925-.414-2.969.219-2.775-1.533,3.7-.852,3.821-5.768,7.715-5.987,2.994,1.631,6.6,1.85,9.37,3.919-5.768-.535-9.979,1.752-14.311,3.6m5.866-10.9c-1.339-.219-2.044-1.314-2.458-2.629a3.948,3.948,0,0,1,1.533-3.919c5.16,0,7.618,6.766,12.559,7.3-3.8,3.5-6.985-4.235-11.634-.755m49.724,6.547c-2.483,1.85-5.355-.876-7.934-.341-3.894,1.217-7.107-.755-10.393-2.069-3.286,4.04-8.446,4.819-13.07,3.943.316-2.19,3.407-1.217,4.746-1.874,2.872-2.166,8.324-5.549,7.813-10.466.414-1.85-1.436-3.164-2.677-3.918-2.069-1-3.5,1.412-3.919,2.945-.608,1.752,1.339,4.478-1.022,4.916-1.436-3.5-6.693-.341-7.2-4.722,0-1.29.316-2.945-1.241-3.383a5.9,5.9,0,0,0-4.941,1.533c.633,2.069,2.994.56,4.235,1.314,1.022,1.533,3.091,2.945,2.263,5.014-2.677-2.726-5.257-2.726-7.423-3.7-3.383-4.916-8.324-7.3-13.386-6.547-1.947,2.385-3.894,5.014-2.677,8.4.925.779.316,2.093.535,3.164-1.241.779-2.263-.755-2.483-1.85.1-3.6-.511-6.645,1.436-9.37a10,10,0,0,1,10.393-1.655c2.263,1.217,5.257,3.286,7.934,1.314,2.264-.755,5.671-1.971,7.618.535,1.752,1.314.609,4.04,1.947,5.452,1.971-2.6,3.821-7.618,8.129-6.742,2.8-.219,4.649,2.069,6.182,4.138,1.241,1.85-.511,5.793,2.483,5.793.925-2.312.925-5.476,3.48-6.547,1.971-.56,4.138-1.1,6.182-.56a7.646,7.646,0,0,1,3.5,7.861c-3.286,2.288,3.383,3.943-1.022,5.233-.925.122-1.971-1.193-2.677,0,.511,1.533,2.969.219,3.188,2.191m-23.779-10.806c-.1-1.533,2.166-1.631,2.458-.219-1.533,1.85-2.458,1.1-2.458.219m-45.2-27.5c-1.85,1.193-.389,3.821-1.217,5.549.414,15.5-.925,29.912-.511,45.854a10.952,10.952,0,0,1-3.724.219l-.414-2.41.219-53.375,2.263-.754c22.124-.316,43.542-1.971,65.155,0l9.37.219c1.12.755.608,2.191.8,3.383-24.168,2.288-48.872-.316-71.945,1.314M191.6,351.653a18.26,18.26,0,0,0,5.768-6.206c19.033.974,38.066,1.314,56.806,1.509,2.458.438,1.241,3.286,1.947,5.014v36.143c-.706.974-.292,2.945-1.947,3.164-20.591-.535-40.548.438-61.333-.316-.633-13.654-2.58-26.091-1.241-39.307M290.7,451.514l-89.445,2.093c-1.436-.779-4.211.535-4.722-1.655-1.241-16.039.414-32.078-.414-48.677.609-1.29-.608-3.7,1.241-4.7l2.677-.316,52.888,1.314,37.068,1.1c1.022,1.85,1.022,4.454.925,6.547Z" transform="translate(101.537 58.505)" fill="#e4e4e4"/>
      <path id="Path_20" data-name="Path 20" d="M29.058,27.016c-1.655-.56-2.8-2.969-4.235-3.383a119.921,119.921,0,0,0-8.445,20.931C17.522,49.919,24.41,46,27.5,49.043c.316,6.231-1.339,12.023-1.436,17.792,5.135-1.29,9.979-3.48,15.017-5.233.73-6.206,1.436-13.532,3.188-19.86,1.047-3.724,4.113-8.08,2.264-12.34-5.038-2.726-12.34,0-17.475-2.385m8.324,30.448c-1.339.219-2.458,1.631-3.919.755-.608-3.821,1.655-7.423.511-11.561-1.947-2.093-5.744.1-7.18-2.848.706-2.823,1.217-5.987,3.188-8.08l9.346,1.752,1.241,2.19c-1.12,5.89-2.677,11.561-3.188,17.792" transform="translate(382.241 551.565)" fill="#e4e4e4"/>
      <path id="Path_21" data-name="Path 21" d="M71.466,47.193c1.339,1.971,4.113.438,5.452,2.41.511,4.357-.828,8.519-1.752,12.559-3.7,6.206-11.22,5.671-17.816,6.547-.292-1.655.535-3.383,1.047-5.038,2.264-11.683,8.543-22.684,9.662-35.023-7.107.1-12.973-1.217-19.349.754L43.355,46.219c.633,3.7,5.963,0,6.182,4.138l-6.5,13.873c-2.142,2.288-3.48,7.642-7.4,6.547C33.181,58.121,35.128,43.81,41.6,32.784c.827-1.314.633-3.7-.706-4.478-7.2,0-14.116-.316-19.568-4.673L13.418,41.96l-.511,3.7c1.217,1.436,2.872,1.752,4.211,2.629,2.166.56,4.308-1.193,5.963.56-.511,3.14-3.6,5.233-5.452,7.837.219,11.147-.316,23.049-.511,34.05,3.5.438,6.888-.755,10.393-1.071a10.177,10.177,0,0,1,5.135,0c14.019-2.288,28.208-3.821,42.009-6.328l3.7-3.067C83.2,71.434,91.326,63.67,90.5,52.231c.1-7.861,1.752-15.942,1.436-23.925L76.7,29.182c-1.533,6.109-4.016,11.8-5.233,18.011M88.04,37.482l-2.288,24.46A42.437,42.437,0,0,1,75.165,77.105C59,81.462,41.408,82.241,24.833,85.5c2.483-12.875-2.775-27.941,3.918-37.749-1.339-5.038-8.129-1.314-6.377-6.328l4.113-6.766c2.969.974,6.474,1.071,8.957,2.823-.316,5.014-3.188,8.835-4.43,13.435C30.5,59.63,29.676,69.463,30.7,77.64c5.574-.1,13.07,1.217,14.628-5.549a84.109,84.109,0,0,0,9.565-22.83,4.5,4.5,0,0,0,1.533-3.042c-1.728-1.752-5.135.1-6.474-2.19.195-2.6,2.483-4.478,3.5-6.766,2.872.122,7.2-1.631,8.835,1.533-3.6,12.656-6.279,25.653-12.023,37.214,8.64-.535,18.3-.316,25.6-5.233,6.4-6.012,6.085-16.258,5.476-24.12-1.241-1.85-3.724-.535-5.16-2.093a31.09,31.09,0,0,1,5.671-8.4c1.947.876,4.722-.633,6.182,1.314" transform="translate(301.232 551.565)" fill="#e4e4e4"/>
      <path id="Path_22" data-name="Path 22" d="M62.6,50.411,61.55,32.3c-1.241-1.971-1.339-4.478-3.919-4.916-8.421-.876-18.619.535-27.989-.341a16.564,16.564,0,0,1-12.753-3.359,124.267,124.267,0,0,0-6.5,20.177c.633,2.41,3.091,2.41,4.746,3.383L44.05,49.1c1.144,13.435.828,26.846,1.241,40.378,5.866-2.385,12.048-3.7,17.5-7.082-.1-10.368-.925-19.106-.195-31.981M52.91,79.982c0-13.411,0-24.217-.73-36.119-12.023-.56-20.883-1.971-31.908-1.85-.414-3.164,1.558-5.89,3.188-8.421,9.687,3.6,21.929,1.971,32.127,2.41,1.752.219,1.631,2.19,2.044,3.383.219,12.218.414,25,.73,37.433-1.947.657-3.188,4.04-5.452,3.164" transform="translate(242.489 552.825)" fill="#e4e4e4"/>
      <path id="Path_23" data-name="Path 23" d="M75.98,50.247l.195-23.584c-6.888-.974-15.528,2.41-20.785-2.945L49.012,40.512v2.848c2.361,2.288,6.06,1.1,8.835,2.191,1.655,3.918,0,7.861,0,12.753C43.561,49.371,30.491,37.031,16.374,27.2,13.7,32.553,10,37.372,7.539,42.921c2.872,5.135,2.458,11.9,3.188,18.011a88.238,88.238,0,0,1-3.5,26.529l27.7-.876c.608-4.795,4.113-8.519,4.211-13.532-3.6-1.874-7.934.219-11.829-.876-5.574-1.752-1.752-9.492-1.558-15.187,13.9,10.393,27.892,20.2,43.737,31.446,3.919-4.259,5.16-10.052,8.153-16.477a92.129,92.129,0,0,1-12.364-9.711c3.821-3.5,8.957-6.766,10.709-12M62.788,32.675a38.212,38.212,0,0,0,9.176.755c1.12,3.383-1.022,6.547-.511,10.247.608,4.478-2.264,8.3-5.671,10.149-.1-3.919.219-7.837-.195-12-1.85-1.1-4.746-.1-6.5-.755,0-3.067,1.947-5.89,3.7-8.4m7.934,41.911a23.591,23.591,0,0,1-2.166,7.3c-16.453-12-30.983-23.9-46.73-33.733-.292,9.054-1.022,19.106-.511,27.186,4.941,1.314,8.957.1,12.875,1.631.316,9.395-10.2,2.75-14.628,4.7-1.217.438-3.067.341-3.7-1.1,2.483-12.753.925-25.093-1.436-37.433,1.947-1.752,2.9-7.3,6.377-5.014l7.2,6.863c10.806,9.93,23.365,17.792,35.315,25.872,2.556.974,5.452,1.85,7.4,3.724" transform="translate(168.575 553.549)" fill="#e4e4e4"/>
      <path id="Path_24" data-name="Path 24" d="M61.747,563.219c-5.452-6.547-3.286-16.039-1.728-23.584,1.12-4.138,6.158-1.533,8.129-5.233,1.436-1.971,1.436-4.795,1.022-7.107-.511-2.288-2.775-4.04-4.746-4.7a8.49,8.49,0,0,0-7.91,2.848c-2.069,3.5-.511,6.985,1.022,10.271l-4.722,9.614A70.03,70.03,0,0,1,45.9,516.488c11.123-18.862,20.591-38.625,32.127-57.829-1.144,21.491-7.618,40.913-22.246,56.32,20.688-12.34,28.4-36.24,29.45-59.7-.535-7.642.1-15.625-1.558-22.83L81.218,437.7c-11.317,15.26-23.779,30.107-29.352,47.9-1.022,3.943-1.947,7.983-3.7,11.585-1.241-.657-.8-1.971-1.241-2.945,1.752-10.806-.195-23.365,6.4-32.2,1.12-6.231,8.226-1.412,9.662-7.326.828-1.752.414-4.138,0-5.987a5.684,5.684,0,0,0-6.693-3.383c-1.728.1-3.188,2.166-4.016,3.6-1.631,3.042,1.241,6.425-.414,9.151-2.239,1-3.894,5.136-6.474,3.724.316-9.054-.828-19.325,1.022-26.967,10.709-16.258,19.252-33.3,28.111-50.308,2.044-.122,1.241,2.409,1.752,3.6-1.655,18.984-7.837,36.435-21.223,49.748,9.078-3.8,17.207-14.165,20.712-23.56,5.744-17.573,9.346-37.53,7.91-58.948-.511,1.314-2.166,2.093-2.166,3.5C67.1,377.344,51.063,395.136,45.9,416.529c-.828-12.34.828-24.022,5.16-34.39,1.217-6.109,7.813-1.85,10.685-5.768a10.563,10.563,0,0,0,1.46-6.79c-.73-3.164-4.016-4.454-6.693-5.014-2.263.122-4.113,1.752-5.452,3.724-1.047,2.6,0,5.549,0,8.4L45.2,381.165c-.316-8.4-2.9-18.765,1.217-26.188,10.928-15.942,18.935-33.076,29.864-49.335.292,7.521-1.241,14.822-2.483,22.026l-5.452,12.9c-3.188,6.863-8.543,12.973-13.581,19.106a12.431,12.431,0,0,1,2.775-1.1c7.715-6.231,13.484-14.092,18.522-22.27,9.882-17.475,7.934-39.5,6.888-60.8l-2.239,5.014c-9.784,12-19.885,24.339-25.945,38.212-2.263,6.206-4.211,12.559-8.129,18.327-.633-9.711.1-19.739,4.016-28.5.608-7.3,9.249-3.578,10.076-10.782.925-2.507-.608-4.7-2.263-6.547a6.525,6.525,0,0,0-7.4,0c-2.385,2.288-2.58,6.109-1.655,9.151.608,2.726-1.752,5.135-4.211,6.109l-.73-15.7c-.316-8.08,5.452-13.435,7.813-20.2,8.762-12.875,14.408-27.162,22.026-40.6.511,20.737-6.79,39.283-19.033,54.251,18.522-14.19,27.381-36.678,27.673-60.263a116.638,116.638,0,0,1,.535-13.63c-1.144-3.067.1-7.2-1.047-9.93a10.908,10.908,0,0,0-2.142,4.892c-14.944,16.6-29.547,34.171-33.879,58.169-1.533-7.3-.414-15.479,0-23,2.9-5.135,2.775-14.968,10.393-14.749,2.9-1.314,2.483-4.7,3.213-7.326-.73-1.85-1.752-4.016-3.724-4.892-2.677,0-6.474-.56-7.91,2.823-1.144,2.629-1.241,5.7,1.022,7.861.828,2.629-2.361,4.162-5.452,5.793-.1-7.423-.1-14.847.925-21.734,11.415-18.108,20.371-37.311,31.908-55.857.706,20.834-8.348,38.5-19.033,53.253,14.7-11.464,22.83-28.16,25.726-45.854.706-11.683,2.872-24.1.925-35.34-1.655,2.945-3.821,5.768-5.354,8.835C67.929,147.587,53.2,159.367,50.113,177.28c-1.12,4.138-1.728,8.4-4.211,11.78-1.217-12.437.1-25.312,7.423-34.488,1.947-.754,4.308-.438,5.647-2.629.414-2.166,2.483-4.235,1.047-6.547-.949-1.947-3.091-4.138-5.452-3.919-1.752.341-3.626.974-4.454,2.848a8.491,8.491,0,0,0,.73,8.4c-1.022,1.631-1.339,3.6-3.188,4.916-1.022.876-2.264-.122-2.458-1.314.1-6.328-1.339-12,.195-18.011,11.537-18.327,21.929-37.116,32.419-56.32.219,8.616-2.166,16.7-3.7,24.874a84.791,84.791,0,0,1-13.167,24.9c6.888-6.109,13.678-12.875,17.6-20.956,7.715-15.285,5.768-34.488,5.866-52.718A34.642,34.642,0,0,1,77.3,67.586c-18.935,14.408-28.72,35.145-32.833,60.457-2.166-9.589-1.047-19.2-2.263-29.012-.511-26.31-1.022-50.649,1.436-78.59,8.446,18.449,9.687,40.694,8.446,62.867,2.872-9.395,3.5-19.763,5.135-29.571C58.875,33,46.73,18.252,42.714.022c-3.188,12.875-10.2,24.241-14.092,36.9-3.724,12.34-1.85,25.118,2.264,36.9,8.032,18.108,9.662,39.4,8.835,61.552-5.452-2.6-7.083-8.835-11.1-13.094-.73-.876-.73-2.507-1.752-2.848-8.64-12.437-15.747-25.872-18.011-40.6C20.493,88.1,29.45,100.881,35.827,113.659c.195-4.381-2.263-7.642-2.8-11.8-3.7-6.547-5.963-14.189-11.61-19.325C16.477,73.16,4.941,69.9.73,59.408.633,72.064.511,84.94,2.677,97.182,5.671,113.1,17.5,128.262,31.3,136.465c3.383.755,6.377,3.48,8.957,5.768,1.12,5.355,0,11.025-.535,17.256-2.458-.657-2.969-3.6-4.941-5.233-.195-2.629,1.558-6.45-.511-8.859a7.794,7.794,0,0,0-5.135-2.166c-1.655.876-4.113,1.412-4.43,3.7-.414,2.41-.73,5.574,1.241,7.326,1.85,1.631,3.6,1.29,6.158,1.29,11.244,13,8.032,33.417,7.423,52.4-4.016-3.383-7.107-8.08-10.2-12.34-8.129-14.189-17.694-27.722-21.2-44.2,13.386,7.959,22.854,22.489,27.381,37.214-1.022-6.644-2.483-13.094-5.452-18.862-5.355-16.283-21.613-25-29.644-39.623l.511,20.517c.511,21.832,10.3,40.913,26.651,54.446,3.821,3.5,9.784,3.626,12.145,8.64-.8,4.795.633,10.247-.195,15.5-1.752.755-3.286-1.874-4.746-3.188a10.82,10.82,0,0,1,.73-4.673c.511-2.41.316-5.038-1.752-6.547-1.947-.779-4.211-2.531-6.377-.876-2.994,1.412-3.919,4.7-3.5,8.178,1.85,6.231,9.881,3.383,11.439,10.49,6.158,14.287,3.48,31.957,2.969,49.748-14.7-16.039-23.146-35.242-30.448-54.786.195-1.752-2.58-3.919-.219-4.916,12.461,10.49,23.17,23.365,26.651,38.966.633-4.795-1.85-11.123-3.188-16.477C27.478,227.808,9.565,216.9.925,202.155A197.64,197.64,0,0,0,.73,235.231c1.436,19.641,13.265,37.433,29.328,47.923,3.407,2.288,7.521,2.945,10.2,6.328,1.022,5.89-.122,13.216.195,20.42-2.969-1.436-3.8-5.136-5.671-7.642.949-2.19,2.166-4.819,1.047-7.326-1.047-2.41-2.9-4.138-5.452-3.919a5.556,5.556,0,0,0-5.257,2.823c-.414,1.971-1.144,4.381-.219,6.328,1.241,2.409,3.6,4.381,6.4,3.943,11.926,13.532,8.032,32.638,7.715,52.158C23.17,339.692,13.289,319.491,8.129,297.781c12.364,11.78,24.1,26.091,27.892,42.787-.195-3.067-.414-6.133-1.752-8.738-3.091-19.106-14.6-34.172-28.4-48.458-1.947-1.971-1.947-5.354-4.43-6.766-1.217,3.918.219,8.713-.195,13.313-2.58,30.545,9.784,59.581,36.24,73.332,1.631,4.819,1.022,10.49,1.533,15.723.1,1.1.1,3.067-1.533,2.41-3.724-2.726-4.138-6.231-3.407-10.49-.925-2.288-2.264-4.576-4.746-5.233a5.91,5.91,0,0,0-6.377,1.85c-1.339,1.752-1.436,4.478-1.022,6.766a8.258,8.258,0,0,0,7.715,4.7c4.113,2.726,5.963,7.642,7.618,12.121,1.947,13.849,1.241,25.872,2.458,40.061-.195,1.193-1.12,2.823-2.458,2.069a91.863,91.863,0,0,1-22.951-33.733c-2.677-7.3-5.768-14.847-6.693-22.586A93.86,93.86,0,0,1,35,419.134l-1.436-11.561c-3.188-18.668-16.575-32.638-29.45-46.609-1.12-1.412-1.533-3.48-2.677-4.478,0,16.283-1.728,34.05,3.5,48.458,4.016,16.161,18.838,30.35,33.052,36.459a12.013,12.013,0,0,1,1.217,8.081c-.195,3.724.633,6.985-.706,10.247-2.361.438-4.332-1.728-6.182-3.164-.219-2.6,1.436-5.233.511-8.178-.828-2.069-2.872-3.164-4.746-3.918-2.556-1.193-4.624,1.1-6.377,2.19-.925,2.069-1.533,4.892-.292,6.985,1.12,3.359,4.722,3.7,7.4,4.454,4.43,4.259,9.979,9.395,9.882,16.258L38.5,512.132c-1.85-.438-3.188-2.19-4.746-3.7A162.211,162.211,0,0,1,7.4,461.045v-2.6c5.89,4.259,10.417,9.37,15.552,15.163,5.866,6.888,7.715,15.723,11.317,23.243-.1-4.673-1.533-9.492-2.166-14.408-2.653-16.574-17.28-26.407-26.943-39.5-2.069-1.412-2.263-4.795-4.235-5.793-1.339,6.669-.511,13.532-.925,20.2.828,19.422,6.6,38.309,21.929,50.868,5.257,5.549,11.829,7.837,17.792,11.78l3.213,24.558c-3.407-.122-5.452-3.6-8.153-5.452-1.217-2.288,1.363-4.04,1.46-6.352-.511-2.288-.633-4.795-2.677-6.523a8.351,8.351,0,0,0-6.182-1.533,5.786,5.786,0,0,0-4.211,3.918c-1.144,2.507-.122,5.355,1.022,7.545a6.332,6.332,0,0,0,5.647,2.6c6.693,6.328,11.95,13,17.816,19.982,6.79,15.285,19.86,29.352,33.855,37.652,3.724,1.752,6.693,5.671,10.831,6.328-2.166-7.74-4.138-15.6-7.107-23.024-8.762-3.286-17.621-7.2-23.487-16.477m16.988,25.653c-4.527-5.476-11.634-8.859-14.092-15.5h1.022a58.871,58.871,0,0,0,16.769,10.806c1.339,1.947,1.558,4.478,1.752,6.985-1.947.316-3.8-1-5.452-2.288" transform="translate(0 0.516)" fill="#e4e4e4"/>
      <path id="Path_25" data-name="Path 25" d="M99.036,70.728c-13.995,14.068-21,31.324-23.681,50.527-.511.974.122,2.848-1.436,2.848-2.044-5.574-1.241-11.585-2.044-17.037.8-28.7-2.385-55.882-.219-84.041,7.837,17.134,12.973,38.212,8.859,57.853,3.8-10.928,6.279-23.682,3.7-36.119C82.68,28.379,74.746,14.628,69.2,0L67.761,2.848c-.925,10.9-6.693,20.4-9.176,30.886-5.866,16.477-1.436,35.461,5.671,49.773,5.866,13.97,3.188,32.3,4.211,47.679-.609,1,.316,3.48-1.752,2.945C53.449,117,41.5,98.985,33.589,79.344a2.886,2.886,0,0,1,0-3.383c12.242,10.368,24.9,22.489,30.861,36.678C61.579,90.588,44.4,75.961,29.159,61.017c-1.144-1.655-1.436-3.943-3.188-4.478-2.385,30.229,7.107,55.979,28.4,75.206,4.016,3.261,8.738,5.014,12.34,8.616,2.166,5.987-.1,12.973-.511,20.4-4.308-1.947-2.458-6.547-2.969-10.149-.73-1.85-1.655-4.454-3.919-4.7a5.671,5.671,0,0,0-5.135.779c-2.483,1.85-2.58,5.355-2.069,7.861a6.9,6.9,0,0,0,7.4,3.919c11.317,10.928,6.279,29.912,5.987,46.609-15.041-16.575-25.75-36.459-32.322-57.415C45.32,158.25,57.149,170.492,63.015,184.9c-4.211-22.611-24.8-37.652-35.827-56.879-1.022,7.107-.195,15.5.219,22.586A75.821,75.821,0,0,0,49.434,200.38c5.038,5.671,11.829,6.888,17.086,12l-1.241,19.666c-1.241-2.945-7.01-4.916-3.7-8.859.828-2.507-.414-4.673-1.752-6.547a6.048,6.048,0,0,0-6.182-1.631c-2.361,1.752-4.113,4.162-3.7,7.326.609,4.795,6.085,4.795,9.151,6.109,10.3,12.973,5.866,33.49,6.6,49.773l-2.677,1.29a131.644,131.644,0,0,1-18.327-27.284c-1.217-1.631-.414-4.138-2.458-5.452-2.677-8.835-8.446-16.7-9.37-25.969,7.107,7.423,16.575,16.039,21.321,25.653,2.556,3.164,3.188,8.056,6.377,10.247a50.329,50.329,0,0,0-5.671-16.477c-5.16-16.258-22.538-26.31-28.209-42.228a196.023,196.023,0,0,0-.706,20.177c.292,24.46,8.032,49.115,28.914,62.112,3.286,2.726,9.468,1.533,10.393,7.083,1.022,7.545.219,15.844-.316,23.049a6.507,6.507,0,0,1-3.188-2.41c-5.135-4.259-.292-10.271-3.188-15.163C56.833,290.531,54.472,290,51.892,290c-2.044.535-3.383,3.164-4.211,5.233a7.631,7.631,0,0,0,1.947,7.326c6.085-1.1,8.543,5.33,11.123,9.37,7.2,12.121,3.919,28.5,2.994,43.98-7.326-7.837-11.634-16.794-17.3-25.629-4.527-9.3-9.784-18.132-13.581-27.722-.511-1.1-.925-3.164.316-3.943,6.06,6.109,11.512,11.683,16.988,18.351a121.775,121.775,0,0,1,10.587,20.956c-.73-6.231-3.091-11.8-5.354-17.353-5.549-16.161-22.027-27.722-28.72-43.225-.925,3.918-.292,7.74-.511,11.561-3.383,30.667,11.853,59.167,37.579,73.138,1.85,7.18,1.752,16.356,1.022,23.779-2.677-.657-3.7-3.821-5.963-5.452-2.166-2.288-1.144-5.452,0-7.861a7.533,7.533,0,0,0-2.483-5.768,6.049,6.049,0,0,0-5.866-1.339c-1.533.9-3.8,2.093-4.016,4.162-1.022,3.164.511,5.89,2.483,8.178,6.158-.755,7.813,6.328,11.1,10.149,7.521,12.34,5.257,28.16,4.235,45.318-13.995-14.53-24.509-32.1-32.322-50.016-.414-1.193-1.533-2.921,0-3.919,9.882,9.176,22.635,18.23,28.4,30.886-.414-3.383-2.361-6.109-3.7-9.176-7.3-15.26-22.343-27.065-30.886-41.351-1.022,25.215,3.5,47.047,18.011,65.471,6.085,6.669,13.8,9.955,19.982,15.723,1.339,7.2.511,14.189,0,22.27-1.85.219-2.069-2.069-3.407-2.848-5.038-3.8,2.069-9.711-2.775-13.63-2.166-2.19-5.452-2.41-8.348-1.85-2.044.219-3.48,2.6-3.992,4.478-.827,2.6.292,5.014,1.728,7.083,1.752,2.19,4.43,2.19,7.229,2.069,4.211,3.066,6.669,8.4,8.324,13.338a177.3,177.3,0,0,1-.511,42.228C48.8,498.237,39.747,480.226,31.107,462.337c-.1-1.655-1.752-3.164-.414-4.7,5.038,4.357,9.979,9.93,15.236,14.408,5.963,6.425,9.273,14.068,13.386,21.394-.511-3.5-1.85-6.766-2.677-10.149-4.843-17.256-24-28.5-31.908-44.88,0,16.94-.1,36.265,7.618,50.868,6.182,13.654,18.424,23.681,29.425,32.76.122,9.176,0,17.013-4.211,24.655-1.752-.316-1.752-2.726-2.677-3.918-.414-3.943-4.843-7.326-1.947-11.366,1.022-2.507-.633-4.576-2.069-6.547A8.141,8.141,0,0,0,45,523.354c-1.947,1.071-4.113,1.728-4.941,4.138-.608,2.823-.219,5.89,1.752,7.861A9.008,9.008,0,0,0,48,536.984c3.894,4.162,4.819,10.49,3.894,16.7-3.8,13.873-18.011,23.462-29.425,28.817-1.655,6.669-3.7,13.216-4.624,19.982,13.265-5.793,26.237-16.6,35.291-28.817,5.768-13,16.161-23.365,24.7-34.829l6.182-.535c1.631-1.412,3.383-3.164,3.919-5.233.1-2.093.195-4.916-1.46-6.571-2.166-2.288-6.279-2.288-8.859-1.071-2.653,1.071-3.188,4.04-3.48,6.547,3.091,5.452-3.31,8.738-6.182,12.534-.73.341-1.947.681-2.458-.195A164.606,164.606,0,0,0,69.9,516.247c2.58-9.176,9.468-16.477,13.9-24.874,6.085-9.273,9.687-19.885,16.258-28.281-1.022,20.639-7.3,39.745-19.958,55.224,14.214-10.368,22.757-26.188,25.945-42.885,1.631-13.435,2.872-27.284,2.142-41.157-4.916,12.121-16.453,20.42-23.974,31.665-3.407,6.547-7.2,12.875-9.054,19.958-1.558,3.627-1.655,8.08-4.527,10.173.1-12.461.1-25.556,5.768-35.826,1.339-3.578,4.211-2.385,7.107-2.6,1.533-.974,3.48-2.288,3.7-4.259.195-2.507,0-5.574-1.752-7.521a7.311,7.311,0,0,0-6.182-1.874A6.018,6.018,0,0,0,75.16,448.9c2.166,5.574-1.436,10.928-5.768,12.875l1.241-27.284c7.107-14.068,16.477-27.065,23.268-41.351,2.969-4.819,5.038-10.587,10.076-13.338-2.361,20.1-8.227,38.869-21.71,53.934,7.2-5.573,14.822-13.654,19.544-21.734,7.521-17.013,9.589-37.311,8.665-56.855-9.078,17.792-28.939,30.886-34.391,50.308-1.655,3.943-1.339,8.64-4.43,11.8-.195-13.654-.828-27.722,8.129-37.993,2.483-1.1,5.866.219,7.423-3.164.925-2.945.73-6.766-1.752-8.835-1.947-1.193-4.649-2.069-6.888-1.1-4.843,2.848-2.385,8.737-1.971,12.875-1.533,2.507-3.8,5.452-7.2,5.671.316-8.4-.608-16.356.827-24.339,10.587-19.082,20.371-38.625,31.592-57.61-.608,18.887-4.941,36.873-16.356,51.4,12.973-9.93,19.447-25.336,22.026-41.157,1.241-10.247,2.677-20.42,2.264-30.448a11.651,11.651,0,0,0,0-6.766c-9.979,16.794-26.87,31.1-32.419,49.992-1.85,4.576-2.069,10.149-5.866,12.875-1.339-12.559,0-25.969,8.324-35.364,1.85-.316,3.919-.219,5.257-2.069a7.85,7.85,0,0,0,1.436-5.793c-.195-2.41-2.677-3.383-4.211-4.7a6.049,6.049,0,0,0-6.912,2.288c-1.217,3.286,0,6.766,1.047,9.736l-5.768,7.083c-1.144-8.519-.828-18.327-.219-26.967C83.8,264.342,92.878,243.606,104.8,223.964c.316,22.148-7.3,41.473-21,57.853,2.483-.779,4.332-3.724,6.4-4.916,12.851-14.847,20.98-32.541,20.469-52.937a141.09,141.09,0,0,0,.73-25.434,25.978,25.978,0,0,0-2.166,4.138c-8.129,11.464-17.816,22.927-26.456,34.05-2.872,5.574-5.671,11.147-6.888,17.378-1.339,4.357-1.558,9.273-4.746,12.754-.925-12.218-1.655-29.255,7.715-38.966a7.135,7.135,0,0,0,6.182-2.069c1.947-1.1,1.144-3.821,1.655-5.793a6.941,6.941,0,0,0-3.407-4.454c-2.775-1.752-5.038.633-7.2,2.069a9.154,9.154,0,0,0,0,8.616c-1.12,1.85-2.58,3.919-5.452,3.724,0-8.08,0-16.721,1.022-24.679,11.634-16.6,20.591-34.488,31.4-51.306-.316,9.3-3.091,18.011-5.257,26.748-3.383,8.616-8.543,16.818-13.581,24.558,21.734-18.984,26.651-47.047,26.456-75.961-1.947,2.507-3.286,6.109-6.182,8.738C90.079,152.8,78.762,169.4,71.874,187.846c-.122-10.052-1.85-23.268,6.693-30.691,2.044-.633,4.527.243,5.963-1.85.925-2.288,2.458-4.795,1.436-7.642-.414-1.631-2.166-2.288-3.407-3.042-2.775-1.1-5.452.316-6.985,2.823a7.933,7.933,0,0,0,0,5.793c1.85,2.726-.925,4.04-4.113,5.233.292-7.423-1.144-16.137,2.142-22.586C84.822,117,94.923,97.7,106.459,79.125c.511,8.3-2.385,15.82-4.138,23.584-2.556,11.025-9.054,20.834-15.114,29.79,17.6-17.451,26.042-38.966,26.237-64.181.1-4.7.925-9.93-.828-13.63A100.284,100.284,0,0,1,99.036,70.728M37.581,584.347a39.828,39.828,0,0,1-9.151,6.012c-.706-7.959,8.446-8.835,12.559-13.313,3.188-2.288,5.768-6.109,9.176-7.862-2.069,6.669-8.032,9.809-12.583,15.163" transform="translate(416.408 0.002)" fill="#e4e4e4"/>
      <path id="Path_26" data-name="Path 26" d="M68.333,74.773,27.177,73.8a77.7,77.7,0,0,0-.828-12.559c1.339-10.782-3.091-23.462,4.016-31.2-.414-.779.608-1.533.925-2.41a3,3,0,0,0-.414-3.919c-6.79-1.85-14.506,1.728-20.785-2.069C8.022,27.191,5.15,32.327,4.128,38.436c2.142,2.945,6.255,1.85,11.1,3.943-2.361,2.385-5.452,3.919-7.618,6.547A277.3,277.3,0,0,1,8.85,95.51c13.9-.316,28.087-1.509,43.031.219.608,5.257.925,11.9-.316,16.6-3.919,6.547-11.537,5.671-18.741,7.521l-2.775,16.5c1.558.219,2.677-.341,4.016-.438,8.762-3.724,18.011-6.231,26.456-11.025,11.512-8.616,7.618-23.8,8.129-36.678-.1-4.478,2.361-9.589-.316-13.435M58.452,121.5c-6.06,3.919-12.34,8.4-19.763,8.616-2.458-10.49,9.37-5.89,13.605-9.93,1.947-1.193,4.819-1.752,5.452-4.478,1.533-7.983,1.217-16.915,1.217-25.215-14.408-.755-28.184.341-42.179.341L18.22,71.731c-1.047-6.985.195-14.189-1.947-21.272.1-4.6,7.715-8.957,1.728-13.119-2.044-.438-6.888.341-5.452-3.383,1.047-2.069,1.752-4.454,3.5-5.987,3.407,1.1,7.715-1.436,9.882,2.069-6.474,14.725-.608,33.393-3.5,49.773,0,1.631-2.263,3.821,0,5.014,13.8-1.193,28.622-1.1,42.2-1.1-1.655,13.751,3.919,28.6-6.182,37.774" transform="translate(96.342 505.097)" fill="#e4e4e4"/>
      <path id="Path_27" data-name="Path 27" d="M13.635,20.332c-.073-1.217.584-1.9.949-2.823-.243.365-.608.706-.8,1.047a4.806,4.806,0,0,0-.146,1.777" transform="translate(317.955 408.639)" fill="#e4e4e4"/>
      <path id="Path_28" data-name="Path 28" d="M13.663,21.121c1.217-1.777,2.921-3.675,5.062-3.675-2.288-.511-4.089,1.193-5.062,3.675" transform="translate(318.876 405.051)" fill="#e4e4e4"/>
      <path id="Path_29" data-name="Path 29" d="M21.353,20.557l-8.129-2.629c2.264,2.75,4.941,2.191,8.129,2.629" transform="translate(308.63 418.418)" fill="#e4e4e4"/>
      <path id="Path_30" data-name="Path 30" d="M13.272,14.936,11.325,14.5l.73,2.848c1.217-.219.8-1.533,1.217-2.41" transform="translate(264.31 338.366)" fill="#e4e4e4"/>
      <path id="Path_31" data-name="Path 31" d="M29.3,19.712c-5.987.876-1.339,9.054-7.107,9.93-2.872.974-6.6.535-8.957,2.19,3.31,1.071,7.715.195,10.9-1.314,4.746-.779.925-6.669,4.235-8.738,3.091-1.533,6.06.56,8.835.56-2.458-1.436-4.624-3.407-7.91-2.629" transform="translate(308.817 455.941)" fill="#e4e4e4"/>
      <path id="Path_32" data-name="Path 32" d="M21.024,20.141c-4.722.219-.633,5.135-4.016,6.766-1.436.755-2.872-.122-5.866,1.314,2.58,1.728,5.866,1.412,8.64.316,2.069-1.533,4.843-3.067,4.43-6.328-.608-1.1-1.533-2.726-3.188-2.069" transform="translate(260.063 466.537)" fill="#e4e4e4"/>
      <path id="Path_33" data-name="Path 33" d="M12.687,23.506c3.286.1,5.549-2.945,6.888-5.793l-2.994,2.945c-1.022,1.752-4.211.657-3.894,2.848" transform="translate(295.586 413.4)" fill="#e4e4e4"/>
      <path id="Path_34" data-name="Path 34" d="M12.738,22.723c2.142-.219,2.75-2.507,4.624-3.6,2.361-.56,3.894,2.726,5.963,1.533l-2.775-2.848c-3.5-2.166-5.549,2.848-7.813,4.916" transform="translate(297.288 403.158)" fill="#e4e4e4"/>
      <path id="Path_35" data-name="Path 35" d="M19.906,22.052c-.511-1.533.1-4.138-1.558-4.478,1.339,4.6-1.728,8.3-4.405,11.025,2.458-1.193,3.48-5.233,6.888-4.478,2.264-1.193-.827-.876-.925-2.069" transform="translate(325.411 410.156)" fill="#e4e4e4"/>
      <path id="Path_36" data-name="Path 36" d="M13.892,29.979l2.263-.316c2.263-.316,3.383-2.945,3.894-4.916a4.023,4.023,0,0,0-1.436-4.795c-1.752,2.19,1.047,3.7.511,6.109-1.12,2.19-3.383,2.848-5.233,3.919" transform="translate(324.221 465.632)" fill="#e4e4e4"/>
      <path id="Path_37" data-name="Path 37" d="M28.024,30.891c-4.016.219-8.543.1-11.634-2.848-1.655-3.261,2.263-5.135,1.047-8.178a11.774,11.774,0,0,0-2.483,4.259c-.414,1.947-.414,4.478,1.022,5.987,3.188,3.6,8.957,2.848,12.048.779" transform="translate(343.433 463.648)" fill="#e4e4e4"/>
      <path id="Path_38" data-name="Path 38" d="M26.663,23.49a3.991,3.991,0,0,0-.925-2.848L24.5,19.888c-4.332-1.655-7.521,2.166-9.882,4.892,2.872.219,4.332-3.48,7.107-3.6a5.208,5.208,0,0,1,4.941,2.312" transform="translate(341.094 454.791)" fill="#e4e4e4"/>
      <path id="Path_39" data-name="Path 39" d="M12.959,16.951l-.316,18.011c.73,4.138-1.533,7.74,1.022,10.806.316-8.957-.511-17.694.949-27.843,14.7-.219,29.523,1.533,44.029,1.631.949.243,2.677-1.509,3.724.243l.925,26.188c.73-9.614-.1-18.789-.219-27.722-16.161-.657-32.833-.876-50.113-1.314" transform="translate(289.643 395.616)" fill="#e4e4e4"/>
      <path id="Path_40" data-name="Path 40" d="M12.754,58.478l72.87-2.629Q52.584,56,18.206,57.48a4.282,4.282,0,0,1-2.969-2.629c-1.144-10.782-.828-19.3-.219-31.738C26.749,21.678,40.549,21.9,52.085,21.58c10.49.219,23.146-1.533,34.585-.56l.195-1.85c-24.9-.1-48.264,1.217-73.795,1.85-.1,12.559.292,25.434-.316,37.457" transform="translate(297.661 447.306)" fill="#e4e4e4"/>
    </g>
  </g>
</svg>
