<svg width="14" height="14" viewBox="0 0 14 14" fill="none" xmlns="http://www.w3.org/2000/svg">
<path fill-rule="evenodd" clip-rule="evenodd" d="M13.0928 0.364273C12.6135 -0.115007 11.8364 -0.115008 11.3572 0.364272L6.72843 4.99301L2.09978 0.364358C1.6205 -0.114922 0.843437 -0.114922 0.364158 0.364358C-0.115122 0.843638 -0.115123 1.6207 0.364156 2.09998L4.9928 6.72863L0.364866 11.3566C-0.114413 11.8358 -0.114413 12.6129 0.364867 13.0922C0.844147 13.5715 1.62121 13.5715 2.10049 13.0922L6.72843 8.46426L11.3565 13.0923C11.8357 13.5716 12.6128 13.5716 13.0921 13.0923C13.5714 12.613 13.5714 11.8359 13.0921 11.3567L8.46406 6.72863L13.0928 2.0999C13.5721 1.62062 13.5721 0.843553 13.0928 0.364273Z" fill="#4D4D4D" style="mix-blend-mode:color-burn"/>
<path fill-rule="evenodd" clip-rule="evenodd" d="M13.0928 0.364273C12.6135 -0.115007 11.8364 -0.115008 11.3572 0.364272L6.72843 4.99301L2.09978 0.364358C1.6205 -0.114922 0.843437 -0.114922 0.364158 0.364358C-0.115122 0.843638 -0.115123 1.6207 0.364156 2.09998L4.9928 6.72863L0.364866 11.3566C-0.114413 11.8358 -0.114413 12.6129 0.364867 13.0922C0.844147 13.5715 1.62121 13.5715 2.10049 13.0922L6.72843 8.46426L11.3565 13.0923C11.8357 13.5716 12.6128 13.5716 13.0921 13.0923C13.5714 12.613 13.5714 11.8359 13.0921 11.3567L8.46406 6.72863L13.0928 2.0999C13.5721 1.62062 13.5721 0.843553 13.0928 0.364273Z" fill="black"/>
</svg>
