<svg id="Group_14197" data-name="Group 14197" xmlns="http://www.w3.org/2000/svg" xmlns:xlink="http://www.w3.org/1999/xlink" width="159.39" height="111.871" viewBox="0 0 159.39 111.871">
  <defs>
    <clipPath id="clip-path">
      <rect id="Rectangle_310" data-name="Rectangle 310" width="159.39" height="111.87" fill="none"/>
    </clipPath>
  </defs>
  <g id="Group_14196" data-name="Group 14196" clip-path="url(#clip-path)">
    <path id="Path_9213" data-name="Path 9213" d="M221.539,43.63a43.629,43.629,0,0,1,87.259,0" transform="translate(-152.759 -0.001)" fill="#2e552d"/>
    <path id="Path_9214" data-name="Path 9214" d="M5.482,190.92l16.659.057c-.114-3.994-.285-6.047-.456-8.558-.4-5.363-1.312-6.561-5.078-6.561-2.453,0-5.306.057-6.789.057a14.041,14.041,0,0,1-4.279-.571v-9.128H9.875l.342.627c.457,1.084.8,1.255,2.054,1.255l5.306-.114c7.645-.171,9.7,1.94,9.984,9.7.114,2.339.114,3.081.114,9.185,0,1.084,0,2.624-.114,4.107h4.165a38.655,38.655,0,0,1-.8,7.645H4.227Zm30.924-19.91.114-4.792h4.45l.342.627c.456,1.084.8,1.255,2.054,1.255l9.47-.057c8.843-.057,10.782,1.712,11.41,10.326.114,1.711.171,3.994.171,7.474,0,3.936-.057,7.531-.285,12.95l-4.051.456H58.313c-.114-6.96-.228-10.84-.513-16.6-.342-5.591-1.2-6.732-5.135-6.789-2.054,0-5.591.057-10.1.114l.742,22.82-5.192.513H36.463c-.114-3.594-.171-17.515-.057-28.3m50.207,11.353c-.342-5.42-1.312-6.561-5.762-6.561-1.483,0-5.077.114-7.873.114a14.882,14.882,0,0,1-4.051-.514v-9.185h4.393l.285.627c.514,1.084.856,1.255,2.111,1.255l6.675-.114c8.329-.114,10.269,1.769,10.725,10.954.228,3.708.171,9.7-.114,19.854l-4.222.4H87.069c-.171-10.44-.228-12.551-.456-16.83m12.211,15.917a182.364,182.364,0,0,1,5.99-22.763c-2.453-.456-4.336-.8-6.39-1.255v-7.017l1.769-.342c2.4.342,4.621.685,7.3,1.141,3.48-.057,7.074-.171,10.383-.171,6.732,0,9.185,1.883,9.927,7.417a85.111,85.111,0,0,1,.4,9.3,99.793,99.793,0,0,1-.8,13.008,13.763,13.763,0,0,1-3.994,1.426,14.838,14.838,0,0,1-3.252.228,34.147,34.147,0,0,1-7.987-.913l1.426-7.131,8.786.8a109.8,109.8,0,0,0-.571-11.068c-.57-4.45-1.6-5.477-5.534-5.42h-5.591l-5.077,23.79-6.732.057Zm56.825-15.917c-.285-5.42-1.312-6.561-5.7-6.561-4.222,0-7.417.114-12.095.114a12.3,12.3,0,0,1-3.994-.571v-9.128h4.393l.285.627c.514,1.084.8,1.255,2.054,1.255l10.84-.114c8.329-.114,10.383,1.769,10.783,10.954.171,3.708.114,9.7-.171,19.854l-4.222.4h-1.654c-.171-10.44-.285-12.551-.514-16.83M134.71,196.91a121.946,121.946,0,0,1,.627-13.122l6.675-.856.171,16.031-6.047.228h-1.369Z" transform="translate(-2.915 -114.612)" fill="#0d214e"/>
    <path id="Path_9215" data-name="Path 9215" d="M227.747,307.433H222.4v-4.752h1.578v3.356h5.5v1.288l-3.355,8.126h-1.687Zm4.843,0h-1.124v-1.4H234.2v9.414H232.59Zm11.555,0h-7.038v-1.4h8.742v1.324l-2.993,8.09H241.17Zm-6.856,3.029h1.6v7.382h-1.6Zm15.853-3.029h-5.351v-4.752h1.578v3.356h5.5v1.288l-3.356,8.126h-1.687Zm7.528,7.962v-1.324a3.334,3.334,0,0,0,.835.109c.78,0,1.342-.254,1.342-1.523v-5.224h-2.177v-1.4h6.82a2.937,2.937,0,0,1,2.739,1.415,4.231,4.231,0,0,1,.417,2.086v5.913h-1.6v-5.859c0-1.342-.526-2.158-1.85-2.158h-2.775V312.8c0,2.249-1.251,2.757-2.648,2.757a3.385,3.385,0,0,1-1.107-.163m13.514-7.962h-1.125v-1.4H275.8v6.022h-1.614Zm4.027,6.62h5.024v-4.462c0-1.342-.544-2.158-1.868-2.158H278.3v-1.4h3.374a2.851,2.851,0,0,1,2.83,1.632,4.575,4.575,0,0,1,.327,1.886v4.5h1.487v1.4H278.21Zm14.094-3.791v-4.226h1.505V310.1a5.853,5.853,0,0,0,.127,1.288c2.013-.29,2.884-1.161,2.884-3.283v-2.068h1.487v2.195c0,2.5-1.2,3.791-3.936,4.335a3.346,3.346,0,0,0,3.1,1.777c2.3,0,3.845-1.759,3.845-4.462v-3.845h1.505v3.954c0,3.392-2.158,5.713-5.387,5.713-3.029,0-5.133-2.05-5.133-5.442m14.058-2.83h-1.125v-1.4h2.739v6.022h-1.614Z" transform="translate(-153.35 -208.709)" fill="#0d214e"/>
    <path id="Path_9216" data-name="Path 9216" d="M64.254,307.685c-6.8,10.26-18.924,16.345-32.75,16.345A38.484,38.484,0,0,1,0,307.688Z" transform="translate(0 -212.159)" fill="#0d214e"/>
  </g>
</svg>
