<svg id="Group_14215" data-name="Group 14215" xmlns="http://www.w3.org/2000/svg" xmlns:xlink="http://www.w3.org/1999/xlink" width="180.745" height="97.214" viewBox="0 0 180.745 97.214">
  <defs>
    <clipPath id="clip-path">
      <rect id="Rectangle_318" data-name="Rectangle 318" width="180.744" height="97.214" fill="none"/>
    </clipPath>
  </defs>
  <g id="Group_14214" data-name="Group 14214" clip-path="url(#clip-path)">
    <path id="Path_9253" data-name="Path 9253" d="M306.808,28.585q0-9.067.148-14.448l.1-3.833h3.981l.246.59c.393.885.639,1.032,1.769,1.032l8.551-.049c8.305-.049,9.681,1.818,9.681,13.122,0,4.619-.148,9.436-.442,13.269H306.906c-.1-.934-.1-2.457-.1-9.681m19.314,2.9c-.049-3.293-.1-5.013-.295-7.027-.442-4.915-1.13-5.8-4.521-5.848-2.31-.049-6.192.049-9.288.1l.393,12.777Zm18.529-8.846c-.049-3-.393-3.538-2.31-4.079-2.064-.541-3.391-.836-5.062-1.229V10.894l1.917-.344a57.828,57.828,0,0,1,6.88,1.573c3.293.884,4.275,2.408,4.177,6.143a75.991,75.991,0,0,1-1.327,10.763l-4.374.59c.049-2.26.148-4.816.1-6.978M375.956,36.4a12.581,12.581,0,0,1-2.457,2.113,36.483,36.483,0,0,1-6.29.393c-5.062,0-10.173-.442-11.893-.983L356.4,31.78c2.654.3,5.16.492,7.568.688-1.966-5.7-5.5-14.792-7.077-17.839a27.082,27.082,0,0,1,4.669-3.686h1.278c1.474,2.31,4.963,14.1,6.438,21.721h3.194l.442-.639a75.548,75.548,0,0,0,.688-12.532l-.1-3.194-.246-4.177,4.816-1.032h2.015l.2,3.047c.2,8.4-1.72,18.232-4.325,22.262m9.388,1.524,1.278-6.192,8.8.885c.049-1.376,0-2.506-.049-3.882-.049-2.7-.2-5.406-.393-6.88-.295-2.408-.786-3-3.1-3.44l-4.472-.934-.148-6.192,2.162-.344a48.738,48.738,0,0,1,5.6.983c4.03.885,5.013,2.113,5.307,6.241q.147,2.359.148,5.75a69.779,69.779,0,0,1-.983,13.416,13.026,13.026,0,0,1-3.735,1.278c-.492.049-1.229.1-2.31.1a44.479,44.479,0,0,1-8.109-.786" transform="translate(-220.423 -7.403)" fill="#002e5a"/>
    <path id="Path_9254" data-name="Path 9254" d="M316.808,155.2c-.3-4.669-1.13-5.652-4.964-5.652-1.278,0-4.374.1-6.782.1a12.825,12.825,0,0,1-3.489-.442v-7.912h3.784l.246.541c.442.934.737,1.081,1.818,1.081l5.75-.1c7.175-.1,8.846,1.523,9.239,9.436.2,3.194.148,8.354-.1,17.1l-3.637.344H317.2c-.148-8.993-.2-10.812-.393-14.5m10.616,7.371,14.35.049c-.1-3.44-.246-5.209-.393-7.372-.344-4.62-1.13-5.651-4.374-5.651-2.113,0-4.57.049-5.848.049a12.1,12.1,0,0,1-3.686-.492v-7.863h3.735l.295.541c.393.934.688,1.081,1.769,1.081l4.57-.1c6.585-.147,8.354,1.671,8.6,8.354.1,2.015.1,2.654.1,7.912,0,.934,0,2.26-.1,3.538h3.587a33.3,33.3,0,0,1-.688,6.585h-23ZM364.676,149.5c-4.374.148-6.634.148-10.222.148a13.993,13.993,0,0,1-3.44-.442v-7.912h3.735l.295.541c.393.934.688,1.081,1.769,1.081l17.888-.049-1.229,6.241a21.037,21.037,0,0,1-3.882.688c.393,9.829.639,15.235.639,19.51l-4.374.393h-1.228Zm20.1,17.249c5.357-9.534,7.47-14.1,7.47-15.775a1.143,1.143,0,0,0-1.278-1.278c-1.474,0-3.784.049-5.946.049-2.85,0-4.767-.1-5.111-.442a9.349,9.349,0,0,1-1.867-4.472,43.953,43.953,0,0,1-.492-8.109c0-1.573,0-2.211.049-2.9a21.724,21.724,0,0,1,6-.688c-.393,4.03-.541,6.487-.639,9.632a15.486,15.486,0,0,0,2.7.1h6.29c3.686,0,5.455,1.769,5.455,5.455,0,4.767-2.8,13.072-7.126,21.034h-5.5Z" transform="translate(-216.662 -95.634)" fill="#002e5a"/>
    <path id="Path_9255" data-name="Path 9255" d="M320.454,317.766h4.1a2.353,2.353,0,0,1,2.2,1.15,3.313,3.313,0,0,1,.369,1.711v4.794h-6.667Zm5.369,6.52v-3.629c0-1.092-.443-1.755-1.519-1.755h-2.552v5.384ZM330,318.9h-.915v-1.136h2.227v4.9H330Zm7.332,1.755c0-1.092-.443-1.755-1.519-1.755h-2.758v-1.136h3.009a2.378,2.378,0,0,1,2.213,1.15,3.506,3.506,0,0,1,.339,1.711v4.794h-1.283Zm4.117-1.755h-.915v-1.136h2.227v7.656H341.45Zm3.379,5.384h4.086v-3.629c0-1.092-.443-1.755-1.519-1.755H344.9v-1.136h2.744a2.318,2.318,0,0,1,2.3,1.328,3.723,3.723,0,0,1,.266,1.534v3.658h1.21v1.136h-6.594Zm8.292-5.384h-.915v-1.136h2.227v4.9h-1.313Zm3.718-1.136h4.071a2.354,2.354,0,0,1,2.2,1.15,3.314,3.314,0,0,1,.369,1.711v4.794h-1.3v-4.765c0-1.092-.457-1.755-1.519-1.755h-2.522v6.52h-1.3ZM371,320.657c0-1.092-.457-1.755-1.519-1.755h-3.643v-1.136h3.894a2.377,2.377,0,0,1,2.212,1.15,3.485,3.485,0,0,1,.354,1.711v4.794H371Zm-5.163.708h1.3v4.056h-1.3Zm11.775,4.012V324.3a2.709,2.709,0,0,0,.678.088c.634,0,1.092-.206,1.092-1.239V318.9h-1.77v-1.136h5.546a2.388,2.388,0,0,1,2.227,1.15,3.439,3.439,0,0,1,.339,1.7v4.809h-1.3v-4.765c0-1.092-.428-1.755-1.5-1.755h-2.257v4.366c0,1.829-1.018,2.242-2.154,2.242a2.749,2.749,0,0,1-.9-.133m13.47-6.475h-3.879v-1.136h6.815V318.9h-1.637v6.52h-1.3Zm5.15,0h-.915v-1.136h2.227v4.9h-1.313Zm4.235,0h-.914v-1.136h2.227v4.9H400.47Zm3.2,5.472h1.077a.954.954,0,0,0,1.062-1.092V318.9h-1.888v-1.136h3.171v5.31a2.872,2.872,0,0,1-.457,1.741,2.02,2.02,0,0,1-1.711.693h-1.254Z" transform="translate(-230.227 -228.296)" fill="#004a88"/>
    <path id="Path_9256" data-name="Path 9256" d="M147.238,18.707l-.193,35.819a36.779,36.779,0,0,0,32.237,19.052V0a36.775,36.775,0,0,0-32.044,18.707" transform="translate(-105.643)" fill="#004a88"/>
    <path id="Path_9257" data-name="Path 9257" d="M81.072,30.557l.076-14.063a32.823,32.823,0,0,0-26.2,32.145c0,16.432,10.089,30.042,25.851,32.438l.079-14.7a36.826,36.826,0,0,1,.193-35.819" transform="translate(-39.478 -11.85)" fill="#95cab2"/>
    <path id="Path_9258" data-name="Path 9258" d="M130.876,84.523a36.62,36.62,0,0,0,4.553,17.737l.193-35.819a36.621,36.621,0,0,0-4.745,18.082" transform="translate(-94.027 -47.734)" fill="#004a68"/>
    <path id="Path_9259" data-name="Path 9259" d="M13.919,90.1C5.181,84.307,0,73.981,0,62.206A32.771,32.771,0,0,1,13.916,35.377Z" transform="translate(0 -25.416)" fill="#fff"/>
  </g>
</svg>
