<svg xmlns="http://www.w3.org/2000/svg" width="19.766" height="14.773" viewBox="0 0 19.766 14.773">
  <path id="Path_7684" data-name="Path 7684" d="M18.335,4H3.431A2.357,2.357,0,0,0,1,6.271V16.5a2.357,2.357,0,0,0,2.431,2.271h14.9A2.357,2.357,0,0,0,20.766,16.5V6.271A2.357,2.357,0,0,0,18.335,4ZM3.431,5.231h14.9a1.079,1.079,0,0,1,1.113,1.04v.471l-8.565,5.144L2.318,6.742V6.271a1.079,1.079,0,0,1,1.113-1.04Zm14.9,12.311H3.431A1.079,1.079,0,0,1,2.318,16.5v-8.3l8.209,4.93a.7.7,0,0,0,.713,0l8.209-4.93v8.3a1.079,1.079,0,0,1-1.113,1.04Z" transform="translate(-1 -4)" fill="#173055"/>
</svg>
