<svg xmlns="http://www.w3.org/2000/svg" width="182.03" height="182.006" viewBox="0 0 182.03 182.006">
  <g id="play-button" transform="translate(0 -0.002)">
    <path id="Path_5" data-name="Path 5" d="M57.584,38.107,19.786,10.63a4.558,4.558,0,0,0-7.239,3.677V69.241a4.544,4.544,0,0,0,2.49,4.064,4.591,4.591,0,0,0,2.072.491,4.53,4.53,0,0,0,2.677-.884l37.8-27.452a4.522,4.522,0,0,0,0-7.354Z" transform="translate(63.455 49.34)" fill="#fff"/>
    <path id="Path_6" data-name="Path 6" d="M91.018,0A91,91,0,1,0,182.03,91.02,91.007,91.007,0,0,0,91.018,0Zm0,166.82a75.814,75.814,0,1,1,75.8-75.8A75.8,75.8,0,0,1,91.018,166.822Z" transform="translate(0 0)" fill="#fff"/>
  </g>
</svg>
