<svg id="Group_14195" data-name="Group 14195" xmlns="http://www.w3.org/2000/svg" xmlns:xlink="http://www.w3.org/1999/xlink" width="213.677" height="201.527" viewBox="0 0 213.677 201.527">
  <defs>
    <clipPath id="clip-path">
      <rect id="Rectangle_309" data-name="Rectangle 309" width="213.677" height="201.527" fill="none"/>
    </clipPath>
  </defs>
  <g id="Group_14194" data-name="Group 14194" clip-path="url(#clip-path)">
    <path id="Path_9190" data-name="Path 9190" d="M9.094,206.944H39.138c.37-4.811.555-10.858.555-16.657,0-14.189-1.728-16.533-12.154-16.472l-10.734.062c-1.419,0-1.727-.185-2.221-1.3l-.308-.74h-5l-.123,4.812q-.186,6.755-.186,18.137c0,9.069,0,10.982.124,12.153M16,198.431l-.493-16.04c3.886-.062,8.76-.186,11.659-.123,4.257.062,5.12,1.172,5.676,7.341.247,2.529.308,4.688.37,8.822Zm37.141-2.344,5.49-.74A95.4,95.4,0,0,0,60.3,181.836c.123-4.689-1.111-6.6-5.244-7.712a72.641,72.641,0,0,0-8.637-1.974l-2.406.432v8.081c2.1.494,3.763.864,6.354,1.542,2.406.679,2.838,1.357,2.9,5.121.062,2.714-.062,5.922-.123,8.76m27.022,11.659a72.754,72.754,0,0,0,8.39-.37A10.624,10.624,0,0,0,92.5,205.9a110.838,110.838,0,0,0,.617-12.276c0-3.579-.123-6.91-.308-9.624-.617-6.6-2.838-9.131-9.069-10.3-4.257-.741-6.6-1.111-9.748-1.42H71.1a73.169,73.169,0,0,0-4.5,13.881l.617,3.763c1.172,1.6,3.763,3.455,7.835,5.552l3.7-6.293-4.318-2.838c-1.111-.74-1.542-1.357-1.542-2.221a22.289,22.289,0,0,1,.8-3.393c2.282.37,4.689.74,7.958,1.481,3.208.741,4.257,2.1,4.812,6.108a97.751,97.751,0,0,1,.74,10.673v.925c-5.182,0-14.251-.431-21.716-1.11l-1.419,7.773c2.159.679,9.254,1.172,16.1,1.172m26.1-11.659,5.491-.74a95.392,95.392,0,0,0,1.665-13.511c.123-4.689-1.11-6.6-5.244-7.712a72.671,72.671,0,0,0-8.637-1.974l-2.406.432v8.081c2.1.494,3.763.864,6.354,1.542,2.406.679,2.838,1.357,2.9,5.121.062,2.714-.062,5.922-.123,8.76" transform="translate(-2.961 -56.72)" fill="#fff"/>
    <path id="Path_9191" data-name="Path 9191" d="M179.387,202.009h6.91c5.428-9.994,8.945-20.42,8.945-26.4,0-4.627-2.221-6.848-6.847-6.848h-7.9a19.449,19.449,0,0,1-3.393-.123c.123-3.948.308-7.033.8-12.092a27.317,27.317,0,0,0-7.527.864c-.062.864-.062,1.666-.062,3.64a55.223,55.223,0,0,0,.617,10.179,11.742,11.742,0,0,0,2.344,5.614c.432.431,2.838.555,6.416.555,2.715,0,5.614-.062,7.465-.062a1.434,1.434,0,0,1,1.6,1.6c0,2.1-2.653,7.835-9.377,19.8Zm22.272.555h1.789l5.613-.555-.8-24.676c4.874-.062,8.7-.124,10.92-.124,4.257.062,5.182,1.3,5.552,7.342.309,6.23.432,10.425.555,17.952H227.2l4.38-.494c.247-5.861.308-9.747.308-14,0-3.764-.062-6.231-.185-8.082-.679-9.315-2.776-11.228-12.338-11.166l-10.241.062c-1.357,0-1.727-.186-2.221-1.357l-.37-.679H201.72l-.123,5.182c-.123,11.659-.062,26.713.062,30.6" transform="translate(-56.217 -51.661)" fill="#fff"/>
    <path id="Path_9192" data-name="Path 9192" d="M271.377,208.049l7.279-.062,5.491-25.725h6.045c4.257-.062,5.367,1.048,5.984,5.861a118.923,118.923,0,0,1,.617,11.968l-9.5-.864-1.542,7.711a36.923,36.923,0,0,0,8.637.987,16,16,0,0,0,3.517-.247,14.872,14.872,0,0,0,4.318-1.542,107.8,107.8,0,0,0,.864-14.065,92.139,92.139,0,0,0-.432-10.056c-.8-5.984-3.455-8.02-10.734-8.02-3.578,0-7.465.123-11.228.185-2.9-.493-5.305-.864-7.9-1.233l-1.913.37v7.588c2.221.494,4.257.864,6.91,1.357a197.123,197.123,0,0,0-6.478,24.615Z" transform="translate(-89.41 -57.084)" fill="#fff"/>
    <path id="Path_9193" data-name="Path 9193" d="M167.55,277.914h1.789l4.566-.432c.308-10.981.37-17.459.185-21.469-.432-9.932-2.653-11.968-11.66-11.845l-11.722.123c-1.357,0-1.665-.185-2.221-1.357l-.309-.679h-4.75v9.871a13.3,13.3,0,0,0,4.318.617c5.059,0,8.513-.123,13.078-.123,4.751,0,5.861,1.234,6.169,7.095.247,4.627.37,6.91.555,18.2m-23.135,0H145.9l6.539-.247-.185-17.335-7.218.925a131.9,131.9,0,0,0-.679,14.189Zm42.446-.432h6.91c5.428-9.994,8.945-20.42,8.945-26.4,0-4.627-2.221-6.848-6.847-6.848h-7.9a19.451,19.451,0,0,1-3.393-.123c.123-3.949.308-7.033.8-12.092a27.291,27.291,0,0,0-7.527.864c-.062.864-.062,1.666-.062,3.64a55.229,55.229,0,0,0,.617,10.18,11.742,11.742,0,0,0,2.344,5.614c.432.431,2.838.555,6.416.555,2.715,0,5.614-.062,7.465-.062a1.435,1.435,0,0,1,1.6,1.6c0,2.1-2.653,7.835-9.377,19.8Z" transform="translate(-47.341 -76.572)" fill="#fff"/>
    <path id="Path_9194" data-name="Path 9194" d="M247.965,271.712l5.491-.74a95.506,95.506,0,0,0,1.666-13.511c.123-4.689-1.111-6.6-5.244-7.712a72.506,72.506,0,0,0-8.637-1.974l-2.406.432v8.081c2.1.494,3.763.863,6.354,1.542,2.406.679,2.838,1.357,2.9,5.12.062,2.715-.062,5.923-.124,8.761m12.833,11.6,7.279-.062,5.491-25.725h6.045c4.257-.062,5.368,1.048,5.984,5.861a118.933,118.933,0,0,1,.617,11.968l-9.5-.864-1.542,7.711a36.923,36.923,0,0,0,8.637.987,16,16,0,0,0,3.516-.247,14.872,14.872,0,0,0,4.318-1.542,107.8,107.8,0,0,0,.864-14.065,92.13,92.13,0,0,0-.432-10.056c-.8-5.984-3.455-8.02-10.734-8.02-3.578,0-7.465.123-11.228.185-2.9-.493-5.305-.864-7.9-1.233l-1.913.37v7.588c2.221.494,4.257.863,6.91,1.357a197.113,197.113,0,0,0-6.478,24.615Z" transform="translate(-78.832 -81.783)" fill="#fff"/>
    <path id="Path_9195" data-name="Path 9195" d="M3.366,265.424H4.82c.066-.458.115-.833.213-1.406.147-.833.18-2.092,1.667-2.615l2.975,4.021h1.684l-2.877-3.89c1.847-.474,2.239-1.586,2.566-3.318q.123-.662.2-1.276H9.757c-.049.344-.115.883-.18,1.308a2.424,2.424,0,0,1-1.732,2.419L5.1,256.941H3.4l2.648,3.6c-1.732.474-2.124,1.619-2.419,3.236-.114.621-.2,1.177-.261,1.651m10.87-3.056h1.455v-5.427H13.222V258.2h1.014Zm8.647,3.285c2.91,0,4.854-2.092,4.854-5.149v-3.563H26.38v3.466c0,2.435-1.389,4.021-3.465,4.021a3.014,3.014,0,0,1-2.795-1.6c2.468-.49,3.547-1.651,3.547-3.906v-1.978H22.326V258.8c0,1.913-.784,2.7-2.6,2.958a5.273,5.273,0,0,1-.115-1.16v-3.662H18.257v3.809c0,3.057,1.9,4.9,4.626,4.9" transform="translate(-1.111 -84.808)" fill="#fff"/>
    <path id="Path_9196" data-name="Path 9196" d="M42.208,265.419H43.6a2.238,2.238,0,0,0,1.9-.768A3.18,3.18,0,0,0,46,262.722v-5.885H42.486V258.1h2.092v4.854a1.057,1.057,0,0,1-1.177,1.21H42.208Zm12.145-.1h1.438v-5.313a3.86,3.86,0,0,0-.393-1.9,2.635,2.635,0,0,0-2.452-1.275H48.632V258.1h4.037c1.177,0,1.684.736,1.684,1.945Zm-5.721,0H50.07v-4.5H48.632Zm14.073.1c1.259,0,2.387-.458,2.387-2.484V258.1h2.5c1.193,0,1.667.736,1.667,1.945v5.28H70.7v-5.329a3.811,3.811,0,0,0-.376-1.88,2.646,2.646,0,0,0-2.468-1.275H61.708V258.1H63.67V262.8c0,1.144-.507,1.373-1.21,1.373a3,3,0,0,1-.752-.1v1.193a3.055,3.055,0,0,0,1,.147m15.022.147c2.55,0,3.906-1.9,3.906-4.659,0-2.778-1.438-4.282-3.579-4.282A3.416,3.416,0,0,0,75,258.292l-.817-1.455H72.611L74.2,259.8a45.883,45.883,0,0,0-.784,5.656h1.406l.163-1.667c.1-1,.278-2.305.458-3.155.36-1.57,1.03-2.779,2.5-2.779,1.389,0,2.288,1.127,2.288,3.236,0,2.01-.8,3.2-2.534,3.2a3.886,3.886,0,0,1-.915-.1v1.259a3.5,3.5,0,0,0,.948.115m7.5-.245h1.618c-.784-2.01-1.634-4.2-1.634-5.558,0-1.03.49-1.667,1.258-1.667h1.144v-1.259H83.121V258.1h1.618a3.1,3.1,0,0,0-.72,2.174,18.86,18.86,0,0,0,1.21,5.051m4.887,0h1.454v-8.483H89.1V258.1h1.014Z" transform="translate(-13.932 -84.704)" fill="#fff"/>
    <path id="Path_9197" data-name="Path 9197" d="M120.249,262.369H121.7v-5.426h-2.468V258.2h1.014Z" transform="translate(-39.356 -84.809)" fill="#fff"/>
    <path id="Path_9198" data-name="Path 9198" d="M1.014,290.574H2.468v-5.426H0v1.259H1.014Zm5.345,3.057h1.52l3.024-7.323v-1.16H5.95v-3.024H4.527v4.283H9.35Z" transform="translate(0 -93.12)" fill="#fff"/>
    <path id="Path_9199" data-name="Path 9199" d="M18.347,295.12H19.8c.065-.458.114-.833.212-1.405.147-.834.18-2.092,1.667-2.615l2.974,4.021H26.34l-2.877-3.89c1.847-.474,2.24-1.586,2.567-3.318q.123-.662.2-1.275H24.738c-.049.343-.115.883-.18,1.308a2.425,2.425,0,0,1-1.733,2.419l-2.746-3.727h-1.7l2.648,3.6c-1.733.474-2.125,1.618-2.419,3.236-.115.621-.2,1.176-.262,1.651m14.335,0H34.1v-5.313a3.881,3.881,0,0,0-.376-1.9,2.635,2.635,0,0,0-2.452-1.275H27.942V287.9H31c1.193,0,1.684.736,1.684,1.945Z" transform="translate(-6.056 -94.61)" fill="#fff"/>
    <path id="Path_9200" data-name="Path 9200" d="M49.91,295.349c2.91,0,4.854-2.092,4.854-5.148v-3.563H53.408V290.1c0,2.436-1.389,4.021-3.466,4.021a3.016,3.016,0,0,1-2.795-1.6c2.468-.49,3.547-1.651,3.547-3.906v-1.978H49.354V288.5c0,1.913-.784,2.7-2.6,2.958a5.273,5.273,0,0,1-.115-1.16v-3.661H45.284v3.809c0,3.056,1.9,4.9,4.626,4.9m7.878-3.285h1.454v-5.426H56.775V287.9h1.014Zm7.878,3.057h1.438V287.9H69.9c1.177,0,1.684.736,1.684,1.945v5.28h1.438v-5.313a3.666,3.666,0,0,0-.409-1.9,2.607,2.607,0,0,0-2.435-1.275H65.667Zm10.543-3.057h1.454v-5.426H75.2V287.9h1.014Z" transform="translate(-14.947 -94.61)" fill="#fff"/>
    <path id="Path_9201" data-name="Path 9201" d="M102.1,293.86c2.91,0,4.854-2.092,4.854-5.149v-3.563H105.6v3.466c0,2.435-1.389,4.021-3.466,4.021a3.016,3.016,0,0,1-2.795-1.6c2.468-.49,3.547-1.651,3.547-3.907v-1.978h-1.341v1.863c0,1.913-.784,2.7-2.6,2.959a5.28,5.28,0,0,1-.115-1.161v-3.661H97.472v3.809c0,3.057,1.9,4.9,4.626,4.9m8.581-.229h1.52l3.024-7.323v-1.16H110.27v-3.024h-1.422v4.283h4.822Z" transform="translate(-32.172 -93.12)" fill="#fff"/>
    <path id="Path_9202" data-name="Path 9202" d="M182.368,50.9a35.825,35.825,0,1,1-35.825-35.824A35.825,35.825,0,0,1,182.368,50.9" transform="translate(-36.545 -4.977)" fill="#0082b5"/>
    <path id="Path_9203" data-name="Path 9203" d="M127.024,91.851A45.912,45.912,0,0,1,86.782,68.072l.241-44.725A45.909,45.909,0,0,1,127.024,0V12.027a35.839,35.839,0,0,0,0,67.8Z" transform="translate(-28.644)" fill="#00538d"/>
    <path id="Path_9204" data-name="Path 9204" d="M134.925,85.749a35.839,35.839,0,0,1,0-67.8Z" transform="translate(-36.545 -5.926)" fill="#072c5c"/>
    <path id="Path_9205" data-name="Path 9205" d="M70.734,89.275C51.058,86.284,38.463,69.294,38.463,48.781A40.975,40.975,0,0,1,71.168,8.653L71.074,26.2a45.988,45.988,0,0,0-.241,44.725Z" transform="translate(-12.695 -2.856)" fill="#81c8d3"/>
    <path id="Path_9206" data-name="Path 9206" d="M83.982,79.576a45.988,45.988,0,0,1,.241-44.725Z" transform="translate(-25.844 -11.503)" fill="#004072"/>
    <path id="Path_9207" data-name="Path 9207" d="M27.009,86.869C16.1,79.643,9.633,66.751,9.633,52.052A40.91,40.91,0,0,1,27.006,18.561Z" transform="translate(-3.18 -6.126)" fill="#91cfda"/>
    <path id="Path_9208" data-name="Path 9208" d="M181.537,91.851V79.824a35.839,35.839,0,0,0,0-67.8V0a45.912,45.912,0,0,1,40.242,23.778L221.539,68.5a45.909,45.909,0,0,1-40,23.347" transform="translate(-59.92)" fill="#ffb700"/>
    <path id="Path_9209" data-name="Path 9209" d="M181.537,85.749v-67.8a35.839,35.839,0,0,1,0,67.8" transform="translate(-59.92 -5.926)" fill="#1e5d24"/>
    <path id="Path_9210" data-name="Path 9210" d="M241.106,88.73l.094-17.55a45.99,45.99,0,0,0,.241-44.726l.1-18.345C261.217,11.1,273.811,28.09,273.811,48.6A40.974,40.974,0,0,1,241.106,88.73" transform="translate(-79.581 -2.677)" fill="#ec6500"/>
    <path id="Path_9211" data-name="Path 9211" d="M241.247,80.219l.24-44.726a45.99,45.99,0,0,1-.24,44.726" transform="translate(-79.628 -11.715)" fill="#e34000"/>
    <path id="Path_9212" data-name="Path 9212" d="M292.818,16.582C303.725,23.809,310.194,36.7,310.194,51.4A40.911,40.911,0,0,1,292.821,84.89Z" transform="translate(-96.65 -5.473)" fill="#c31e18"/>
  </g>
</svg>
