<svg id="Group_14199" data-name="Group 14199" xmlns="http://www.w3.org/2000/svg" xmlns:xlink="http://www.w3.org/1999/xlink" width="241.901" height="111.87" viewBox="0 0 241.901 111.87">
  <defs>
    <clipPath id="clip-path">
      <rect id="Rectangle_311" data-name="Rectangle 311" width="241.901" height="111.87" fill="none"/>
    </clipPath>
  </defs>
  <g id="Group_14198" data-name="Group 14198" clip-path="url(#clip-path)">
    <path id="Path_9217" data-name="Path 9217" d="M.075,56.817H18.159c.223-2.9.334-6.535.334-10.026,0-8.541-1.04-9.952-7.316-9.915l-6.462.037c-.853,0-1.039-.111-1.336-.78l-.186-.445H.186l-.075,2.9Q0,42.651,0,49.5c0,5.459,0,6.61.075,7.315m4.158-5.124-.3-9.656c2.34-.037,5.273-.111,7.019-.074,2.562.036,3.082.7,3.416,4.419.148,1.523.186,2.822.223,5.311ZM39.96,38.584l-.148-2.3H38.289l-3.639.78.186,3.157.075,2.413a57.106,57.106,0,0,1-.52,9.47l-.334.483H31.642c-1.115-5.756-3.751-14.668-4.865-16.413h-.965a20.425,20.425,0,0,0-3.528,2.785c1.189,2.3,3.863,9.172,5.348,13.48-1.82-.148-3.714-.3-5.719-.52l-.818,4.642a42.279,42.279,0,0,0,8.987.743,27.542,27.542,0,0,0,4.753-.3,9.455,9.455,0,0,0,1.857-1.6c1.968-3.046,3.416-10.472,3.268-16.822M58.234,57.151H59.31l2.749-.259c.185-6.61.222-10.509.111-12.923-.261-5.978-1.6-7.2-7.019-7.129l-7.055.074c-.817,0-1-.111-1.337-.817l-.186-.408H43.714V41.63a8.011,8.011,0,0,0,2.6.371c3.046,0,5.125-.074,7.872-.074,2.86,0,3.528.742,3.714,4.27.148,2.785.222,4.159.334,10.954m-13.926,0H45.2L49.135,57l-.111-10.434-4.345.556a79.377,79.377,0,0,0-.409,8.541Zm33.648-.259h4.159C85.382,50.875,87.5,44.6,87.5,41c0-2.785-1.337-4.122-4.122-4.122H78.624a11.8,11.8,0,0,1-2.043-.074c.075-2.377.186-4.233.483-7.279a16.386,16.386,0,0,0-4.53.52c-.037.52-.037,1-.037,2.191a33.143,33.143,0,0,0,.372,6.126,7.065,7.065,0,0,0,1.411,3.38c.261.259,1.709.334,3.863.334,1.634,0,3.379-.037,4.494-.037A.863.863,0,0,1,83.6,43c0,1.263-1.6,4.717-5.645,11.921Z" transform="translate(0 2.003)" fill="#81c8d3"/>
    <path id="Path_9218" data-name="Path 9218" d="M89.824,56.833h1.189l2.563-.372c.148-2.043.3-9.841.222-14.706-.036-3.491-.52-4.2-3.305-5.125a22.922,22.922,0,0,0-4.27-1.04l-1.745.261.074,4.828,2.9.78c1.82.483,2.079.928,2.117,3.305Zm18.532-.595a21.2,21.2,0,0,0,3.082,0c2.785-6.462,4.2-11.623,4.2-15.225.074-3.12-1.523-4.568-4.791-4.568l-8.653.075c-.817,0-1-.111-1.337-.817l-.185-.409h-2.9V41.31a9.678,9.678,0,0,0,2.637.372c2.6,0,6.2-.075,10.175-.075.818,0,1.226.334,1.226,1.04,0,1.225-1.151,4.493-3.454,9.878Zm-9.729,5.645h1.226l3.454-.409L102.9,45.8l-4.233.556c-.186,9.506-.223,12.775-.037,15.523" transform="translate(5.734 2.396)" fill="#81c8d3"/>
    <path id="Path_9219" data-name="Path 9219" d="M2.733,72.372h1.64V66.253H1.59v1.419H2.733Zm9.6,3.723c2.875,0,4.405-2.138,4.405-5.253,0-3.132-1.622-4.828-4.037-4.828a3.851,3.851,0,0,0-3.446,1.879l-.922-1.64H6.566l1.788,3.336a51.834,51.834,0,0,0-.884,6.376H9.054l.185-1.879c.11-1.124.313-2.6.516-3.557.406-1.769,1.161-3.133,2.819-3.133,1.567,0,2.58,1.272,2.58,3.649,0,2.267-.9,3.613-2.857,3.613a4.345,4.345,0,0,1-1.032-.111v1.419a3.964,3.964,0,0,0,1.069.129m7.982-.277h1.714l3.41-8.256V66.253H19.857V62.844h-1.6v4.828H23.69Z" transform="translate(0.108 4.266)" fill="#fff"/>
    <path id="Path_9220" data-name="Path 9220" d="M26.881,75.6h1.64V66.036H25.739v1.419h1.142Zm4.332,0h1.935c3.5,0,5.16-.774,5.824-3.944A20.2,20.2,0,0,0,39.3,68.6c.037-.866.056-1.768.056-2.562h-1.64v.719a29.567,29.567,0,0,1-.295,4.258c-.277,1.714-.682,2.506-1.548,2.857l-3.1-7.833H31.01l3.244,8.128c-.424.018-.922.018-1.493.018H31.213Zm15.8-3.446h1.64V66.036H45.867v1.419H47.01Z" transform="translate(1.747 4.483)" fill="#fff"/>
    <path id="Path_9221" data-name="Path 9221" d="M54.078,75.6H55.7V67.455h2.046V66.036H49.231v1.419h4.847Zm6.47,0h1.64V66.036H59.406v1.419h1.143Zm11.224,0H73.4v-5.99a4.35,4.35,0,0,0-.442-2.137,2.97,2.97,0,0,0-2.765-1.438H65.323v1.419h4.552c1.326,0,1.9.83,1.9,2.193Zm-6.45,0h1.622V70.533H65.323Zm11.669-3.446h1.639V66.036H75.849v1.419h1.143ZM85.876,75.6H87.5V67.455h3.151c1.327,0,1.9.83,1.9,2.193V75.6H94.17v-5.99a4.137,4.137,0,0,0-.461-2.137,2.939,2.939,0,0,0-2.746-1.438H85.876Zm11.889-3.446h1.64V66.036H96.622v1.419h1.143Z" transform="translate(3.342 4.483)" fill="#fff"/>
    <path id="Path_9222" data-name="Path 9222" d="M103.987,75.858c3.281,0,5.474-2.359,5.474-5.805V66.036h-1.53v3.906c0,2.747-1.567,4.534-3.906,4.534a3.4,3.4,0,0,1-3.152-1.807c2.783-.552,4-1.861,4-4.4v-2.23H103.36v2.1c0,2.156-.884,3.041-2.93,3.336a5.971,5.971,0,0,1-.129-1.309V66.036H98.771V70.33c0,3.446,2.138,5.528,5.216,5.528" transform="translate(6.705 4.483)" fill="#fff"/>
    <path id="Path_9223" data-name="Path 9223" d="M139.056,70.806c-4.757-4.052-7.521-10.341-7.521-17.4a22.064,22.064,0,0,1,6.934-16.087,19.641,19.641,0,0,0,3.911,11.707l6.766-6.695-.117,21.84-6.343-6.413a22.094,22.094,0,0,0-3.629,13.051" transform="translate(8.929 2.533)" fill="#81c8d3"/>
    <path id="Path_9224" data-name="Path 9224" d="M161.094,90.92a22.887,22.887,0,0,1-16.053-7.05A22.048,22.048,0,0,1,138.578,69.1a19.7,19.7,0,0,0,9.912,4.471l.06-11.109,16.942,17.126-10.61-.058a22.094,22.094,0,0,0,6.237,11.391Z" transform="translate(9.407 4.24)" fill="#81c8d3"/>
    <path id="Path_9225" data-name="Path 9225" d="M148.491,73.978a19.7,19.7,0,0,1-9.912-4.471,22.1,22.1,0,0,1,3.629-13.05l6.343,6.412Z" transform="translate(9.406 3.832)" fill="#339aaa"/>
    <path id="Path_9226" data-name="Path 9226" d="M175.125,96.108a22.052,22.052,0,0,1-15.439-6.277,19.632,19.632,0,0,0,11.717-3.91L164.059,78.5l23.147.125-7.069,6.994a22.062,22.062,0,0,0,11.794,3.641,22.747,22.747,0,0,1-16.805,6.85" transform="translate(10.84 5.328)" fill="#81c8d3"/>
    <path id="Path_9227" data-name="Path 9227" d="M160.084,89.835a22.088,22.088,0,0,1-6.239-11.391l10.612.058,7.344,7.424a19.632,19.632,0,0,1-11.717,3.91" transform="translate(10.443 5.325)" fill="#339aaa"/>
    <path id="Path_9228" data-name="Path 9228" d="M190.563,90.248c-.127,0-.254,0-.381,0a19.641,19.641,0,0,0,5.069-10.583l-9.794-.052,15.8-15.635-.05,9.3a22.1,22.1,0,0,0,12-6.893,22.611,22.611,0,0,1-7.005,17.39,22.06,22.06,0,0,1-15.647,6.481" transform="translate(12.589 4.343)" fill="#81c8d3"/>
    <path id="Path_9229" data-name="Path 9229" d="M190.631,89.251a22.063,22.063,0,0,1-11.794-3.643l7.069-6.994,9.794.053a19.645,19.645,0,0,1-5.069,10.583" transform="translate(12.14 5.336)" fill="#339aaa"/>
    <path id="Path_9230" data-name="Path 9230" d="M131.151,72.338c-5.893-3.9-9.387-10.868-9.387-18.809a22.1,22.1,0,0,1,9.385-18.091Z" transform="translate(8.265 2.406)" fill="#91cfda"/>
    <path id="Path_9231" data-name="Path 9231" d="M158.07,97.314c-6.926,1.407-14.321-1.047-19.936-6.663a22.1,22.1,0,0,1-6.157-19.428Z" transform="translate(8.937 4.835)" fill="#91cfda"/>
    <path id="Path_9232" data-name="Path 9232" d="M194.1,95.969c-3.9,5.893-10.868,9.387-18.809,9.387A22.1,22.1,0,0,1,157.2,95.972Z" transform="translate(10.671 6.514)" fill="#91cfda"/>
    <path id="Path_9233" data-name="Path 9233" d="M219.7,70.748c1.406,6.926-1.048,14.321-6.663,19.936a22.1,22.1,0,0,1-19.428,6.157Z" transform="translate(13.142 4.802)" fill="#91cfda"/>
    <path id="Path_9234" data-name="Path 9234" d="M212.21,68.192a19.708,19.708,0,0,0-3.865-10.405l-8.089,8,.131-24.47,7.652,7.735a22.075,22.075,0,0,0,3.643-11.806,22.936,22.936,0,0,1,6.191,16.16,22.047,22.047,0,0,1-5.663,14.785" transform="translate(13.594 2.528)" fill="#ec6500"/>
    <path id="Path_9235" data-name="Path 9235" d="M200.209,73.779l.05-9.3,8.089-8a19.69,19.69,0,0,1,3.865,10.4,22.1,22.1,0,0,1-12,6.893" transform="translate(13.59 3.834)" fill="#785b14"/>
    <path id="Path_9236" data-name="Path 9236" d="M201.373,42.785l-15.627-15.8,9.288.05a22.083,22.083,0,0,0-6.195-11.348c.432-.029.864-.043,1.3-.043a22.882,22.882,0,0,1,16.051,7.05,22.062,22.062,0,0,1,6.479,16.015A19.632,19.632,0,0,0,201.425,33Z" transform="translate(12.609 1.062)" fill="#ec6500"/>
    <path id="Path_9237" data-name="Path 9237" d="M208.031,49.417l-7.652-7.735.052-9.786a19.625,19.625,0,0,1,11.243,5.714,22.066,22.066,0,0,1-3.643,11.806" transform="translate(13.602 2.165)" fill="#dd1f0a"/>
    <path id="Path_9238" data-name="Path 9238" d="M187.6,27.388l-23.162-.125,7.077-7a22.078,22.078,0,0,0-12.174-3.646c-.317,0-.634.007-.95.02a22.743,22.743,0,0,1,16.82-6.866A22.054,22.054,0,0,1,190.7,16.09a19.691,19.691,0,0,0-10.445,3.867Z" transform="translate(10.752 0.663)" fill="#ec6500"/>
    <path id="Path_9239" data-name="Path 9239" d="M195.5,27.035l-9.288-.049-7.351-7.431a19.691,19.691,0,0,1,10.445-3.867A22.092,22.092,0,0,1,195.5,27.035" transform="translate(12.141 1.065)" fill="#dd1f0a"/>
    <path id="Path_9240" data-name="Path 9240" d="M148.7,43.762l.057-10.6a22.084,22.084,0,0,0-10.733,5.59,22.88,22.88,0,0,1,7.051-16.088,22.055,22.055,0,0,1,14.7-6.461,19.656,19.656,0,0,0-5.054,10.567l11.1.06Z" transform="translate(9.369 1.1)" fill="#ec6500"/>
    <path id="Path_9241" data-name="Path 9241" d="M141.938,49.378a19.642,19.642,0,0,1-3.91-11.707,22.066,22.066,0,0,1,10.733-5.59l-.058,10.6Z" transform="translate(9.369 2.178)" fill="#785b14"/>
    <path id="Path_9242" data-name="Path 9242" d="M164.762,26.828l-11.1-.06A19.66,19.66,0,0,1,158.714,16.2c.316-.014.633-.02.949-.02a22.079,22.079,0,0,1,12.175,3.646Z" transform="translate(10.431 1.098)" fill="#dd1f0a"/>
    <path id="Path_9243" data-name="Path 9243" d="M217.735,34.767c5.893,3.9,9.387,10.868,9.387,18.809a22.1,22.1,0,0,1-9.385,18.092Z" transform="translate(14.78 2.36)" fill="#c31e18"/>
    <path id="Path_9244" data-name="Path 9244" d="M193.129,9.128c6.926-1.406,14.321,1.047,19.936,6.661a22.1,22.1,0,0,1,6.157,19.429Z" transform="translate(13.11 0.593)" fill="#c31e18"/>
    <path id="Path_9245" data-name="Path 9245" d="M156.532,9.387C160.435,3.494,167.4,0,175.341,0a22.1,22.1,0,0,1,18.092,9.385Z" transform="translate(10.626)" fill="#c31e18"/>
    <path id="Path_9246" data-name="Path 9246" d="M131.509,35.689c-1.406-6.923,1.047-14.314,6.663-19.927A22.107,22.107,0,0,1,157.6,9.61Z" transform="translate(8.901 0.63)" fill="#c31e18"/>
  </g>
</svg>
