<svg id="play-button" xmlns="http://www.w3.org/2000/svg" width="87.973" height="87.961" viewBox="0 0 87.973 87.961">
  <path id="Path_5" data-name="Path 5" d="M34.313,23.459,16.045,10.18a2.2,2.2,0,0,0-3.5,1.777V38.506a2.2,2.2,0,0,0,1.2,1.964,2.219,2.219,0,0,0,1,.237,2.189,2.189,0,0,0,1.294-.427L34.313,27.012a2.185,2.185,0,0,0,0-3.554Z" transform="translate(24.184 18.802)" fill="#fff"/>
  <path id="Path_6" data-name="Path 6" d="M43.988,0A43.981,43.981,0,1,0,87.973,43.99,43.983,43.983,0,0,0,43.988,0Zm0,80.622A36.64,36.64,0,1,1,80.622,43.99,36.635,36.635,0,0,1,43.988,80.624Z" transform="translate(0 -0.002)" fill="#fff"/>
</svg>
