<svg xmlns="http://www.w3.org/2000/svg" xmlns:xlink="http://www.w3.org/1999/xlink" width="231.372" height="84.313" viewBox="0 0 231.372 84.313">
  <defs>
    <clipPath id="clip-path">
      <rect id="Rectangle_146" data-name="Rectangle 146" width="84.313" height="84.313" fill="none"/>
    </clipPath>
    <clipPath id="clip-path-2">
      <rect id="Rectangle_147" data-name="Rectangle 147" width="132.162" height="18.722" fill="none"/>
    </clipPath>
  </defs>
  <g id="Group_13744" data-name="Group 13744" transform="translate(-1199.284 -10120)">
    <g id="Group_13742" data-name="Group 13742" transform="translate(1346.343 10120)">
      <rect id="Rectangle_145" data-name="Rectangle 145" width="84.313" height="84.313" fill="#0f1b2f"/>
      <g id="Group_13737" data-name="Group 13737">
        <g id="Group_13736" data-name="Group 13736" clip-path="url(#clip-path)">
          <path id="Path_7701" data-name="Path 7701" d="M131.028,142.451l-.892-.27c.248.282.542.225.892.27" transform="translate(-81.752 -89.319)" fill="#bcbcbc"/>
          <path id="Path_7702" data-name="Path 7702" d="M126.645,138.31c.236-.022.3-.26.508-.372.259-.056.428.283.654.158l-.305-.294c-.384-.225-.61.294-.857.508" transform="translate(-79.559 -86.533)" fill="#bcbcbc"/>
          <path id="Path_7703" data-name="Path 7703" d="M132.973,139.026a.523.523,0,0,1,.024-.237c.124-.2.36-.486.644-.486a.59.59,0,0,0-.668.723" transform="translate(-83.53 -86.876)" fill="#bcbcbc"/>
          <path id="Path_7704" data-name="Path 7704" d="M135.953,140.244c-.056-.158.011-.428-.17-.462a1.154,1.154,0,0,1-.485,1.14c.27-.124.383-.542.755-.463.248-.124-.09-.09-.1-.214" transform="translate(-84.995 -87.812)" fill="#bcbcbc"/>
          <path id="Path_7705" data-name="Path 7705" d="M129.368,135.831c.1.023.294-.157.407.023l.1,2.71c.079-.993-.012-1.942-.023-2.868-1.772-.068-3.6-.09-5.5-.135l-.033,1.863c.079.429-.17.8.113,1.117a23,23,0,0,1,.1-2.877c1.615-.023,3.24.158,4.831.168" transform="translate(-78.083 -85.16)" fill="#bcbcbc"/>
          <path id="Path_7706" data-name="Path 7706" d="M116.279,156.152c-.52.022-.068.531-.441.7-.157.08-.315-.012-.644.135a1.077,1.077,0,0,0,.949.034c.226-.157.53-.316.485-.654-.067-.114-.168-.282-.349-.214" transform="translate(-72.366 -98.086)" fill="#bcbcbc"/>
          <path id="Path_7707" data-name="Path 7707" d="M94.015,186.64a2.367,2.367,0,0,1-.238.756c-1.806-1.242-3.4-2.472-5.124-3.489-.035.937-.113,1.976-.057,2.811.541.136.983.012,1.411.169.034.971-1.117.282-1.6.486-.136.044-.339.033-.407-.114a9.508,9.508,0,0,0-.157-3.872c.213-.18.315-.756.7-.519l.79.711a32.59,32.59,0,0,0,3.872,2.676,2.458,2.458,0,0,1,.814.384m-.87-4.335a4.345,4.345,0,0,0,1,.079c.125.35-.112.677-.057,1.061a1.057,1.057,0,0,1-.621,1.05c-.011-.406.023-.813-.022-1.242-.2-.113-.52-.012-.711-.079a1.587,1.587,0,0,1,.406-.87m1.445,1.818.023-2.439c-.757-.1-1.7.249-2.281-.3l-.7,1.738v.294c.26.237.666.113.972.225.18.408,0,.814,0,1.321-1.57-.924-3-2.2-4.55-3.216-.293.552-.7,1.049-.971,1.625a4.784,4.784,0,0,1,.35,1.863,8.568,8.568,0,0,1-.383,2.743l3.037-.09c.067-.5.452-.881.463-1.4-.4-.193-.87.022-1.3-.091-.61-.18-.192-.983-.17-1.569,1.525,1.073,3.059,2.088,4.8,3.251a6.383,6.383,0,0,0,.892-1.7,9.849,9.849,0,0,1-1.355-1c.417-.361.982-.7,1.174-1.241" transform="translate(-54.685 -113.943)" fill="#bcbcbc"/>
          <path id="Path_7708" data-name="Path 7708" d="M116.716,119l-.214-.045.078.294c.135-.023.091-.158.135-.249" transform="translate(-73.187 -74.726)" fill="#bcbcbc"/>
          <path id="Path_7709" data-name="Path 7709" d="M136.1,182.236l-.248,2.529a4.421,4.421,0,0,1-1.163,1.569c-1.773.452-3.7.531-5.521.87.271-1.332-.3-2.891.429-3.906-.147-.52-.892-.136-.7-.655l.453-.7a3.874,3.874,0,0,1,.982.293,6.59,6.59,0,0,1-.486,1.389,15.122,15.122,0,0,0-.034,2.765c.609-.012,1.434.125,1.6-.576a8.385,8.385,0,0,0,1.05-2.359.472.472,0,0,0,.169-.317c-.192-.18-.565.01-.711-.225.022-.271.271-.462.384-.7.316.011.79-.169.971.158a21.2,21.2,0,0,1-1.321,3.849,5.888,5.888,0,0,0,2.811-.542,2.919,2.919,0,0,0,.6-2.495c-.136-.192-.407-.057-.566-.215a3.218,3.218,0,0,1,.621-.869c.215.09.52-.068.678.135m-1.818,1c.147.2.451.045.6.249a3.6,3.6,0,0,1-.191,1.3c-.407.644-1.231.586-1.954.677a1.09,1.09,0,0,1,.114-.52,34.3,34.3,0,0,0,1.061-3.623,7.692,7.692,0,0,0-2.122.079l-.588,1.738c.068.384.656,0,.679.429L131.166,185c-.238.237-.385.79-.814.677a5.493,5.493,0,0,1,.655-3.928.348.348,0,0,0-.079-.463,3.422,3.422,0,0,1-2.145-.486l-.869,1.9-.057.384a1.784,1.784,0,0,0,.463.271c.237.056.474-.125.655.056-.057.327-.4.542-.6.813.022,1.151-.034,2.382-.057,3.523a5.61,5.61,0,0,0,1.14-.113,1.177,1.177,0,0,1,.565,0c1.536-.238,3.093-.4,4.606-.655l.407-.316c.53-.915,1.422-1.717,1.331-2.9.012-.813.193-1.648.158-2.472l-1.67.09c-.169.632-.44,1.219-.576,1.862" transform="translate(-80.32 -113.581)" fill="#bcbcbc"/>
          <path id="Path_7710" data-name="Path 7710" d="M126.765,154.622l7.993-.271c-2.417.012-4.877.067-7.395.17a.47.47,0,0,1-.328-.271,18.718,18.718,0,0,1-.023-3.286c1.288-.146,2.8-.123,4.065-.158,1.151.023,2.539-.158,3.792-.056l.024-.193c-2.733-.01-5.3.124-8.095.193-.012,1.3.034,2.629-.035,3.871" transform="translate(-79.634 -94.581)" fill="#bcbcbc"/>
          <path id="Path_7711" data-name="Path 7711" d="M114.453,186.992c0-1.388,0-2.506-.078-3.736-1.321-.057-2.293-.2-3.5-.192a1.288,1.288,0,0,1,.349-.869,12.672,12.672,0,0,0,3.522.248c.192.022.181.226.226.35.023,1.264.046,2.585.079,3.872-.214.067-.35.417-.6.326m1.061-3.059-.114-1.873c-.135-.2-.146-.464-.428-.509-.925-.09-2.042.057-3.07-.033a1.9,1.9,0,0,1-1.4-.35,12.338,12.338,0,0,0-.712,2.088c.068.247.339.247.521.35l3.172.193c.124,1.388.09,2.777.136,4.177a12.782,12.782,0,0,0,1.918-.734c-.011-1.073-.1-1.976-.022-3.308" transform="translate(-68.971 -113.81)" fill="#bcbcbc"/>
          <path id="Path_7712" data-name="Path 7712" d="M126.88,140.724l-.328.3c-.112.18-.462.067-.428.294a.9.9,0,0,0,.756-.6" transform="translate(-79.23 -88.404)" fill="#bcbcbc"/>
          <path id="Path_7713" data-name="Path 7713" d="M97.858,79.618,97.836,84.2l-9.811.214c-.159-.078-.463.057-.52-.169-.135-1.659.045-3.319-.045-5.036.068-.134-.067-.382.136-.485l.293-.033,5.8.136,4.064.113a1.269,1.269,0,0,1,.1.677M86.963,73.872a1.913,1.913,0,0,0,.632-.644c2.088.1,4.177.135,6.23.158.272.045.136.339.216.52v3.736c-.08.1-.034.306-.216.328-2.256-.057-4.447.045-6.728-.033a25.98,25.98,0,0,1-.135-4.064m-8.207,5.282c-.2.124-.045.4-.136.577.046,1.6-.1,3.093-.055,4.741a1.2,1.2,0,0,1-.407.023l-.045-.248.023-5.521.248-.078c2.427-.034,4.775-.2,7.146,0l1.028.023c.125.078.068.226.091.348-2.653.238-5.362-.032-7.891.136M83.712,82c-.012-.158.236-.17.27-.023-.168.192-.27.113-.27.023m2.551.89c-.1.012-.214-.124-.293,0,.057.158.328.023.35.227-.271.191-.587-.091-.87-.034a1.728,1.728,0,0,1-1.14-.214,1.5,1.5,0,0,1-1.434.405c.035-.225.373-.123.519-.191.316-.225.914-.575.858-1.083.047-.193-.158-.328-.293-.407-.226-.1-.385.147-.429.3-.068.181.148.463-.113.509-.158-.362-.734-.035-.79-.486,0-.135.034-.3-.135-.349a.662.662,0,0,0-.542.158c.067.215.326.057.462.136.114.158.339.3.249.519A1.933,1.933,0,0,0,81.849,82a1.541,1.541,0,0,0-1.467-.677c-.214.248-.428.519-.293.868.1.079.034.215.057.327-.136.08-.248-.078-.271-.192.012-.372-.057-.689.159-.97a1.15,1.15,0,0,1,1.14-.17c.247.125.576.339.87.136.247-.08.62-.2.834.056.193.135.068.418.215.564.214-.271.418-.79.891-.7.3-.023.509.215.679.429.136.192-.057.6.27.6.1-.237.1-.564.384-.677a1.374,1.374,0,0,1,.677-.057.773.773,0,0,1,.384.813c-.362.237.373.406-.113.541m-5.4-.451a.354.354,0,0,1-.271-.271.4.4,0,0,1,.17-.406c.564,0,.835.7,1.377.755-.418.361-.767-.44-1.276-.078m-.643,1.129c-.1-.045-.327.022-.3-.158.406-.091.418-.6.847-.621a7.974,7.974,0,0,1,1.027.406,3.159,3.159,0,0,0-1.569.373m-.734-2.056a14.909,14.909,0,0,1-.114,2.36l-.315-.169.022-4.03c2.427-.181,4.673-.215,6.908-.17.159.068.181.226.159.384-2.439.136-4.222.045-6.548.192-.248.4,0,.959-.113,1.433m-1.682-4.876c.113.112.407.146.328.349a1.415,1.415,0,0,1-.622-.192c-.056-.124-.146-.349-.033-.508.09-.259.4-.1.543-.034-.023.124-.272.181-.216.385m-1.9-.463.169.17c.011.146-.011.315-.169.372-.192-.339-.18-.553,0-.542m-.158,1.253c-.238-.012-.486.033-.655-.136.474-.146.949-.2,1.219-.654a.792.792,0,0,0-.1-.622.526.526,0,0,0-.5-.079.866.866,0,0,0-.238.565c0,.147.159.192.193.327a.463.463,0,0,1-.463.1c.226-.158.044-.349.022-.485a.989.989,0,0,1,.248-.622.707.707,0,0,1,.7-.157.858.858,0,0,1,.576.485c.507-.18.7-1.163,1.377-.6l.326.429c-.3.226-.259.012-.384-.079a.633.633,0,0,0-.428-.192c-.249.5-.994.5-1.027,1.14a7.221,7.221,0,0,1,1.321.271c-.746.181-1.456-.112-2.19.305m-4.991,2.438c.023,1.569-.157,3.059-.135,4.515-.125.045-.429.08-.372-.158l.045-4.742c2.325-.136,4.809-.181,7-.294l.044.237a38.816,38.816,0,0,1-6.581.44M77.029,82.3c-.26.576-.869.249-1.309.373-.259-.327.428-.959-.271-1.05-.25-.044-.441.193-.644.1a1.108,1.108,0,0,1,.677-.406c.25-.046.407.1.6.191.361.26-.294.723.236.813.4.113.35-.44.712-.406a.341.341,0,0,1,0,.384m-1.061,1.321c-.429-.033-1.072.046-1.243-.485-.022-.374.362-.6.238-.971.643.259-.474,1.3.677,1.242.463-.294,1.118.293,1.389-.407.147.745-.61.485-1.061.621m-2.631-2.088c.08-.316.475-.068.712-.1.09.09.271.023.315.158a3.034,3.034,0,0,1-1.027-.057m.87,1.716c-.339.723-1.286.26-1.875.429.532-.317,1.164-.011,1.469-.485.112-.418-.564-1.016.158-1.14.067.405.485.734.248,1.2m-2.326-1.117c-.011-.125-.135-.305.023-.407.4.124.509.587.892.712a.334.334,0,0,1-.136.271,1.033,1.033,0,0,1-.779-.576m-.44,2.2c-.1,0-.147.125-.271.078-.168-1.478-.1-2.641-.158-3.962a17.672,17.672,0,0,1,2.947-.238c.96-.1,2.076-.033,3.07-.056l.045.078c.045.193-.147.249-.271.328-1.749.023-3.466.17-5.227.192-.056,1.264-.112,2.439-.135,3.579M78,74.223c.045.2-.181.293-.328.326a25.268,25.268,0,0,1-2.63.079L74.906,77.8c-.044.1-.169.226-.293.136a21.259,21.259,0,0,1-.113-3.625,27.672,27.672,0,0,1,3.443-.169Zm-4.223-.7c1.264-.181,2.461,0,3.623-.136.249.034.611-.1.712.193a.275.275,0,0,1-.226.271l-3.545.056c-.181,1.559-.113,3.24-.136,4.652a.464.464,0,0,1-.406.033c-.012-1.659-.1-3.341-.024-5.069m7.089,2.867a1.114,1.114,0,0,1,.711-.1,1.926,1.926,0,0,1,.509.542c-.091.124-.214,0-.316,0a.524.524,0,0,0-.576-.191c-.181.1-.316.406-.541.327a1.489,1.489,0,0,1,.214-.576m3.635-.857c-.281.587-1.084.5-1.647.237-.2-.272-.181-.3-.114-.328a2.222,2.222,0,0,0,1.761.091m-4.334-1.084c0,.812-.057,1.547,0,2.167l.327-.813c.362-.168.869-.124,1.05-.6-.011-.147.159-.193.248-.249a.82.82,0,0,1,.734.439c-.283.08-.463-.3-.757-.168-.26.372-.428.846-1,.732-.238.261-.249.622-.463.893-.281.146-.124.507-.405.6l-.249-3.274a57.016,57.016,0,0,1,6.423-.248.273.273,0,0,1,.057.383c-2.122.012-4.042-.057-5.961.136M84.479,76.5a1.576,1.576,0,0,1-1.546-.022c-.283-.091-.441-.361-.656-.543.045.486.667.486.351.858a1.615,1.615,0,0,1-.813-.621.74.74,0,0,1,.227-.643c.394-.125.529.394.834.508a1.436,1.436,0,0,0,1.2.213l.756-.372a.837.837,0,0,1-.383.948c-.068-.113.147-.237.034-.327m1.592.113c-.248.147-.407-.124-.622.1a.409.409,0,0,1-.382.192c.112-.226.1-.542.36-.6.249.022.532.022.644.3m-.486-.79c-.045-.168.113-.44-.136-.519-.214.045-.428.407-.653.113a.63.63,0,0,1,1.038-.191c.056.157.067.372.237.463a.354.354,0,0,1,.35.157c-.462.158-.666.1-.836-.023m-6.8-2.495.372-.1c2.45-.1,4.708-.158,7.179-.17l.135.079a.425.425,0,0,1,.058.384c-2.484.068-4.866.124-7.237.215-.1,1.456-.068,2.9-.08,4.255-.079.147-.248.057-.35.023.023-1.7-.259-3.15-.078-4.685m2.946-10.837c.96-.26,2.055.057,3.037-.158.09-.383.44-.53.734-.734.237.012.507.034.6.293.034.236.158.543,0,.769-.485.213-.531.7-.6,1.128-.306.2-.632.079-1.005.113-.192.068-.384-.023-.564-.023.09-.2-.248-.012-.135-.271a1.011,1.011,0,0,0,.507-.361.39.39,0,0,0-.463-.215c-.271.135-.135.565-.214.79-.158.1-.429.033-.6.057-.124-.045-.148-.181-.136-.305.148-.022.316.012.361-.192.1-.248-.214-.316-.327-.429-.125-.011-.158.2-.305.136-.113-.113-.226-.272-.406-.249-.124.1-.057.462-.317.305-.089-.2-.247-.407-.168-.655M76.024,58.97c-.373-.485.181-.926.428-1.32.294-.046.215.3.385.429,1.569,1.975,4.131,1.636,6.2,2.461a11.6,11.6,0,0,1-7.011-1.569m-.6-.6c-.135.271-.394.057-.6.09a1.44,1.44,0,0,1-.542-.248c.2-.406.112-1,.542-1.241.362.01.6-.26.948-.272.136-.214.463-.09.52.1-.181.576-.858.937-.871,1.57m-1.354-.993c-.192.283-.508.033-.734,0-.225-.147-.474-.271-.485-.576.248-.338.226-.97.756-1.027.159-.012.339-.012.406.135.023.181-.112.293-.1.463.283,0,.554-.327.722-.576.09-.022.238-.057.3.034a11.6,11.6,0,0,1-.869,1.547m-2.63-1.852c-.17-.406.44-.249.485-.621.023-.135.057-.316.226-.349.418-.113.372.541.756.429.181.542-.271.746-.407,1.084a1.591,1.591,0,0,1-1.06-.542m-.429-.992c-.305.09-.565-.136-.756-.328-.091-.282.259-.26.35-.35a2.48,2.48,0,0,0,1.083-.521c.124-.01.26.012.294.136-.124.486-.744.644-.971,1.062m-1.389-1.2c-.046-.18.057-.395.248-.383a1.242,1.242,0,0,0,.971-.316.18.18,0,0,1,.249.18c-.09.4-.52.519-.756.813a.832.832,0,0,1-.712-.294M68.811,51.6c-.136-.44.417-.316.632-.508a7.253,7.253,0,0,1,1.106-.406l.057.08c-.091.654-.87.71-1.333,1-.135-.011-.394.057-.462-.17m-.079-2.484a.527.527,0,0,0,.192-.576c.271-.394.564-.09.6.193.068.316-.18.722.192.948-.349.281-.587.7-.949.62-.259-.326-.1-.88-.033-1.186m-.7-2.63c.169-.27.531-.405.62-.756a.715.715,0,0,1,.193-.577.409.409,0,0,1,.407.385c-.147.406.463.97-.215,1.05-.338-.034-.8.215-1-.1M67.625,44.1c.012-.565.3-1.073.271-1.682.259-.226-.011-.779.485-.813a.462.462,0,0,0,.08-.464c-.124-.406-.519-.552-.813-.869a.681.681,0,0,1,.248-.563c.53.214.7-.351,1.05-.521l.09.136c-.011.532-.3.971-.192,1.524a5.235,5.235,0,0,1,.1,3.06c-.316.349-.881.26-1.321.192m14.71,8.309c.587-.226,1.4.09,1.874-.317-.373-.2-.983.079-1.2-.361,1.546-.294,3.285-.429,4.448-1.569.339.044.542.429.644.712-.091.394-.519.439-.812.586a13.139,13.139,0,0,0-1.954.734l-.157.271a6.244,6.244,0,0,1,.113,1.569,2.244,2.244,0,0,1-1.468.056,1.259,1.259,0,0,1-.158-.757,2.1,2.1,0,0,0-1.332-.925m.078,3.69a9.639,9.639,0,0,1-3.985-1.027.755.755,0,0,1-.35-.541c.023-.136.045-.294.17-.362.293.035.474.35.756.441a8.973,8.973,0,0,0,3.331,1.14c.078.091.192.238.078.35m.08-16.177c-.045-.09-.147-.159-.136-.271.745-.294,1.524.215,1.852-.542.056-.2-.045-.553.214-.6.5.079.778.632.948,1.027.057.6-.5.993-.676,1.524-.463,1.163.936,2.3-.057,3.33-.53-.147-1.185.2-1.6-.192.034-.124.034-.293.191-.35.192.057.317-.09.407-.191a2.232,2.232,0,0,1,.328-.543c.406-.9-.429-1.739-.056-2.6-.361-.406-1.017-.192-1.412-.6m.5,5.441c.045-.418.553-.3.857-.406.4.09.971-.113,1.118.384-.136.8-.9.068-1.411.214-.2.046-.531.069-.564-.192m.892,2.281a1.077,1.077,0,0,1,.947.057l.1.214v1.647c-.011.148-.181.17-.294.193a5.067,5.067,0,0,1-1.6-.079c-.193-.136-.09-.385-.079-.6.643-.238.7-.915.926-1.434m1-.463-1.547.033a.174.174,0,0,1-.056-.248,1.031,1.031,0,0,1,.733-.35c.193-.157.339-.418.541-.541a.511.511,0,0,1,.464.485.614.614,0,0,1-.136.621m3.873,2.338a1.625,1.625,0,0,0,.541-.5c.316.124.463.5.7.735-.045.417-.542.417-.757.756-.214.045-.395.258-.655.136a2.447,2.447,0,0,1-.676-1.028c.247-.158.552-.034.847-.1m.97-.791c.519.248.666-.88,1.083-.249-.146.372-.2.959-.7.982-.136-.215-.509-.418-.384-.734m-.406-8.557c-.215-.419.237-.362.463-.441a12.656,12.656,0,0,0,1.839-.022l.17.214c-.035.542-.43,1.095-.09,1.626.338.463.023,1.094.271,1.6-.091.294.011.768-.351.858-.417-.146-.948-.1-1.3-.373a1.245,1.245,0,0,0,.057-.407c.237-.136.676.08.756-.327.022-.225.113-.643-.248-.654-.146-.022-.316-.012-.429-.135.012-.181.295-.181.429-.271-.1-.271-.35-.181-.542-.271-.734-.2-.416-1.039-1.027-1.4m2.766,4.436a.642.642,0,0,1-.08.519c-.452.3-.756-.349-1.219-.3.271-.4.712-.079.949-.451.18-.023.248.113.35.237m-.564,1.469a5.225,5.225,0,0,1-1.085-.487c.249-.474.6-.441.757-.361.181.124.419.215.508.441a.294.294,0,0,1-.18.407m-.441,1.7c-.406-.124-.959-.248-1.083-.734.3-.158.8-.294.79-.734.282-.158.609.124.813.328-.09.417-.1.937-.52,1.14m-2.6,7.045.948-.757c.418-.067.441.418.621.644.157.5-.418.26-.6.462a14.056,14.056,0,0,1-3.794,1.434,4.354,4.354,0,0,0-.135,1.626c-.236.294-.722.09-1.083.113-.124-.058-.282-.091-.35-.249-.135-.327.091-.858-.384-.993-.338-.18-.914-.1-1.028-.542.61-.146,1.355.2,1.761-.3-.35-.158-1.038.046-1.028-.508,1.739-.192,3.6-.09,5.07-.925m1.7-.97c.157-.057.3.044.463.079.282-.169-.034-.9.373-.712.3.225.293.577.462.847a.3.3,0,0,1-.158.349c-.361-.113-.542.429-.87.158-.09-.237-.383-.429-.27-.722m1.218-1.389a.323.323,0,0,1,.079-.373c.622.068.791.745,1.006,1.185.1.282-.237.316-.384.44-.259.08-.361-.236-.452-.384-.125-.316-.643-.462-.576-.813.125-.056.248.125.327-.056m1.92-1.456c.1-.035.271-.068.361.022a2.94,2.94,0,0,1,.587.463c0,.26-.248.44-.428.6-.407-.023-.429.576-.791.564-.236-.349-.508-.621-.756-.97.339-.249.949-.124,1.028-.677m.406-1.118c.148-.079.35.034.5.112a1.626,1.626,0,0,1,.452.429.493.493,0,0,1-.237.519c-.328-.01-.531-.293-.847-.328-.193-.282.26-.418.135-.733m1.14-.463.135.225c-.09.17-.18.419-.429.294-.305-.2-.554-.576-.926-.622.35-.417.835-.112,1.219.1M94.606,47.1c.385.123.858.226,1.027.621a2.947,2.947,0,0,1-.485,1.062c-.328-.125-.756-.08-1.005-.35,0-.361.531-.192.655-.519.057-.158-.09-.26-.192-.328-.193-.08-.486.068-.621-.158.011-.3.407-.249.621-.328M93.928,40a.286.286,0,0,1,.271-.372,6.191,6.191,0,0,0,1.219-.057c.271-.125.046-.418.215-.542a.663.663,0,0,1,.633.215c.463.518-.191.971-.328,1.433a2.025,2.025,0,0,1-.191,1.219c.2.644.564,1.433.191,2.111-.4.316-.892-.022-1.332.091a.224.224,0,0,1-.136-.328c.7-.293.271-1,.249-1.489-.034-.125-.2-.227-.136-.351.26-.113.586-.282.644-.632a.925.925,0,0,0-.621-.971c-.2-.146-.576-.011-.678-.327m2.01,6.1c-.146.27-.452.439-.6.654-.2-.123-.677-.056-.6-.384.362-.474.215-1.185.734-1.569a.5.5,0,0,1,.486.294c.045.327.17.712-.023,1.005M87.46,59.647c.9.068,1.5-.6,2.3-.779.384-.507,1.129-.2,1.456-.789.326-.024.4.349.541.541A11.291,11.291,0,0,1,89.131,60a16.038,16.038,0,0,1-4.877.6,19.06,19.06,0,0,0,3.206-.948m4.357-2.382c.249.09.486.508.734.271.012-.125-.068-.226.023-.328a1.556,1.556,0,0,1,.812.735c-.012.44-.508.518-.779.733-.6-.112-.835-.79-1.038-1.275-.024-.136.146-.2.248-.136m1.164-.949c.282-.1.416.351.733.384l.294-.112c.09-.136.3-.091.405-.023.351.2.249.61.193.949-.113.248-.328.316-.542.451-.384.034-.429-.406-.643-.622a1.253,1.253,0,0,1-.439-1.027m1.93-.677c.1-.238-.271-.452-.034-.677.372.012.576.338.734.621.057.271.237.564.113.847a1.822,1.822,0,0,1-.767.27c-.192-.36-.644-.62-.621-1.061.181-.124.362.125.576,0M96.447,54.5c-.034-.249-.361-.463-.215-.734a1.215,1.215,0,0,1,.926.789,1.574,1.574,0,0,1,.057.406c-.148.192-.3-.147-.441.079a.7.7,0,0,1-.374.621c-.113.079-.2.1-.3.034-.113-.339-.464-.667-.486-1.027.248-.283.666.3.836-.169m.3-1.57c.407.338,1.423-.384,1.22.518-.4.158-.181.983-.733.678a3.974,3.974,0,0,0-.814-.813c-.023-.2.215-.259.328-.383m.294-1.354c.26-.113.565-.1.813-.215-.068-.225-.4-.191-.35-.463.384-.271.779.125,1.106.294l.225.362c-.1.236-.147.541-.383.676-.463.362-.813-.2-1.219-.3-.1-.1-.248-.215-.193-.35m2.145-2.111.373.463a.508.508,0,0,1,0,.507c-.226.2-.474.723-.835.407-.192-.2-.531-.248-.6-.542.114-.225.5-.078.521-.406,0-.406-.4-.339-.577-.622a1.382,1.382,0,0,1,1.118.192M98.128,48.3a4.454,4.454,0,0,0,1.276-.329c.225-.169.17-.824.621-.519l.192.214A1.4,1.4,0,0,1,99.459,49c-.451-.022-.789-.3-1.218-.349-.158-.045-.158-.237-.114-.349m.27-8.863c.633-.463,1.6.147,2.146-.52l.237.17c-.034.881-.553,1.569-.587,2.461a7.207,7.207,0,0,1,.407,1.817l-1.356.057c-.068-.067-.056-.158-.056-.248.192-.158.5-.2.565-.486.281-.553-.531-.812-.159-1.332a.543.543,0,0,0,.1-.407c-.407.091-.5-.327-.678-.564,0-.541-.857-.339-.622-.948m1.3,4.335c.26-.136.712-.238.869.079.023.192-.157.237-.271.249-.2-.1-.61.011-.6-.328m.812,1.863c-.236.316-.587-.011-.892-.023-.2-.135-.485-.057-.644-.271-.022-.372.441-.4.678-.564.248-.193.237-.656.678-.441l.18.215c.045.383.294.744,0,1.084m-.214,1.218c-.305.147-.519-.124-.78-.18a1.289,1.289,0,0,1-.9-.272c-.046-.2.135-.248.249-.361.338.158.575-.181.924-.023l.373.216a.438.438,0,0,1,.136.62M86.184,65.552a.57.57,0,0,1,.621.327c.022.215.18.407.078.622-.621.067-1.422.169-1.862-.294-.328-.294-.9.022-1.22-.271,0-.225.2-.349.373-.463.677-.135,1.377.384,2.01.079m-1.569,4.041c.2-.113.463-.1.677-.214.519.225.293.971.542,1.411l.1,1.456c-.146.339-.361-.068-.564-.056-.191-.373-.779-.215-.79-.644Zm-2.258-6.175c.18,0,.4.067.407.272-.373.282-.474.191-.508.079s-.057-.3.1-.351m.847,6.526-.135,1.139c-.239-.079-.61-.034-.656-.35.091-.35-.113-.779.351-.925.147-.034.406-.068.44.136m1.028-1.355c-.114-.068-.259-.2-.159-.351a.348.348,0,0,0,.316-.249c-.632-.236-.248.474-.587.655-.259,0-.565.045-.655-.248.023-.226.373-.079.429-.35.091-.146-.135-.27-.236-.327-.587.022-.056,1.027-.734.9a.4.4,0,0,1-.485-.17.273.273,0,0,1,.056-.327c.124,0,.26.124.372,0,.17-.181.023-.464.034-.645a.267.267,0,0,0-.271-.112c-.089.078-.1.27-.269.191a2.137,2.137,0,0,1-.227-.813c1.671.023,3.286-.135,4.8.023a.354.354,0,0,1,.079.305c-.373.384-.259,1-.237,1.513a1.543,1.543,0,0,1-.677.168c-.294-.045-.655,0-.813-.248-.215.192-.474.091-.733.08m-.429,1c.17.022.463-.078.451.193a7.685,7.685,0,0,1,.034,1.975c-.078.1-.214.045-.3,0-.034-.374-.564-.554-.485-.971.022-.406-.08-.925.3-1.2m3.082-.62a2.773,2.773,0,0,1,.813,1.3c.2.722.429,1.434.677,2.144l-1.839.137c-.294-.148-.317-.553-.407-.846-.181-.791-.193-1.638-.407-2.406.2-.441.779-.3,1.163-.326M76.7,53.495a.734.734,0,0,1-.249.384.787.787,0,0,1-.621-.384c-.135-.4.338-.361.519-.541a1.135,1.135,0,0,1,.543-.35c.135.045.316.011.371.191a2.46,2.46,0,0,0-.563.7M75.425,52.6c-.213.033-.36-.146-.485-.272-.078-.18.125-.18.136-.326.2-.17.429-.542.778-.451l.091.1a1.23,1.23,0,0,1-.52.949m-1.512-1.592c-.146-.057-.35,0-.406-.17.055-.271.394-.338.586-.508a.345.345,0,0,1,.327.181c-.068.237-.316.383-.508.5m-.9-1.118c-.023-.531.621-.441.926-.406a.715.715,0,0,1-.407.518.338.338,0,0,1-.519-.112m-.994-5.069a.438.438,0,0,1-.09-.316,5.219,5.219,0,0,1,1.467-.136l.271.271c-.372.463-1.117.248-1.648.18M71.9,40.038c-.091-.169-.371-.215-.294-.406.294-.215.734-.057,1.084-.136.282-.023.7-.237.892.079a5.446,5.446,0,0,0-.248,1.953,5.119,5.119,0,0,1-.023,2.3.959.959,0,0,1-.734.135.7.7,0,0,1,.079-.813c-.079-.407.2-.813-.056-1.174-.373-.4-.835-.8-.643-1.4a.521.521,0,0,0-.057-.541m1.818,8.67c-.079.113.056.4-.192.374-.056-.17-.236-.419-.056-.565.078.056.248.045.248.191m.056-2.551c-.034.316.125.9-.406.79-.192.022-.283-.147-.361-.271.011-.317.236-.531.361-.791.2-.078.361.113.406.271m6.447,5.34c-.5-.339-1.287-.474-1.411-1.2-.033-.26.236-.384.406-.507.25.089.271.429.485.62a4.78,4.78,0,0,0,2.3,1.085c-.485.564-1.15.125-1.783,0m-1.931-1.874c-.157-.328.261-.554.441-.813a.816.816,0,0,1,1-.057c-.17.464-.734.429-1.038.812-.125.046-.261.137-.408.058m-.642-.78c-.136-.338.226-.586.237-.925a.761.761,0,0,1,1.2-.057c.113.442-.407.373-.622.542-.315.1-.462.576-.812.44m-1.6-4.47a2.541,2.541,0,0,1,1.9-.17c.057.079.123.18.057.271a3.516,3.516,0,0,1-1.7.113.572.572,0,0,1-.249-.214m-.486-4.392c-.011-.135-.011-.282.136-.327a8.915,8.915,0,0,1,2.055,0L78,39.575c.237,0,.541-.045.62.215-.078.621-.676,1.027-.755,1.649-.068.666.192,1.524-.328,2.031a1.376,1.376,0,0,1-.97.113.355.355,0,0,1-.114-.429c.2-.226.576-.215.735-.541a1,1,0,0,0-.113-.768c-.282-.271-.757-.317-.892-.723-.057-.236.012-.519-.157-.71-.17-.114-.452-.181-.463-.429m1.434,6.232c-.022-.384.306-.373.542-.44.113.022.248.057.271.191-.078.372-.553.2-.813.249M98.456,78.782c-.046-.112-.012-.282-.135-.327-1.174.022-2.281-.033-3.466-.057-.249.045-.158-.248-.328-.294a45.324,45.324,0,0,0-.022-5.237l-2.031-.023c-.938-.1-2.044-.124-3.015-.192-.724-.349-.779-1.174-1.106-1.784-.135-.248-.057-.677-.3-1.082a1.789,1.789,0,0,0-1.084-1.333,2.366,2.366,0,0,1-.214-1.411c.033-.361.462-.2.676-.35a1.858,1.858,0,0,0-.293-1.321c-.351-.282-.848-.586-.757-1.14-.451-.248-.294-.9-.248-1.276.147-.372.654-.248.756-.654V60.867a20.513,20.513,0,0,0,4.741-1.513c.283-.147.612.067.892-.079a7.62,7.62,0,0,1,1.356-1c.417-.271,1.14-.249,1.2-.892a.707.707,0,0,1,.62-.384c.169-.124.418-.26.485-.406.045-.112-.011-.238.057-.35.418-.349.542-.937,1.14-.948.249-.2.17-.542.294-.789a7.388,7.388,0,0,0,.813-1.277c.384-.53.192-1.332.9-1.705a1.13,1.13,0,0,1,.587-1.162c.1-.327-.17-.508-.079-.834.712-.521.361-1.367.576-2.089.136-.351.439-.734.158-1.084-.181-.417.26-.644.294-1,.192-.418-.1-.757-.158-1.14.506-.745-.158-1.468-.057-2.269-.056-.3-.328-.553-.192-.9a4.414,4.414,0,0,0,.6-2.382,2.724,2.724,0,0,0-1.275-.868c-.813-.159-1.458.519-1.92,1.06a2.449,2.449,0,0,0,.194,1.626,3.444,3.444,0,0,1,.157,2.19c-.214.835.553,1.614-.022,2.359.124.565-.361,1.016-.114,1.6a2.166,2.166,0,0,0-.462,1.163,1.591,1.591,0,0,1-.316,1.276c-.045.677-.666,1.129-.632,1.84-.632.632-.531,1.649-1.4,2.112-.632.2-.225.993-.767,1.275-.779.226-1.174,1-1.841,1.513-.868.08-1.343,1.106-2.19,1.219a15.436,15.436,0,0,1-4.368,1.276c-.553-.2-.294-.869-.316-1.3a.541.541,0,0,1,.316-.349,7.367,7.367,0,0,0,3.42-1.276c.564.158.926-.327,1.354-.6.328-.181.734-.17,1.029-.429.112-.655.89-.677,1.241-1.163.146-.609.847-.745,1.083-1.275.452-.362.5-.926.768-1.388a.94.94,0,0,1,.372-.915,4.528,4.528,0,0,1,.576-2.089c-.215-.778.35-1.309.35-2.031.056-.282-.214-.508-.079-.757a3.929,3.929,0,0,1,.181-1.411,15.381,15.381,0,0,1-.272-2.709,3.3,3.3,0,0,0,.655-1.953,1.6,1.6,0,0,0-1.354-.868,3.589,3.589,0,0,0-2.189,1.2c-.544,1,.326,1.9.812,2.709.124.948-.486,1.75-.113,2.63a12.769,12.769,0,0,0-.248,2.112c-.068.259-.293.485-.181.789.091.531-.269.938-.5,1.378l-.045.294c.124.44-.418.587-.632.767-.406.328-.406.835-.7,1.22a4.53,4.53,0,0,0-1.9,1.625c-1.2.384-2.281,1.072-3.5,1.434-.169.045-.5.147-.621-.079.024-.464-.281-1.051.056-1.468l2.191-.926c.3-.18.779.068.868-.373.158-.451.723-.326.948-.734.214-.067.485.034.621-.191.192-.734.7-1.333.926-2.055.1-.27.384-.475.406-.79a9.659,9.659,0,0,0,.327-1.84c.159-.237.362-.5.237-.812-.395-.519-.057-1.106.034-1.649a2.535,2.535,0,0,1-.135-.982c-.429-.565-.125-1.366.056-1.954-.124-.5.35-1.14-.225-1.512a2.906,2.906,0,0,0-2.19-.677A9.5,9.5,0,0,0,88.3,39.168c0,.43-.136.769.114,1.141.552.485,1.411.981,1.4,1.806a1.963,1.963,0,0,0,.114,1.738c-.226.621.135,1.3-.486,1.761-.214.317.169.52.057.869-.452.666-.6,1.671-1.524,1.919-.451.983-1.547,1-2.4,1.3a.537.537,0,0,1-.17-.588c-.192-.473.181-1.14-.214-1.546-.215-.271.147-.44.214-.655.125-.53-.338-.914-.236-1.434.406-.475-.2-.892,0-1.411.4-.644-.046-1.343-.226-1.953-.394-1.276,1.264-1.942,1.083-3.2a2.431,2.431,0,0,0-1.49-1.05,3.681,3.681,0,0,0-3.025.779c-.248.248-.112.689-.112,1.005-.035.632.62.937.97,1.377.813.746-.135,1.581-.022,2.438-.045.373.316.679.113,1.005a1.261,1.261,0,0,0,.045,1.411,1.515,1.515,0,0,0-.158,1.005c.068.18.316.293.293.507-.463.508-.238,1.309-.406,2.089-.61.067-1.05-.305-1.569-.464-.237-.18-.723-.135-.734-.541a.458.458,0,0,0-.407-.35c-.281-.057-.248-.394-.315-.622-.013-.371-.475-.44-.6-.733-.474.35-1.15.215-1.681.44-.193-.033-.227-.26-.159-.406a1.475,1.475,0,0,1,.779-.5,1.611,1.611,0,0,1,1.061.271A.467.467,0,0,0,78.485,46c-.429-.192-.473-.678-.6-1.062a.636.636,0,0,1,.3-.518c.113-.271-.192-.441-.271-.678a13.288,13.288,0,0,1,.6-2.947c.225-.531.857-.609.992-1.162a1.242,1.242,0,0,0-.079-.948,4.261,4.261,0,0,0-4.662-.058,3.185,3.185,0,0,0,.678,2.517,6.877,6.877,0,0,1,.169,2.653c-.226.361.158.6.236.892a7.152,7.152,0,0,1,.249,1.9c.564.587.328,1.5.734,2.145.191.35.779.53.676,1.028.068.236.339.215.51.326a4.438,4.438,0,0,0,2.8,2.056c.5.292,1.4-.08,1.536.732a.924.924,0,0,1-.158.948,5.639,5.639,0,0,1-2.652-.835,1.8,1.8,0,0,1-1.061-.576,1.958,1.958,0,0,1-1.14-.835c-.778.067-.857-.836-1.163-1.3-.485-.1-.541-.712-.97-.926-.091-.7-.881-1.117-.926-1.84.373-.371-.1-.733-.215-1.083a8.185,8.185,0,0,0-.192-1.739c-.067-.338-.316-.621-.293-.993a6.431,6.431,0,0,0,.057-2.631l.317-1.433c.09-.26.293-.464.248-.768-.057-.587-.767-.734-1.242-.892a2.97,2.97,0,0,0-2.529.813c-.1.316.068.587.135.869.091.666.644,1.14.79,1.784a2.9,2.9,0,0,0,.023,1.93c.542.858-.226,1.717.033,2.631.5.507.238,1.332.542,1.919.474.271.428.858.6,1.3-.158.711.768.959.7,1.625.519.225.712.78.926,1.219.215.5.734.587,1.083.948.193,1.038,1.343.9,1.863,1.7a1.427,1.427,0,0,1-.023-.757c.08-.509.644-.632.97-.948l.249.214a5.372,5.372,0,0,0-.486,1.311c-.068.3-.474.271-.6.271A14.693,14.693,0,0,0,82.2,56.61c.508.317.147.96.215,1.389-.191.327-.7.168-1,.136a14.531,14.531,0,0,1-4.572-1.7c-.17-.124-.453.022-.6-.17-.249-.417-.711-.53-1.083-.757-.057-.608-.735-.53-1.106-.756a5.192,5.192,0,0,0-.576-1.028c-.474-.135-.666-.6-.893-.981-.779-.113-.406-1.1-1.14-1.321-.193-.181-.09-.508-.079-.734.045-.394-.474-.417-.542-.755a5.833,5.833,0,0,0-.97-2.552c-.136-.181-.013-.395.157-.519.214-.326-.136-.62-.294-.892-.271-.418.034-.88.045-1.321a5.262,5.262,0,0,1-.316-2.439,3.2,3.2,0,0,1-.17-2.123c.125-.485.621-.915.35-1.456a1.993,1.993,0,0,0-1.976-.541,2.6,2.6,0,0,0-1.185.677,1.211,1.211,0,0,0,.271,1.051,2.732,2.732,0,0,1,.1,2.574,15.466,15.466,0,0,0,.135,2.281c.012.213-.236.361-.1.6a3.014,3.014,0,0,1,.316,1.9.677.677,0,0,1,.3.507c-.26.724.124,1.445.192,2.168a4.482,4.482,0,0,1,.508.734,1.922,1.922,0,0,0,.847,1.626c.384.779.339,1.783,1.3,2.28a6.291,6.291,0,0,0,1.05,1.412A4.491,4.491,0,0,1,73.01,57.48,3.062,3.062,0,0,1,74.4,58.564c.418.237.993.146,1.276.676a7.315,7.315,0,0,0,2.077,1c.937.406,2.054.373,2.958.87l.023,1.3.3.056a1.733,1.733,0,0,1,.733,1.377c-.531.372-.045,1.2-.767,1.433-.373.306-.294.825-.271,1.254a.67.67,0,0,1,.6.192c.328.383.169.937.135,1.4-.971.507-1.276,1.524-1.727,2.358-.463.655-.35,1.728-1.253,2.01-1.309.26-2.674.158-4.031.293-.349.1-.79-.011-1.117.136-.011,1.885-.1,3.782-.1,5.747-1.208.055-2.282.112-3.523.158.114,1.963.012,3.883,0,5.723.057.157-.045.463.181.485l11.379.023,10.487.033,6.537-.057a.291.291,0,0,0,.237-.293Z" transform="translate(-41.729 -23.719)" fill="#bcbcbc"/>
          <path id="Path_7714" data-name="Path 7714" d="M142.3,156.438a1.74,1.74,0,0,1-1.276-.294c-.18-.338.248-.53.113-.845a1.258,1.258,0,0,0-.272.439.681.681,0,0,0,.113.621,1.108,1.108,0,0,0,1.321.08" transform="translate(-88.479 -97.559)" fill="#bcbcbc"/>
          <path id="Path_7715" data-name="Path 7715" d="M43.824,81.842c-.5-.565-1.275-.916-1.547-1.6h.113a6.492,6.492,0,0,0,1.84,1.117,1.42,1.42,0,0,1,.192.723.846.846,0,0,1-.6-.237m-1.863-2.653a2.726,2.726,0,0,1-.192-2.44c.125-.429.678-.158.891-.542a.922.922,0,0,0,.114-.734.773.773,0,0,0-.519-.486.963.963,0,0,0-.87.294,1.034,1.034,0,0,0,.112,1.061l-.519.993a6.894,6.894,0,0,1-.756-2.98c1.22-1.953,2.258-4,3.522-5.983A8.565,8.565,0,0,1,41.306,74.2c2.269-1.276,3.116-3.748,3.229-6.176a14.692,14.692,0,0,0-.169-2.359l-.271.542a17.45,17.45,0,0,0-3.218,4.955,6.188,6.188,0,0,1-.406,1.2c-.136-.067-.091-.2-.136-.3.193-1.117-.021-2.414.7-3.33.123-.643.9-.147,1.06-.756a.966.966,0,0,0,0-.621.634.634,0,0,0-.734-.35c-.192.012-.35.226-.441.373-.18.316.136.665-.045.948-.249.1-.428.531-.711.384a14.807,14.807,0,0,1,.113-2.788,57.072,57.072,0,0,0,3.082-5.205c.225-.011.135.249.191.374a7.776,7.776,0,0,1-2.326,5.147A4.563,4.563,0,0,0,43.5,63.79a15.211,15.211,0,0,0,.869-6.1c-.056.135-.237.215-.237.361-1.58,1.908-3.341,3.748-3.906,5.96a7.446,7.446,0,0,1,.565-3.556c.134-.632.857-.192,1.174-.6a1.032,1.032,0,0,0,.158-.7c-.08-.328-.44-.464-.734-.52a.818.818,0,0,0-.6.384,2.234,2.234,0,0,0,0,.869l-.644.463c-.034-.869-.315-1.942.136-2.71,1.2-1.648,2.077-3.421,3.273-5.1a10.26,10.26,0,0,1-.271,2.28l-.6,1.333a9.739,9.739,0,0,1-1.49,1.975,1.357,1.357,0,0,1,.3-.112,8.946,8.946,0,0,0,2.033-2.3c1.083-1.805.869-4.086.756-6.287l-.248.518A17.983,17.983,0,0,0,41.193,53.9a8.035,8.035,0,0,1-.892,1.9,5.96,5.96,0,0,1,.44-2.946c.068-.755,1.016-.372,1.107-1.117.1-.26-.068-.485-.248-.677a.754.754,0,0,0-.812,0,.91.91,0,0,0-.181.948c.067.281-.192.531-.463.632l-.08-1.625c-.033-.835.6-1.388.858-2.088.96-1.331,1.581-2.811,2.417-4.2a8.147,8.147,0,0,1-2.089,5.611A7.626,7.626,0,0,0,44.287,44.1a11.333,11.333,0,0,1,.057-1.412c-.124-.316.01-.745-.113-1.027a1.108,1.108,0,0,0-.238.509c-1.637,1.716-3.24,3.534-3.713,6.017a8.855,8.855,0,0,1,0-2.382c.316-.53.305-1.547,1.14-1.524.315-.135.271-.485.349-.757a.866.866,0,0,0-.406-.508c-.293,0-.711-.056-.869.294a.668.668,0,0,0,.113.813c.09.271-.26.428-.6.6a13.462,13.462,0,0,1,.1-2.247c1.253-1.873,2.235-3.86,3.5-5.78A8.551,8.551,0,0,1,41.521,42.2a7.29,7.29,0,0,0,2.823-4.741,15.354,15.354,0,0,0,.1-3.657c-.18.3-.418.6-.587.914-1.219,1.479-2.833,2.7-3.173,4.55a3.453,3.453,0,0,1-.462,1.219,4.7,4.7,0,0,1,.813-3.569c.214-.078.473-.044.621-.27.046-.225.271-.44.113-.677a.682.682,0,0,0-.6-.406.611.611,0,0,0-.486.294.835.835,0,0,0,.08.869c-.113.17-.148.372-.35.509-.113.09-.248-.011-.271-.136a7.339,7.339,0,0,1,.023-1.862c1.264-1.9,2.4-3.839,3.555-5.826a11.512,11.512,0,0,1-.406,2.574,8.594,8.594,0,0,1-1.445,2.574A7.465,7.465,0,0,0,43.8,32.4c.847-1.581.632-3.567.644-5.453a3.565,3.565,0,0,1-.78.982,9.177,9.177,0,0,0-3.6,6.254,29.835,29.835,0,0,1-.248-3,67.766,67.766,0,0,1,.158-8.129,13.211,13.211,0,0,1,.926,6.5,22.873,22.873,0,0,0,.565-3.06c.179-2.145-1.151-3.669-1.592-5.553-.35,1.331-1.118,2.506-1.547,3.816a5.824,5.824,0,0,0,.25,3.815,13.724,13.724,0,0,1,.97,6.367c-.6-.271-.779-.915-1.22-1.354-.078-.091-.078-.26-.191-.294a9.916,9.916,0,0,1-1.976-4.2,10.864,10.864,0,0,1,2.957,3.6c.023-.452-.247-.79-.3-1.219a7.239,7.239,0,0,0-1.276-2c-.542-.971-1.807-1.309-2.269-2.392a20.5,20.5,0,0,0,.214,3.905,6.423,6.423,0,0,0,3.138,4.064,2.465,2.465,0,0,1,.983.6,6.02,6.02,0,0,1-.056,1.784c-.271-.068-.328-.373-.543-.542-.023-.271.169-.666-.056-.915a.876.876,0,0,0-.564-.225c-.18.09-.452.147-.486.384a.791.791,0,0,0,.135.756c.2.17.4.135.679.135,1.23,1.344.88,3.454.812,5.419a7.148,7.148,0,0,1-1.118-1.276,15.779,15.779,0,0,1-2.326-4.573,6.872,6.872,0,0,1,3,3.851,6.07,6.07,0,0,0-.6-1.954c-.587-1.682-2.371-2.585-3.252-4.1l.057,2.122a7.29,7.29,0,0,0,2.924,5.634c.418.361,1.072.372,1.333.892-.091.5.067,1.062-.023,1.6-.192.079-.361-.192-.52-.327a1.048,1.048,0,0,1,.08-.486.617.617,0,0,0-.192-.678c-.215-.079-.463-.26-.7-.09a.755.755,0,0,0-.384.847c.2.643,1.085.35,1.254,1.083.676,1.479.383,3.308.328,5.148a16.478,16.478,0,0,1-3.342-5.667c.024-.181-.281-.406-.022-.507A7.667,7.667,0,0,1,38.947,48a5.1,5.1,0,0,0-.349-1.705c-.395-1.795-2.359-2.923-3.308-4.447a19.3,19.3,0,0,0-.023,3.42,6.6,6.6,0,0,0,3.218,4.955c.373.238.824.305,1.118.655a18.33,18.33,0,0,1,.022,2.112c-.327-.147-.418-.531-.621-.791a.888.888,0,0,0,.113-.756.6.6,0,0,0-.6-.406.618.618,0,0,0-.575.294,1.006,1.006,0,0,0-.023.655.709.709,0,0,0,.7.406c1.31,1.4.881,3.375.848,5.4a12.726,12.726,0,0,1-3.388-6.051,9.291,9.291,0,0,1,3.059,4.425,2.189,2.189,0,0,0-.191-.9,9.446,9.446,0,0,0-3.116-5.012c-.214-.2-.214-.553-.485-.7a6.958,6.958,0,0,0-.022,1.378A7.421,7.421,0,0,0,39.3,58.507a7.068,7.068,0,0,1,.17,1.625c.01.113.01.316-.17.249a.954.954,0,0,1-.373-1.084.829.829,0,0,0-.519-.542.677.677,0,0,0-.7.193.88.88,0,0,0-.112.7.919.919,0,0,0,.847.485,2.381,2.381,0,0,1,.835,1.253c.215,1.434.135,2.676.271,4.143-.023.125-.126.293-.271.216a9.516,9.516,0,0,1-2.517-3.489,10.171,10.171,0,0,1-.734-2.337,9.68,9.68,0,0,1,3,4.369l-.158-1.2c-.35-1.931-1.818-3.376-3.229-4.821-.124-.147-.169-.361-.293-.463,0,1.682-.191,3.522.383,5.012a6.264,6.264,0,0,0,3.625,3.771,1.185,1.185,0,0,1,.135.835,2.966,2.966,0,0,1-.08,1.061c-.259.046-.473-.181-.676-.328-.022-.27.158-.542.057-.846a.85.85,0,0,0-.519-.406c-.283-.125-.508.112-.7.225a.783.783,0,0,0-.034.723c.125.349.519.384.813.462.486.441,1.094.971,1.083,1.682L39.409,73.9a1.259,1.259,0,0,1-.518-.384,16.422,16.422,0,0,1-2.89-4.9v-.271a10.56,10.56,0,0,1,1.7,1.569,9.721,9.721,0,0,1,1.242,2.4,14.564,14.564,0,0,0-.236-1.489c-.294-1.715-1.9-2.732-2.958-4.086-.226-.147-.248-.5-.463-.6a14.241,14.241,0,0,0-.1,2.089,6.729,6.729,0,0,0,2.4,5.261,9.56,9.56,0,0,0,1.953,1.218l.349,2.542c-.372-.012-.6-.374-.892-.566-.135-.237.147-.417.159-.654a1.053,1.053,0,0,0-.294-.677.966.966,0,0,0-.678-.158.625.625,0,0,0-.463.406.874.874,0,0,0,.114.78.713.713,0,0,0,.621.27,24.327,24.327,0,0,1,1.953,2.066,9.221,9.221,0,0,0,3.714,3.895c.406.181.734.588,1.186.655a21.876,21.876,0,0,0-.78-2.382,4.719,4.719,0,0,1-2.574-1.7" transform="translate(-22.105 -13.153)" fill="#bcbcbc"/>
          <path id="Path_7716" data-name="Path 7716" d="M165.459,81.226a4.407,4.407,0,0,1-1,.621c-.079-.824.926-.915,1.379-1.377a9.254,9.254,0,0,1,1-.813c-.227.689-.881,1.015-1.379,1.569M172.2,28.1a8.678,8.678,0,0,0-2.6,5.228c-.057.1.011.293-.158.293a7.9,7.9,0,0,1-.226-1.76c.09-2.969-.26-5.78-.022-8.692a9.444,9.444,0,0,1,.971,5.983,6.757,6.757,0,0,0,.407-3.737,17.068,17.068,0,0,0-1.649-4.629l-.158.294a21.542,21.542,0,0,1-1,3.194,6.5,6.5,0,0,0,.62,5.147c.644,1.445.351,3.342.463,4.933-.067.1.033.361-.192.3a23.939,23.939,0,0,1-3.636-5.667.291.291,0,0,1,0-.351,11.228,11.228,0,0,1,3.387,3.793c-.316-2.279-2.2-3.793-3.872-5.339-.124-.169-.158-.406-.35-.464A8.79,8.79,0,0,0,167.3,34.41c.441.339.96.519,1.355.892a5.381,5.381,0,0,1-.056,2.111c-.476-.2-.271-.677-.329-1.05-.078-.192-.18-.462-.428-.486a.657.657,0,0,0-.565.079.69.69,0,0,0,.587,1.221c1.242,1.128.689,3.091.655,4.819a15.7,15.7,0,0,1-3.545-5.938,11.044,11.044,0,0,1,3.274,3.85c-.462-2.337-2.722-3.895-3.93-5.882a11.58,11.58,0,0,0,.024,2.337,7.647,7.647,0,0,0,2.416,5.148c.553.588,1.3.712,1.875,1.242l-.136,2.032c-.135-.3-.768-.508-.407-.914a.712.712,0,0,0-.191-.677.686.686,0,0,0-.678-.17.79.79,0,0,0-.406.756c.068.5.666.5,1,.632,1.128,1.344.644,3.467.721,5.149l-.292.136a13.556,13.556,0,0,1-2.01-2.823c-.136-.17-.045-.429-.271-.564a14.12,14.12,0,0,1-1.027-2.687,12.169,12.169,0,0,1,2.337,2.653c.282.328.35.836.7,1.062a4.993,4.993,0,0,0-.621-1.7c-.564-1.682-2.472-2.721-3.094-4.369a18.807,18.807,0,0,0-.079,2.088c.035,2.527.881,5.079,3.173,6.423.361.282,1.038.158,1.141.734a11.229,11.229,0,0,1-.034,2.382.679.679,0,0,1-.351-.249c-.564-.44-.032-1.06-.349-1.569a.872.872,0,0,0-.734-.294c-.226.057-.373.328-.462.542a.756.756,0,0,0,.214.757c.665-.113.936.553,1.219.971.79,1.252.429,2.946.328,4.549a17.182,17.182,0,0,1-1.9-2.653c-.5-.96-1.073-1.874-1.491-2.868-.056-.113-.1-.328.034-.406.666.632,1.264,1.208,1.863,1.9A12.3,12.3,0,0,1,168,55.736a6.584,6.584,0,0,0-.587-1.8c-.61-1.671-2.417-2.868-3.151-4.47a6.1,6.1,0,0,0-.056,1.2,7.49,7.49,0,0,0,4.121,7.564,7.182,7.182,0,0,1,.112,2.461c-.293-.068-.406-.395-.654-.564-.238-.238-.125-.564,0-.812a.766.766,0,0,0-.271-.6.694.694,0,0,0-.645-.136c-.169.09-.417.213-.439.429a.839.839,0,0,0,.27.847c.678-.079.858.654,1.219,1.049.824,1.275.577,2.912.463,4.685a17.452,17.452,0,0,1-3.544-5.171c-.045-.123-.17-.3,0-.406,1.083.948,2.483,1.885,3.116,3.2a3.335,3.335,0,0,0-.406-.949c-.8-1.58-2.45-2.8-3.387-4.278a9.4,9.4,0,0,0,1.976,6.774c.666.689,1.513,1.028,2.19,1.625a8.785,8.785,0,0,1,0,2.3c-.2.023-.226-.214-.373-.293-.553-.4.226-1-.3-1.412a1.05,1.05,0,0,0-.915-.191c-.225.023-.383.271-.439.463a.8.8,0,0,0,.191.734.914.914,0,0,0,.79.214,2.734,2.734,0,0,1,.915,1.377,17.2,17.2,0,0,1-.057,4.37,24.784,24.784,0,0,1-3.386-5.341c-.012-.168-.192-.326-.046-.485.553.452,1.095,1.027,1.671,1.49a10.74,10.74,0,0,1,1.468,2.213,10.875,10.875,0,0,0-.294-1.05c-.531-1.784-2.63-2.946-3.5-4.641,0,1.75-.012,3.748.835,5.262a10.4,10.4,0,0,0,3.228,3.387,4.631,4.631,0,0,1-.462,2.552c-.193-.034-.193-.283-.294-.407-.045-.407-.53-.756-.215-1.174.113-.259-.068-.474-.225-.677a.935.935,0,0,0-.644-.158c-.214.113-.452.181-.541.429a.841.841,0,0,0,.191.813,1.034,1.034,0,0,0,.677.169,1.963,1.963,0,0,1,.43,1.727c-.418,1.434-1.976,2.427-3.23,2.981a19.168,19.168,0,0,0-.507,2.066,9.979,9.979,0,0,0,3.872-2.981,20.139,20.139,0,0,1,2.71-3.6l.678-.055a1.177,1.177,0,0,0,.429-.543.852.852,0,0,0-.158-.676.941.941,0,0,0-.971-.114c-.294.114-.351.418-.384.677.338.564-.362.9-.677,1.3-.08.033-.214.068-.271-.023a16.221,16.221,0,0,0,.485-2.9,13.974,13.974,0,0,1,1.524-2.574c.666-.959,1.061-2.055,1.784-2.924a9.293,9.293,0,0,1-2.19,5.713,7.007,7.007,0,0,0,2.845-4.436A23.274,23.274,0,0,0,173.2,65.7c-.542,1.254-1.806,2.111-2.63,3.275a9.822,9.822,0,0,0-.994,2.065c-.17.373-.182.836-.5,1.049a7.49,7.49,0,0,1,.634-3.7c.146-.373.463-.248.778-.271.169-.1.383-.237.406-.44a1.013,1.013,0,0,0-.191-.779.834.834,0,0,0-.677-.191.63.63,0,0,0-.452.508,1.052,1.052,0,0,1-.633,1.331l.135-2.822c.78-1.456,1.807-2.8,2.553-4.278.327-.5.552-1.095,1.106-1.377a9.492,9.492,0,0,1-2.383,5.577A8.627,8.627,0,0,0,172.5,63.4a12.562,12.562,0,0,0,.948-5.882c-.994,1.84-3.171,3.194-3.77,5.2-.182.407-.148.893-.486,1.22-.024-1.412-.091-2.868.89-3.929.271-.113.644.022.813-.327a.832.832,0,0,0-.191-.915.9.9,0,0,0-.758-.113c-.529.293-.259.9-.214,1.332a1.1,1.1,0,0,1-.79.587,16.906,16.906,0,0,1,.091-2.518c1.163-1.975,2.236-4,3.466-5.96a8.527,8.527,0,0,1-1.794,5.317,6.419,6.419,0,0,0,2.414-4.256,18.618,18.618,0,0,0,.248-3.15,1.124,1.124,0,0,0,0-.7c-1.095,1.739-2.946,3.218-3.555,5.171-.2.474-.226,1.05-.644,1.332a4.486,4.486,0,0,1,.915-3.658c.2-.033.43-.022.576-.215a.778.778,0,0,0,.158-.6c-.023-.248-.294-.35-.464-.485a.679.679,0,0,0-.755.237,1.4,1.4,0,0,0,.113,1l-.634.734a13.615,13.615,0,0,1-.021-2.788c1.467-1.919,2.461-4.064,3.771-6.1a8.63,8.63,0,0,1-2.3,5.983c.271-.08.474-.384.7-.508a7.706,7.706,0,0,0,2.247-5.475,13.648,13.648,0,0,0,.078-2.63,2.726,2.726,0,0,0-.236.429c-.892,1.185-1.953,2.37-2.9,3.522a6.561,6.561,0,0,0-.756,1.795,3.073,3.073,0,0,1-.52,1.321c-.1-1.264-.18-3.025.848-4.03a.816.816,0,0,0,.677-.214c.214-.113.124-.4.181-.6a.73.73,0,0,0-.373-.464c-.3-.181-.554.068-.79.215a.891.891,0,0,0,0,.891.65.65,0,0,1-.6.384,18.879,18.879,0,0,1,.115-2.552c1.275-1.716,2.258-3.568,3.442-5.306a12.669,12.669,0,0,1-.576,2.766,14.346,14.346,0,0,1-1.489,2.54c2.382-1.964,2.923-4.866,2.9-7.857a5.842,5.842,0,0,1-.677.9,14.789,14.789,0,0,0-3.579,5.148c-.012-1.04-.2-2.406.733-3.173.227-.068.5.022.655-.193a1.015,1.015,0,0,0,.158-.79c-.044-.17-.237-.237-.373-.316a.641.641,0,0,0-.767.294.782.782,0,0,0,0,.6c.2.283-.1.419-.453.543a5.552,5.552,0,0,1,.238-2.338c1.23-1.953,2.336-3.951,3.6-5.87a8.1,8.1,0,0,1-.451,2.438,9.378,9.378,0,0,1-1.66,3.081,8.817,8.817,0,0,0,2.878-6.637,3.209,3.209,0,0,0-.091-1.411A10.377,10.377,0,0,1,172.2,28.1" transform="translate(-102.581 -13.057)" fill="#bcbcbc"/>
          <path id="Path_7717" data-name="Path 7717" d="M70.785,177.652a4.557,4.557,0,0,1-2.168.892c-.271-1.085,1.027-.61,1.49-1.028.215-.125.531-.181.6-.463a13.4,13.4,0,0,0,.135-2.607c-1.581-.08-3.093.034-4.629.034l.158-1.977a13.33,13.33,0,0,0-.215-2.2c.012-.474.847-.926.192-1.354-.226-.046-.756.033-.6-.351a1.869,1.869,0,0,1,.385-.621c.372.113.847-.146,1.083.215-.711,1.524-.068,3.454-.384,5.147,0,.17-.248.4,0,.519,1.513-.123,3.138-.113,4.628-.113-.18,1.423.43,2.958-.677,3.907m1.084-4.832-4.516-.1a7.414,7.414,0,0,0-.09-1.3c.146-1.118-.339-2.427.439-3.228-.044-.079.069-.158.1-.249a.3.3,0,0,0-.046-.406c-.744-.193-1.591.18-2.28-.214a9.1,9.1,0,0,0-.655,1.738c.237.305.688.192,1.219.406-.26.249-.6.406-.836.677a27.078,27.078,0,0,1,.136,4.82,34.713,34.713,0,0,1,4.718.023,4.828,4.828,0,0,1-.034,1.716c-.428.678-1.264.587-2.055.779l-.3,1.7a1.785,1.785,0,0,0,.441-.045,27.7,27.7,0,0,0,2.9-1.14c1.264-.892.835-2.461.891-3.794-.01-.462.26-.992-.033-1.388" transform="translate(-40.723 -105.113)" fill="#bcbcbc"/>
          <path id="Path_7718" data-name="Path 7718" d="M155.09,184.3c-.147.023-.271.169-.428.078-.069-.4.18-.767.056-1.2-.215-.215-.632.012-.79-.294a1.8,1.8,0,0,1,.35-.835l1.027.18.135.226a16.48,16.48,0,0,0-.349,1.841m-.915-3.151c-.18-.056-.3-.3-.463-.35a11.894,11.894,0,0,0-.924,2.167c.124.554.88.147,1.219.463.032.644-.147,1.242-.158,1.841.564-.136,1.095-.361,1.648-.542a13.271,13.271,0,0,1,.349-2.055c.114-.383.452-.835.249-1.275-.553-.282-1.355,0-1.92-.249" transform="translate(-95.982 -113.581)" fill="#bcbcbc"/>
          <path id="Path_7719" data-name="Path 7719" d="M141.444,153.14a.391.391,0,0,0-.1-.293l-.135-.08c-.475-.168-.824.226-1.085.508.317.022.475-.361.78-.373a.582.582,0,0,1,.542.237" transform="translate(-88.025 -95.944)" fill="#bcbcbc"/>
          <path id="Path_7720" data-name="Path 7720" d="M131.957,153.079c-.655.091-.147.938-.779,1.028-.316.1-.722.056-.983.225a1.84,1.84,0,0,0,1.2-.134c.519-.08.1-.69.463-.9.338-.158.665.056.971.056-.272-.146-.509-.35-.87-.271" transform="translate(-81.789 -96.154)" fill="#bcbcbc"/>
          <path id="Path_7721" data-name="Path 7721" d="M134.934,156.912l.248-.034c.249-.033.372-.3.429-.507a.405.405,0,0,0-.159-.5c-.192.226.113.384.057.632-.125.226-.372.294-.576.407" transform="translate(-84.766 -97.92)" fill="#bcbcbc"/>
        </g>
      </g>
    </g>
    <g id="Group_13743" data-name="Group 13743" transform="translate(1199.284 10153.233)">
      <g id="Group_13739" data-name="Group 13739" transform="translate(0 0)" clip-path="url(#clip-path-2)">
        <path id="Path_7722" data-name="Path 7722" d="M13.8,3.653A9.533,9.533,0,0,1,13.9,5.068a4.461,4.461,0,0,1-.177,1.38H12.488q-1.1,1.591-1.592,2.441a11.99,11.99,0,0,0-.814,1.663A28.858,28.858,0,0,1,12.93,13.31a3.713,3.713,0,0,1,.866,2.477,4.279,4.279,0,0,1-.071.637,3.383,3.383,0,0,1-.566,1.149,7.74,7.74,0,0,1-1.026,1.079l-7.571-9.3A3.229,3.229,0,0,0,3.325,11.3a4.042,4.042,0,0,0,.442,1.4q.335.62,1.185,1.893a7.208,7.208,0,0,0,.778.849l-.743,2.936H0l.283-1.769h1.38q-.39-.989-.672-1.857a5.479,5.479,0,0,1-.283-1.716A4.485,4.485,0,0,1,1.663,10.1q.425-.424.938-.884a3.26,3.26,0,0,1,.973-.637L1.238,5.891A3.347,3.347,0,0,1,.53,3.945,4.213,4.213,0,0,1,.6,3.308a5.826,5.826,0,0,1,.813-1.291,3.612,3.612,0,0,1,1.06-.938L9.1,9.319q.6-1.239.953-1.823a6.547,6.547,0,0,1,.777-1.045c-.354-.094-.655-.177-.9-.247a2.619,2.619,0,0,1-.955-.672,3.08,3.08,0,0,1-.583-2.2,4.953,4.953,0,0,1,.124-1.062,1.972,1.972,0,0,1,.548-.991A1.4,1.4,0,0,1,10.082.858a.8.8,0,0,0,.053.548c.083.177.171.348.266.513a3.485,3.485,0,0,0,1.769.548q1.415.2,1.627,1.185" transform="translate(0 -0.434)" fill="#0f1b2f"/>
        <path id="Path_7723" data-name="Path 7723" d="M42.467,3.05A7.126,7.126,0,0,1,43,5.672a7.941,7.941,0,0,1-.885,3.579,12.366,12.366,0,0,1-2.335,3.224L38.752,11.8q.743-1.1,1.221-1.9a4.721,4.721,0,0,0,.619-1.576,6.4,6.4,0,0,0,.106-.956q0-.567-.265-.673a11.26,11.26,0,0,0-1.946-.231,2.562,2.562,0,0,1-2.246-1.151,4.221,4.221,0,0,1-.566-2.054A2.113,2.113,0,0,1,35.71,2.8a3.209,3.209,0,0,1,.194-1.08,2.353,2.353,0,0,1,.637-.957A1.445,1.445,0,0,1,37.549.358a4.714,4.714,0,0,0,.071.992.745.745,0,0,0,.5.46,17.187,17.187,0,0,0,2,.124A2.672,2.672,0,0,1,42.467,3.05" transform="translate(-18.022 -0.181)" fill="#0f1b2f"/>
        <path id="Path_7724" data-name="Path 7724" d="M75.335,3.119a3.466,3.466,0,0,1,.035.48v.444a8.207,8.207,0,0,1-.389,2.79q-.39,1.048-3.113,6.307L69,18.258H59.911q-.672-1.982-1.114-3.8T58,10.436a6.381,6.381,0,0,1,.23-1.8q.229-.779.8-2.3a2.588,2.588,0,0,0-.8-.194,1.717,1.717,0,0,1-1.114-.743,3.6,3.6,0,0,1-.5-2.142,3.642,3.642,0,0,1,.247-1.45,1.884,1.884,0,0,1,.6-.814,2.3,2.3,0,0,1,.814-.354,2.613,2.613,0,0,0,.247,1.176,1.819,1.819,0,0,0,1.309.429,2.319,2.319,0,0,1,1.309.321,2.146,2.146,0,0,1,.46,1.39q0,.321-.07.962a9.426,9.426,0,0,0-.071.962v.571h-.831a4.261,4.261,0,0,0-.571,1.25,5.3,5.3,0,0,0-.19,1.426,7.062,7.062,0,0,0,.372,2.218,11.959,11.959,0,0,0,.973,2.182h1.592l2.582-7.182Q64.7,5.947,64,5.522A1.98,1.98,0,0,1,63.57,4.6a6.043,6.043,0,0,1-.122-1.274v-1.1a5.961,5.961,0,0,1,.442-.991.96.96,0,0,1,.62-.424h.567a4.507,4.507,0,0,0,.142.743.842.842,0,0,0,.531.566,5.809,5.809,0,0,1,1.56.178,1.539,1.539,0,0,1,.95.75v.891a7.953,7.953,0,0,1-.1,1.231q-.1.66-.209,1.266h-.828q-.482,0-.482.519l-2.11,6.7q.812,0,2.153-.074t1.589-.073a4.161,4.161,0,0,0,2.454-1.66,21.484,21.484,0,0,0,2.136-5.373,3.494,3.494,0,0,0-.672-.232,1.65,1.65,0,0,1-.813-.446.975.975,0,0,1-.655-.589,3.867,3.867,0,0,1-.336-.821,4.946,4.946,0,0,1-.106-.661q-.036-.357-.036-.857a3.523,3.523,0,0,1,.195-1.213,1.684,1.684,0,0,1,.69-.857l.354-.143a.713.713,0,0,1,.389-.036A1.153,1.153,0,0,0,72.292,1.8a7.685,7.685,0,0,0,1.5.231,1.573,1.573,0,0,1,1.539,1.084" transform="translate(-28.604 -0.313)" fill="#0f1b2f"/>
        <path id="Path_7725" data-name="Path 7725" d="M109.364,14.5l-.814,4.033H100.8l.96-4.634h4.983V10.6q0-1.313-.108-2.483-.324-.744-1.67-.833a3.4,3.4,0,0,1-1.867-.515,2.633,2.633,0,0,1-.79-1.153,4.835,4.835,0,0,1-.269-1.685,5.79,5.79,0,0,1,.142-1.383,2.043,2.043,0,0,1,.583-.993,1.957,1.957,0,0,1,1.008-.532q.141.5.212.869a.739.739,0,0,0,.478.55,7.252,7.252,0,0,0,2.122.177q1.716,0,1.963,1.348V8.147a29.677,29.677,0,0,0,.177,3.866,12.8,12.8,0,0,0,.637,2.483" transform="translate(-50.924 -0.514)" fill="#0f1b2f"/>
        <path id="Path_7726" data-name="Path 7726" d="M140.156,15.758a2.034,2.034,0,0,1-.3.654q-.159.2-1.4,1.255l-1.274,1.061V9.678a3.762,3.762,0,0,1,.343-1.52q.478-.919.684-1.379h-9.269a2.6,2.6,0,0,1-1.362-.372,2.854,2.854,0,0,1-1.008-1.044,5.378,5.378,0,0,1-.389-2.052,3.777,3.777,0,0,1,.708-2.37,2.234,2.234,0,0,1,1.1-.424,2.661,2.661,0,0,0,.124.889.922.922,0,0,0,.513.526h9.658c.353.141.719.271,1.1.389a1.655,1.655,0,0,1,.654.8,3.235,3.235,0,0,1,.3,1.432,4.721,4.721,0,0,1-.3,1.75,18.45,18.45,0,0,1-1.008,2.033,19.8,19.8,0,0,0,.425,3.977q.425,2.069.708,3.448m-10.861.7a1.339,1.339,0,0,1-.6.869q-.566.443-1.061.834l-.814.568a17.717,17.717,0,0,1-.106-1.952q0-.922.058-1.791t.118-1.756v-1.42a1.378,1.378,0,0,1,.384-1.064l1.78-1.348q.453.143.454.355-.248.568-.46,1.135,0,2.98.247,5.57" transform="translate(-63.745 -0.262)" fill="#0f1b2f"/>
        <path id="Path_7727" data-name="Path 7727" d="M197.953,16.923A11.053,11.053,0,0,0,196.609,18q-.85.764-1.132.973H195.3l.283-6.525V10.333a10.777,10.777,0,0,0-.123-1.728A3.225,3.225,0,0,0,194.95,7.3l-.634-.352H191.6q-.987,0-1.409-.041a10.148,10.148,0,0,1-1.162-.207,10.152,10.152,0,0,0-1.04,1.468,4.756,4.756,0,0,0-.58,1.539,15.393,15.393,0,0,0,.477,1.946q.3.955,1.079,2.9l-.636,3.715H183.52l.743-4.458h2.547q-.637-1.581-.866-2.3a5.408,5.408,0,0,1-.23-1.654,4.032,4.032,0,0,1,.212-1.258,6.162,6.162,0,0,1,.866-1.221,7.683,7.683,0,0,0,.69-.863,2.937,2.937,0,0,1-1.291-.265,2.2,2.2,0,0,1-.937-.973,3.631,3.631,0,0,1-.389-1.769,3.63,3.63,0,0,1,.845-2.441q.22-.141.532-.336A1.491,1.491,0,0,1,186.81.5a8.65,8.65,0,0,0,.124.911.749.749,0,0,0,.477.619h6.922a3.005,3.005,0,0,1,1.616.8,4.7,4.7,0,0,1,1.125,1.68q.386,4,.632,6.969t.246,5.448" transform="translate(-92.711 -0.253)" fill="#0f1b2f"/>
        <path id="Path_7728" data-name="Path 7728" d="M226.128,3.05a7.115,7.115,0,0,1,.53,2.622,7.947,7.947,0,0,1-.884,3.579,12.376,12.376,0,0,1-2.335,3.224l-1.026-.673q.743-1.1,1.22-1.9a4.712,4.712,0,0,0,.62-1.576,6.481,6.481,0,0,0,.106-.956q0-.567-.266-.673a11.259,11.259,0,0,0-1.946-.231A2.56,2.56,0,0,1,219.9,5.318a4.217,4.217,0,0,1-.567-2.054,2.115,2.115,0,0,1,.035-.461,3.223,3.223,0,0,1,.195-1.08A2.358,2.358,0,0,1,220.2.765a1.446,1.446,0,0,1,1.008-.407,4.636,4.636,0,0,0,.071.992.744.744,0,0,0,.5.46,17.164,17.164,0,0,0,2,.124,2.672,2.672,0,0,1,2.352,1.116" transform="translate(-110.805 -0.181)" fill="#0f1b2f"/>
        <path id="Path_7729" data-name="Path 7729" d="M253.731,12.956l-.92,4.847H240.642l1.061-4.847h8.879a6.019,6.019,0,0,0,.248-1.049q.106-.658.247-1.476V9.258a6.077,6.077,0,0,0-.212-1.778,1.813,1.813,0,0,0-.99-1.067,9.383,9.383,0,0,0-1.2-.142q-.637-.036-1.486-.036h-3.113a4.982,4.982,0,0,1-1.68-.194,2.634,2.634,0,0,1-1.008-.9,3.675,3.675,0,0,1-.53-2.2,3.742,3.742,0,0,1,.53-2.019,1.225,1.225,0,0,1,.548-.549A4.647,4.647,0,0,1,242.765,0q.07.534.177,1.032a.774.774,0,0,0,.424.391h6.651a4.181,4.181,0,0,1,1.432.708,2.787,2.787,0,0,1,.938,1.221,8.448,8.448,0,0,1,.442,1.716,12.889,12.889,0,0,1,.159,2.052,19.16,19.16,0,0,1-.142,2.529q-.141,1.044-.6,3.308Z" transform="translate(-121.568 0)" fill="#0f1b2f"/>
      </g>
    </g>
  </g>
</svg>
