<svg xmlns="http://www.w3.org/2000/svg" xmlns:xlink="http://www.w3.org/1999/xlink" width="187.256" height="68.236" viewBox="0 0 187.256 68.236">
  <defs>
    <clipPath id="clip-path">
      <rect id="Rectangle_146" data-name="Rectangle 146" width="68.236" height="68.236" fill="none"/>
    </clipPath>
    <clipPath id="clip-path-2">
      <rect id="Rectangle_147" data-name="Rectangle 147" width="106.963" height="15.153" fill="none"/>
    </clipPath>
  </defs>
  <g id="Group_14249" data-name="Group 14249" transform="translate(-1327.744 -9493.188)">
    <g id="Group_13742" data-name="Group 13742" transform="translate(1446.764 9493.188)">
      <rect id="Rectangle_145" data-name="Rectangle 145" width="68.236" height="68.236" fill="#0f1b2f"/>
      <g id="Group_13737" data-name="Group 13737">
        <g id="Group_13736" data-name="Group 13736" clip-path="url(#clip-path)">
          <path id="Path_7701" data-name="Path 7701" d="M130.858,142.4l-.722-.219c.2.228.439.182.722.219" transform="translate(-90.978 -99.398)" fill="#bcbcbc"/>
          <path id="Path_7702" data-name="Path 7702" d="M126.645,138.2c.191-.018.246-.21.411-.3.21-.045.347.229.53.128l-.247-.238c-.311-.182-.494.238-.694.411" transform="translate(-88.537 -96.298)" fill="#bcbcbc"/>
          <path id="Path_7703" data-name="Path 7703" d="M132.972,138.886a.423.423,0,0,1,.02-.192c.1-.165.292-.393.521-.393a.477.477,0,0,0-.541.585" transform="translate(-92.956 -96.68)" fill="#bcbcbc"/>
          <path id="Path_7704" data-name="Path 7704" d="M135.828,140.156c-.045-.128.009-.347-.138-.374a.934.934,0,0,1-.392.922c.219-.1.31-.438.611-.375.2-.1-.072-.073-.082-.173" transform="translate(-94.586 -97.721)" fill="#bcbcbc"/>
          <path id="Path_7705" data-name="Path 7705" d="M128.4,135.779c.082.018.238-.127.329.018l.082,2.193c.064-.8-.01-1.572-.018-2.321-1.434-.055-2.915-.073-4.45-.109l-.027,1.508c.064.347-.137.648.091.9a18.61,18.61,0,0,1,.082-2.328c1.307-.019,2.622.128,3.91.136" transform="translate(-86.895 -94.77)" fill="#bcbcbc"/>
          <path id="Path_7706" data-name="Path 7706" d="M116.072,156.149c-.421.018-.055.429-.357.566-.127.064-.255-.01-.521.109a.871.871,0,0,0,.768.028c.183-.127.429-.256.392-.529-.054-.092-.136-.228-.283-.174" transform="translate(-80.532 -109.154)" fill="#bcbcbc"/>
          <path id="Path_7707" data-name="Path 7707" d="M92.687,185.637a1.916,1.916,0,0,1-.193.612c-1.462-1.005-2.749-2-4.147-2.823-.028.758-.091,1.6-.046,2.275.438.11.8.009,1.142.137.028.786-.9.228-1.3.394-.11.036-.274.027-.329-.092a7.7,7.7,0,0,0-.127-3.133c.173-.146.255-.612.566-.42l.639.575a26.373,26.373,0,0,0,3.134,2.166,1.99,1.99,0,0,1,.659.311m-.7-3.509a3.516,3.516,0,0,0,.813.064c.1.283-.091.548-.046.859a.855.855,0,0,1-.5.85c-.009-.329.019-.658-.018-1.005-.165-.092-.421-.009-.575-.064a1.284,1.284,0,0,1,.329-.7m1.17,1.471.018-1.974c-.613-.082-1.38.2-1.846-.247l-.566,1.407v.238c.21.192.539.091.786.182.146.33,0,.659,0,1.069-1.271-.748-2.431-1.781-3.683-2.6-.237.447-.566.849-.786,1.316a3.872,3.872,0,0,1,.283,1.508,6.934,6.934,0,0,1-.31,2.22l2.458-.073c.054-.4.366-.713.375-1.133-.32-.156-.7.018-1.05-.074-.493-.146-.156-.8-.138-1.27,1.234.868,2.476,1.69,3.883,2.631a5.166,5.166,0,0,0,.722-1.38,7.971,7.971,0,0,1-1.1-.813c.337-.292.795-.566.95-1" transform="translate(-60.856 -126.801)" fill="#bcbcbc"/>
          <path id="Path_7708" data-name="Path 7708" d="M116.675,118.987l-.173-.036.063.238c.11-.018.074-.128.11-.2" transform="translate(-81.446 -83.158)" fill="#bcbcbc"/>
          <path id="Path_7709" data-name="Path 7709" d="M134.527,181.963l-.2,2.047a3.578,3.578,0,0,1-.941,1.27c-1.435.366-3,.429-4.468.7.22-1.078-.247-2.34.348-3.162-.119-.421-.722-.11-.567-.53l.366-.567a3.134,3.134,0,0,1,.794.237,5.332,5.332,0,0,1-.393,1.124,12.24,12.24,0,0,0-.027,2.238c.493-.009,1.16.1,1.3-.466a6.787,6.787,0,0,0,.85-1.909.382.382,0,0,0,.137-.256c-.155-.146-.457.008-.576-.182.018-.219.219-.374.311-.567.256.009.64-.137.786.128a17.156,17.156,0,0,1-1.069,3.115,4.766,4.766,0,0,0,2.275-.438,2.363,2.363,0,0,0,.485-2.019c-.11-.156-.329-.046-.458-.174a2.6,2.6,0,0,1,.5-.7c.174.073.421-.055.549.109m-1.471.813c.119.165.365.037.484.2a2.913,2.913,0,0,1-.155,1.05c-.329.521-1,.475-1.582.548a.883.883,0,0,1,.092-.421,27.761,27.761,0,0,0,.858-2.933,6.225,6.225,0,0,0-1.717.064l-.476,1.407c.055.311.531,0,.549.348l-.576,1.16c-.192.192-.311.639-.659.548a4.446,4.446,0,0,1,.53-3.179.281.281,0,0,0-.064-.375,2.769,2.769,0,0,1-1.736-.393l-.7,1.535-.046.311a1.444,1.444,0,0,0,.375.22c.192.045.383-.1.53.045-.046.265-.32.438-.484.658.018.932-.028,1.928-.046,2.851a4.541,4.541,0,0,0,.923-.091.953.953,0,0,1,.457,0c1.243-.193,2.5-.32,3.728-.53l.329-.256c.429-.74,1.151-1.389,1.077-2.348.01-.658.156-1.334.128-2l-1.352.073c-.137.512-.356.987-.466,1.507" transform="translate(-89.384 -126.399)" fill="#bcbcbc"/>
          <path id="Path_7710" data-name="Path 7710" d="M126.765,153.847l6.469-.219c-1.956.009-3.947.054-5.985.137a.38.38,0,0,1-.265-.219,15.149,15.149,0,0,1-.019-2.659c1.042-.119,2.266-.1,3.29-.128.932.019,2.055-.128,3.069-.045l.02-.156c-2.212-.008-4.286.1-6.551.156-.01,1.05.027,2.128-.028,3.133" transform="translate(-88.621 -105.254)" fill="#bcbcbc"/>
          <path id="Path_7711" data-name="Path 7711" d="M113.564,185.881c0-1.124,0-2.028-.063-3.024-1.069-.046-1.856-.164-2.833-.156a1.042,1.042,0,0,1,.283-.7,10.256,10.256,0,0,0,2.851.2c.155.018.147.183.183.283.019,1.023.037,2.092.064,3.134-.173.054-.283.337-.484.264m.859-2.476-.092-1.516c-.109-.165-.118-.376-.347-.412-.748-.073-1.653.046-2.484-.027a1.537,1.537,0,0,1-1.133-.283,9.983,9.983,0,0,0-.576,1.69c.055.2.274.2.421.283l2.567.156c.1,1.123.073,2.247.11,3.381a10.346,10.346,0,0,0,1.553-.594c-.009-.868-.081-1.6-.018-2.677" transform="translate(-76.754 -126.653)" fill="#bcbcbc"/>
          <path id="Path_7712" data-name="Path 7712" d="M126.735,140.724l-.265.246c-.091.146-.374.054-.346.238a.731.731,0,0,0,.612-.484" transform="translate(-88.171 -98.38)" fill="#bcbcbc"/>
          <path id="Path_7713" data-name="Path 7713" d="M91.865,71.637l-.018,3.709-7.941.173c-.129-.063-.375.046-.421-.137-.109-1.343.037-2.686-.036-4.076.055-.109-.054-.309.11-.393l.237-.027,4.7.11,3.289.091a1.028,1.028,0,0,1,.082.548m-8.817-4.651a1.548,1.548,0,0,0,.512-.521c1.69.082,3.38.109,5.042.128.22.037.11.275.175.421v3.024c-.065.083-.027.248-.175.266-1.826-.046-3.6.036-5.445-.027a21.026,21.026,0,0,1-.109-3.289m-6.642,4.275c-.164.1-.036.321-.11.467.037,1.3-.081,2.5-.045,3.837a.968.968,0,0,1-.329.019l-.036-.2.018-4.468.2-.063c1.965-.028,3.865-.165,5.783,0l.832.018c.1.063.055.183.073.282-2.147.193-4.34-.026-6.387.11m4.011,2.3c-.009-.128.191-.138.219-.019-.136.156-.219.092-.219.019m2.064.721c-.082.01-.173-.1-.237,0,.046.128.265.019.283.184-.219.155-.475-.074-.7-.028a1.4,1.4,0,0,1-.923-.173,1.213,1.213,0,0,1-1.16.328c.028-.182.3-.1.42-.155.256-.182.74-.465.694-.877.038-.156-.128-.265-.237-.329-.183-.082-.311.119-.348.246-.055.147.119.375-.092.412-.128-.293-.594-.028-.639-.394,0-.109.028-.246-.11-.283a.536.536,0,0,0-.438.128c.054.174.264.046.374.11.092.128.275.247.2.42a1.564,1.564,0,0,0-.658-.31,1.247,1.247,0,0,0-1.188-.548c-.173.2-.347.42-.237.7.082.064.027.174.046.265-.11.064-.2-.063-.219-.155.009-.3-.046-.557.128-.785a.931.931,0,0,1,.923-.137c.2.1.466.274.7.11.2-.064.5-.165.675.045.156.109.055.338.174.457.173-.219.338-.639.721-.566.247-.019.412.174.549.347.11.155-.046.484.219.484.082-.192.082-.457.311-.548a1.112,1.112,0,0,1,.548-.046.626.626,0,0,1,.311.658c-.293.192.3.328-.092.438m-4.367-.365a.286.286,0,0,1-.219-.219.325.325,0,0,1,.138-.328c.457,0,.676.565,1.115.611-.338.292-.621-.356-1.033-.063m-.52.914c-.082-.037-.264.018-.247-.128.329-.074.338-.485.685-.5a6.453,6.453,0,0,1,.831.329,2.556,2.556,0,0,0-1.27.3M77,73.171a12.067,12.067,0,0,1-.092,1.91l-.255-.137.018-3.262c1.964-.147,3.782-.174,5.591-.137.129.055.147.183.129.311-1.974.11-3.417.036-5.3.155-.2.32,0,.776-.091,1.16m-1.362-3.946c.092.091.329.118.265.283a1.145,1.145,0,0,1-.5-.155c-.045-.1-.118-.283-.027-.411.073-.209.32-.082.44-.028-.019.1-.22.147-.175.311M74.1,68.85l.137.137c.009.118-.009.255-.137.3-.155-.274-.146-.448,0-.438m-.128,1.014c-.192-.01-.394.027-.53-.11.384-.119.768-.164.986-.529a.641.641,0,0,0-.081-.5.426.426,0,0,0-.4-.064.7.7,0,0,0-.193.457c0,.119.129.155.156.265a.375.375,0,0,1-.374.082c.183-.128.036-.283.017-.392a.8.8,0,0,1,.2-.5.572.572,0,0,1,.567-.127.694.694,0,0,1,.466.392c.41-.146.566-.941,1.115-.484l.264.348c-.246.183-.209.009-.311-.064a.513.513,0,0,0-.347-.155c-.2.4-.8.4-.831.923a5.844,5.844,0,0,1,1.069.219c-.6.146-1.179-.091-1.772.247m-4.039,1.973c.018,1.27-.127,2.476-.109,3.654-.1.037-.348.065-.3-.128l.036-3.837c1.882-.11,3.892-.147,5.665-.238l.036.192a31.415,31.415,0,0,1-5.327.356m5.071,1.973c-.21.466-.7.2-1.06.3-.21-.265.347-.776-.219-.85-.2-.036-.357.156-.521.082a.9.9,0,0,1,.548-.328c.2-.037.329.082.485.154.292.211-.238.585.191.658.32.092.283-.356.576-.329a.276.276,0,0,1,0,.311m-.859,1.069c-.348-.027-.868.037-1.006-.392-.018-.3.293-.484.193-.786.52.21-.384,1.05.548,1.005.375-.238.9.237,1.124-.329.119.6-.494.393-.859.5m-2.129-1.69c.064-.256.384-.055.576-.082.073.073.219.018.255.128a2.456,2.456,0,0,1-.831-.046m.7,1.389c-.274.585-1.041.21-1.517.348.43-.256.942-.009,1.189-.393.091-.339-.457-.822.128-.923.054.328.392.594.2.968m-1.882-.9c-.009-.1-.11-.247.018-.329.32.1.412.475.722.576a.27.27,0,0,1-.11.219.836.836,0,0,1-.63-.466m-.356,1.781c-.082,0-.119.1-.219.063-.136-1.2-.082-2.138-.128-3.206a14.3,14.3,0,0,1,2.385-.192c.777-.082,1.681-.026,2.485-.045l.036.063c.037.156-.119.2-.219.265-1.416.019-2.805.137-4.231.156-.045,1.023-.091,1.974-.109,2.9m5.309-8.186c.037.163-.146.237-.265.264A20.451,20.451,0,0,1,73.4,67.6l-.11,2.568c-.036.082-.137.183-.237.11a17.206,17.206,0,0,1-.091-2.934,22.4,22.4,0,0,1,2.787-.137ZM72.376,66.7c1.023-.147,1.992,0,2.932-.11.2.028.495-.082.577.156a.223.223,0,0,1-.183.219l-2.869.045c-.147,1.261-.092,2.622-.11,3.765a.376.376,0,0,1-.328.027c-.009-1.343-.082-2.7-.019-4.1m5.738,2.32a.9.9,0,0,1,.576-.082,1.559,1.559,0,0,1,.412.438c-.074.1-.173,0-.256,0a.424.424,0,0,0-.466-.155c-.146.082-.256.328-.438.264a1.2,1.2,0,0,1,.173-.466m2.942-.694c-.228.475-.877.4-1.333.192-.165-.22-.147-.247-.092-.265a1.8,1.8,0,0,0,1.425.073m-3.508-.877c0,.657-.046,1.252,0,1.754l.264-.658c.293-.136.7-.1.85-.484-.009-.119.128-.156.2-.2a.663.663,0,0,1,.594.355c-.229.065-.375-.246-.613-.136-.21.3-.347.685-.813.593-.193.211-.2.5-.375.722-.227.118-.1.411-.328.484l-.2-2.65a46.146,46.146,0,0,1,5.2-.2.221.221,0,0,1,.046.31c-1.717.009-3.271-.046-4.824.11m3.49,1.663a1.276,1.276,0,0,1-1.251-.018c-.229-.074-.357-.292-.531-.439.037.393.54.393.284.694a1.307,1.307,0,0,1-.658-.5.6.6,0,0,1,.184-.521c.319-.1.428.319.675.411a1.162,1.162,0,0,0,.969.173l.612-.3a.677.677,0,0,1-.31.767c-.055-.091.119-.192.027-.265m1.288.091c-.2.119-.329-.1-.5.082a.331.331,0,0,1-.309.155c.091-.183.081-.439.291-.484.2.018.43.018.521.246m-.393-.64c-.036-.136.091-.356-.11-.42-.173.037-.346.329-.529.091a.51.51,0,0,1,.84-.155c.045.127.054.3.192.374a.286.286,0,0,1,.283.127c-.374.128-.539.082-.676-.018m-5.5-2.019.3-.082c1.983-.082,3.81-.128,5.81-.137l.11.064a.344.344,0,0,1,.047.311c-2.01.055-3.938.1-5.857.174-.082,1.178-.055,2.348-.064,3.444-.064.119-.2.046-.283.018.019-1.379-.21-2.55-.063-3.792m2.384-8.771c.777-.21,1.663.046,2.458-.128.073-.31.356-.429.594-.594.192.01.41.028.484.237.028.191.128.439,0,.622-.393.173-.43.566-.484.913-.247.165-.512.064-.814.092-.155.055-.311-.018-.456-.018.073-.165-.2-.009-.11-.219a.818.818,0,0,0,.411-.292.315.315,0,0,0-.374-.174c-.22.11-.11.457-.173.64-.128.082-.348.027-.484.046-.1-.037-.119-.147-.11-.247.119-.018.256.009.292-.156.082-.2-.173-.256-.264-.347-.1-.009-.128.165-.247.11-.091-.092-.183-.22-.329-.2-.1.082-.046.374-.257.247-.072-.165-.2-.329-.136-.53m-4.623-2.851c-.3-.393.146-.749.347-1.069.238-.037.174.246.311.347,1.27,1.6,3.344,1.324,5.016,1.991a9.392,9.392,0,0,1-5.674-1.27m-.485-.484c-.109.219-.319.046-.483.073a1.166,1.166,0,0,1-.438-.2c.164-.329.091-.813.438-1,.293.008.483-.211.767-.22.11-.173.375-.073.421.082-.147.466-.694.758-.705,1.27m-1.1-.8c-.156.229-.411.027-.594,0-.182-.119-.383-.219-.393-.466.2-.274.183-.785.612-.831.128-.009.275-.009.328.11.018.146-.091.237-.082.374.229,0,.448-.265.584-.466.073-.018.192-.046.247.028a9.388,9.388,0,0,1-.7,1.252m-2.129-1.5c-.138-.329.356-.2.393-.5.019-.11.046-.256.183-.283.338-.092.3.438.612.347.147.438-.22.6-.329.877a1.288,1.288,0,0,1-.858-.439m-.347-.8c-.247.073-.457-.11-.612-.265-.074-.228.209-.21.283-.283a2.007,2.007,0,0,0,.877-.421c.1-.008.211.009.238.11-.1.393-.6.521-.786.859m-1.124-.97c-.037-.146.046-.32.2-.31A1,1,0,0,0,70,49.8a.146.146,0,0,1,.2.146c-.073.32-.421.42-.612.658a.674.674,0,0,1-.576-.238m-.657-1.407c-.11-.356.337-.255.511-.411a5.87,5.87,0,0,1,.9-.329l.046.065c-.074.53-.7.575-1.079.813-.11-.009-.319.046-.374-.137m-.064-2.01a.426.426,0,0,0,.155-.466c.219-.319.457-.073.484.156.055.256-.146.585.156.768-.283.228-.475.566-.768.5-.209-.264-.082-.713-.027-.96m-.567-2.129c.137-.219.43-.328.5-.612a.579.579,0,0,1,.156-.467.331.331,0,0,1,.329.311c-.119.329.374.785-.174.849-.273-.027-.648.174-.813-.082M67.4,42.893c.009-.458.247-.868.219-1.361.21-.183-.009-.631.392-.658a.374.374,0,0,0,.065-.376c-.1-.328-.42-.447-.658-.7a.551.551,0,0,1,.2-.456c.429.173.567-.284.85-.421l.073.11c-.009.43-.246.786-.155,1.234a4.237,4.237,0,0,1,.083,2.476c-.256.283-.713.21-1.069.155M79.3,49.617c.475-.183,1.133.073,1.517-.256-.3-.164-.8.064-.969-.292,1.251-.238,2.659-.347,3.6-1.27.274.036.438.347.521.576-.073.319-.42.355-.657.475a10.635,10.635,0,0,0-1.582.594l-.127.219a5.053,5.053,0,0,1,.092,1.27,1.816,1.816,0,0,1-1.188.045,1.019,1.019,0,0,1-.128-.612,1.7,1.7,0,0,0-1.078-.748m.063,2.987a7.8,7.8,0,0,1-3.225-.831.611.611,0,0,1-.283-.438c.018-.11.037-.238.137-.293.237.028.384.283.612.357a7.262,7.262,0,0,0,2.7.922c.063.074.156.192.063.283m.064-13.092c-.036-.073-.119-.128-.11-.219.6-.238,1.234.174,1.5-.439.045-.165-.037-.448.173-.484.4.064.63.512.767.831.046.484-.4.8-.547,1.233-.375.942.757,1.864-.046,2.7-.429-.119-.959.165-1.3-.155.028-.1.028-.237.155-.283.155.046.257-.073.329-.155a1.806,1.806,0,0,1,.265-.439c.328-.731-.348-1.407-.045-2.1-.292-.329-.823-.156-1.143-.484m.4,4.4c.036-.338.448-.246.694-.328.32.073.786-.092.9.311-.11.648-.731.055-1.142.173-.164.037-.429.056-.456-.155m.722,1.846a.871.871,0,0,1,.767.046l.083.173v1.333c-.009.119-.146.138-.238.156a4.1,4.1,0,0,1-1.3-.064c-.156-.11-.073-.311-.064-.484.52-.193.566-.741.749-1.161m.813-.375-1.252.027a.141.141,0,0,1-.045-.2.834.834,0,0,1,.593-.283c.156-.127.274-.338.438-.438a.413.413,0,0,1,.376.392.5.5,0,0,1-.11.5M84.5,47.279a1.315,1.315,0,0,0,.438-.4c.255.1.375.4.567.595-.037.337-.439.337-.612.612-.173.036-.32.209-.53.11a1.981,1.981,0,0,1-.547-.832c.2-.128.447-.028.685-.082m.785-.64c.42.2.539-.713.877-.2-.118.3-.164.776-.566.795-.11-.174-.412-.338-.311-.594m-.329-6.925c-.174-.339.192-.293.374-.357a10.243,10.243,0,0,0,1.489-.018l.138.173c-.028.439-.348.886-.073,1.316.274.375.018.886.219,1.3-.074.238.009.621-.284.694-.337-.118-.767-.082-1.05-.3a1.008,1.008,0,0,0,.046-.329c.192-.11.547.064.612-.264.018-.182.091-.521-.2-.53-.119-.018-.256-.009-.348-.11.01-.147.239-.147.348-.219-.082-.219-.283-.147-.439-.219-.594-.165-.337-.841-.831-1.133M87.2,43.3a.52.52,0,0,1-.064.42c-.366.246-.612-.283-.987-.247.219-.32.576-.064.768-.365.146-.018.2.091.283.192m-.457,1.189a4.229,4.229,0,0,1-.878-.394c.2-.384.485-.357.613-.292.146.1.339.174.411.357a.238.238,0,0,1-.146.329m-.357,1.379c-.329-.1-.776-.2-.877-.594.246-.128.648-.238.639-.594.228-.128.493.1.658.265-.073.338-.082.759-.421.923m-2.1,5.7.767-.612c.338-.054.357.338.5.521.127.4-.339.21-.484.374A11.376,11.376,0,0,1,82,53.016a3.523,3.523,0,0,0-.11,1.316c-.191.238-.584.073-.877.092-.1-.047-.228-.073-.283-.2-.109-.265.074-.695-.311-.8-.274-.146-.74-.082-.832-.439.493-.118,1.1.165,1.425-.247-.283-.128-.84.037-.832-.411,1.408-.155,2.915-.073,4.1-.749m1.38-.785c.127-.046.247.036.375.064.228-.137-.027-.732.3-.576.246.182.237.467.374.685a.245.245,0,0,1-.128.283c-.292-.091-.439.348-.7.128-.073-.192-.31-.347-.218-.584m.986-1.124a.261.261,0,0,1,.064-.3c.5.055.64.6.814.959.082.228-.192.256-.311.356-.21.065-.292-.191-.366-.311-.1-.256-.52-.374-.466-.658.1-.045.2.1.264-.045M88.2,48.485c.082-.028.219-.055.292.018a2.38,2.38,0,0,1,.475.375c0,.21-.2.356-.347.484-.329-.018-.348.466-.64.457-.191-.283-.411-.5-.612-.785.274-.2.768-.1.832-.548m.329-.9c.12-.064.283.027.4.091a1.316,1.316,0,0,1,.366.347.4.4,0,0,1-.192.42c-.266-.008-.43-.237-.685-.265-.156-.228.21-.338.11-.593m.923-.375.11.182c-.073.137-.146.339-.347.238-.247-.165-.448-.466-.749-.5.283-.338.676-.091.987.083m-.219-1.882c.311.1.694.183.831.5a2.385,2.385,0,0,1-.392.859c-.265-.1-.612-.065-.814-.283,0-.292.43-.155.53-.42.046-.128-.073-.21-.155-.265-.156-.064-.393.055-.5-.128.009-.247.329-.2.5-.265m-.549-5.747a.231.231,0,0,1,.219-.3,5.011,5.011,0,0,0,.987-.046c.22-.1.037-.338.174-.438a.537.537,0,0,1,.512.174c.374.419-.155.786-.265,1.16a1.639,1.639,0,0,1-.155.987c.164.521.457,1.16.155,1.709-.32.256-.722-.018-1.078.073a.181.181,0,0,1-.11-.265c.566-.237.219-.813.2-1.205-.028-.1-.165-.184-.11-.284.21-.091.475-.228.521-.512a.748.748,0,0,0-.5-.786c-.164-.118-.466-.009-.549-.265m1.627,4.935c-.119.219-.366.355-.484.529-.164-.1-.548-.045-.484-.311.293-.383.174-.959.594-1.27a.406.406,0,0,1,.393.238c.036.264.137.576-.018.814M83.449,55.474c.731.055,1.215-.484,1.864-.631.311-.41.914-.164,1.179-.639.264-.02.32.283.438.438A9.138,9.138,0,0,1,84.8,55.757a12.98,12.98,0,0,1-3.947.484,15.426,15.426,0,0,0,2.595-.768m3.527-1.928c.2.073.393.411.594.219.009-.1-.055-.183.019-.265a1.259,1.259,0,0,1,.657.595c-.009.356-.411.419-.631.593-.484-.091-.676-.639-.84-1.032-.019-.11.119-.165.2-.11m.942-.768c.228-.082.337.284.593.311L88.749,53c.073-.11.246-.073.328-.019.284.165.2.494.156.768-.091.2-.265.256-.439.365-.311.028-.347-.329-.521-.5a1.014,1.014,0,0,1-.356-.831m1.562-.548c.082-.192-.219-.366-.028-.548.3.009.466.274.594.5.046.219.192.457.091.685a1.474,1.474,0,0,1-.621.218c-.156-.292-.521-.5-.5-.858.146-.1.293.1.466,0m1.243-.922c-.028-.2-.292-.375-.174-.594a.983.983,0,0,1,.749.639,1.274,1.274,0,0,1,.046.329c-.119.155-.247-.119-.357.064a.567.567,0,0,1-.3.5c-.091.064-.164.082-.246.028-.092-.274-.375-.54-.393-.831.2-.229.539.246.677-.137m.246-1.27c.329.274,1.152-.311.987.419-.32.128-.146.8-.593.549a3.216,3.216,0,0,0-.659-.658c-.018-.164.174-.209.265-.31m.238-1.1c.211-.092.457-.083.658-.174-.055-.182-.32-.155-.283-.375.311-.219.63.1.9.238l.182.293c-.082.191-.119.438-.31.547-.375.293-.658-.164-.986-.246-.083-.082-.2-.174-.156-.283m1.736-1.709.3.375a.411.411,0,0,1,0,.41c-.183.165-.383.585-.676.329-.156-.165-.43-.2-.485-.439.092-.182.4-.063.421-.328,0-.329-.32-.275-.467-.5a1.118,1.118,0,0,1,.9.156m-.859-.94a3.6,3.6,0,0,0,1.033-.266c.182-.137.138-.667.5-.42l.155.173a1.132,1.132,0,0,1-.613,1.078c-.365-.018-.639-.247-.986-.283-.128-.036-.128-.192-.092-.283m.219-7.173c.512-.375,1.3.119,1.737-.421l.192.137c-.027.713-.448,1.27-.475,1.992a5.833,5.833,0,0,1,.329,1.471l-1.1.046c-.055-.054-.045-.128-.045-.2.155-.128.4-.164.457-.393.228-.447-.429-.657-.128-1.078a.44.44,0,0,0,.082-.329c-.329.073-.4-.264-.549-.457,0-.438-.693-.274-.5-.767m1.052,3.508c.21-.11.576-.192.7.064.018.155-.127.192-.219.2-.165-.083-.493.009-.484-.265m.657,1.508c-.191.255-.475-.009-.722-.019-.165-.11-.392-.046-.521-.219-.018-.3.357-.32.549-.456.2-.156.192-.531.549-.357l.146.174c.037.31.238.6,0,.877m-.173.986c-.247.119-.42-.1-.631-.146a1.043,1.043,0,0,1-.73-.22c-.037-.164.109-.2.2-.292.274.128.465-.147.748-.019l.3.175a.355.355,0,0,1,.11.5M82.417,60.252a.461.461,0,0,1,.5.265c.017.174.146.329.063.5-.5.054-1.151.137-1.507-.238-.265-.238-.732.018-.987-.22,0-.182.165-.283.3-.375.548-.11,1.115.311,1.626.064m-1.27,3.271c.164-.091.375-.082.548-.173.42.182.237.786.438,1.142l.082,1.179c-.118.274-.292-.055-.457-.045-.155-.3-.63-.174-.639-.521Zm-1.828-5c.146,0,.32.054.329.22-.3.228-.384.155-.411.064s-.046-.247.082-.284M80,63.807l-.109.922c-.193-.064-.494-.027-.531-.283.074-.283-.091-.63.284-.749.119-.028.329-.055.356.11m.832-1.1c-.092-.055-.21-.165-.128-.284a.282.282,0,0,0,.256-.2c-.512-.191-.2.384-.475.53-.21,0-.457.037-.53-.2.018-.183.3-.064.347-.283.074-.119-.11-.219-.191-.265-.475.018-.045.831-.594.731a.32.32,0,0,1-.392-.137.221.221,0,0,1,.045-.264c.1,0,.21.1.3,0,.138-.147.018-.375.028-.522a.216.216,0,0,0-.22-.091c-.072.063-.082.219-.218.155a1.729,1.729,0,0,1-.184-.658c1.352.018,2.659-.11,3.883.018a.286.286,0,0,1,.064.247c-.3.311-.21.813-.192,1.225a1.249,1.249,0,0,1-.548.136c-.238-.036-.53,0-.658-.2-.174.156-.384.074-.593.065m-.348.812c.138.018.374-.063.365.156a6.22,6.22,0,0,1,.027,1.6c-.063.082-.173.036-.247,0-.027-.3-.457-.448-.392-.786.018-.329-.064-.749.247-.969m2.494-.5a2.244,2.244,0,0,1,.658,1.051c.165.584.347,1.161.548,1.735l-1.489.111c-.238-.12-.256-.448-.329-.685-.147-.64-.156-1.325-.33-1.947.166-.357.63-.246.942-.264M74.743,50.494a.594.594,0,0,1-.2.311.637.637,0,0,1-.5-.311c-.11-.32.274-.292.42-.438a.919.919,0,0,1,.439-.283c.11.036.255.009.3.155a1.991,1.991,0,0,0-.456.567m-1.034-.721c-.172.027-.292-.119-.392-.22-.063-.145.1-.145.11-.264.164-.138.347-.439.63-.365L74.13,49a1,1,0,0,1-.421.768m-1.223-1.288c-.118-.046-.283,0-.328-.138.045-.219.319-.274.475-.411a.279.279,0,0,1,.265.147c-.055.192-.256.31-.411.4m-.731-.9c-.019-.43.5-.357.75-.329a.579.579,0,0,1-.33.419.273.273,0,0,1-.42-.091m-.8-4.1a.354.354,0,0,1-.073-.255,4.224,4.224,0,0,1,1.188-.11l.219.219c-.3.374-.9.2-1.334.146M70.859,39.6c-.073-.137-.3-.174-.238-.329.238-.174.594-.046.877-.11.228-.018.566-.192.722.064a4.408,4.408,0,0,0-.2,1.58A4.143,4.143,0,0,1,72,42.673a.776.776,0,0,1-.594.11.565.565,0,0,1,.064-.658c-.064-.329.165-.658-.045-.95-.3-.32-.676-.648-.521-1.134a.421.421,0,0,0-.046-.438M72.33,46.62c-.064.092.045.32-.156.3-.045-.138-.191-.339-.045-.457.063.045.2.036.2.155m.045-2.064c-.028.256.1.731-.328.64-.155.018-.229-.119-.292-.219.009-.256.191-.43.292-.64.164-.063.292.092.328.219m5.217,4.322c-.4-.274-1.042-.384-1.142-.969-.027-.21.191-.311.329-.41.2.072.22.347.393.5a3.869,3.869,0,0,0,1.864.878c-.392.457-.931.1-1.443,0M76.03,47.361c-.127-.266.211-.448.357-.658a.66.66,0,0,1,.813-.046c-.137.375-.594.348-.84.657-.1.037-.211.111-.33.047m-.52-.631c-.11-.274.183-.475.192-.749a.616.616,0,0,1,.968-.046c.092.357-.329.3-.5.439-.255.082-.374.466-.657.356m-1.3-3.618a2.056,2.056,0,0,1,1.535-.137c.046.064.1.146.046.219a2.846,2.846,0,0,1-1.379.091.463.463,0,0,1-.2-.173m-.393-3.554c-.009-.109-.009-.228.11-.265a7.215,7.215,0,0,1,1.663,0l.2-.064c.192,0,.438-.036.5.174-.063.5-.547.831-.611,1.334-.055.539.155,1.233-.265,1.644a1.114,1.114,0,0,1-.785.092.287.287,0,0,1-.092-.347c.165-.183.466-.174.595-.438a.809.809,0,0,0-.092-.621c-.228-.219-.613-.256-.722-.585-.046-.191.01-.42-.127-.575-.138-.092-.366-.147-.375-.348M74.98,44.6c-.018-.311.247-.3.439-.356.091.018.2.046.219.155-.063.3-.447.164-.658.2M92.349,70.96c-.037-.091-.01-.228-.11-.264-.951.017-1.846-.027-2.8-.046-.2.037-.128-.2-.266-.238a36.683,36.683,0,0,0-.018-4.239l-1.644-.019c-.759-.082-1.654-.1-2.44-.155-.586-.282-.63-.95-.9-1.444-.11-.2-.046-.548-.247-.876a1.448,1.448,0,0,0-.877-1.079,1.915,1.915,0,0,1-.173-1.142c.026-.292.374-.164.547-.283a1.5,1.5,0,0,0-.237-1.069c-.284-.228-.686-.475-.613-.923-.365-.2-.238-.731-.2-1.032.119-.3.529-.2.612-.53V56.46a16.6,16.6,0,0,0,3.837-1.224c.229-.119.495.054.722-.064a6.167,6.167,0,0,1,1.1-.813c.338-.219.922-.2.969-.722a.572.572,0,0,1,.5-.311c.137-.1.338-.21.393-.328.037-.091-.009-.192.046-.283.339-.283.439-.759.923-.768.2-.164.137-.438.238-.639a5.98,5.98,0,0,0,.658-1.033c.311-.429.156-1.078.731-1.38a.915.915,0,0,1,.475-.941c.082-.264-.138-.411-.064-.675.576-.421.292-1.106.466-1.691.11-.284.355-.594.128-.877-.147-.337.21-.521.238-.813.155-.338-.082-.612-.128-.923.41-.6-.128-1.188-.046-1.836-.045-.247-.265-.448-.155-.731a3.572,3.572,0,0,0,.484-1.928,2.2,2.2,0,0,0-1.032-.7c-.658-.129-1.18.42-1.554.858a1.982,1.982,0,0,0,.157,1.316,2.787,2.787,0,0,1,.127,1.772c-.173.676.447,1.306-.018,1.909.1.457-.292.823-.092,1.3a1.753,1.753,0,0,0-.374.941,1.288,1.288,0,0,1-.256,1.033c-.036.548-.539.914-.511,1.489-.512.512-.43,1.334-1.134,1.709-.511.164-.182.8-.621,1.032-.63.183-.951.813-1.49,1.224-.7.065-1.087.9-1.772.987a12.492,12.492,0,0,1-3.535,1.032c-.447-.163-.238-.7-.256-1.051a.438.438,0,0,1,.256-.283,5.963,5.963,0,0,0,2.768-1.033c.456.128.75-.264,1.1-.484.265-.147.594-.137.833-.347.091-.53.721-.548,1-.941.119-.493.685-.6.877-1.032.366-.293.4-.75.622-1.124a.761.761,0,0,1,.3-.74,3.664,3.664,0,0,1,.466-1.691c-.174-.63.283-1.059.283-1.644.045-.228-.173-.411-.064-.612a3.18,3.18,0,0,1,.147-1.142,12.449,12.449,0,0,1-.22-2.193,2.672,2.672,0,0,0,.53-1.581,1.291,1.291,0,0,0-1.1-.7,2.9,2.9,0,0,0-1.772.968c-.44.813.264,1.534.657,2.193.1.767-.393,1.416-.091,2.129a10.334,10.334,0,0,0-.2,1.709c-.055.21-.237.392-.147.639.074.43-.218.759-.4,1.115l-.036.238c.1.356-.338.475-.512.621-.329.265-.329.676-.566.988a3.666,3.666,0,0,0-1.535,1.315c-.969.311-1.846.868-2.833,1.161-.137.036-.4.119-.5-.064.019-.376-.227-.85.046-1.188l1.774-.749c.246-.146.63.055.7-.3.128-.365.585-.264.768-.594.173-.054.392.028.5-.155.156-.594.567-1.078.75-1.663.082-.219.311-.384.329-.64a7.818,7.818,0,0,0,.265-1.489c.128-.192.293-.4.192-.657-.32-.42-.046-.9.028-1.335a2.052,2.052,0,0,1-.11-.794c-.348-.457-.1-1.106.045-1.581-.1-.4.283-.923-.182-1.224a2.352,2.352,0,0,0-1.773-.548A7.691,7.691,0,0,0,84.125,38.9c0,.348-.11.622.092.924.447.392,1.142.794,1.132,1.462a1.589,1.589,0,0,0,.092,1.407c-.183.5.109,1.05-.394,1.425-.173.257.137.421.046.7-.366.539-.484,1.353-1.234,1.553-.365.8-1.252.813-1.946,1.051a.435.435,0,0,1-.138-.476c-.155-.383.147-.923-.173-1.251-.174-.22.119-.356.173-.53.1-.429-.273-.74-.191-1.16.329-.384-.165-.722,0-1.142.32-.521-.037-1.087-.183-1.58-.319-1.033,1.023-1.571.877-2.586a1.968,1.968,0,0,0-1.206-.85,2.98,2.98,0,0,0-2.448.631c-.2.2-.091.558-.091.814-.028.511.5.758.785,1.115.658.6-.109,1.279-.018,1.973-.037.3.255.549.091.814a1.021,1.021,0,0,0,.036,1.142,1.227,1.227,0,0,0-.128.814c.055.145.255.237.237.411-.375.411-.192,1.059-.329,1.691-.494.054-.849-.247-1.27-.376-.192-.146-.585-.109-.594-.438a.371.371,0,0,0-.329-.283c-.228-.046-.2-.319-.255-.5-.01-.3-.384-.356-.485-.593-.384.283-.931.174-1.36.356-.156-.027-.184-.21-.128-.329a1.194,1.194,0,0,1,.63-.4,1.3,1.3,0,0,1,.858.219.378.378,0,0,0-.091-.475c-.347-.155-.383-.549-.484-.859a.515.515,0,0,1,.247-.419c.091-.219-.155-.357-.219-.549a10.755,10.755,0,0,1,.484-2.385c.182-.429.693-.493.8-.941a1,1,0,0,0-.064-.767,3.448,3.448,0,0,0-3.773-.047,2.578,2.578,0,0,0,.549,2.037,5.566,5.566,0,0,1,.137,2.148c-.183.292.128.484.191.722a5.788,5.788,0,0,1,.2,1.535c.456.475.265,1.215.594,1.736.155.283.63.429.547.832.055.191.275.174.413.264A3.592,3.592,0,0,0,78.077,49.4c.4.236,1.134-.065,1.243.593a.748.748,0,0,1-.128.767,4.563,4.563,0,0,1-2.147-.676,1.458,1.458,0,0,1-.859-.466,1.584,1.584,0,0,1-.923-.676c-.63.054-.694-.676-.941-1.051-.392-.082-.438-.576-.785-.75-.073-.566-.713-.9-.749-1.489.3-.3-.083-.593-.174-.876a6.624,6.624,0,0,0-.156-1.408c-.054-.274-.256-.5-.237-.8a5.2,5.2,0,0,0,.046-2.129l.256-1.16c.073-.211.237-.376.2-.621-.046-.475-.621-.594-1.005-.722a2.4,2.4,0,0,0-2.047.658c-.082.256.055.475.11.7.074.539.521.923.64,1.444a2.348,2.348,0,0,0,.018,1.562c.438.695-.183,1.389.027,2.129.4.411.192,1.078.439,1.553.383.22.347.694.484,1.051-.128.576.621.776.566,1.315.42.182.576.631.75.987.174.4.594.475.877.768.156.84,1.087.731,1.508,1.38a1.154,1.154,0,0,1-.019-.612c.064-.412.521-.511.785-.767l.2.173a4.348,4.348,0,0,0-.393,1.061c-.055.245-.384.219-.484.219a11.892,11.892,0,0,0,4.011,1.461c.411.256.119.777.174,1.124-.155.264-.567.136-.812.11a11.761,11.761,0,0,1-3.7-1.38c-.138-.1-.367.018-.485-.138-.2-.337-.576-.429-.877-.612-.046-.492-.595-.429-.9-.612a4.2,4.2,0,0,0-.466-.832c-.384-.11-.539-.484-.722-.794-.63-.091-.329-.887-.922-1.069-.156-.147-.073-.411-.064-.594.036-.319-.383-.338-.438-.611a4.721,4.721,0,0,0-.785-2.065c-.11-.146-.011-.32.127-.42.173-.264-.11-.5-.238-.722-.219-.339.028-.712.037-1.069a4.258,4.258,0,0,1-.256-1.974,2.586,2.586,0,0,1-.137-1.718c.1-.392.5-.74.283-1.179a1.613,1.613,0,0,0-1.6-.438,2.107,2.107,0,0,0-.959.548.98.98,0,0,0,.219.85,2.211,2.211,0,0,1,.082,2.083,12.517,12.517,0,0,0,.11,1.846c.01.173-.191.292-.082.484a2.439,2.439,0,0,1,.255,1.535.548.548,0,0,1,.247.411c-.211.586.1,1.17.155,1.755a3.627,3.627,0,0,1,.411.594,1.555,1.555,0,0,0,.685,1.316c.311.63.274,1.443,1.051,1.845a5.092,5.092,0,0,0,.849,1.143,3.634,3.634,0,0,1,1.316,1.288,2.478,2.478,0,0,1,1.124.878c.338.192.8.118,1.033.547a5.92,5.92,0,0,0,1.681.813c.758.329,1.662.3,2.394.7L78,57.712l.247.045a1.4,1.4,0,0,1,.593,1.115c-.429.3-.037.969-.621,1.16-.3.247-.238.667-.219,1.015a.542.542,0,0,1,.484.156c.265.31.137.758.11,1.133-.786.41-1.032,1.233-1.4,1.909-.375.53-.283,1.4-1.014,1.627-1.059.21-2.164.128-3.262.237-.283.083-.639-.009-.9.11-.009,1.526-.081,3.061-.081,4.651-.978.045-1.847.091-2.851.128.092,1.589.009,3.143,0,4.632.046.127-.036.375.146.392l9.209.019,8.488.027,5.291-.046a.236.236,0,0,0,.192-.237Z" transform="translate(-46.438 -26.396)" fill="#bcbcbc"/>
          <path id="Path_7714" data-name="Path 7714" d="M142.027,156.221a1.408,1.408,0,0,1-1.033-.238c-.146-.273.2-.429.092-.684a1.018,1.018,0,0,0-.22.356.551.551,0,0,0,.092.5.9.9,0,0,0,1.069.064" transform="translate(-98.464 -108.568)" fill="#bcbcbc"/>
          <path id="Path_7715" data-name="Path 7715" d="M42.177,70.229c-.4-.457-1.032-.741-1.252-1.3h.092a5.254,5.254,0,0,0,1.489.9,1.149,1.149,0,0,1,.155.585.685.685,0,0,1-.484-.192M40.67,68.082a2.206,2.206,0,0,1-.156-1.975c.1-.347.549-.128.721-.438a.746.746,0,0,0,.092-.594.626.626,0,0,0-.42-.393.779.779,0,0,0-.7.238.837.837,0,0,0,.091.858l-.42.8a5.58,5.58,0,0,1-.612-2.412c.987-1.58,1.827-3.234,2.85-4.842a6.932,6.932,0,0,1-1.973,4.714,5.729,5.729,0,0,0,2.613-5,11.891,11.891,0,0,0-.137-1.909l-.219.439a14.122,14.122,0,0,0-2.6,4.01,5.008,5.008,0,0,1-.329.968c-.11-.054-.073-.164-.11-.247.156-.9-.017-1.954.567-2.695.1-.521.731-.119.858-.612a.782.782,0,0,0,0-.5.513.513,0,0,0-.594-.283c-.155.009-.283.183-.357.3-.146.256.11.538-.036.767-.2.082-.347.429-.575.311a11.984,11.984,0,0,1,.091-2.256A46.189,46.189,0,0,0,41.8,53.124c.182-.009.11.2.155.3a6.293,6.293,0,0,1-1.882,4.166,3.693,3.693,0,0,0,1.837-1.973,12.31,12.31,0,0,0,.7-4.934c-.045.11-.192.174-.192.292-1.279,1.544-2.7,3.033-3.161,4.824a6.026,6.026,0,0,1,.457-2.878c.109-.511.693-.155.95-.484a.835.835,0,0,0,.128-.566c-.064-.265-.356-.375-.594-.421a.662.662,0,0,0-.484.311,1.808,1.808,0,0,0,0,.7l-.521.375a4.131,4.131,0,0,1,.11-2.193c.968-1.334,1.681-2.769,2.649-4.13a8.3,8.3,0,0,1-.219,1.845l-.484,1.079a7.882,7.882,0,0,1-1.206,1.6,1.1,1.1,0,0,1,.246-.091,7.24,7.24,0,0,0,1.645-1.865c.877-1.461.7-3.307.612-5.089l-.2.419a14.554,14.554,0,0,0-2.3,3.2,6.5,6.5,0,0,1-.722,1.534,4.823,4.823,0,0,1,.356-2.385c.055-.611.823-.3.9-.9.082-.21-.055-.392-.2-.548a.61.61,0,0,0-.657,0,.736.736,0,0,0-.147.767c.054.228-.155.429-.375.512l-.064-1.316c-.027-.676.484-1.124.694-1.69.777-1.078,1.28-2.275,1.956-3.4a6.594,6.594,0,0,1-1.691,4.541,6.172,6.172,0,0,0,2.458-5.043,9.173,9.173,0,0,1,.046-1.143c-.1-.255.008-.6-.092-.831a.9.9,0,0,0-.192.412,9.9,9.9,0,0,0-3.005,4.87,7.166,7.166,0,0,1,0-1.928c.256-.429.247-1.252.923-1.234.255-.109.219-.392.283-.612a.7.7,0,0,0-.329-.411c-.237,0-.576-.045-.7.238a.541.541,0,0,0,.091.658c.073.219-.21.347-.485.484a10.9,10.9,0,0,1,.083-1.819c1.014-1.516,1.809-3.124,2.833-4.678a6.92,6.92,0,0,1-1.691,4.458A5.9,5.9,0,0,0,42.6,34.313a12.426,12.426,0,0,0,.082-2.96c-.146.246-.338.484-.475.739-.986,1.2-2.293,2.184-2.568,3.682a2.8,2.8,0,0,1-.374.987,3.8,3.8,0,0,1,.658-2.888c.173-.063.383-.036.5-.219.037-.182.219-.356.091-.548a.552.552,0,0,0-.484-.329.5.5,0,0,0-.394.238.676.676,0,0,0,.065.7c-.092.138-.119.3-.283.412-.091.073-.2-.009-.219-.11a5.94,5.94,0,0,1,.018-1.507c1.023-1.535,1.946-3.107,2.878-4.715a9.317,9.317,0,0,1-.329,2.083A6.956,6.956,0,0,1,40.6,31.965a6.042,6.042,0,0,0,1.563-1.754c.685-1.28.512-2.887.521-4.414a2.885,2.885,0,0,1-.631.795,7.428,7.428,0,0,0-2.915,5.062,24.147,24.147,0,0,1-.2-2.43,54.845,54.845,0,0,1,.128-6.579,10.692,10.692,0,0,1,.749,5.262,18.512,18.512,0,0,0,.457-2.476c.145-1.736-.932-2.97-1.289-4.495-.283,1.077-.9,2.028-1.252,3.088a4.714,4.714,0,0,0,.2,3.088,11.107,11.107,0,0,1,.785,5.153c-.485-.22-.631-.74-.988-1.1-.063-.074-.063-.21-.155-.238a8.025,8.025,0,0,1-1.6-3.4,8.793,8.793,0,0,1,2.393,2.915c.018-.366-.2-.64-.246-.987a5.858,5.858,0,0,0-1.032-1.617c-.439-.786-1.462-1.059-1.836-1.936a16.593,16.593,0,0,0,.173,3.161,5.2,5.2,0,0,0,2.54,3.289,2,2,0,0,1,.8.484,4.872,4.872,0,0,1-.045,1.443c-.22-.055-.266-.3-.439-.439-.018-.219.137-.539-.045-.74a.709.709,0,0,0-.457-.182c-.146.073-.366.119-.393.311a.64.64,0,0,0,.109.612c.165.137.32.11.549.11,1,1.088.712,2.8.657,4.386a5.785,5.785,0,0,1-.9-1.032,12.77,12.77,0,0,1-1.882-3.7,5.562,5.562,0,0,1,2.431,3.116,4.912,4.912,0,0,0-.484-1.581c-.475-1.362-1.919-2.092-2.632-3.317l.046,1.717a5.9,5.9,0,0,0,2.366,4.56c.338.292.868.3,1.078.722-.074.4.054.859-.019,1.3-.155.064-.292-.155-.421-.265a.848.848,0,0,1,.065-.393.5.5,0,0,0-.155-.549c-.174-.064-.375-.21-.567-.073a.611.611,0,0,0-.311.685c.164.52.878.283,1.015.877.547,1.2.31,2.677.265,4.167a13.336,13.336,0,0,1-2.705-4.587c.019-.146-.228-.329-.018-.41a6.2,6.2,0,0,1,2.366,3.261,4.126,4.126,0,0,0-.283-1.38c-.32-1.452-1.91-2.365-2.677-3.6a15.617,15.617,0,0,0-.019,2.768,5.342,5.342,0,0,0,2.6,4.01c.3.193.667.247.9.53a14.836,14.836,0,0,1,.018,1.709c-.265-.119-.338-.43-.5-.64a.719.719,0,0,0,.091-.612.489.489,0,0,0-.484-.329.5.5,0,0,0-.465.238.814.814,0,0,0-.019.53.574.574,0,0,0,.566.329c1.06,1.133.713,2.732.686,4.367a10.3,10.3,0,0,1-2.742-4.9,7.52,7.52,0,0,1,2.476,3.582,1.772,1.772,0,0,0-.155-.731,7.645,7.645,0,0,0-2.522-4.056c-.173-.164-.173-.448-.393-.567A5.631,5.631,0,0,0,35.3,45.2a6.006,6.006,0,0,0,3.216,6.14,5.72,5.72,0,0,1,.138,1.316c.008.092.008.256-.138.2a.772.772,0,0,1-.3-.877.671.671,0,0,0-.42-.439.548.548,0,0,0-.567.156.713.713,0,0,0-.091.566.743.743,0,0,0,.686.393,1.927,1.927,0,0,1,.676,1.014c.174,1.161.109,2.166.22,3.353-.019.1-.1.237-.22.175a7.7,7.7,0,0,1-2.037-2.824,8.232,8.232,0,0,1-.594-1.891,7.835,7.835,0,0,1,2.43,3.536l-.128-.968c-.283-1.563-1.471-2.732-2.614-3.9-.1-.119-.137-.292-.237-.375a11.679,11.679,0,0,0,.31,4.056,5.069,5.069,0,0,0,2.934,3.052.959.959,0,0,1,.109.676,2.4,2.4,0,0,1-.065.859c-.21.037-.383-.146-.547-.266-.018-.218.128-.439.046-.685a.688.688,0,0,0-.42-.328c-.229-.1-.411.091-.567.182a.634.634,0,0,0-.027.585c.1.283.42.311.658.374.393.357.886.786.877,1.361L38.6,63.805a1.019,1.019,0,0,1-.419-.311,13.291,13.291,0,0,1-2.339-3.965v-.22a8.546,8.546,0,0,1,1.379,1.27,7.868,7.868,0,0,1,1.005,1.945,11.785,11.785,0,0,0-.191-1.205c-.238-1.388-1.535-2.211-2.394-3.307-.183-.119-.2-.4-.374-.485a11.526,11.526,0,0,0-.082,1.691,5.446,5.446,0,0,0,1.946,4.258,7.737,7.737,0,0,0,1.581.986L39,66.52c-.3-.01-.484-.3-.722-.458-.109-.192.119-.337.129-.529a.852.852,0,0,0-.238-.548.782.782,0,0,0-.549-.128.506.506,0,0,0-.375.328.708.708,0,0,0,.092.631.577.577,0,0,0,.5.219,19.688,19.688,0,0,1,1.581,1.672,7.463,7.463,0,0,0,3.006,3.152c.329.146.594.476.96.53a17.7,17.7,0,0,0-.631-1.928,3.82,3.82,0,0,1-2.083-1.379" transform="translate(-24.6 -14.637)" fill="#bcbcbc"/>
          <path id="Path_7716" data-name="Path 7716" d="M165.046,69.7a3.567,3.567,0,0,1-.813.5c-.064-.666.75-.74,1.116-1.115a7.49,7.49,0,0,1,.813-.658c-.184.557-.713.821-1.116,1.27m5.455-43a7.023,7.023,0,0,0-2.1,4.231c-.046.082.009.237-.128.237a6.4,6.4,0,0,1-.183-1.425c.073-2.4-.21-4.678-.018-7.035a7.643,7.643,0,0,1,.786,4.842,5.468,5.468,0,0,0,.329-3.024,13.813,13.813,0,0,0-1.335-3.747l-.128.238a17.433,17.433,0,0,1-.813,2.585,5.258,5.258,0,0,0,.5,4.166c.521,1.17.284,2.7.375,3.993-.054.082.027.292-.155.247a19.376,19.376,0,0,1-2.943-4.586.236.236,0,0,1,0-.284,9.087,9.087,0,0,1,2.741,3.07c-.256-1.845-1.781-3.07-3.134-4.321-.1-.137-.128-.329-.283-.375a7.114,7.114,0,0,0,2.522,6.3c.357.274.777.42,1.1.722a4.355,4.355,0,0,1-.045,1.709c-.385-.165-.22-.548-.266-.85-.063-.155-.146-.374-.346-.393a.531.531,0,0,0-.457.064.558.558,0,0,0,.475.988c1.005.913.557,2.5.53,3.9a12.705,12.705,0,0,1-2.869-4.805,8.939,8.939,0,0,1,2.65,3.116c-.374-1.891-2.2-3.152-3.181-4.761a9.372,9.372,0,0,0,.02,1.891,6.189,6.189,0,0,0,1.955,4.166c.447.476,1.05.576,1.517,1.005l-.11,1.644c-.109-.246-.622-.411-.33-.739a.576.576,0,0,0-.155-.548.555.555,0,0,0-.549-.138.639.639,0,0,0-.329.612c.055.4.539.4.813.512.913,1.088.521,2.806.584,4.167l-.236.11a10.971,10.971,0,0,1-1.627-2.284c-.11-.137-.036-.348-.219-.457a11.428,11.428,0,0,1-.831-2.175,9.849,9.849,0,0,1,1.891,2.147c.228.265.283.676.567.859a4.041,4.041,0,0,0-.5-1.38c-.457-1.362-2-2.2-2.5-3.536a15.22,15.22,0,0,0-.064,1.69,5.822,5.822,0,0,0,2.568,5.2c.292.228.84.128.923.594a9.087,9.087,0,0,1-.028,1.928.549.549,0,0,1-.284-.2c-.456-.356-.026-.858-.282-1.27a.706.706,0,0,0-.594-.238c-.183.046-.3.265-.374.438a.611.611,0,0,0,.173.612c.538-.091.758.448.987.786.64,1.013.347,2.384.265,3.682a13.906,13.906,0,0,1-1.535-2.147c-.4-.777-.868-1.517-1.206-2.321-.045-.091-.082-.265.027-.329.539.512,1.023.977,1.508,1.535a9.953,9.953,0,0,1,.941,1.755,5.329,5.329,0,0,0-.475-1.453c-.494-1.353-1.956-2.321-2.55-3.618a4.933,4.933,0,0,0-.045.968,6.062,6.062,0,0,0,3.335,6.122,5.812,5.812,0,0,1,.091,1.991c-.237-.055-.329-.32-.529-.457-.193-.192-.1-.456,0-.657a.62.62,0,0,0-.219-.484.562.562,0,0,0-.522-.11c-.137.073-.338.173-.355.347a.679.679,0,0,0,.219.686c.549-.064.694.529.987.849.667,1.032.467,2.357.375,3.791a14.124,14.124,0,0,1-2.868-4.185c-.037-.1-.137-.246,0-.329a9.423,9.423,0,0,1,2.522,2.586,2.7,2.7,0,0,0-.329-.768c-.649-1.279-1.983-2.265-2.741-3.462a7.606,7.606,0,0,0,1.6,5.482c.539.557,1.224.832,1.773,1.316a7.111,7.111,0,0,1,0,1.864c-.165.019-.183-.173-.3-.237-.448-.32.183-.813-.246-1.143a.85.85,0,0,0-.741-.155c-.182.019-.31.219-.355.375a.645.645,0,0,0,.155.594.739.739,0,0,0,.639.173,2.212,2.212,0,0,1,.74,1.115,13.919,13.919,0,0,1-.046,3.537,20.058,20.058,0,0,1-2.74-4.322c-.009-.136-.156-.264-.037-.393.448.366.886.831,1.352,1.206a8.692,8.692,0,0,1,1.188,1.791,8.8,8.8,0,0,0-.238-.849c-.429-1.443-2.129-2.384-2.832-3.756a8.888,8.888,0,0,0,.676,4.258,8.417,8.417,0,0,0,2.612,2.741,3.748,3.748,0,0,1-.374,2.065c-.156-.028-.156-.229-.238-.329-.037-.329-.429-.612-.174-.95.091-.21-.055-.384-.182-.548a.757.757,0,0,0-.521-.128c-.173.091-.366.146-.438.347a.68.68,0,0,0,.155.658.837.837,0,0,0,.548.137,1.589,1.589,0,0,1,.348,1.4,4.482,4.482,0,0,1-2.614,2.413,15.511,15.511,0,0,0-.41,1.672,8.077,8.077,0,0,0,3.134-2.413,16.3,16.3,0,0,1,2.193-2.915l.549-.045a.952.952,0,0,0,.347-.439.69.69,0,0,0-.128-.547.762.762,0,0,0-.786-.092c-.238.092-.284.338-.311.548.274.457-.293.731-.548,1.051-.064.027-.174.055-.219-.019A13.128,13.128,0,0,0,167.915,64a11.31,11.31,0,0,1,1.233-2.083c.539-.776.858-1.663,1.443-2.367a7.521,7.521,0,0,1-1.773,4.623,5.671,5.671,0,0,0,2.3-3.59,18.837,18.837,0,0,0,.192-3.445c-.439,1.015-1.462,1.709-2.128,2.651a7.949,7.949,0,0,0-.8,1.672c-.137.3-.147.676-.4.849a6.061,6.061,0,0,1,.513-3c.118-.3.374-.2.63-.22.137-.082.31-.192.329-.356a.82.82,0,0,0-.155-.63.675.675,0,0,0-.548-.155.51.51,0,0,0-.366.411.851.851,0,0,1-.512,1.077l.109-2.284c.632-1.178,1.463-2.266,2.066-3.462.264-.4.447-.886.9-1.115a7.682,7.682,0,0,1-1.929,4.514,6.982,6.982,0,0,0,1.737-1.818,10.167,10.167,0,0,0,.767-4.76c-.8,1.489-2.567,2.585-3.051,4.211-.147.329-.119.722-.393.987-.02-1.143-.074-2.321.721-3.18.219-.091.521.018.658-.265a.673.673,0,0,0-.155-.74.726.726,0,0,0-.614-.091c-.428.237-.21.731-.173,1.078a.886.886,0,0,1-.639.475,13.68,13.68,0,0,1,.073-2.038c.941-1.6,1.81-3.234,2.805-4.824a6.9,6.9,0,0,1-1.452,4.3,5.2,5.2,0,0,0,1.954-3.444,15.068,15.068,0,0,0,.2-2.55.909.909,0,0,0,0-.567c-.886,1.407-2.384,2.6-2.878,4.185-.164.384-.183.849-.521,1.078a3.631,3.631,0,0,1,.74-2.961c.165-.027.348-.017.466-.174a.63.63,0,0,0,.128-.484c-.019-.2-.238-.283-.376-.392a.55.55,0,0,0-.611.192,1.137,1.137,0,0,0,.092.813l-.513.594a11.02,11.02,0,0,1-.017-2.256c1.188-1.553,1.992-3.289,3.052-4.934a6.984,6.984,0,0,1-1.864,4.842c.219-.064.384-.311.567-.411a6.237,6.237,0,0,0,1.818-4.431A11.046,11.046,0,0,0,171.6,37.4a2.209,2.209,0,0,0-.191.347c-.722.959-1.581,1.918-2.349,2.85a5.309,5.309,0,0,0-.612,1.452,2.487,2.487,0,0,1-.421,1.069c-.082-1.023-.145-2.448.686-3.262a.66.66,0,0,0,.548-.173c.173-.092.1-.321.147-.484a.591.591,0,0,0-.3-.376c-.246-.146-.448.055-.639.174a.721.721,0,0,0,0,.721.526.526,0,0,1-.486.311,15.28,15.28,0,0,1,.093-2.065c1.032-1.389,1.827-2.887,2.786-4.294a10.252,10.252,0,0,1-.466,2.239,11.611,11.611,0,0,1-1.205,2.055c1.928-1.589,2.366-3.938,2.348-6.359a4.73,4.73,0,0,1-.548.731,11.969,11.969,0,0,0-2.9,4.167c-.009-.841-.165-1.947.593-2.568.184-.055.4.018.53-.156a.821.821,0,0,0,.128-.639c-.036-.137-.192-.192-.3-.256a.519.519,0,0,0-.621.238.633.633,0,0,0,0,.484c.164.229-.083.339-.366.44a4.493,4.493,0,0,1,.193-1.892c1-1.581,1.891-3.2,2.915-4.751a6.553,6.553,0,0,1-.365,1.973,7.59,7.59,0,0,1-1.343,2.494,7.136,7.136,0,0,0,2.33-5.372,2.6,2.6,0,0,0-.073-1.142A8.4,8.4,0,0,1,170.5,26.7" transform="translate(-114.157 -14.53)" fill="#bcbcbc"/>
          <path id="Path_7717" data-name="Path 7717" d="M69.648,175.682a3.688,3.688,0,0,1-1.755.722c-.219-.878.831-.493,1.206-.832.174-.1.429-.147.485-.375a10.844,10.844,0,0,0,.109-2.11c-1.279-.065-2.5.028-3.746.028l.128-1.6a10.787,10.787,0,0,0-.174-1.781c.009-.384.685-.749.155-1.1-.183-.037-.612.027-.484-.284a1.513,1.513,0,0,1,.311-.5c.3.091.685-.118.877.174-.575,1.233-.055,2.8-.311,4.166,0,.138-.2.32,0,.42,1.225-.1,2.54-.091,3.746-.091-.146,1.152.348,2.394-.548,3.162m.877-3.911-3.655-.082a6,6,0,0,0-.073-1.051c.118-.9-.275-1.965.355-2.613-.036-.064.056-.128.083-.2a.243.243,0,0,0-.037-.329c-.6-.156-1.288.146-1.845-.174a7.367,7.367,0,0,0-.53,1.407c.192.247.557.155.987.329-.21.2-.484.329-.677.548a21.916,21.916,0,0,1,.11,3.9,28.1,28.1,0,0,1,3.819.019,3.908,3.908,0,0,1-.028,1.389c-.347.549-1.023.475-1.663.63l-.247,1.38a1.446,1.446,0,0,0,.357-.036,22.419,22.419,0,0,0,2.349-.923c1.023-.722.676-1.992.721-3.07-.008-.374.211-.8-.026-1.123" transform="translate(-45.318 -116.974)" fill="#bcbcbc"/>
          <path id="Path_7718" data-name="Path 7718" d="M154.651,183.636c-.119.018-.219.137-.347.064-.056-.32.146-.621.045-.968-.174-.174-.512.009-.64-.238a1.454,1.454,0,0,1,.283-.676l.831.146.109.183a13.335,13.335,0,0,0-.283,1.49m-.741-2.55c-.146-.045-.246-.246-.375-.283a9.629,9.629,0,0,0-.748,1.754c.1.448.712.119.987.375.026.521-.119,1.005-.128,1.49.456-.11.886-.292,1.334-.439a10.739,10.739,0,0,1,.283-1.663c.092-.31.366-.676.2-1.032-.448-.228-1.1,0-1.554-.2" transform="translate(-106.814 -126.399)" fill="#bcbcbc"/>
          <path id="Path_7719" data-name="Path 7719" d="M141.192,153.061a.316.316,0,0,0-.082-.237l-.11-.064c-.384-.136-.667.183-.878.411.256.018.385-.292.631-.3a.471.471,0,0,1,.439.192" transform="translate(-97.959 -106.771)" fill="#bcbcbc"/>
          <path id="Path_7720" data-name="Path 7720" d="M131.621,153.076c-.53.074-.119.759-.631.832-.256.082-.585.045-.8.182a1.49,1.49,0,0,0,.969-.109c.42-.065.082-.558.375-.731.274-.128.539.045.786.045-.22-.119-.412-.283-.7-.219" transform="translate(-91.019 -107.005)" fill="#bcbcbc"/>
          <path id="Path_7721" data-name="Path 7721" d="M134.934,156.714l.2-.028c.2-.027.3-.247.348-.411a.328.328,0,0,0-.128-.4c-.156.183.091.311.046.511-.1.183-.3.238-.466.329" transform="translate(-94.332 -108.97)" fill="#bcbcbc"/>
        </g>
      </g>
    </g>
    <g id="Group_13743" data-name="Group 13743" transform="translate(1327.744 9520.084)">
      <g id="Group_13739" data-name="Group 13739" transform="translate(0 0)" clip-path="url(#clip-path-2)">
        <path id="Path_7722" data-name="Path 7722" d="M11.166,3.12a7.715,7.715,0,0,1,.086,1.145,3.61,3.61,0,0,1-.143,1.117h-1Q9.219,6.67,8.818,7.357A9.7,9.7,0,0,0,8.16,8.7a23.356,23.356,0,0,1,2.305,2.233,3,3,0,0,1,.7,2,3.464,3.464,0,0,1-.057.515,2.738,2.738,0,0,1-.458.93,6.264,6.264,0,0,1-.83.873L3.693,7.736a2.614,2.614,0,0,0-1,1.575,3.271,3.271,0,0,0,.358,1.131q.272.5.959,1.532a5.834,5.834,0,0,0,.63.687l-.6,2.376H0l.229-1.432H1.346Q1.03,12.8.8,12.1a4.434,4.434,0,0,1-.229-1.389,3.63,3.63,0,0,1,.773-2.376q.344-.343.759-.715a2.638,2.638,0,0,1,.787-.515L1,4.931A2.709,2.709,0,0,1,.429,3.357a3.41,3.41,0,0,1,.057-.515A4.715,4.715,0,0,1,1.145,1.8,2.923,2.923,0,0,1,2,1.037L7.361,7.706q.485-1,.771-1.475a5.3,5.3,0,0,1,.629-.846c-.286-.076-.53-.143-.73-.2a2.12,2.12,0,0,1-.773-.544,2.493,2.493,0,0,1-.472-1.776A4.009,4.009,0,0,1,6.886,2a1.6,1.6,0,0,1,.444-.8A1.131,1.131,0,0,1,8.16.858.648.648,0,0,0,8.2,1.3c.067.143.139.282.215.415a2.82,2.82,0,0,0,1.432.444q1.145.158,1.317.959" transform="translate(0 -0.515)" fill="#0f1b2f"/>
        <path id="Path_7723" data-name="Path 7723" d="M41.172,2.537a5.767,5.767,0,0,1,.43,2.122,6.427,6.427,0,0,1-.716,2.9A10.008,10.008,0,0,1,39,10.164l-.83-.545q.6-.888.988-1.534a3.821,3.821,0,0,0,.5-1.276,5.177,5.177,0,0,0,.086-.774q0-.459-.215-.545A9.113,9.113,0,0,0,37.951,5.3a2.073,2.073,0,0,1-1.818-.932,3.417,3.417,0,0,1-.458-1.663,1.71,1.71,0,0,1,.028-.373,2.6,2.6,0,0,1,.157-.874,1.9,1.9,0,0,1,.515-.775,1.169,1.169,0,0,1,.816-.33,3.815,3.815,0,0,0,.057.8.6.6,0,0,0,.4.372,13.91,13.91,0,0,0,1.618.1,2.163,2.163,0,0,1,1.9.9" transform="translate(-21.388 -0.215)" fill="#0f1b2f"/>
        <path id="Path_7724" data-name="Path 7724" d="M71.767,2.642a2.805,2.805,0,0,1,.028.388v.36a6.642,6.642,0,0,1-.315,2.258q-.315.848-2.52,5.1l-2.319,4.142H59.284q-.544-1.6-.9-3.079t-.644-3.251A5.165,5.165,0,0,1,57.924,7.1q.186-.63.644-1.863a2.1,2.1,0,0,0-.644-.157,1.39,1.39,0,0,1-.9-.6,2.915,2.915,0,0,1-.4-1.734,2.947,2.947,0,0,1,.2-1.174,1.525,1.525,0,0,1,.487-.659,1.864,1.864,0,0,1,.659-.287,2.115,2.115,0,0,0,.2.952,1.472,1.472,0,0,0,1.06.347,1.877,1.877,0,0,1,1.059.26,1.737,1.737,0,0,1,.372,1.125q0,.26-.057.779a7.63,7.63,0,0,0-.058.779v.462h-.672a3.448,3.448,0,0,0-.462,1.012A4.287,4.287,0,0,0,59.255,7.5a5.716,5.716,0,0,0,.3,1.795,9.679,9.679,0,0,0,.787,1.766h1.288l2.09-5.812q-.562-.315-1.125-.658a1.6,1.6,0,0,1-.352-.744,4.891,4.891,0,0,1-.1-1.031V1.925a4.824,4.824,0,0,1,.358-.8.777.777,0,0,1,.5-.343h.459a3.648,3.648,0,0,0,.115.6.681.681,0,0,0,.43.458,4.7,4.7,0,0,1,1.263.144,1.246,1.246,0,0,1,.769.607v.721a6.436,6.436,0,0,1-.085,1q-.085.534-.169,1.025h-.67q-.39,0-.39.42l-1.708,5.425q.657,0,1.743-.06t1.286-.059a3.367,3.367,0,0,0,1.986-1.343,17.387,17.387,0,0,0,1.729-4.348,2.828,2.828,0,0,0-.544-.187,1.335,1.335,0,0,1-.658-.361.789.789,0,0,1-.53-.477,3.129,3.129,0,0,1-.272-.664,4,4,0,0,1-.086-.535q-.029-.289-.029-.694a2.852,2.852,0,0,1,.158-.982A1.363,1.363,0,0,1,68.36.774l.286-.115a.577.577,0,0,1,.315-.029.933.933,0,0,0,.344.95,6.22,6.22,0,0,0,1.217.187,1.273,1.273,0,0,1,1.245.877" transform="translate(-33.946 -0.372)" fill="#0f1b2f"/>
        <path id="Path_7725" data-name="Path 7725" d="M107.732,11.926l-.659,3.264H100.8l.777-3.75h4.033V8.77q0-1.063-.087-2.01-.262-.6-1.352-.674a2.748,2.748,0,0,1-1.511-.416,2.131,2.131,0,0,1-.64-.933,3.913,3.913,0,0,1-.218-1.364,4.686,4.686,0,0,1,.115-1.119,1.654,1.654,0,0,1,.472-.8,1.584,1.584,0,0,1,.816-.431q.114.4.172.7a.6.6,0,0,0,.386.445,5.87,5.87,0,0,0,1.718.143q1.389,0,1.589,1.091V6.788a24.019,24.019,0,0,0,.143,3.129,10.359,10.359,0,0,0,.515,2.01" transform="translate(-60.435 -0.61)" fill="#0f1b2f"/>
        <path id="Path_7726" data-name="Path 7726" d="M137.492,12.852a1.646,1.646,0,0,1-.243.529q-.129.158-1.131,1.016l-1.031.859V7.931a3.045,3.045,0,0,1,.278-1.23q.387-.744.553-1.116h-7.5a2.1,2.1,0,0,1-1.1-.3,2.31,2.31,0,0,1-.816-.845,4.352,4.352,0,0,1-.315-1.661,3.057,3.057,0,0,1,.573-1.918,1.808,1.808,0,0,1,.888-.343,2.154,2.154,0,0,0,.1.72.746.746,0,0,0,.415.426h7.817c.286.114.582.219.887.315a1.34,1.34,0,0,1,.529.644,2.618,2.618,0,0,1,.244,1.159,3.821,3.821,0,0,1-.244,1.416,14.93,14.93,0,0,1-.816,1.646,16.027,16.027,0,0,0,.344,3.219q.344,1.675.573,2.79m-8.79.566a1.084,1.084,0,0,1-.487.7q-.458.359-.859.675l-.659.459a14.339,14.339,0,0,1-.086-1.579q0-.746.047-1.45t.1-1.421V9.656a1.115,1.115,0,0,1,.311-.861l1.44-1.091q.367.115.367.287-.2.46-.372.919,0,2.412.2,4.508" transform="translate(-75.65 -0.311)" fill="#0f1b2f"/>
        <path id="Path_7727" data-name="Path 7727" d="M195.2,13.792a8.944,8.944,0,0,0-1.088.873q-.688.619-.916.788h-.143l.229-5.281V8.459a8.723,8.723,0,0,0-.1-1.4A2.61,2.61,0,0,0,192.77,6l-.513-.285h-2.195q-.8,0-1.141-.033a8.213,8.213,0,0,1-.941-.167,8.217,8.217,0,0,0-.841,1.188,3.849,3.849,0,0,0-.47,1.245,12.458,12.458,0,0,0,.386,1.575q.243.773.873,2.348l-.515,3.006H183.52l.6-3.608h2.062q-.515-1.279-.7-1.861a4.377,4.377,0,0,1-.186-1.338,3.263,3.263,0,0,1,.172-1.018,4.987,4.987,0,0,1,.7-.988,6.216,6.216,0,0,0,.558-.7,2.377,2.377,0,0,1-1.045-.215,1.781,1.781,0,0,1-.758-.787,2.938,2.938,0,0,1-.315-1.432,2.938,2.938,0,0,1,.684-1.976q.178-.114.43-.272A1.207,1.207,0,0,1,186.183.5a7,7,0,0,0,.1.737.606.606,0,0,0,.386.5h5.6a2.432,2.432,0,0,1,1.308.644,3.8,3.8,0,0,1,.911,1.36q.312,3.235.511,5.64t.2,4.409" transform="translate(-110.026 -0.3)" fill="#0f1b2f"/>
        <path id="Path_7728" data-name="Path 7728" d="M224.833,2.537a5.758,5.758,0,0,1,.429,2.122,6.432,6.432,0,0,1-.715,2.9,10.017,10.017,0,0,1-1.89,2.609l-.831-.545q.6-.888.988-1.534a3.813,3.813,0,0,0,.5-1.276,5.245,5.245,0,0,0,.086-.774q0-.459-.215-.545a9.112,9.112,0,0,0-1.575-.187,2.072,2.072,0,0,1-1.818-.932,3.413,3.413,0,0,1-.459-1.663,1.711,1.711,0,0,1,.028-.373,2.608,2.608,0,0,1,.158-.874,1.908,1.908,0,0,1,.515-.775,1.17,1.17,0,0,1,.816-.33,3.752,3.752,0,0,0,.058.8.6.6,0,0,0,.4.372,13.891,13.891,0,0,0,1.618.1,2.163,2.163,0,0,1,1.9.9" transform="translate(-131.499 -0.215)" fill="#0f1b2f"/>
        <path id="Path_7729" data-name="Path 7729" d="M251.235,10.486l-.744,3.923h-9.849l.859-3.923h7.186a4.87,4.87,0,0,0,.2-.849q.086-.532.2-1.195v-.95a4.917,4.917,0,0,0-.172-1.439,1.467,1.467,0,0,0-.8-.863,7.593,7.593,0,0,0-.974-.115q-.515-.029-1.2-.029h-2.52a4.032,4.032,0,0,1-1.36-.157,2.132,2.132,0,0,1-.816-.731,2.974,2.974,0,0,1-.429-1.778,3.028,3.028,0,0,1,.429-1.634A.992.992,0,0,1,241.687.3a3.76,3.76,0,0,1,.673-.3q.056.432.143.835a.627.627,0,0,0,.343.317h5.383a3.383,3.383,0,0,1,1.159.573,2.255,2.255,0,0,1,.759.988,6.837,6.837,0,0,1,.358,1.388,10.433,10.433,0,0,1,.129,1.661,15.508,15.508,0,0,1-.115,2.047q-.114.845-.486,2.677Z" transform="translate(-144.273 0)" fill="#0f1b2f"/>
      </g>
    </g>
  </g>
</svg>
